<svg id="Layer_1" data-name="Layer 1" xmlns="http://www.w3.org/2000/svg" xmlns:xlink="http://www.w3.org/1999/xlink" viewBox="0 0 66 66.01"><defs><style>.cls-1{fill:none;}.cls-2{clip-path:url(#clip-path);}.cls-3{fill:#2b6877;}.cls-4{fill:#ff9819;}.cls-5{fill:#ffc566;}.cls-6{fill:#fff;opacity:0.3;}.cls-7{fill:url(#linear-gradient);}.cls-8{fill:#d4a070;}.cls-9{fill:#f2d89b;}.cls-10{fill:#cf854d;opacity:0.5;}.cls-11,.cls-19{opacity:0.7;}.cls-12{fill:#ab6a3f;}.cls-13{fill:#9c552c;}.cls-14,.cls-15{fill:#661004;}.cls-14{opacity:0.4;}.cls-15{opacity:0.2;}.cls-16{fill:#261b18;}.cls-17{fill:#fae7bb;}.cls-18{fill:#bf6c3c;}.cls-19{fill:#f0ded1;}.cls-20{fill:#d47b48;}.cls-21{fill:#78231f;}.cls-22{fill:#fff7ea;}.cls-23{fill:#ecdcc4;}.cls-24{fill:#161110;}</style><clipPath id="clip-path" transform="translate(0.19 -0.07)"><circle class="cls-1" cx="32.83" cy="33.07" r="33"/></clipPath><linearGradient id="linear-gradient" x1="900.88" y1="52.8" x2="901.06" y2="55.71" gradientTransform="matrix(-1, 0, 0, 1, 934.83, 0)" gradientUnits="userSpaceOnUse"><stop offset="0" stop-color="#854326"/><stop offset="1" stop-color="#9c552c"/></linearGradient></defs><g class="cls-2"><rect class="cls-3" width="66" height="66"/><path class="cls-4" d="M28.09,54a12.8,12.8,0,0,0-8,12.06h5.46C25.12,62.33,29.51,53.46,28.09,54Z" transform="translate(0.19 -0.07)"/><path class="cls-4" d="M39.9,54a12.82,12.82,0,0,1,8,12.06H42.46C42.86,62.33,38.47,53.46,39.9,54Z" transform="translate(0.19 -0.07)"/><path class="cls-4" d="M39.74,53.69c-2.6-2.52-8.82-1.57-11.17,0-3.09,2.05-2.69,8-1.32,10.75.28.56.55,1.09.78,1.63H40.55L40.92,65C42.31,60.84,42.58,56.44,39.74,53.69Z" transform="translate(0.19 -0.07)"/><path class="cls-5" d="M29.09,55.09a2.19,2.19,0,0,1,.07-1.93c1.43-2.73,9.09-2.74,9.81.51a2.45,2.45,0,0,1-.31,1.67C36.53,59.27,30.71,59.14,29.09,55.09Z" transform="translate(0.19 -0.07)"/><path class="cls-6" d="M40.72,61.3c-.59,2.61-3.79,3.4-6.59,3.44-5.51.09-7.37-2.79-6.48-6,.24-.87,1.17-1.35,2.27-.13,1.64,1.84,7,1.8,9-.69C40,56.52,41.17,59.33,40.72,61.3Z" transform="translate(0.19 -0.07)"/><path class="cls-7" d="M38.05,52.58a4.12,4.12,0,0,0-8.24,0,3.72,3.72,0,0,0,.7,2.87,4.61,4.61,0,0,0,6.84,0A3.72,3.72,0,0,0,38.05,52.58Z" transform="translate(0.19 -0.07)"/><path class="cls-8" d="M30.5,41.71a12,12,0,0,0-3.06-7.51,5.35,5.35,0,0,0-2.88-1.62,6.87,6.87,0,0,0-4.71.57,12.82,12.82,0,0,0-4.14,3.46c-.91,1.18-2.42,2.31-2.79,3.8-.27,1.07.11,2.27,1.25,1.24a11.7,11.7,0,0,0-.45,3.49c0,1.33.66,2.38,1.82,1-.1,1.1-.43,5.85,1.51,3.38.22.88,0,2.3.66,3,.77.92,1.61-.26,1.94-.94.08.77.18,2,1.18,2.14s1.75-1.08,2-1.8c.28,1.94,1.5.59,2.21-.15.56,1.47,2.23,1.07,3.24.17C31.07,49.52,30.66,45,30.5,41.71Z" transform="translate(0.19 -0.07)"/><path class="cls-9" d="M10.52,44.76A1.14,1.14,0,0,0,11.61,44l.07-.22c1.07-3.29,3.07-9.42,16.11-8.9a1.15,1.15,0,0,0,.09-2.3C13.09,32,10.57,39.72,9.49,43l-.07.21a1.15,1.15,0,0,0,.74,1.46A1.12,1.12,0,0,0,10.52,44.76Z" transform="translate(0.19 -0.07)"/><path class="cls-9" d="M11.15,50A1.14,1.14,0,0,0,12.28,49c.1-.55,2.54-13.43,15.13-12.48a1.13,1.13,0,0,0,1.23-1.07,1.15,1.15,0,0,0-1.06-1.23C15.82,33.36,11,43.27,10,48.63A1.13,1.13,0,0,0,11,50Z" transform="translate(0.19 -0.07)"/><path class="cls-9" d="M13.06,52a1.16,1.16,0,0,0,1.1-.83c1.4-4.66,4.39-11.4,14.17-16a1.15,1.15,0,1,0-1-2.08c-8.08,3.78-13,9.32-15.4,17.41A1.16,1.16,0,0,0,12.72,52,1.33,1.33,0,0,0,13.06,52Z" transform="translate(0.19 -0.07)"/><path class="cls-9" d="M15.7,54.89a1.17,1.17,0,0,0,1.14-1C17.89,47.76,21,39.86,29.57,37.3a1.15,1.15,0,0,0,.78-1.43,1.17,1.17,0,0,0-1.44-.78C18.66,38.14,15.52,48,14.57,53.54a1.15,1.15,0,0,0,.94,1.33Z" transform="translate(0.19 -0.07)"/><path class="cls-9" d="M18.54,56.83a1.14,1.14,0,0,0,1.14-1c.81-6.47,2.88-14.27,11.87-17a1.15,1.15,0,1,0-.68-2.2c-10.37,3.2-12.65,12.35-13.47,19a1.14,1.14,0,0,0,1,1.28Z" transform="translate(0.19 -0.07)"/><path class="cls-9" d="M21.92,56a1.16,1.16,0,0,0,1.15-1.06c.34-4.22,1.91-11.65,8.51-14.09a1.15,1.15,0,0,0-.8-2.16c-7.8,2.88-9.62,11.3-10,16.06A1.15,1.15,0,0,0,21.82,56Z" transform="translate(0.19 -0.07)"/><path class="cls-9" d="M25.14,54.1A1.15,1.15,0,0,0,26.29,53c.16-3.66,1.38-8.54,6.28-11a1.15,1.15,0,1,0-1.05-2c-5.89,3-7.35,8.71-7.53,13a1.15,1.15,0,0,0,1.1,1.2Z" transform="translate(0.19 -0.07)"/><path class="cls-9" d="M28.29,52.94a1.15,1.15,0,0,0,1.15-1.09c.08-1.79.62-6.18,3.69-8.21a1.15,1.15,0,1,0-1.26-1.92c-3.82,2.52-4.61,7.36-4.74,10a1.15,1.15,0,0,0,1.1,1.2Z" transform="translate(0.19 -0.07)"/><path class="cls-10" d="M17.79,34.42c-2.62.78-3,4.59-2.07,7.48,1.32,3.94,4.1,4.84,5.47,3.38.49,2.35,4.24,7.06,7.13,6.68,2.25-.29,2.08-2.72,2.63-4.43,1.28-4-1.41-8-4.28-10.62-1.93-1.75-5.77-3.12-8.42-2.6Z" transform="translate(0.19 -0.07)"/><g class="cls-11"><path class="cls-12" d="M13.28,40.52a.38.38,0,0,0,.34-.2c1.05-1.94,3.28-4.15,5.51-4.61A.38.38,0,0,0,19,35c-2.46.5-4.9,2.89-6,5a.39.39,0,0,0,.15.52A.31.31,0,0,0,13.28,40.52Z" transform="translate(0.19 -0.07)"/></g><g class="cls-11"><path class="cls-12" d="M15,43.91a.37.37,0,0,0,.35-.23A10.73,10.73,0,0,1,19,39.19a.37.37,0,0,0,.14-.52.39.39,0,0,0-.53-.14,11.33,11.33,0,0,0-4,4.84.38.38,0,0,0,.19.51A.45.45,0,0,0,15,43.91Z" transform="translate(0.19 -0.07)"/></g><g class="cls-11"><path class="cls-12" d="M16,47.58a.38.38,0,0,0,.36-.27,15.45,15.45,0,0,1,2.32-4.4.38.38,0,0,0-.62-.44,16,16,0,0,0-2.43,4.61.39.39,0,0,0,.25.48Z" transform="translate(0.19 -0.07)"/></g><g class="cls-11"><path class="cls-12" d="M18.42,48.85a.4.4,0,0,0,.36-.23l.23-.56a18.91,18.91,0,0,1,2.27-4.32.38.38,0,0,0-.07-.54.39.39,0,0,0-.54.08,19.26,19.26,0,0,0-2.36,4.48l-.24.56a.39.39,0,0,0,.2.5A.4.4,0,0,0,18.42,48.85Z" transform="translate(0.19 -0.07)"/></g><g class="cls-11"><path class="cls-12" d="M20.94,51.05a.37.37,0,0,0,.37-.3,10.84,10.84,0,0,1,2-4.59.38.38,0,0,0,0-.54.39.39,0,0,0-.54.05,11.41,11.41,0,0,0-2.16,4.92.38.38,0,0,0,.3.45Z" transform="translate(0.19 -0.07)"/></g><g class="cls-11"><path class="cls-12" d="M24.07,51.43a.39.39,0,0,0,.39-.37,10,10,0,0,1,.33-2c.06-.29.13-.57.19-.86a.39.39,0,0,0-.76-.15c0,.28-.12.56-.18.84A11.28,11.28,0,0,0,23.69,51a.37.37,0,0,0,.37.39Z" transform="translate(0.19 -0.07)"/></g><g class="cls-11"><path class="cls-12" d="M26.64,52.48a.38.38,0,0,0,.38-.37,7.17,7.17,0,0,1,.32-2,.39.39,0,0,0-.25-.48.37.37,0,0,0-.48.24,7.58,7.58,0,0,0-.35,2.17.38.38,0,0,0,.37.4Z" transform="translate(0.19 -0.07)"/></g><path class="cls-13" d="M25.19,36.94c2.55-.51,5.12-1,7.68-1.4,4.21-.73,8.68,5.71,11.25,9.16s5.16-6,5.29-8.78c.16-3.39,1.28-8.94.6-12.71C46.72,4.89,22,7.34,18.71,20.13,17.47,25,16.93,31.51,19,36.33,20.14,38.85,23.12,37.35,25.19,36.94Z" transform="translate(0.19 -0.07)"/><path class="cls-13" d="M20.36,37.65c.47,7.77,7,16.73,14.75,16.69S49.66,43.41,49.19,33.87c-.5-10.38-2.3-19.2-15.54-18C22.07,16.84,19.74,27.28,20.36,37.65Z" transform="translate(0.19 -0.07)"/><path class="cls-13" d="M18.76,44.51c1.1.68,2.39.32,3-1.57.68-.95.07-4.74-.46-7.12-.43-1.93-1.48-3-3.31-2.65C14.22,33.92,16,42.79,18.76,44.51Z" transform="translate(0.19 -0.07)"/><path class="cls-14" d="M19.82,39.58c1.43-.76.36-3.75-.63-4.3-.81-.45-3,.09-2.1,1.81.64-1.49,1.49-.42,1.27.65-.15.72-.93.67-.23,1.66C18.51,39.94,19.37,39.82,19.82,39.58Z" transform="translate(0.19 -0.07)"/><path class="cls-15" d="M34.87,13.86c-9.33-.52-16.29,5.86-16.31,19.25a2.4,2.4,0,0,1,1.74.64,4.47,4.47,0,0,1,.86,2.06c.09.22.18.58.92.58a18.45,18.45,0,0,1-.47-5.64,21.14,21.14,0,0,1,.32-2.64c.12-.63.66-1.76.19-2.32.91-.43.53-1.7.4-2.43a2,2,0,0,0,2.13-1.87A1.87,1.87,0,0,0,26.54,21a2.44,2.44,0,0,0,4.66.18,1,1,0,0,0,1.07.38c-.11,2.1,4.61,2.35,4.45.32.81.19.78,1.41,1.75,1.71A2,2,0,0,0,41,22.52s0,0,0,0c.24.9,1.72.93,2.42.78a3.88,3.88,0,0,0,1.91-1.25,1.13,1.13,0,0,0,1.82.78c-.8.68.85,2.21,1,2.72C49.43,28.89,49.84,14.71,34.87,13.86Z" transform="translate(0.19 -0.07)"/><path class="cls-16" d="M21.1,42.08a1.7,1.7,0,0,1-1.26,2,1.86,1.86,0,0,1-.53-3.62A1.7,1.7,0,0,1,21.1,42.08Z" transform="translate(0.19 -0.07)"/><path class="cls-9" d="M50.26,34.93a1.17,1.17,0,0,0,1.14-1c.19-1.32,1.71-13.07-4.65-20.19-3.07-3.44-7.39-5.1-12.88-4.91-5,.17-9.08,1.89-12,5.1C16.5,19.87,16.65,29,16.82,31.7A1.2,1.2,0,0,0,18,32.82a1.11,1.11,0,0,0,1.1-1.13v-.14c-.16-2.44-.3-10.8,4.46-16.06,2.48-2.73,6-4.2,10.37-4.34C38.71,11,42.44,12.38,45,15.29c4.6,5.14,4.73,13.93,4.09,18.32a1.14,1.14,0,0,0,1,1.3Z" transform="translate(0.19 -0.07)"/><path class="cls-9" d="M39.3,22.86a1.15,1.15,0,0,0,1.05-.66c1.42-3,1.28-8.23-.34-12.38a1.15,1.15,0,0,0-2.15.84c1.58,4.05,1.39,8.47.4,10.56a1.15,1.15,0,0,0,.56,1.53A1,1,0,0,0,39.3,22.86Z" transform="translate(0.19 -0.07)"/><path class="cls-9" d="M43.37,22.69a1.14,1.14,0,0,0,.81-.34A10.94,10.94,0,0,0,47.5,13.9a1.15,1.15,0,0,0-2.3.13,8.69,8.69,0,0,1-2.64,6.69,1.15,1.15,0,0,0,.81,2Z" transform="translate(0.19 -0.07)"/><path class="cls-9" d="M23,22.41a1.15,1.15,0,0,0,.68-2.08,7,7,0,0,1-2.65-4,1.15,1.15,0,1,0-2.27.38,9.21,9.21,0,0,0,3.57,5.45A1.12,1.12,0,0,0,23,22.41Z" transform="translate(0.19 -0.07)"/><path class="cls-9" d="M37.18,20.77a1.15,1.15,0,0,0,1.15-1.06A21.64,21.64,0,0,0,36.26,9.1a1.15,1.15,0,1,0-2,1.08A19.34,19.34,0,0,1,36,19.53a1.17,1.17,0,0,0,1.06,1.24Z" transform="translate(0.19 -0.07)"/><path class="cls-9" d="M31.34,20.25a1.26,1.26,0,0,0,.28,0,1.15,1.15,0,0,0,.84-1.4c-.05-.18-1.15-4.56-2.68-8.69a1.15,1.15,0,0,0-2.16.8c1.48,4,2.6,8.41,2.61,8.45A1.15,1.15,0,0,0,31.34,20.25Z" transform="translate(0.19 -0.07)"/><path class="cls-9" d="M42.85,18.89a1.14,1.14,0,0,0,1.1-.82,12.44,12.44,0,0,0-.25-6.93,1.15,1.15,0,1,0-2.18.73,10.2,10.2,0,0,1,.22,5.54,1.16,1.16,0,0,0,.78,1.43A1.26,1.26,0,0,0,42.85,18.89Z" transform="translate(0.19 -0.07)"/><path class="cls-9" d="M25.06,20.4a1.15,1.15,0,0,0,.85-.37,1.16,1.16,0,0,0-.08-1.63,8.24,8.24,0,0,1-2.21-4.77,1.15,1.15,0,0,0-1.26-1,1.16,1.16,0,0,0-1,1.27,10.39,10.39,0,0,0,3,6.23A1.16,1.16,0,0,0,25.06,20.4Z" transform="translate(0.19 -0.07)"/><path class="cls-9" d="M34.41,22.53l.18,0a1.14,1.14,0,0,0,1-1.31c-.06-.42-.09-1-.12-1.61A22.19,22.19,0,0,0,32.79,9.4a1.15,1.15,0,0,0-2,1.1,19.7,19.7,0,0,1,2.37,9.21,15.74,15.74,0,0,0,.15,1.85A1.16,1.16,0,0,0,34.41,22.53Z" transform="translate(0.19 -0.07)"/><path class="cls-9" d="M29.3,22a1.14,1.14,0,0,0,.68-.23,1.15,1.15,0,0,0,.24-1.61,22.61,22.61,0,0,1-3.78-8.62,1.15,1.15,0,1,0-2.23.56,25.55,25.55,0,0,0,4.16,9.44A1.16,1.16,0,0,0,29.3,22Z" transform="translate(0.19 -0.07)"/><path class="cls-9" d="M47.31,22a1.18,1.18,0,0,0,.83-.35A8.77,8.77,0,0,0,50.28,18a1.14,1.14,0,0,0-.88-1.36,1.15,1.15,0,0,0-1.37.88A6.52,6.52,0,0,1,46.49,20a1.16,1.16,0,0,0,.82,2Z" transform="translate(0.19 -0.07)"/><path class="cls-9" d="M49,24a1.11,1.11,0,0,0,.63-.19l1.9-1.25a1.15,1.15,0,1,0-1.26-1.92l-1.9,1.25A1.15,1.15,0,0,0,49,24Z" transform="translate(0.19 -0.07)"/><path class="cls-9" d="M21.07,25.08A1.12,1.12,0,0,0,22,24.6,1.15,1.15,0,0,0,21.74,23a7.94,7.94,0,0,1-2.51-2.84,1.15,1.15,0,0,0-2.16.8,10,10,0,0,0,3.34,3.92A1.08,1.08,0,0,0,21.07,25.08Z" transform="translate(0.19 -0.07)"/><path class="cls-9" d="M50,26.49a1.07,1.07,0,0,0,.25,0l1.12-.25a1.15,1.15,0,0,0-.5-2.25l-1.12.25A1.15,1.15,0,0,0,50,26.49Z" transform="translate(0.19 -0.07)"/><path class="cls-9" d="M50.34,29.33l.21,0,.8-.15a1.16,1.16,0,0,0,.92-1.34,1.15,1.15,0,0,0-1.34-.92l-.8.14a1.16,1.16,0,0,0-.92,1.35A1.15,1.15,0,0,0,50.34,29.33Z" transform="translate(0.19 -0.07)"/><path class="cls-9" d="M50.46,32.31l.17,0,.34,0a1.14,1.14,0,0,0,1-1.3,1.16,1.16,0,0,0-1.31-1L50.3,30a1.16,1.16,0,0,0,.16,2.3Z" transform="translate(0.19 -0.07)"/><path class="cls-9" d="M50.63,35a1.15,1.15,0,0,0,.13-2.3l-.37,0a1.15,1.15,0,1,0-.26,2.29l.36,0Z" transform="translate(0.19 -0.07)"/><path class="cls-9" d="M20.55,27.93a1.15,1.15,0,0,0,.58-2.14l-3.55-2.06a1.15,1.15,0,1,0-1.15,2L20,27.78A1.19,1.19,0,0,0,20.55,27.93Z" transform="translate(0.19 -0.07)"/><path class="cls-9" d="M20,30.75a1.15,1.15,0,0,0,.51-2.18L17.44,27a1.15,1.15,0,0,0-1,2.06l3.08,1.54A1.11,1.11,0,0,0,20,30.75Z" transform="translate(0.19 -0.07)"/><path class="cls-9" d="M20.16,33.74A1.16,1.16,0,0,0,21.23,33a1.14,1.14,0,0,0-.64-1.49L17.7,30.38a1.14,1.14,0,0,0-1.49.64,1.17,1.17,0,0,0,.65,1.5l2.88,1.14A1.25,1.25,0,0,0,20.16,33.74Z" transform="translate(0.19 -0.07)"/><g class="cls-11"><path class="cls-12" d="M41.5,18.88a.38.38,0,0,0,.38-.29,12,12,0,0,0-.4-6.33.38.38,0,0,0-.5-.2.37.37,0,0,0-.2.5,11.34,11.34,0,0,1,.35,5.85.38.38,0,0,0,.29.46Z" transform="translate(0.19 -0.07)"/></g><g class="cls-11"><path class="cls-12" d="M43.66,18.76a.38.38,0,0,0,.36-.25c.24-.65.6-1.5.87-2.16l.21-.51a.37.37,0,0,0-.2-.5.39.39,0,0,0-.51.21l-.21.5c-.27.67-.63,1.53-.88,2.2a.37.37,0,0,0,.22.49A.34.34,0,0,0,43.66,18.76Z" transform="translate(0.19 -0.07)"/></g><g class="cls-11"><path class="cls-12" d="M46.41,20a.37.37,0,0,0,.35-.23c.11-.23.24-.47.37-.71s.32-.58.45-.88a.38.38,0,0,0-.2-.51.39.39,0,0,0-.5.2,9.06,9.06,0,0,1-.42.82c-.14.26-.28.51-.4.77a.37.37,0,0,0,.19.5A.32.32,0,0,0,46.41,20Z" transform="translate(0.19 -0.07)"/></g><g class="cls-11"><path class="cls-12" d="M48.31,22.17a.39.39,0,0,0,.26-.1,2.15,2.15,0,0,1,.78-.47.38.38,0,0,0,.23-.49.38.38,0,0,0-.49-.23,2.94,2.94,0,0,0-1,.63.38.38,0,0,0,0,.54A.4.4,0,0,0,48.31,22.17Z" transform="translate(0.19 -0.07)"/></g><g class="cls-11"><path class="cls-12" d="M38.38,17.55a.38.38,0,0,0,.38-.31,9.44,9.44,0,0,0-.94-5.91.38.38,0,1,0-.69.33A8.74,8.74,0,0,1,38,17.09a.38.38,0,0,0,.3.45Z" transform="translate(0.19 -0.07)"/></g><g class="cls-11"><path class="cls-12" d="M35.88,18.91l.12,0a.39.39,0,0,0,.24-.49,11.48,11.48,0,0,1-.43-2.82,8.59,8.59,0,0,0-1.12-4.38.4.4,0,0,0-.54-.1.38.38,0,0,0-.1.53,7.76,7.76,0,0,1,1,4,12.35,12.35,0,0,0,.47,3A.38.38,0,0,0,35.88,18.91Z" transform="translate(0.19 -0.07)"/></g><g class="cls-11"><path class="cls-12" d="M32.31,17.7h0a.38.38,0,0,0,.36-.41,13.34,13.34,0,0,0-.92-3.6c-.17-.49-.35-1-.49-1.44a.38.38,0,1,0-.73.22c.14.48.32,1,.5,1.48a12.55,12.55,0,0,1,.87,3.39A.39.39,0,0,0,32.31,17.7Z" transform="translate(0.19 -0.07)"/></g><g class="cls-11"><path class="cls-12" d="M29,18.43a.4.4,0,0,0,.25-.09.39.39,0,0,0,0-.54A8,8,0,0,1,27.86,13a.38.38,0,0,0-.38-.38h0a.37.37,0,0,0-.38.39,8.68,8.68,0,0,0,1.62,5.27A.37.37,0,0,0,29,18.43Z" transform="translate(0.19 -0.07)"/></g><g class="cls-11"><path class="cls-12" d="M25.66,18.79a.36.36,0,0,0,.28-.12.39.39,0,0,0,0-.55,8.64,8.64,0,0,1-1.73-3.4.37.37,0,0,0-.48-.25.39.39,0,0,0-.25.48,9,9,0,0,0,1.93,3.73A.4.4,0,0,0,25.66,18.79Z" transform="translate(0.19 -0.07)"/></g><g class="cls-11"><path class="cls-12" d="M23.18,19.7a.37.37,0,0,0,.32-.18.39.39,0,0,0-.12-.53,3.93,3.93,0,0,1-1.12-1.31c-.15-.23-.29-.46-.45-.67a.39.39,0,0,0-.62.46,6.9,6.9,0,0,1,.42.63A4.79,4.79,0,0,0,23,19.65.54.54,0,0,0,23.18,19.7Z" transform="translate(0.19 -0.07)"/></g><g class="cls-11"><path class="cls-12" d="M21.47,22.81a.41.41,0,0,0,.3-.14.39.39,0,0,0-.05-.54,3.56,3.56,0,0,1-1.21-1.53.39.39,0,0,0-.73.25,4.35,4.35,0,0,0,1.45,1.87A.38.38,0,0,0,21.47,22.81Z" transform="translate(0.19 -0.07)"/></g><g class="cls-11"><path class="cls-12" d="M20.55,25.06a.38.38,0,0,0,.36-.26.38.38,0,0,0-.23-.49,4.77,4.77,0,0,1-1.39-.89.38.38,0,0,0-.49.59,5.65,5.65,0,0,0,1.63,1Z" transform="translate(0.19 -0.07)"/></g><g class="cls-11"><path class="cls-12" d="M19.06,28.24a.35.35,0,0,0,.27-.11.38.38,0,0,0,0-.54,5.46,5.46,0,0,0-.92-.76.38.38,0,1,0-.42.64,4.47,4.47,0,0,1,.79.66A.4.4,0,0,0,19.06,28.24Z" transform="translate(0.19 -0.07)"/></g><g class="cls-11"><path class="cls-12" d="M19.59,31.08a.38.38,0,0,0,.22-.7,3.29,3.29,0,0,0-1.39-.56.38.38,0,1,0-.12.75,2.7,2.7,0,0,1,1.07.44A.38.38,0,0,0,19.59,31.08Z" transform="translate(0.19 -0.07)"/></g><path class="cls-17" d="M37.29,18.38h0a1.17,1.17,0,0,0,1.13-1.18,19.12,19.12,0,0,0-1.34-5.5c-.29-.84-.56-1.64-.75-2.35A1.14,1.14,0,0,0,35,8.53a1.16,1.16,0,0,0-.82,1.41c.21.79.5,1.63.81,2.51a17.53,17.53,0,0,1,1.2,4.81A1.16,1.16,0,0,0,37.29,18.38Z" transform="translate(0.19 -0.07)"/><path class="cls-17" d="M40,20.11a1,1,0,0,0,1-.84,19.1,19.1,0,0,0-1.2-9.5,1,1,0,1,0-1.73.94,17.85,17.85,0,0,1,1,8.27,1,1,0,0,0,.83,1.12Z" transform="translate(0.19 -0.07)"/><path class="cls-17" d="M43,17.8A1,1,0,0,0,44,17c.12-.83.68-5.05-.25-6.16a1,1,0,0,0-1.39-.13A1,1,0,0,0,42.21,12a16.33,16.33,0,0,1-.14,4.69,1,1,0,0,0,.83,1.11Z" transform="translate(0.19 -0.07)"/><path class="cls-17" d="M44.47,21.24a1,1,0,0,0,.8-.41,13,13,0,0,0,2.08-6.53,1,1,0,0,0-1-1,1,1,0,0,0-1,1,10.87,10.87,0,0,1-1.7,5.41,1,1,0,0,0,.22,1.38A1.05,1.05,0,0,0,44.47,21.24Z" transform="translate(0.19 -0.07)"/><path class="cls-17" d="M48.12,20.85a1,1,0,0,0,.64-.24,4.76,4.76,0,0,0,1.14-1.69,1.91,1.91,0,0,1,.17-.35A1,1,0,0,0,50,17.2a1,1,0,0,0-1.4.1,3.14,3.14,0,0,0-.45.79,3.22,3.22,0,0,1-.64,1,1,1,0,0,0-.1,1.39A1,1,0,0,0,48.12,20.85Z" transform="translate(0.19 -0.07)"/><path class="cls-17" d="M49.61,23.39a1,1,0,0,0,.55-.16l.3-.18c.52-.31.68-.41.8-.5A1,1,0,0,0,50,21l-.56.34-.4.24A1,1,0,0,0,48.79,23,1,1,0,0,0,49.61,23.39Z" transform="translate(0.19 -0.07)"/><path class="cls-17" d="M34.19,19.33h.1a1,1,0,0,0,.89-1.08,40.53,40.53,0,0,0-2.5-8.69,1,1,0,0,0-1.81.79,38.12,38.12,0,0,1,2.34,8.09A1,1,0,0,0,34.19,19.33Z" transform="translate(0.19 -0.07)"/><path class="cls-17" d="M30.68,17.65a.89.89,0,0,0,.36-.07,1,1,0,0,0,.56-1.27c-.15-.38-.39-1.24-.65-2.15A21.87,21.87,0,0,0,29.55,10a1,1,0,1,0-1.7,1,25,25,0,0,1,1.2,3.67c.29,1,.53,1.86.72,2.33A1,1,0,0,0,30.68,17.65Z" transform="translate(0.19 -0.07)"/><path class="cls-17" d="M28.2,20.16a1,1,0,0,0,.63-.23A1,1,0,0,0,29,18.54,17.88,17.88,0,0,1,27.16,14a15.36,15.36,0,0,0-1-2.73,1,1,0,0,0-1.7,1,16.81,16.81,0,0,1,.8,2.31c.6,1.95,1.29,4.16,2.18,5.22A1,1,0,0,0,28.2,20.16Z" transform="translate(0.19 -0.07)"/><path class="cls-17" d="M24,19.37a1,1,0,0,0,.65-.25,1,1,0,0,0,.09-1.39,11.6,11.6,0,0,1-1.32-4,1,1,0,0,0-1-1h0a1,1,0,0,0-1,1A12.51,12.51,0,0,0,23.3,19,1,1,0,0,0,24,19.37Z" transform="translate(0.19 -0.07)"/><path class="cls-17" d="M22.13,21.54a1,1,0,0,0,.73-1.65,21.52,21.52,0,0,1-2-3.38,1,1,0,0,0-1.23-.66A1,1,0,0,0,19,17.08a22.07,22.07,0,0,0,2.44,4.14A1,1,0,0,0,22.13,21.54Z" transform="translate(0.19 -0.07)"/><path class="cls-17" d="M19.47,23.27a1,1,0,0,0,.71-.29,1,1,0,0,0,0-1.4,13.13,13.13,0,0,1-1.05-1.28,1,1,0,0,0-1.7,1A12.62,12.62,0,0,0,18.79,23,1,1,0,0,0,19.47,23.27Z" transform="translate(0.19 -0.07)"/><path class="cls-17" d="M18.41,26.42A1,1,0,0,0,19.2,26,1,1,0,0,0,19,24.65c-.27-.2-.56-.4-.84-.57a1,1,0,1,0-1,1.68c.22.14.45.3.67.46A1,1,0,0,0,18.41,26.42Z" transform="translate(0.19 -0.07)"/><path class="cls-17" d="M50.37,26.4a2,2,0,0,0,.64-.11,1,1,0,0,0-.67-1.86,1,1,0,0,0-1.13.79,1,1,0,0,0,.8,1.15A2.19,2.19,0,0,0,50.37,26.4Z" transform="translate(0.19 -0.07)"/><path class="cls-17" d="M50.52,29.54a.91.91,0,0,0,.43-.1,1,1,0,0,0,.28-1.93,1.35,1.35,0,0,0-1.48.43,1,1,0,0,0,.15,1.38A1,1,0,0,0,50.52,29.54Z" transform="translate(0.19 -0.07)"/><path class="cls-18" d="M46.46,36.76a1.75,1.75,0,0,1,.29.52c.69,2-3.85,1.8-4.45,1-1.14-1.54.32-2.12,1.44-2.22A3.12,3.12,0,0,1,46.46,36.76Z" transform="translate(0.19 -0.07)"/><path class="cls-18" d="M28.9,37.13a1.91,1.91,0,0,1,.33.49c.84,1.87-3.38,2.14-4.54,1.32-1.62-1.14.32-2.2,1.44-2.36A3.27,3.27,0,0,1,28.9,37.13Z" transform="translate(0.19 -0.07)"/><path class="cls-16" d="M28.2,31.87c-2.64-.71-4.29,2.24-2.49,3.2a5.92,5.92,0,0,1,2.62.13A1.69,1.69,0,0,0,28.2,31.87Z" transform="translate(0.19 -0.07)"/><path class="cls-14" d="M37.87,36.46c-.41-.39-1.15.12-1.88.18s-1.27-.26-1.86.11.21,1.37,1.95,1.2S38.23,36.79,37.87,36.46Z" transform="translate(0.19 -0.07)"/><path class="cls-18" d="M35.71,33.54c-1.25,0-2,2.36-1.43,3.08.41.5,3.14.28,3.52-.36C37.93,36,36.9,33.55,35.71,33.54Z" transform="translate(0.19 -0.07)"/><path class="cls-19" d="M28,33.42c-.8.23-.18,1.54.6,1.06C29.16,34.13,28.72,33.22,28,33.42Z" transform="translate(0.19 -0.07)"/><path class="cls-16" d="M45,31.17c-2.71-.35-3.95,2.8-2,3.51a5.81,5.81,0,0,1,2.61-.22A1.69,1.69,0,0,0,45,31.17Z" transform="translate(0.19 -0.07)"/><path class="cls-19" d="M44.94,32.79c-.75.33,0,1.55.72,1C46.16,33.35,45.6,32.49,44.94,32.79Z" transform="translate(0.19 -0.07)"/><path class="cls-20" d="M28,41c4.18-.12,11.33-1.17,15.9-.4.43.07.67.14.34.35-1,.64-2.3,1.69-2.42,2.55-.25,1.76-.7,5.1-5.47,5.14-5.72,0-8.16-5.63-8.8-7.17C27.36,41.13,27.63,41,28,41Z" transform="translate(0.19 -0.07)"/><path class="cls-21" d="M28.16,41.59A36.86,36.86,0,0,0,43.29,41a3.32,3.32,0,0,0-1.74,2.13c-.26,1.13-.92,2.75-5.95,3A7.6,7.6,0,0,1,28.16,41.59Z" transform="translate(0.19 -0.07)"/><path class="cls-22" d="M30,42.05a2.32,2.32,0,0,0,1.71,2.08,13.22,13.22,0,0,0,7.19.15c1.72-.41,2.78-2.74,2.78-2.74A59.2,59.2,0,0,1,30,42.05Z" transform="translate(0.19 -0.07)"/><path class="cls-22" d="M30.57,44.31c-.16-.38-.13-.81.79-.52a18.32,18.32,0,0,0,5.54.53c2.39-.06,3-.86,3.38-.46S39,46.29,35.16,46.1C30.81,45.89,30.57,44.31,30.57,44.31Z" transform="translate(0.19 -0.07)"/><path class="cls-23" d="M30.13,42.69s9.06-.87,11.05-.29a3.64,3.64,0,0,0,.47-.86A69.78,69.78,0,0,1,30,42,1.84,1.84,0,0,0,30.13,42.69Z" transform="translate(0.19 -0.07)"/><path class="cls-23" d="M31.85,43.8a19.62,19.62,0,0,0,7.91,0S35.55,45.25,31.85,43.8Z" transform="translate(0.19 -0.07)"/><path class="cls-24" d="M21.31,31.24s.8,2.74,5.42,1.05c1.87-.69,2.92,1.3,2.92,1.3s0-3.17-2.79-2.53C25.44,31.39,23.64,32.89,21.31,31.24Z" transform="translate(0.19 -0.07)"/><path class="cls-24" d="M50.11,30.93S49.2,33.5,45,32a2.42,2.42,0,0,0-2.92,1.13s.15-3.07,2.76-2.41C46.2,31,47.84,32.49,50.11,30.93Z" transform="translate(0.19 -0.07)"/><path class="cls-16" d="M47.64,28.69c-.19-.68-1.85-1.43-3.51-1.3-1.82.15-3.6,1.25-3.39,2.14s1.57-.6,3.35-1C46.32,28,47.71,28.92,47.64,28.69Z" transform="translate(0.19 -0.07)"/><path class="cls-16" d="M23.07,28.94c.08-.67,2.28-1.31,4.33-1.12,2.23.21,4.4,1.32,4.14,2.17s-1.82-.56-4-1C24.8,28.36,23,29.38,23.07,28.94Z" transform="translate(0.19 -0.07)"/></g></svg>