<svg id="Layer_1" data-name="Layer 1" xmlns="http://www.w3.org/2000/svg" xmlns:xlink="http://www.w3.org/1999/xlink" viewBox="0 0 66 66"><defs><style>.cls-1{fill:none;}.cls-2{clip-path:url(#clip-path);}.cls-3{fill:#d6bb40;}.cls-4{fill:#3a3a4a;}.cls-5{fill:#535363;}.cls-6{fill:#23232d;}.cls-7{fill:#e88e61;}.cls-8{fill:#eba971;}.cls-9{fill:#d99a64;}.cls-10{fill:#ffbc82;}.cls-11{fill:#b54319;opacity:0.5;}.cls-12{fill:#e85216;}.cls-13{fill:#ffd4ad;}.cls-14{fill:#c93712;}.cls-15{fill:#c26346;}.cls-16{fill:#261b18;}.cls-17{fill:#e6d2c3;}.cls-17,.cls-22{opacity:0.7;}.cls-18{fill:#8e9194;}.cls-19,.cls-21,.cls-22{fill:#fff;}.cls-19,.cls-20{opacity:0.3;}.cls-20{fill:#b54d26;}.cls-23{fill:#c1c5c9;}</style><clipPath id="clip-path" transform="translate(0.18 -0.07)"><circle class="cls-1" cx="32.83" cy="33.07" r="33"/></clipPath></defs><g class="cls-2"><rect class="cls-3" width="66" height="66"/><path class="cls-4" d="M41.69,64.29c.05-4.51,4.38-7.23,1.92-9.05-6.09-4.51-16.19-3.23-21.28,0-2.32,1.47,1.72,4.69,1.81,9.05,0,.63,0,1.21.07,1.78H41.66C41.67,65.5,41.68,64.91,41.69,64.29Z" transform="translate(0.18 -0.07)"/><path class="cls-5" d="M22.73,51.46c-1.95,2.71,2.21,5.48,10.16,5.48,8.6,0,12.14-2.61,10.25-5.48C37,42.07,28.72,43.13,22.73,51.46Z" transform="translate(0.18 -0.07)"/><path class="cls-6" d="M26.05,51.8c-2.28,2.7,2.35,4.1,6.82,4.16s8.05-1.27,7.19-3.7C39,49.37,28.1,49.38,26.05,51.8Z" transform="translate(0.18 -0.07)"/><path class="cls-7" d="M32.82,48.33c-2,0-4.78,1-5,3.5a2.69,2.69,0,0,0,.85,2.53,6.72,6.72,0,0,0,4.13,1.92,6.67,6.67,0,0,0,4.12-1.92,2.64,2.64,0,0,0,.85-2.53C37.6,49.29,34.8,48.33,32.82,48.33Z" transform="translate(0.18 -0.07)"/><path class="cls-5" d="M27.9,56.13a13.2,13.2,0,0,0-3.08,6,.43.43,0,0,0,.31.52l.11,0a.43.43,0,0,0,.41-.32,12.46,12.46,0,0,1,2.87-5.59.43.43,0,0,0-.62-.59Z" transform="translate(0.18 -0.07)"/><path class="cls-5" d="M37.89,56.13a.42.42,0,0,0-.61.59,12.46,12.46,0,0,1,2.86,5.59.44.44,0,0,0,.42.32l.11,0a.43.43,0,0,0,.3-.52A13.2,13.2,0,0,0,37.89,56.13Z" transform="translate(0.18 -0.07)"/><path class="cls-4" d="M27.92,51c-1.75.68-3.24,5.56,5.26,5.44C34.8,56.44,27.93,56.08,27.92,51Z" transform="translate(0.18 -0.07)"/><path class="cls-4" d="M37.7,51c.66,4.77-6.89,5.41-5.27,5.44C40.94,56.59,39.45,51.71,37.7,51Z" transform="translate(0.18 -0.07)"/><path class="cls-8" d="M47.91,33.65c-1.52-.61-2.49.43-3,2.47-.21.81-.79,5.15-.42,6l0,.1a5,5,0,0,0,2.58-.23C49.72,40.86,51.07,34.94,47.91,33.65Z" transform="translate(0.18 -0.07)"/><path class="cls-9" d="M16.68,20.73c-1.31,4.58-1.24,11.15,1.07,15.73,1.2,2.39,4.08.79,6.1.29,2.5-.62,5-1.18,7.52-1.74,4.12-.9,8.65,0,12.83.4,3.28.31,3.52,1.84,3.52-.82,0-3.31.6-8.71,0-12.39C45,5.18,20.29,8.15,16.68,20.73Z" transform="translate(0.18 -0.07)"/><path class="cls-10" d="M31,14.86c-11.68,1.59-13.53,12.28-12.4,22.76.86,7.85,6.66,16.6,15.76,16.2C43.62,53.41,48.55,42,47.61,32.38,46.59,21.89,44.33,13,31,14.86Z" transform="translate(0.18 -0.07)"/><path class="cls-10" d="M16,33.21c-3.91,1-2,8.37.9,10a2,2,0,0,0,3-1.13c.66-1,.27-3.85-.39-6.31C19,33.81,17.9,32.74,16,33.21Z" transform="translate(0.18 -0.07)"/><path class="cls-11" d="M17.27,35.28c-.84-.42-3,.23-2,1.93.57-1.53,1.49-.49,1.31.6-.11.74-.9.73-.14,1.7.41.52,1.28.35,1.72.09C19.53,38.77,18.3,35.79,17.27,35.28Z" transform="translate(0.18 -0.07)"/><path class="cls-12" d="M32.12,12.81c-9.48-.08-16.23,6.73-15.6,20.3a2.4,2.4,0,0,1,1.8.57,4.58,4.58,0,0,1,1,2c.1.22.22.58,1,.54-1.41-4.56-.5-11.49,1.05-13.57,3.84-5.15,10,.69,14.73.58,3.76-.09,7.88-4.92,9.94,0C47.37,26.56,47.33,12.93,32.12,12.81Z" transform="translate(0.18 -0.07)"/><path class="cls-6" d="M17.74,40.63a1,1,0,1,0,1,1A1,1,0,0,0,17.74,40.63Z" transform="translate(0.18 -0.07)"/><path class="cls-11" d="M35.41,38.21c-1.22,0-1.71-.5-2.55,0s.41,2.11,2.56,2,3-1.62,2.58-2.16S36.76,38.17,35.41,38.21Z" transform="translate(0.18 -0.07)"/><path class="cls-13" d="M34.85,32.73c-1,.16-2.19,5.45-1.64,5.83A4.54,4.54,0,0,0,38,38.07C38.29,37.73,36,32.56,34.85,32.73Z" transform="translate(0.18 -0.07)"/><path class="cls-14" d="M25.37,26.19a7.76,7.76,0,0,0-3.59.9c-.86.4-.7,1.16.06,1.07s1.49-.28,1.79-.32a6.19,6.19,0,0,1,3.7.66c.56.33,1.87,1.08,2.42.33C30.84,27.32,26.26,26.3,25.37,26.19Z" transform="translate(0.18 -0.07)"/><path class="cls-14" d="M46.94,27.47a6.55,6.55,0,0,0-3.28-1c-.82.07-5,1-4.12,2.52.45.76,1.69,0,2.21-.27a5.24,5.24,0,0,1,3.4-.57c.27.05,1,.25,1.61.36S47.65,27.86,46.94,27.47Z" transform="translate(0.18 -0.07)"/><path class="cls-13" d="M46.27,37.27a3.47,3.47,0,0,0-2.84-1.05c-1.21,0-2.83.43-1.74,2.16.58.92,5.42,1.59,4.85-.53A1.82,1.82,0,0,0,46.27,37.27Z" transform="translate(0.18 -0.07)"/><path class="cls-13" d="M27.19,36.63A3.63,3.63,0,0,0,24,36.19c-1.25.26-2.8,1.07-1.3,2.6.8.81,5.91.42,4.85-1.63A2,2,0,0,0,27.19,36.63Z" transform="translate(0.18 -0.07)"/><path class="cls-15" d="M24.79,41.17c.6,2.14,3.06,1.4,2.43-.79A1.72,1.72,0,0,1,24.79,41.17Z" transform="translate(0.18 -0.07)"/><path class="cls-15" d="M41.76,41c-.86,2.1,1.5,3.11,2.34,1.05A1.73,1.73,0,0,1,41.76,41Z" transform="translate(0.18 -0.07)"/><path class="cls-15" d="M42.63,42.36a.64.64,0,0,0-.84.3c-.78,1.66-1.48,1.51-3.17,1.15a14.08,14.08,0,0,0-2.43-.36,19.07,19.07,0,0,0-4,.37c-3,.5-4.43.63-5.3-1.85a.62.62,0,0,0-.8-.38.61.61,0,0,0-.38.79,3.87,3.87,0,0,0,4,3,16.7,16.7,0,0,0,2.67-.31,17.33,17.33,0,0,1,3.7-.35,12.66,12.66,0,0,1,2.23.33c1.73.37,3.36.72,4.57-1.83A.64.64,0,0,0,42.63,42.36Z" transform="translate(0.18 -0.07)"/><path class="cls-16" d="M25.68,30.84c-2.24-.78-3.33,3.19-1.76,4.34a3.14,3.14,0,0,1,2.18,0C27.51,34.35,27.36,31.42,25.68,30.84Z" transform="translate(0.18 -0.07)"/><path class="cls-16" d="M44.94,31.17C42.75,29.78,41,34,42.8,35.29a2.88,2.88,0,0,1,2.32.06C46,34.38,46.11,31.92,44.94,31.17Z" transform="translate(0.18 -0.07)"/><path class="cls-17" d="M25,31.57c-.87.37-.07,2,.75,1.35C26.3,32.42,25.73,31.25,25,31.57Z" transform="translate(0.18 -0.07)"/><path class="cls-17" d="M44.06,31.62c-.88.15-.51,1.88.4,1.42C45.12,32.7,44.84,31.48,44.06,31.62Z" transform="translate(0.18 -0.07)"/><path class="cls-18" d="M38.62,9.61c-11-4.24-21.76,2.43-24.4,9-2.23,5.6.5,7.08.5,7.08s-.94,1.29-.19,3.81a6.91,6.91,0,0,1,.14,3.9c-.22,1.11,1.77-.86,3.89.51.55-8.89,5.23-15.67,17.83-15.08C49.5,19.48,47.47,30,47.61,33.56c0,0,.69.62,1-.49S51.75,14.67,38.62,9.61Z" transform="translate(0.18 -0.07)"/><path class="cls-19" d="M41.92,15.14a19,19,0,0,0-3.1-.45c-.53-.06-2.54-.69-2.9-.51,1.1-.55,2-.3,3.17-.25s3.32.09,2-1.5a7.21,7.21,0,0,0-2.76-1.76,19.76,19.76,0,0,0-8.45-1.19,15.89,15.89,0,0,0-10.78,4.94c-1.34,1.43-1.13,3.13,1,2.75,1.6-.28,2.89-1.41,4.29-2.13a7.31,7.31,0,0,1,5.49-.35,15.45,15.45,0,0,0-2.77.48,13.66,13.66,0,0,0-7.5,4.94A7.57,7.57,0,0,0,18,23.92c-.05.47-.33,2.79.73,2.36.57-.24.52-1.89.53-2.32,1.25.33.71-1.06.88-2,1.79,1.2.81-.94,1-2.07.38.23.95,1.32,1.48,1.06s-.29-1.79.22-2.05,1.24,1.25,2,1,.37-1.35.55-1.88c.45.19,1.18,1.33,1.72,1.07s0-1.52.1-1.89c1.1.3,1.77,2.33,2.27.38.14-.53,0-1.08.63-1.09s1.08,1.36,1.64,1.37c.87,0,0-1.88.77-2.05s1.38,1.69,2.21,1.74c.25-.73.35-2.75,1.24-1.53.34.47,1.37,2.83,2.39,1.85.39-.39-.19-1.8.59-1.83S40,17.8,40.27,18.23s1,1,1.41.45c.3-.38-.2-1,.21-1.45.91-.93.92,2,1.69,2.2,1.14.34.86-1.23,1.25-1.74C46,18.44,45,22,47.16,21.9c.28-1.43-.73-2.89-1.49-4A6.41,6.41,0,0,0,41.92,15.14Z" transform="translate(0.18 -0.07)"/><path class="cls-4" d="M44.38,55.72a2.27,2.27,0,1,0-3,3.37c1.5,1.34,3.15,3.42,2.55,5.66a4.44,4.44,0,0,1-.63,1.32h4.95a1.21,1.21,0,0,0,.05-.14C48.81,63.91,49,59.9,44.38,55.72Z" transform="translate(0.18 -0.07)"/><path class="cls-4" d="M24.67,59.09a2.27,2.27,0,0,0-3-3.37C17,59.9,17.21,63.91,17.75,65.93a.58.58,0,0,1,.05.14h4.95a4.7,4.7,0,0,1-.63-1.32C21.52,62.51,23.17,60.43,24.67,59.09Z" transform="translate(0.18 -0.07)"/><path class="cls-20" d="M45.88,28.78a20.88,20.88,0,0,0-4.24.56,17.36,17.36,0,0,0-3.67.95,4.26,4.26,0,0,1-2.71.76c-2.21-.14-4-1.57-6.25-1.86a18.83,18.83,0,0,0-6.94-.05c-.59.14-2.4.78-1.21,1.44s2.93.5,4.22.58c.6,0,1.19.07,1.79.14,2.1.24,5.35,0,5.12,2.66-.17,1.8-1.37,3.63-2.85,3.93a19.35,19.35,0,0,1-4.35.34,7.5,7.5,0,0,1-3.12-.75c-.28-.14-1.11-.7-1.4-.33-.48.64,1.21,1.76,1.65,2a10.16,10.16,0,0,0,3.21.8c2.75.36,5.58.29,7.19-2.2.94-1.44,1.43-3.15,2.3-4.63,1.43-2.43,2,.92,2.39,2.4a7.83,7.83,0,0,0,1,2.33A5.34,5.34,0,0,0,42,39.88a5.72,5.72,0,0,0,2.6-.29c.51-.2.72-.78.13-1a4.77,4.77,0,0,0-1.31-.08,11.41,11.41,0,0,1-1.65-.18,4.77,4.77,0,0,1-2-.92,3.75,3.75,0,0,1-1-1.17,3.69,3.69,0,0,1-.14-3.1c.52-1.38,2-1.46,3.26-1.54,1.5-.09,3,0,4.51-.13a16.48,16.48,0,0,1,2,.11c.85.05,2.7-.19,1.72-1.48S47.26,28.74,45.88,28.78Z" transform="translate(0.18 -0.07)"/><path class="cls-4" d="M19.7,28.84c-1.82.12-3.38-.33-3.8.05s.49,2.08.49,2.08a3.1,3.1,0,0,0,1.44.43c.16,1.25.21,4.51,2.59,6.49,2,1.64,8.31,1.92,10.24.87a7.58,7.58,0,0,0,3.69-5.85C35.22,27.39,22.25,28.67,19.7,28.84Zm11,8.44c-2.35,1.63-8.5,1.11-10.16-.8C19.3,35,19,31.83,19.71,31.35c2.25-1.46,10.9-1.22,12.94.23C33.65,32.29,32.51,36,30.74,37.28Z" transform="translate(0.18 -0.07)"/><path class="cls-4" d="M49.46,28.82c-2.25-.15-13.66-1.3-12.9,4.2.31,2.25,1.15,4.54,3.25,5.82,1.69,1,7.26.69,9-1,2.1-2,2.14-5.25,2.28-6.51a2.59,2.59,0,0,0,1.27-.44s.91-1.6.43-2.08S51.06,28.92,49.46,28.82Zm-.78,7.63c-1.46,1.94-6.88,2.51-8.94.91-1.57-1.22-2.56-5-1.69-5.68,1.81-1.47,9.42-1.79,11.4-.36C50.1,31.8,49.81,35,48.68,36.45Z" transform="translate(0.18 -0.07)"/><path class="cls-19" d="M39.56,31.28c-1.27.48.95,1.3,1.43,1.4a16.5,16.5,0,0,0,5.4.13c1-.12,3-.87,2.49-1.44C48.11,30.57,41,30.76,39.56,31.28Z" transform="translate(0.18 -0.07)"/><path class="cls-21" d="M45.14,31.31c-.68.07-1.13.25-1,.57.32.64,4.31.54,4.61.08S46.6,31.17,45.14,31.31Z" transform="translate(0.18 -0.07)"/><path class="cls-22" d="M40.72,36c-.43,0-.73.06-.66.33.13.55,2.59,1,2.83.63S41.62,36,40.72,36Z" transform="translate(0.18 -0.07)"/><path class="cls-22" d="M22,36c-.46,0-.79,0-.73.29.1.56,2.73,1.12,3,.81S23,36.1,22,36Z" transform="translate(0.18 -0.07)"/><path class="cls-19" d="M31.69,31.3c-1.64-.53-9.71-.85-10.51-.11-.58.53,1.84,1.28,2.93,1.42a22.14,22.14,0,0,0,6.09,0C30.73,32.5,33.17,31.77,31.69,31.3Z" transform="translate(0.18 -0.07)"/><path class="cls-21" d="M28.17,31c-.74.05-1.23.21-1.06.54.34.65,4.66.65,5,.2S29.75,30.84,28.17,31Z" transform="translate(0.18 -0.07)"/><path class="cls-4" d="M38.3,29.8a9.59,9.59,0,0,1-5.79,0c-1.79-.55.93,1.11,1.11,2s-.15,3.89.5,2.23,1.85-1.69,2.59-.14.9-2.48,1.22-2.84S40,29.3,38.3,29.8Z" transform="translate(0.18 -0.07)"/><path class="cls-23" d="M20.56,29.35c4.91.08,8.82.09,11.82,1.13C30.4,29,27.07,28.72,20.56,29.35Z" transform="translate(0.18 -0.07)"/><path class="cls-23" d="M38.84,30.34c2.59-1.06,5.84-.77,10.19-1.12C43.21,29.06,40.49,28.93,38.84,30.34Z" transform="translate(0.18 -0.07)"/></g></svg>