<svg id="Layer_1" data-name="Layer 1" xmlns="http://www.w3.org/2000/svg" xmlns:xlink="http://www.w3.org/1999/xlink" viewBox="0 0 66 66"><defs><style>.cls-1{fill:none;}.cls-2{clip-path:url(#clip-path);}.cls-3{fill:#b3977f;}.cls-4{fill:#bba7db;}.cls-5{fill:#de3e78;}.cls-6{fill:#f06799;}.cls-7{fill:#ffd1e2;}.cls-8{fill:#f1aa83;}.cls-9{fill:#c93712;}.cls-10{fill:#fff9f0;}.cls-11{fill:#ffcb9e;}.cls-12{fill:#d14f2e;opacity:0.4;}.cls-13{fill:#bf3c1b;opacity:0.2;}.cls-14{fill:#e85216;}.cls-15{fill:#ff9873;}.cls-16{fill:#261b18;}.cls-17{fill:#e6d2c3;opacity:0.7;}.cls-18{fill:#121b21;}.cls-19{fill:#e63535;opacity:0.8;}.cls-20{fill:#8f2621;}.cls-21{fill:#e8dac5;}</style><clipPath id="clip-path" transform="translate(0.19 -0.07)"><circle class="cls-1" cx="32.83" cy="33.07" r="33"/></clipPath></defs><g class="cls-2"><rect class="cls-3" width="66" height="66"/><path class="cls-4" d="M26.81,57.5a2.26,2.26,0,0,0-2.92-3.45c-3.63,3.06-4.56,9.44-4.72,12h4.55C23.94,63.86,24.94,59.08,26.81,57.5Z" transform="translate(0.19 -0.07)"/><path class="cls-4" d="M44,54.05a2.26,2.26,0,1,0-2.92,3.45C43,59.08,44,63.86,44.18,66.07h4.54C48.56,63.49,47.63,57.11,44,54.05Z" transform="translate(0.19 -0.07)"/><path class="cls-5" d="M42.94,63.53c.09-4.37,3.4-8.35,1.21-9.6-4.8-2.74-14.33-3.82-20.08,0-2.32,1.54,1.27,5.08,1.32,9.6,0,.9,0,1.74.05,2.54H42.83C42.88,65.28,42.92,64.44,42.94,63.53Z" transform="translate(0.19 -0.07)"/><path class="cls-6" d="M38.68,57.55c-1.77,1.81-7.74,2-10-.35-1.27-1.31-2.5,1.43-1.94,3.3.73,2.48,4.32,3.12,7.43,3.07,6.13-.12,8.1-2.93,7-6C40.91,56.77,39.85,56.34,38.68,57.55Z" transform="translate(0.19 -0.07)"/><path class="cls-7" d="M23.94,50.69c-1.89,2.88,1.65,5.49,10.25,5.49,8,0,12.11-2.78,10.16-5.49C38.36,42.36,30.08,41.31,23.94,50.69Z" transform="translate(0.19 -0.07)"/><path class="cls-5" d="M27,51.49c-.86,2.44,2.71,3.77,7.19,3.71S43.31,53.73,41,51C39,48.62,28,48.61,27,51.49Z" transform="translate(0.19 -0.07)"/><path class="cls-8" d="M34.26,47.56c-2,0-4.78,1-5,3.51a2.61,2.61,0,0,0,.85,2.52,6.68,6.68,0,0,0,4.12,1.93,6.73,6.73,0,0,0,4.13-1.93,2.66,2.66,0,0,0,.85-2.52C39,48.53,36.24,47.56,34.26,47.56Z" transform="translate(0.19 -0.07)"/><path class="cls-7" d="M39.18,55.36a.43.43,0,0,0-.62.6,12.38,12.38,0,0,1,2.87,5.58.43.43,0,0,0,.41.32H42a.44.44,0,0,0,.31-.53A13.31,13.31,0,0,0,39.18,55.36Z" transform="translate(0.19 -0.07)"/><path class="cls-7" d="M29.19,55.36a13.31,13.31,0,0,0-3.08,6,.44.44,0,0,0,.3.53h.11a.44.44,0,0,0,.42-.32A12.47,12.47,0,0,1,29.8,56a.43.43,0,1,0-.61-.6Z" transform="translate(0.19 -0.07)"/><path class="cls-6" d="M39.16,50.27c0,5-6.88,5.41-5.26,5.43C42.4,55.83,40.92,50.94,39.16,50.27Z" transform="translate(0.19 -0.07)"/><path class="cls-6" d="M29.39,50.27c-1.76.67-3.25,5.56,5.25,5.43C36.27,55.68,28.72,55,29.39,50.27Z" transform="translate(0.19 -0.07)"/><path class="cls-9" d="M52.68,28.67c2.51-.7,5.3-6.23,1-5.87,1.18,1.72-1.56,2.55-2.47,1.25a.74.74,0,0,1-.15-.33c-.17-2.15-2.42-3.62-4.13-4.93A23.13,23.13,0,0,0,38,14.62c-5.59-1.22-12.25-.83-16.63,2.91-1.77,1.5-3.3,4.62-5.76,5.24-3,.75-4.67,3.86-2.25,5.77a1.75,1.75,0,0,1-2.67-1.27c-2.6,1.84-3.54,5.37.1,6.93-4.21,2.23-3.11,6.67,1.44,8.55-2.1,2-1,5.32,1.17,6.62-.18-1.39,1.09-4.51,3.51-2.95,1.5,1,.74,3.57-1.29,2.29-.5,2.37,5.44,4.51,8.57,1.68a13.37,13.37,0,0,1,9.68-3.57c7.47,0,8.1,1.78,10.13,3.44,2.74,2.25,6.27-1.14,6.09-2.66-1.1.79-5.07-.27-3.23-1.52,1.24-.83,2.69.19,3.88-.52,1.39-.83.79-3.78.89-3.84,1-.65,2.68-.71,2.8,1.05,2-4.13,0-5.24-2.2-5.52C57.19,36.4,58.08,29.58,52.68,28.67Z" transform="translate(0.19 -0.07)"/><path class="cls-10" d="M47.7,39.84a1.43,1.43,0,0,0-1.37,1.46,1.37,1.37,0,0,0,1.43,1.34,1.42,1.42,0,0,0,1.37-1.46A1.37,1.37,0,0,0,47.7,39.84Z" transform="translate(0.19 -0.07)"/><path class="cls-11" d="M32.57,14.23c-8.21.85-14.52,7.92-13.89,19S27.45,53,36.14,51.94c7.21-.89,13.24-9.95,11.74-22C46.53,19,40.79,13.38,32.57,14.23Z" transform="translate(0.19 -0.07)"/><path class="cls-11" d="M16.54,31.48c-3.56,1.68-1.82,7.81,1.18,8.68a6,6,0,0,0,2.94,0,1.17,1.17,0,0,1,.05-.11c.4-.88-.57-5-.83-5.83C19.23,32.1,18.25,30.68,16.54,31.48Z" transform="translate(0.19 -0.07)"/><path class="cls-12" d="M18.6,33.61c-1-.51-3.45.2-2.37,2.2.68-1.77,1.72-.54,1.5.73-.15.85-1.06.82-.2,2,.46.62,1.47.45,2,.15C21.15,37.72,19.78,34.22,18.6,33.61Z" transform="translate(0.19 -0.07)"/><path class="cls-13" d="M29.57,18.57a23.66,23.66,0,0,0-6.25,2.16c-2.91,1.51-3.08,3.05-4.47,5.86-.7,1.42-2.43,2.86-.74,4.32-1.67.66-2,3.55-.95,4.85a1.72,1.72,0,0,0,1.11.68,2.85,2.85,0,0,0-.2,2.48c.43.91,1.17,1.72,2.09,1.54A5.58,5.58,0,0,0,21,43.09c1.18,1.48,3.28,2,4.58.85a1.83,1.83,0,0,0-.54-3.3c-.15.47-.69,1-1.19.61s.18-2,.16-2.67c-.06-1.69-1.09-1-2.06-1.89.49-.48,1.18-1,1.15-1.87,0-1-.74-1.16-1.37-1.68-1.05-.87-.73-.71-.18-1.65.68-1.17,1.1-2.68-.31-3.56a1.46,1.46,0,0,0,1.47-1.12c1.21.62,2.6-.66,3-1.75-.11.34,1.33-.31,1.42-.38A4.07,4.07,0,0,0,28.19,23c.12,1.51,1.69,2.51,2.89,1.31.81,1.86,2.4,1.79,4.13,1.34C35.84,27.76,34,26.89,33.4,28c-1,1.8,2.69,2.54,3.68,2.17a2.83,2.83,0,0,0,1.69-2.87c.16,1.4,2.16.73,2.88.19.44,2,2.27,2.35,3.69,1,.28,3.24,4.52,3.14,3.63-.63C46.92,19.13,37.6,17,29.57,18.57Z" transform="translate(0.19 -0.07)"/><path class="cls-9" d="M49.87,14.81c1.76-3.79-5.71-6.59-8.51-4.51-.5-4.64-6.36-4.85-9.12-1.52-1.05-1.67-3.39-2-3.74-2.11A4.73,4.73,0,0,0,24.1,8c1.56,0,4.24,2.94-.47,2.56-1.95-.16-3.11-.89-5,.18-1.57.87-2.62,2.38-1.12,3.82,0,0-3.48-.16-4,3-.2,1.29.33,1.6-.95,2.59a3,3,0,0,1-2.89.71,5.17,5.17,0,0,0,1.82,3.29,3.54,3.54,0,0,0,3.83.07c-.12.79,2.33,7.51,3.37,6.78-1.71,1.2-2.41,3.59-.71,4.66a3.2,3.2,0,0,0,1,.4c-2.59,1-.48,4.85,2.08,3.55-2.2,2.68,4.48,5.71,4.58,2.51a2,2,0,0,0-1.43-2c.44.09.63,2-.54,1.56-1.73-.7,1.24-3.08-.34-4-.77-.46-3,.08-2.2-1.35.58-1,1.86-1.56.31-2.78-.46-.36-1.26-.39-1.31-1.1s.77-1,1.08-1.41c1-1.53-.64-3.3-2-3.84.88-.06,3.38.34,3.08-1.33,1.4,1.19,3.4-.53,2.83-2.15.26.74,1.58.48,2,.18.81-.57.72-1.65,1.14-2.47a2.79,2.79,0,0,0,1.22,2.21,1.53,1.53,0,0,0,2.22-.6c.54,1.8,2.34,3.25,3.9,1.41a2.3,2.3,0,0,1,.09,2.36c-.74,1-1.76,0-2.4.46-.79.61.69,1.87,1.23,2a3.18,3.18,0,0,0,3.17-1.12,4.09,4.09,0,0,0,.4-2.39c.9,1.41,2.38,2.34,3.82.84C43,28,44,28.58,45.52,27.24c.74,1.2.64,2.83,2.39,3.06,2,.27,1.89-2.08,1.51-3.43-.48-1.7-1.14-5,.81-6.54,1.21-.94,3-.37,2.48,1.25a3.19,3.19,0,0,0,1.13-4.44A5.16,5.16,0,0,0,49.87,14.81Z" transform="translate(0.19 -0.07)"/><path class="cls-10" d="M19.11,40.76a1.32,1.32,0,0,0-1.26,1.34,1.25,1.25,0,0,0,1.32,1.24A1.32,1.32,0,0,0,20.43,42,1.27,1.27,0,0,0,19.11,40.76Z" transform="translate(0.19 -0.07)"/><path class="cls-14" d="M49.19,24A12.15,12.15,0,0,0,49,21.44c-.31-1.3-1.07-1.64-2.29-1.58a3.69,3.69,0,0,1,5.83-.77c.62-2.35-2.26-4.39-4.56-3.77.47-1.36.85-3.05-.51-4.09A4.9,4.9,0,0,0,42.15,11c-1.26.78-2.66,2.33-4.48,1.23,1.08.66,3.61-3,.55-4.3-1.9-.79-3.53.3-4.81,1.57a4.47,4.47,0,0,0-1,1.36C31.07,8.41,29.08,6.94,26,7.72c2.38,0,3.41,3.7,1.28,4.76-1.24.62-2.4-.68-3.41-1.12a5.69,5.69,0,0,0-3.39-.28,4.35,4.35,0,0,0-2.54,2.09c1.7-.24,2.71,3.09,6.41,2a4.25,4.25,0,0,1-4.67.83,3.63,3.63,0,0,0-3.26-.2c-1.57.89-1.15,3.09-1.91,4.46S13.12,21.64,11.84,22a4.81,4.81,0,0,0,3.8.76c-1.12.13-1.76,1.71-1.84,2.58-.12,1.13.87,2,.72,3.05-.13.89-1.33,1.48-2.16,1.46a2,2,0,0,0,2.21.35c.95-.34,1.14-1.6,1.93-1.78,1.07-.24,2.21,1.55,2.2,2.38,1.61-.8-.33-3.27-1.29-4,1.06,0,4-.16,3.76-1.65.13.9,2.06,0,2.3-.51a1.74,1.74,0,0,0-.53-2.15c.6.07,1.72.63,2.18.07s-.09-1.58-.36-2c4.88,1.82,3.44-3.19.46-3.09,2.25-.21,2.85-.55,3.08-4v0c0-.07,0-.07,0,0v0c.18,2-.32,4,3.07,3.67-4.89,1.79-2.9,5.73,2,4.53-.74.18-.78,1.59.35,2.38a2.42,2.42,0,0,0,2.43-.17c.89,1.33,1.17,2.5.14,3.69,1.19.06,1.61-1.7,1.77-2.56.9.52,1.71,1.34,2.82.89.83-.35,1.27-1.26,1.8-1.9,0,1.47.6,2.57,1.5,2.75a2.74,2.74,0,0,0,2.69-1,3.86,3.86,0,0,0,1.18,3,2.65,2.65,0,0,0,3.32.5,1.32,1.32,0,0,1-1.22-.72c2.07-.22,3.68-1.34,3.47-3.46C52.2,25.74,49.31,26.11,49.19,24Z" transform="translate(0.19 -0.07)"/><path class="cls-14" d="M28.3,13.47v0C28.31,13.4,28.3,13.4,28.3,13.47Z" transform="translate(0.19 -0.07)"/><path class="cls-9" d="M40.19,21.18c1,3.29,3.81,4.14,5.47,1.43C43.91,24.21,41,22.9,40.19,21.18Z" transform="translate(0.19 -0.07)"/><path class="cls-9" d="M18.34,25.14c2,1.66,4.39,0,3.36-2.4C21.49,24.32,19.58,25.59,18.34,25.14Z" transform="translate(0.19 -0.07)"/><path class="cls-9" d="M45.85,23.8c-1.19,2.27,1.08,4,3.29,2.47C47.47,26.48,45.7,25,45.85,23.8Z" transform="translate(0.19 -0.07)"/><path class="cls-9" d="M43,18.59a4.63,4.63,0,0,0,5.66,1.17l-.11-1.51A7,7,0,0,1,43,18.59Z" transform="translate(0.19 -0.07)"/><path class="cls-9" d="M44.05,14.17a3.45,3.45,0,0,0,4.31,1.07l.24-1.71A4.4,4.4,0,0,1,44.05,14.17Z" transform="translate(0.19 -0.07)"/><path class="cls-9" d="M13.46,22.89l.48,1.47c2.41,0,4-1,4.77-3.12A6.88,6.88,0,0,1,13.46,22.89Z" transform="translate(0.19 -0.07)"/><path class="cls-14" d="M10.37,29.34l-.07-1c-1,1.13-1.73,2.41-1,3.78.5.9,1.88,1.86,3,1.07.44-.32.57-1.14.66-1.62l-.06-.05C11.54,31.7,10.08,30.66,10.37,29.34Z" transform="translate(0.19 -0.07)"/><path class="cls-14" d="M11.9,34.62l-.82.5c-2,.07-2.92,3.33-2.06,4.72a4,4,0,0,0,2.64,1.61,4.82,4.82,0,0,1-1.07-3.7C10.86,36.64,11.88,35.82,11.9,34.62Z" transform="translate(0.19 -0.07)"/><path class="cls-14" d="M54.14,30.31a4.65,4.65,0,0,0-1.77-.71v.33c1.77,2.22,1.46,3.92.5,6.22,0,0,.09.08.09.06C55.4,35.19,56.53,31.9,54.14,30.31Z" transform="translate(0.19 -0.07)"/><path class="cls-14" d="M53,38.21,52.18,38c-.34,1.92,2.07,1.44,2.37,2.85C55,39.67,54.73,38.1,53,38.21Z" transform="translate(0.19 -0.07)"/><path class="cls-14" d="M12.35,43.88a3,3,0,0,0,.24,4c0-.61.43-1.1.43-1.72s-.43-1-.37-1.67Z" transform="translate(0.19 -0.07)"/><path class="cls-15" d="M46.67,37.4a2.7,2.7,0,0,0-2.27-1c-1-.06-2.39.25-1.63,1.79.4.83,4.36,1.62,4.07-.25A1.61,1.61,0,0,0,46.67,37.4Z" transform="translate(0.19 -0.07)"/><path class="cls-15" d="M28.34,37.23a2.78,2.78,0,0,0-2.67-.67c-1.12.16-2.58.84-1.49,2.46.58.86,5.07.86,4.44-1.23A1.84,1.84,0,0,0,28.34,37.23Z" transform="translate(0.19 -0.07)"/><path class="cls-9" d="M40.91,29.64c2.2.19,4-.49,7.33-.25C47,27.89,42.53,27.91,40.91,29.64Z" transform="translate(0.19 -0.07)"/><path class="cls-12" d="M36.59,38c-.75,0-1.05-.3-1.57,0s.63,1.3,1.55,1.21,1.9-1,1.62-1.28S37.42,38,36.59,38Z" transform="translate(0.19 -0.07)"/><path class="cls-9" d="M22.52,29.49c4.12.05,5.51.22,8.37.11C29.37,27.69,24.32,27.88,22.52,29.49Z" transform="translate(0.19 -0.07)"/><path class="cls-16" d="M27.14,30.87c-2.18-.79-3.25,3.22-1.72,4.39a2.9,2.9,0,0,1,2.11,0C28.9,34.41,28.76,31.46,27.14,30.87Z" transform="translate(0.19 -0.07)"/><path class="cls-17" d="M27.49,32.19c-.9.14-.54,2,.39,1.5C28.55,33.35,28.29,32.06,27.49,32.19Z" transform="translate(0.19 -0.07)"/><path class="cls-16" d="M45.24,31c-2.2-1.37-4.05,3.75-1.62,4.46a2.59,2.59,0,0,1,1.91-.33C46.35,34,46.42,31.68,45.24,31Z" transform="translate(0.19 -0.07)"/><path class="cls-17" d="M45.12,32c-.85,0-.71,1.94.22,1.58C46,33.35,45.89,32,45.12,32Z" transform="translate(0.19 -0.07)"/><path class="cls-18" d="M45.3,30.84c-2-.74-2.63,1.63-2.63,1.63A1.84,1.84,0,0,1,45,32a4.12,4.12,0,0,0,5.07-.43C47.62,32.43,46.37,31.24,45.3,30.84Z" transform="translate(0.19 -0.07)"/><path class="cls-18" d="M25.69,31a6.43,6.43,0,0,1-5.1,1,4.51,4.51,0,0,0,5.31.13,2.07,2.07,0,0,1,2.42.16S27.75,29.91,25.69,31Z" transform="translate(0.19 -0.07)"/><path class="cls-19" d="M26.38,39.78c2.34,6.49,4.8,8.45,9.2,8.57a6.53,6.53,0,0,0,7-5.12,13.78,13.78,0,0,1,2.64-3.71c-2.22.81-6,.6-9.52.75C32.72,40.39,28.77,41.06,26.38,39.78Z" transform="translate(0.19 -0.07)"/><path class="cls-20" d="M27.28,40.61s1.69,6,8,5.77c5.68-.22,6.55-2.29,6.94-3.74a4.41,4.41,0,0,1,2.13-2.7C34.46,42.51,27.28,40.61,27.28,40.61Z" transform="translate(0.19 -0.07)"/><path class="cls-10" d="M29,41s0,1.34,1.91,1.74a22.8,22.8,0,0,0,8.1.12,4.61,4.61,0,0,0,3-2.22A57.93,57.93,0,0,1,29,41Z" transform="translate(0.19 -0.07)"/><path class="cls-10" d="M36.77,45.06a20.15,20.15,0,0,1-5.08-.34c-.85-.22-.86.11-.71.4,0,0,.26,1.2,4.24,1.32,3.47.1,5-1.46,4.63-1.77S39,45,36.77,45.06Z" transform="translate(0.19 -0.07)"/><path class="cls-21" d="M29,41a1.24,1.24,0,0,0,.28.78s9.79-.67,12-.24a6.37,6.37,0,0,0,.66-.9A57.22,57.22,0,0,1,29,41Z" transform="translate(0.19 -0.07)"/><path class="cls-21" d="M32,45a13.87,13.87,0,0,0,7.23-.09A21.19,21.19,0,0,1,32,45Z" transform="translate(0.19 -0.07)"/></g></svg>