<svg id="Layer_1" data-name="Layer 1" xmlns="http://www.w3.org/2000/svg" xmlns:xlink="http://www.w3.org/1999/xlink" viewBox="0 0 66 66"><defs><style>.cls-1{fill:none;}.cls-2{clip-path:url(#clip-path);}.cls-3{fill:#7997a0;}.cls-4{fill:#912907;}.cls-5{fill:#801a00;}.cls-6{fill:#f06799;}.cls-7{fill:url(#linear-gradient);}.cls-8{fill:#ff87b3;}.cls-9{fill:#fab077;}.cls-10{fill:#591702;}.cls-11{fill:#f59a62;}.cls-12{fill:#283b21;}.cls-13,.cls-18{opacity:0.3;}.cls-14{fill:#960800;}.cls-15{fill:#8f2f2b;}.cls-16{fill:#fff2de;}.cls-17{fill:#e8d3b5;}.cls-18{fill:#bf3c1b;}.cls-19{fill:#82a375;}.cls-20{fill:#a61900;opacity:0.2;}.cls-21{fill:#ffbe8a;}.cls-22{fill:#1f1a17;}.cls-23{fill:#f7985c;}.cls-24{fill:#e6864a;}.cls-25{fill:#a8370a;}</style><clipPath id="clip-path" transform="translate(0.18 -0.07)"><circle class="cls-1" cx="32.82" cy="33.07" r="33"/></clipPath><linearGradient id="linear-gradient" x1="34.53" y1="53.23" x2="34.53" y2="56.72" gradientUnits="userSpaceOnUse"><stop offset="0" stop-color="#e88958"/><stop offset="0.34" stop-color="#f49d62"/><stop offset="0.69" stop-color="#fcab69"/><stop offset="1" stop-color="#ffb06b"/></linearGradient></defs><g class="cls-2"><rect class="cls-3" width="66" height="66"/><path class="cls-4" d="M55.72,40.34c3.28-1.5,1.89-8.5-1.81-6.24C56.42,34,54,38,52.59,35c-.89-1.9,1.16-2.82,2.08-4.09A7.26,7.26,0,0,0,56,25.63c-.45-5.16-5.19-8.41-7.92-12.38-3-4.33-7.19-7.1-12.61-5.15a8.67,8.67,0,0,0-3.38,2.5,5.3,5.3,0,0,0-1.69-2.37c-.09.77-.13,1.55-.15,2.34-2.94-1.81-7.56-1.08-10.12.58-3.48,2.26-3.15,5.73-4.56,9.12-1.28,3.09-5.35,6.7-5.09,10.29.16,2.26,1.76,3.42,1.66,5.73-.09,1.94-2.19,3-1.23,4.87s4.91,1.25,2.89,4.5c-1.84,3-5.45-.54-3.19-1-2.49-1.22-3.53,2-3.17,3.94.51,2.69,4.28,2.74,6.3,2.2-5.27,9.64,9.74,12,17.16,5.64,3.18-2.74,5.74,4.48,9.58,4.82,5.2.47,7.94-3.26,6.88-6.59.88,2.79,4,3,6.32,2a6,6,0,0,0,3.48-5.89,3.77,3.77,0,0,1-4.27.86,2.86,2.86,0,0,1-1.35-4.46c1.44-2,5.53-4.66,1.54-6.82A2.92,2.92,0,0,0,55.72,40.34Z" transform="translate(0.18 -0.07)"/><path class="cls-5" d="M50.65,34.19c-1-2.83-5.35-2.63-7.72-2.61a48.72,48.72,0,0,0-10.09.77,10.64,10.64,0,0,0-4,1.63c-.89.62-2.18,1.93-3.37,1.81-.59-.07-.33-.39-.78-.59a14.16,14.16,0,0,0-2.59-1.28,4.94,4.94,0,0,0-5,3.22c-.47,2,.58,3.8,1.33,5.47a8.42,8.42,0,0,1-2.22,9.87c-1.45,1.35-1.89,2.44.18,3.78,3.34,2.16,8.05,2.29,13.34.52,2.51-.84,10.66,3.67,13.45,2.21,2.23-1.17,2.92-2.34,3.81-6.37.72.9,1.69,2.37,3,2.36-1.25-2.35,0-5,.34-7.47.36-2.63-.11-5.28,0-7.93C50.39,37.91,51.21,35.82,50.65,34.19Z" transform="translate(0.18 -0.07)"/><path class="cls-6" d="M40.53,55.33,38.9,58.54c.51.26,1,2.6,1.24,3.86a30.28,30.28,0,0,0,.92,3.67h3.86a19.16,19.16,0,0,1-1.25-4.39C43.12,59,42.59,56.38,40.53,55.33Z" transform="translate(0.18 -0.07)"/><path class="cls-6" d="M31,58.54l-1.63-3.21c-2.06,1.05-2.58,3.62-3.14,6.35A19.74,19.74,0,0,1,25,66.07h3.86a32.11,32.11,0,0,0,.91-3.67C30,61.14,30.48,58.8,31,58.54Z" transform="translate(0.18 -0.07)"/><path class="cls-6" d="M40.92,62.17c1.08-4,1.2-6.48-1.3-7.3s-6.9-1.06-9.56.07c-2.12.91-2.8,2.38-1.35,6.86a30.06,30.06,0,0,1,1.11,4.27H40.08A33.11,33.11,0,0,1,40.92,62.17Z" transform="translate(0.18 -0.07)"/><path class="cls-7" d="M37.66,50.7c.21-3.57-6-3.7-5.95.19,0,1.73.13,3-.23,3.6-2.47,3.86,8.45,4.33,6.15.19C37.11,53.75,37.57,52.27,37.66,50.7Z" transform="translate(0.18 -0.07)"/><path class="cls-8" d="M37.42,59.55a10.23,10.23,0,0,1-5.67-.09c-1-.26-1.61.91-1.29,1.9C30.88,62.69,33,63,34.89,63c3.67,0,5-1.42,4.43-3C39.15,59.52,38.36,59.22,37.42,59.55Z" transform="translate(0.18 -0.07)"/><path class="cls-9" d="M33.21,17C25,18,18.44,24.63,19.52,36.05s8.79,18.3,17.09,18.23C43,54.23,50.67,43.81,50.25,32,49.83,20.71,41.44,15.9,33.21,17Z" transform="translate(0.18 -0.07)"/><path class="cls-10" d="M47,27.27c-1.27-.22-3.89.31-3.42,2.22.14.58.45.63.87.34s.44-.87.74-1.16c1.51-1.42,4,0,4.78,1.5A3.6,3.6,0,0,0,47,27.27Z" transform="translate(0.18 -0.07)"/><path class="cls-10" d="M25.83,28.26a3.6,3.6,0,0,0-2.77,3.32c.54-1.61,3.11-3.38,5.11-2.2.41.25.67.88,1.08,1s.87.14.92-.47C30.3,28,27.23,27.86,25.83,28.26Z" transform="translate(0.18 -0.07)"/><path class="cls-11" d="M48.64,37.33A3.11,3.11,0,0,0,46,36.08c-1.18-.08-2.81.27-2,2.11.46,1,5.09,2,4.79-.26A1.76,1.76,0,0,0,48.64,37.33Z" transform="translate(0.18 -0.07)"/><path class="cls-11" d="M28.17,37.11a3.5,3.5,0,0,0-3.12.09c-1.16.48-2.53,1.56-.82,2.83.91.67,5.78-.6,4.42-2.46A1.61,1.61,0,0,0,28.17,37.11Z" transform="translate(0.18 -0.07)"/><path class="cls-12" d="M27.79,31.53c-2.14-.79-3.37,3-1.6,4.41a1.89,1.89,0,0,1,1.91-.22C29.46,34.92,29.38,32.12,27.79,31.53Z" transform="translate(0.18 -0.07)"/><g class="cls-13"><path class="cls-14" d="M37,42.06a29.56,29.56,0,0,1-4.61,0,10.39,10.39,0,0,1-4.18-1.44,17,17,0,0,0,1.31,3.14A12.41,12.41,0,0,0,31.16,46a8.14,8.14,0,0,0,6.07,2.82c4.34,0,4.91-2.74,5.05-4.78.09-1.25,1.35-2.1,1.94-3.22a2.45,2.45,0,0,0,.29-.85,9.26,9.26,0,0,1-3.25,1.5A38.58,38.58,0,0,1,37,42.06Z" transform="translate(0.18 -0.07)"/></g><path class="cls-15" d="M29.64,42.18s1.94,5,7.07,4.73c4.62-.26,5.14-2,5.33-3.21a3.19,3.19,0,0,1,1.48-2.29A20,20,0,0,1,29.64,42.18Z" transform="translate(0.18 -0.07)"/><path class="cls-16" d="M31.33,42.66A2.61,2.61,0,0,0,33,44.88a10.59,10.59,0,0,0,6.62.11c1.56-.45,2.42-3,2.42-3A23.41,23.41,0,0,1,31.33,42.66Z" transform="translate(0.18 -0.07)"/><path class="cls-16" d="M37.82,45.05a14.84,14.84,0,0,1-5.13-.53c-.86-.31-.86.15-.69.56,0,0,.3,1.69,4.31,1.88,3.51.18,5-2,4.6-2.43S40,45,37.82,45.05Z" transform="translate(0.18 -0.07)"/><path class="cls-17" d="M31.32,42.64a2.79,2.79,0,0,0,.43,1.28s7.82-1.17,9.68-.57A7.13,7.13,0,0,0,42.05,42,25.79,25.79,0,0,1,31.32,42.64Z" transform="translate(0.18 -0.07)"/><path class="cls-17" d="M33.15,44.52a10.23,10.23,0,0,0,7.27-.06A15.61,15.61,0,0,1,33.15,44.52Z" transform="translate(0.18 -0.07)"/><path class="cls-18" d="M37.42,38.2c-1.14.06-1.65-.32-2.39.08s.48,1.86,2.49,1.72,2.81-1.57,2.33-2S38.68,38.14,37.42,38.2Z" transform="translate(0.18 -0.07)"/><path class="cls-12" d="M47.7,31C45.5,29.61,43.83,34,46,35a2.4,2.4,0,0,1,2,.29C49,34.39,48.89,31.67,47.7,31Z" transform="translate(0.18 -0.07)"/><path class="cls-19" d="M27.43,32.46c-.9,0-.77,1.79.19,1.46C28.33,33.69,28.22,32.44,27.43,32.46Z" transform="translate(0.18 -0.07)"/><path class="cls-19" d="M46.88,31.93c-.88,0-.86,1.74.11,1.46C47.69,33.2,47.66,32,46.88,31.93Z" transform="translate(0.18 -0.07)"/><path class="cls-9" d="M15.93,31.34c-3.94,1.39-2.22,7.1,1,8a7.56,7.56,0,0,0,3.21.11l.06-.1c.46-.79-.47-4.61-.73-5.39C18.85,32,17.82,30.67,15.93,31.34Z" transform="translate(0.18 -0.07)"/><path class="cls-20" d="M42.89,16.38a41.76,41.76,0,0,0-13.47.68c-3,.68-6.19,1.93-7.93,4.64-1.24,1.92-3.34,4-3.63,6.42C17.6,30.34,19.1,32,20,33.9c1.17,2.34.1,4.14.17,6.5.05,1.53.81,1.82,2.25,1.87-2.33-2.26-.16-5,.27-7.48.23-1.35-.32-2.55-.31-3.93a7.3,7.3,0,0,1,.06-.94,21.25,21.25,0,0,1,.84-3.59c-.47,4.22,5.62,1.91,7.34,1.23a3.14,3.14,0,0,1,1.77-.33c-2.06,2.13,1,5.81,3.48,5.81C40,33,41,31.35,42.73,29a5.71,5.71,0,0,1,3.85-2.43c1.05-.13,3.25.6,3.69-.65.66-1.86-.16-5.42-1.09-7.12C48,16.73,45,16.6,42.89,16.38Z" transform="translate(0.18 -0.07)"/><path class="cls-18" d="M18.39,33.47c-1-.5-3.78,0-2.67,1.92.8-1.6,1.9-.42,1.62.74-.18.77-1.18.7-.27,1.79a2,2,0,0,0,2.16.23C21.05,37.35,19.66,34.09,18.39,33.47Z" transform="translate(0.18 -0.07)"/><path class="cls-4" d="M37.42,11.06a41.61,41.61,0,0,0-5-.6,18.59,18.59,0,0,0-8.2,2.4c-3.78,2-6.22,6.57-7.32,10.63a16,16,0,0,0-.47,7.44c.46,2.16,3.26,3,3.43,5.21.07,1-.81,1.75-.79,2.71A3.13,3.13,0,0,0,20,41a5.22,5.22,0,0,0,2.36.71c-1.56-1.71-.05-2.71.09-4.38a13.06,13.06,0,0,0-.57-4.47,6.83,6.83,0,0,1,2.05-8c.25,3.07,3.39,3,5.64,2.51,1-.2,3.95-1.39,4.46.14.32.95-1.2,1.78-1.55.69,0,1.62.05,3,2,3.38a6,6,0,0,0,6.86-2.95,5.22,5.22,0,0,1,2-2,7.33,7.33,0,0,1,3.3-.59c2.56,0,3.45-1.92,3.33-4.36C49.64,15,43.3,11.58,37.42,11.06Z" transform="translate(0.18 -0.07)"/><path class="cls-21" d="M37.4,39c1.66-.09,3.52-.53,2-2.52C36.81,33.06,31.71,39.36,37.4,39Z" transform="translate(0.18 -0.07)"/><path class="cls-22" d="M26.31,31.58A5.48,5.48,0,0,1,22.14,33a3.85,3.85,0,0,0,4.49-.56,1.77,1.77,0,0,1,2.06-.18S27.91,30.4,26.31,31.58Z" transform="translate(0.18 -0.07)"/><path class="cls-22" d="M47.93,31.06c-1.61-1.18-2.57.72-2.57.72a1.77,1.77,0,0,1,2.06.18,3.84,3.84,0,0,0,4.49.57A5,5,0,0,1,47.93,31.06Z" transform="translate(0.18 -0.07)"/><path class="cls-23" d="M36.56,34.49c-.47.08-.81.41-.77.73s.46.51.93.42.81-.41.77-.73S37,34.4,36.56,34.49Z" transform="translate(0.18 -0.07)"/><path class="cls-23" d="M35.26,35.88c-.32.2-.49.55-.38.76s.47.24.79,0,.5-.54.38-.76S35.59,35.68,35.26,35.88Z" transform="translate(0.18 -0.07)"/><path class="cls-23" d="M41,35.3c-.35-.14-.7,0-.78.18s.14.55.49.68.7.06.78-.18S41.33,35.44,41,35.3Z" transform="translate(0.18 -0.07)"/><path class="cls-23" d="M32.24,34.45c-.36.09-.6.36-.52.59s.43.37.79.27.6-.36.53-.6S32.61,34.35,32.24,34.45Z" transform="translate(0.18 -0.07)"/><path class="cls-24" d="M28.15,36.66c-.37,0-.67.2-.67.46s.3.46.67.46.67-.2.67-.46S28.52,36.66,28.15,36.66Z" transform="translate(0.18 -0.07)"/><path class="cls-24" d="M44.41,36.72c-.37,0-.67.2-.67.46s.3.46.67.46.67-.2.68-.46S44.79,36.72,44.41,36.72Z" transform="translate(0.18 -0.07)"/><path class="cls-24" d="M25.13,36.56c-.46.16-.76.53-.66.83s.57.43,1,.28.76-.53.66-.84S25.6,36.41,25.13,36.56Z" transform="translate(0.18 -0.07)"/><path class="cls-24" d="M29.45,35.83c-.38,0-.64.27-.59.51s.4.42.77.37.64-.27.59-.52S29.82,35.78,29.45,35.83Z" transform="translate(0.18 -0.07)"/><path class="cls-24" d="M48.45,36.57c-.34-.18-.68-.13-.78.1s.11.56.44.74.68.13.78-.11S48.78,36.74,48.45,36.57Z" transform="translate(0.18 -0.07)"/><path class="cls-23" d="M35,34.16c-.26,0-.45.23-.42.41s.26.29.52.24.44-.23.41-.41S35.25,34.11,35,34.16Z" transform="translate(0.18 -0.07)"/><path class="cls-24" d="M26.58,37.67c-.26,0-.44.24-.41.42s.25.29.51.24.45-.23.42-.41S26.84,37.63,26.58,37.67Z" transform="translate(0.18 -0.07)"/><path class="cls-23" d="M41.92,34.65c-.25-.09-.49,0-.54.15s.11.39.36.48.49,0,.54-.16S42.17,34.74,41.92,34.65Z" transform="translate(0.18 -0.07)"/><path class="cls-24" d="M46.82,37.09c-.25-.08-.49,0-.54.16s.1.39.35.48.5,0,.55-.16S47.07,37.18,46.82,37.09Z" transform="translate(0.18 -0.07)"/><path class="cls-23" d="M40.48,33.81c-.31-.05-.58.09-.61.32s.22.44.53.49.59-.09.61-.31S40.8,33.86,40.48,33.81Z" transform="translate(0.18 -0.07)"/><path class="cls-23" d="M33.21,37c-.36.1-.6.39-.54.63s.4.36.76.25.6-.39.54-.63S33.57,36.88,33.21,37Z" transform="translate(0.18 -0.07)"/><path class="cls-23" d="M38.51,33.89c-.44-.08-.83.11-.88.42s.28.62.72.69.83-.12.88-.42S39,34,38.51,33.89Z" transform="translate(0.18 -0.07)"/><path class="cls-24" d="M43.43,35.41c-.44-.08-.83.11-.87.42s.28.61.72.69.83-.12.87-.43S43.87,35.48,43.43,35.41Z" transform="translate(0.18 -0.07)"/><path class="cls-23" d="M30.16,37.08c-.44,0-.79.26-.78.57s.4.55.84.55.8-.26.78-.57S30.61,37.07,30.16,37.08Z" transform="translate(0.18 -0.07)"/><path class="cls-24" d="M45.75,35.5c-.45,0-.8.26-.78.57s.39.55.83.55.8-.26.78-.57S46.19,35.5,45.75,35.5Z" transform="translate(0.18 -0.07)"/><path class="cls-23" d="M39.35,35.33c-.42-.19-.84-.11-.94.16s.17.64.6.82.84.11.94-.16S39.78,35.51,39.35,35.33Z" transform="translate(0.18 -0.07)"/><path class="cls-23" d="M31.8,35.79c-.5.08-.87.41-.83.75s.49.56,1,.48.87-.41.83-.75S32.29,35.71,31.8,35.79Z" transform="translate(0.18 -0.07)"/><path class="cls-23" d="M33.8,35.14c-.48.18-.79.58-.69.91s.56.44,1,.27.78-.57.69-.9S34.27,35,33.8,35.14Z" transform="translate(0.18 -0.07)"/><path class="cls-23" d="M42.12,36.52c-.5-.07-.93.15-1,.49s.33.67.83.74.93-.14,1-.48S42.62,36.59,42.12,36.52Z" transform="translate(0.18 -0.07)"/><path class="cls-25" d="M35.4,10.51a6.86,6.86,0,0,0-3.21,2,14.06,14.06,0,0,1,2.33,4.13,4.54,4.54,0,0,1-1.84,4.44c-1.5,1-10.06,2.51-4.14,4.57,1.82.62,3.7-.55,5.49-.14,1.43.32,2.36,2.41.88,3.38,1.28.62,3.27-.17,4.34-.86a18,18,0,0,1,2.34-1.47A12,12,0,0,0,46.46,23c1.76-2.35,1.81-5.36-.73-8.92C43.68,11.24,38.79,9.6,35.4,10.51Z" transform="translate(0.18 -0.07)"/><path class="cls-25" d="M26.1,12c-7.47.5-6,6.94-9.15,11.56-1.08,1.57-2.12,2.93-1.21,4.76.76,1.51,3.12,3.69,4.8,3.88A6.12,6.12,0,0,1,20,28.28C21.38,23.5,27,22,29.39,18.18,31.39,15,30,11.76,26.1,12Z" transform="translate(0.18 -0.07)"/></g></svg>