<svg xmlns="http://www.w3.org/2000/svg" xmlns:xlink="http://www.w3.org/1999/xlink" viewBox="0 0 66 66"><defs><style>.cls-1{fill:none;}.cls-2{isolation:isolate;}.cls-3{clip-path:url(#clip-path);}.cls-4{fill:#fff;}.cls-5{fill:#ffbc82;}.cls-6{fill:#85b428;}.cls-7{fill:url(#linear-gradient);}.cls-8{fill:#bbe351;}.cls-10,.cls-8{opacity:0.5;}.cls-9{fill:#fff9f0;}.cls-10{fill:#d9af96;mix-blend-mode:multiply;}.cls-11{fill:#4f2619;}.cls-12{fill:#b54d26;}.cls-12,.cls-21{opacity:0.3;}.cls-13{fill:#2f2120;}.cls-14{fill:#7d4732;}.cls-15{fill:#b08a72;}.cls-16{fill:#ff7752;}.cls-17{opacity:0.8;}.cls-18{fill:#ff3b3b;}.cls-19{fill:#a80a0a;}.cls-20{fill:#e8dac5;}.cls-21,.cls-24{fill:#d14f2e;}.cls-22{fill:#121b21;}.cls-23{fill:#784430;}.cls-24{opacity:0.4;}</style><clipPath id="clip-path" transform="translate(0.18 -0.07)"><circle class="cls-1" cx="32.82" cy="33.07" r="33"/></clipPath><linearGradient id="linear-gradient" x1="4127.05" y1="51.96" x2="4127.05" y2="55.25" gradientTransform="translate(-4092.82)" gradientUnits="userSpaceOnUse"><stop offset="0" stop-color="#e88958"/><stop offset="0.34" stop-color="#f49d62"/><stop offset="0.69" stop-color="#fcab69"/><stop offset="1" stop-color="#ffb06b"/></linearGradient></defs><g class="cls-2"><g id="Layer_1" data-name="Layer 1"><g class="cls-3"><rect class="cls-4" width="66" height="66"/><path class="cls-5" d="M27,66.07c.28-2.47,0-6.59,2.53-7.44.82-.28,2.13-2.61,1.69-3.38s-.87-1.15-1.68-.82C25,56.21,24,59.82,23.73,66.07Z" transform="translate(0.18 -0.07)"/><path class="cls-5" d="M42.12,66.07c-.28-2.47,0-6.59-2.53-7.44-.82-.28-2.13-2.61-1.69-3.38s.87-1.15,1.68-.82c4.5,1.78,5.52,5.39,5.81,11.64Z" transform="translate(0.18 -0.07)"/><path class="cls-6" d="M39.28,54.1c-2.47-.81-7-1.08-9.71.07-2.15.92-2.84,2.41-1.37,7a22.77,22.77,0,0,1,1.13,4.94H39.62a30.84,30.84,0,0,1,1-4.56C41.69,57.41,41.81,54.93,39.28,54.1Z" transform="translate(0.18 -0.07)"/><path class="cls-7" d="M37.51,53.94c-.68-.84-.31-2.48-.22-4.08.21-3.62-6.05-3.76-6.05.2,0,1.75.2,3.13-.23,3.66-2.17,2.65,3.55,4.47,3.55,4.47S39.34,56.21,37.51,53.94Z" transform="translate(0.18 -0.07)"/><path class="cls-8" d="M29.86,60.35c.43,1.34,2.6,1.7,4.5,1.66,3.73,0,5.13-1.44,4.5-3.09-.17-.45-1-.75-1.93-.42a10.33,10.33,0,0,1-5.75-.09C30.13,58.15,29.54,59.34,29.86,60.35Z" transform="translate(0.18 -0.07)"/><path class="cls-9" d="M33.33,55.66a.89.89,0,1,0,.89-.89A.89.89,0,0,0,33.33,55.66Z" transform="translate(0.18 -0.07)"/><path class="cls-9" d="M31.41,55.09a.79.79,0,0,0,.79.79.79.79,0,1,0-.79-.79Z" transform="translate(0.18 -0.07)"/><path class="cls-9" d="M30.49,53.81a.64.64,0,1,0,.64-.64A.64.64,0,0,0,30.49,53.81Z" transform="translate(0.18 -0.07)"/><path class="cls-9" d="M30.58,52.76a.46.46,0,1,0,.46-.45A.45.45,0,0,0,30.58,52.76Z" transform="translate(0.18 -0.07)"/><path class="cls-9" d="M37,55.09a.79.79,0,1,1-.78-.78A.78.78,0,0,1,37,55.09Z" transform="translate(0.18 -0.07)"/><path class="cls-9" d="M37.94,53.81a.64.64,0,1,1-.64-.64A.64.64,0,0,1,37.94,53.81Z" transform="translate(0.18 -0.07)"/><path class="cls-9" d="M37.86,52.76a.46.46,0,0,1-.46.46.46.46,0,0,1,0-.91A.46.46,0,0,1,37.86,52.76Z" transform="translate(0.18 -0.07)"/><path class="cls-10" d="M20.35,40.73a4.27,4.27,0,0,1-4.82-4c-.57-4.56,1-6,3-5.82S20.35,40.73,20.35,40.73Z" transform="translate(0.18 -0.07)"/><path class="cls-11" d="M35.12,40.49c4.59-.34,6.18,5.39,8,5.91,20.8,5.81,18.21-33.68-7-39.3C3.47,9.69.65,53,25.91,46.77,30.54,45.63,27.83,41,35.12,40.49Z" transform="translate(0.18 -0.07)"/><path class="cls-9" d="M45.82,39.22a3.13,3.13,0,0,0-2.61,3.6,3.23,3.23,0,0,0,3.24,3.11,3.14,3.14,0,0,0,2.61-3.6A3.23,3.23,0,0,0,45.82,39.22Zm.53,5.54A2.35,2.35,0,0,1,44,42.5a2.28,2.28,0,0,1,1.89-2.61,2.33,2.33,0,0,1,2.35,2.26A2.27,2.27,0,0,1,46.35,44.76Z" transform="translate(0.18 -0.07)"/><path class="cls-5" d="M48.82,32.38C48.18,21.63,44,15.2,33.4,15.53,22.33,15.87,18.69,23.17,19,34.09s8.12,18.1,16.3,18.59C41.54,53.05,49.46,43.28,48.82,32.38Z" transform="translate(0.18 -0.07)"/><path class="cls-12" d="M36.11,24.78C31,29.52,23.72,28.31,19.58,32.31c-.64.62-.33-.81-1-1.49-1-1.05.7-4.05,1.24-5,2.51-4.36,7-7.57,11.55-9.54a24.14,24.14,0,0,1,4.71-1.5c2.51-.5,5.35-.61,7.62.81,3.38,2.11,5.82,5.65,5.55,9.81-.08,1.3,0,6.05-.88,3.52C47.29,25.8,40,21,40.44,19A31.38,31.38,0,0,1,36.11,24.78Z" transform="translate(0.18 -0.07)"/><path class="cls-13" d="M26.15,35.38a3.06,3.06,0,0,0-2.21-.06c-1.59-1.24-.43-5.44,1.85-4.59C27.49,31.37,27.6,34.48,26.15,35.38Z" transform="translate(0.18 -0.07)"/><path class="cls-14" d="M22.92,27.91a3.32,3.32,0,0,1,2.56-2.27,3,3,0,0,1,3.09,1.71C27.55,27,25.72,25.58,22.92,27.91Z" transform="translate(0.18 -0.07)"/><path class="cls-15" d="M26.24,32.62c.84-.13,1.11,1.23.4,1.58C25.65,34.69,25.3,32.76,26.24,32.62Z" transform="translate(0.18 -0.07)"/><path class="cls-11" d="M29.43,10.12a14.11,14.11,0,0,1,7.53.66c3.29,1.18,6.66,2.59,9,5.29a18.09,18.09,0,0,1,3.74,8.8c.29,1.75-.89,4.75-.93,6.48-.06-7-7.77-8.79-8-13.55A22.61,22.61,0,0,1,27.65,27.92c-7.74,2.24-8.68,4.17-9.27,7.61-2.53-3.19-.75-9.93-.42-11.85C19,17.57,23,11.37,29.43,10.12Z" transform="translate(0.18 -0.07)"/><path class="cls-16" d="M47.12,37.48a1.56,1.56,0,0,1,.18.54c.28,2-3.87,1.08-4.28.21-.77-1.63.68-1.94,1.73-1.86A2.79,2.79,0,0,1,47.12,37.48Z" transform="translate(0.18 -0.07)"/><path class="cls-16" d="M26.83,37.34a1.84,1.84,0,0,1,.28.58c.65,2.22-4.07,2.16-4.67,1.24-1.12-1.71.42-2.4,1.6-2.56C24.94,36.48,26.21,36.48,26.83,37.34Z" transform="translate(0.18 -0.07)"/><g class="cls-17"><path class="cls-18" d="M44.07,40.66c-2.49.57-4.93.21-8.67.29-3.1,0-7.65.93-10.08-.5,4,6.83,6.47,8.11,9.64,8.35,4,.3,5.37-2.45,6-4.53A12,12,0,0,1,44.07,40.66Z" transform="translate(0.18 -0.07)"/></g><path class="cls-19" d="M27.18,41.66a31.15,31.15,0,0,0,15.24,0,4.28,4.28,0,0,0-2,2.27c-.61,1.53-2.72,2.57-5.89,2.46C29.56,46.24,27.18,41.66,27.18,41.66Z" transform="translate(0.18 -0.07)"/><path class="cls-9" d="M29,42.09A2.46,2.46,0,0,0,30.9,44a16,16,0,0,0,7.2.43c1.69-.25,2.56-2.4,2.56-2.4A33.48,33.48,0,0,1,29,42.09Z" transform="translate(0.18 -0.07)"/><path class="cls-9" d="M29.82,44.09c-.17-.37-.09-.94.71-.39,1.12.77,3,.95,5.27.89,2.1-.05,3.17-.67,3.57-.27s-1.49,2.62-5.1,2.15S29.82,44.09,29.82,44.09Z" transform="translate(0.18 -0.07)"/><path class="cls-20" d="M29.45,43.07s8.48-.63,10.5.17a4.64,4.64,0,0,0,.71-1.19,38.63,38.63,0,0,1-11.65,0A2.32,2.32,0,0,0,29.45,43.07Z" transform="translate(0.18 -0.07)"/><path class="cls-20" d="M31.2,44a11.71,11.71,0,0,0,6.67.4S34.21,45.91,31.2,44Z" transform="translate(0.18 -0.07)"/><path class="cls-21" d="M37.5,36.84c.26.31-.57,1.1-1.57,1.15s-2-1-1.45-1.21.78,0,1.49.06S37.19,36.49,37.5,36.84Z" transform="translate(0.18 -0.07)"/><path class="cls-13" d="M45.85,30.78c1.23.78,1.13,3.2.26,4.33a2.75,2.75,0,0,0-2,.33C41.56,34.67,43.56,29.32,45.85,30.78Z" transform="translate(0.18 -0.07)"/><path class="cls-15" d="M45.74,32.36c.8,0,.91,1.4.2,1.66C45,34.39,44.84,32.38,45.74,32.36Z" transform="translate(0.18 -0.07)"/><path class="cls-22" d="M50.91,31.49a4.33,4.33,0,0,1-5.33.4,2,2,0,0,0-2.45.45s.69-2.48,2.79-1.68C47,31.1,48.34,32.36,50.91,31.49Z" transform="translate(0.18 -0.07)"/><path class="cls-22" d="M18.9,31.8a4.74,4.74,0,0,0,5.58.2,2.17,2.17,0,0,1,2.54.2s-.56-2.47-2.75-1.35A6.81,6.81,0,0,1,18.9,31.8Z" transform="translate(0.18 -0.07)"/><path class="cls-23" d="M45.07,11.48a21.76,21.76,0,0,1,8.08,9.3s-5.95,5-10.38,0a6.37,6.37,0,0,1-1.62-4.11c-3.69,5.34-9.36,9.14-13.39,9a21.26,21.26,0,0,1-6.14-1.28c-1.69-.59-3.25-1.49-4.91-2.16-.32-.13-3.57-1.29-3.76-1,0,0,3.93-6,8.43-8.59C21.38,12.71,35.7,20.07,45.07,11.48Z" transform="translate(0.18 -0.07)"/><path class="cls-23" d="M48.06,27.92a3.33,3.33,0,0,0-2.5-2.34,3,3,0,0,0-3.13,1.63C43.46,26.83,45.33,25.52,48.06,27.92Z" transform="translate(0.18 -0.07)"/><path class="cls-5" d="M17.87,39.39a4.09,4.09,0,0,0,2.38.25l.05-.11c.35-.82-.28-4.88-.46-5.71-.46-2.1-1.2-3.57-2.62-2.94C14.28,32.2,15.47,38.28,17.87,39.39Z" transform="translate(0.18 -0.07)"/><path class="cls-24" d="M19.35,37.35c.77-1.07-.46-4-1.18-4.43s-1.87.65-1,2.31c.14-1.7.87-.72.93.45,0,.79-.47.89.16,1.8C18.59,38,19.11,37.69,19.35,37.35Z" transform="translate(0.18 -0.07)"/><path class="cls-9" d="M19.27,39.82a3.12,3.12,0,0,0-2.86,3.39,3.21,3.21,0,0,0,3,3.34,3.12,3.12,0,0,0,2.86-3.39A3.21,3.21,0,0,0,19.27,39.82Zm.13,5.56A2.34,2.34,0,0,1,17.22,43a2.26,2.26,0,0,1,2.08-2.46,2.33,2.33,0,0,1,2.17,2.43A2.26,2.26,0,0,1,19.4,45.38Z" transform="translate(0.18 -0.07)"/></g></g></g></svg>