<svg id="Layer_1" data-name="Layer 1" xmlns="http://www.w3.org/2000/svg" xmlns:xlink="http://www.w3.org/1999/xlink" viewBox="0 0 66 66"><defs><style>.cls-1{fill:none;}.cls-2{clip-path:url(#clip-path);}.cls-3{fill:#fff;}.cls-4{fill:#fdd281;}.cls-5{fill:#f4bb6e;}.cls-6{fill:#c9beb7;}.cls-7{fill:#ffcb9e;}.cls-8{fill:url(#linear-gradient);}.cls-9{fill:#f0eae6;opacity:0.4;}.cls-10,.cls-11{fill:#bf3c1b;}.cls-10{opacity:0.15;}.cls-11{opacity:0.2;}.cls-12{fill:#ffe8bd;}.cls-13{fill:#ffb387;}.cls-14{fill:#a16b43;}.cls-15{opacity:0.5;}.cls-16{fill:#f04d4d;}.cls-17{fill:#8f3935;}.cls-18{fill:#fff9f0;}.cls-19{fill:#e8dac5;}.cls-20{fill:#305d80;}.cls-21{fill:#86bae3;}.cls-22{fill:#121b21;}</style><clipPath id="clip-path" transform="translate(0.18 -0.07)"><circle class="cls-1" cx="32.82" cy="33.07" r="33"/></clipPath><linearGradient id="linear-gradient" x1="34.48" y1="51.98" x2="34.48" y2="55.47" gradientUnits="userSpaceOnUse"><stop offset="0" stop-color="#eea17a"/><stop offset="0" stop-color="#eea17a"/><stop offset="0.36" stop-color="#f7b88e"/><stop offset="0.7" stop-color="#fdc69a"/><stop offset="1" stop-color="#ffcb9e"/></linearGradient></defs><g class="cls-2"><rect class="cls-3" width="66" height="66"/><path class="cls-4" d="M55.67,39.09c3.27-1.5,1.89-8.5-1.82-6.24,2.52-.09.09,3.91-1.32.9-.89-1.9,1.16-2.83,2.08-4.1a7.22,7.22,0,0,0,1.3-5.27C55.47,19.22,50.72,16,48,12,45,7.67,40.8,4.9,35.38,6.85A8.74,8.74,0,0,0,32,9.34,5.33,5.33,0,0,0,30.31,7c-.09.77-.13,1.55-.15,2.33C27.22,7.51,22.6,8.24,20,9.9c-3.48,2.26-3.15,5.73-4.55,9.11-1.29,3.1-5.36,6.71-5.1,10.3.16,2.25,1.77,3.42,1.66,5.73C12,37,9.86,38,10.82,39.91s4.91,1.25,2.89,4.49c-1.84,3-5.45-.54-3.19-1C8,42.17,7,45.4,7.36,47.33c.51,2.68,4.27,2.74,6.29,2.19-5.27,9.65,9.74,12,17.17,5.64C34,52.42,36.55,59.65,40.39,60c5.2.46,7.94-3.26,6.88-6.6.89,2.79,4,3,6.32,2a6,6,0,0,0,3.49-5.88,3.8,3.8,0,0,1-4.28.86,2.87,2.87,0,0,1-1.35-4.47C52.89,43.8,57,41.2,53,39A2.92,2.92,0,0,0,55.67,39.09Z" transform="translate(0.18 -0.07)"/><path class="cls-5" d="M51.21,34.76c-.48-2,1.09-3.55,1.14-5.44s-4.88-10.44-6.93-7.4c-.47.7,2.25,4.84,1.65,5.48a6.08,6.08,0,0,1-2.59,1.41A81.57,81.57,0,0,1,32.75,31c-2.42.36-4.78,1-7.19,1.36a12.88,12.88,0,0,1-4.79.2c-1.8-.42-1.81-2.17-3.32-2.93-2.87-1.45-5.19,1.53-4.77,4.26a8.07,8.07,0,0,0,1.91,3.54c1.3,1.52,2.88,2,3.75,4a8.41,8.41,0,0,1-2.22,9.87c-1.44,1.34-1.88,2.44.18,3.77,3.35,2.17,8.05,2.3,13.34.53,2.51-.84,10.67,3.66,13.45,2.21,2.23-1.18,2.92-2.34,3.81-6.37.72.89,1.69,2.36,3,2.36-1-1.92-.71-4.45-.45-6.5s1.66-3.53,1.7-5.52c0-.7-.38-2.14-.13-2.75s1.59-1.42,2.1-2A3.4,3.4,0,0,1,51.21,34.76Z" transform="translate(0.18 -0.07)"/><path class="cls-6" d="M40.48,54.08l-1.64,3.21c.15.07.53.49,1,2.82l3.52-.76C42.93,57.2,42.32,55,40.48,54.08Z" transform="translate(0.18 -0.07)"/><path class="cls-7" d="M43.08,59.41l-2.9.63c.16.74.28,1.42.39,2.08a19.43,19.43,0,0,0,1,3.95H44.8a13.23,13.23,0,0,1-1.31-4.45C43.38,60.92,43.25,60.19,43.08,59.41Z" transform="translate(0.18 -0.07)"/><path class="cls-6" d="M26.43,59.35l3.52.76c.5-2.33.88-2.75,1-2.82l-1.63-3.21C27.5,55,26.89,57.2,26.43,59.35Z" transform="translate(0.18 -0.07)"/><path class="cls-7" d="M29.64,60l-2.9-.63c-.17.78-.3,1.51-.42,2.21A12.79,12.79,0,0,1,25,66.07h3.28a20.12,20.12,0,0,0,1-3.95C29.36,61.46,29.48,60.78,29.64,60Z" transform="translate(0.18 -0.07)"/><path class="cls-6" d="M40.86,60.92c1.08-4,1.2-6.48-1.3-7.3s-6.89-1.07-9.55.07c-2.12.91-2.8,2.38-1.36,6.85a22.49,22.49,0,0,1,1.24,5.53h10A26.25,26.25,0,0,1,40.86,60.92Z" transform="translate(0.18 -0.07)"/><path class="cls-8" d="M37.61,49.45c.2-3.57-6-3.71-6,.19,0,1.73.13,3-.22,3.6-2.47,3.86,8.45,4.32,6.14.18C37.05,52.49,37.52,51,37.61,49.45Z" transform="translate(0.18 -0.07)"/><path class="cls-9" d="M37.37,58.29a10.22,10.22,0,0,1-5.67-.09c-1-.25-1.61.91-1.29,1.91.41,1.33,2.55,1.67,4.42,1.64,3.68-.06,5.05-1.42,4.43-3C39.09,58.26,38.31,58,37.37,58.29Z" transform="translate(0.18 -0.07)"/><path class="cls-7" d="M33.15,15.7c-8.23,1.05-14.76,7.68-13.68,19.09S28.25,53.1,36.55,53C42.92,53,50.61,42.56,50.19,30.77,49.78,19.46,41.38,14.64,33.15,15.7Z" transform="translate(0.18 -0.07)"/><path class="cls-7" d="M15.87,30.09c-3.94,1.39-2.22,7.09,1.05,8a7.72,7.72,0,0,0,3.21.12l.06-.1c.45-.8-.48-4.61-.74-5.39C18.79,30.77,17.76,29.42,15.87,30.09Z" transform="translate(0.18 -0.07)"/><path class="cls-10" d="M42.84,15.12a41.73,41.73,0,0,0-13.47.69c-3,.68-6.2,1.93-7.94,4.64-1.24,1.92-3.34,4-3.62,6.41s-3.49,2.66.41,6.32c1.91,1.79-.1,2.39.29,6.19.16,1.53,2.58,2.88,4.89,1.61-2.33-2.26-.49-4-.06-6.48.23-1.35-1-3.52-1-4.9,0-.31,0-.62.06-.93a21,21,0,0,1,.84-3.59c-.47,4.21,5.62,1.91,7.34,1.23A3.06,3.06,0,0,1,32.36,26c-2.06,2.12,1,5.81,3.48,5.81,4.09,0,5.12-1.69,6.83-4a5.64,5.64,0,0,1,3.85-2.43c1-.13,3.25.6,3.69-.65.66-1.87-.16-5.42-1.09-7.12C48,15.47,44.93,15.35,42.84,15.12Z" transform="translate(0.18 -0.07)"/><path class="cls-11" d="M18.33,32.22c-1-.51-3.78,0-2.66,1.92.79-1.6,1.89-.42,1.62.73-.19.78-1.19.71-.28,1.8a2,2,0,0,0,2.17.22C21,36.1,19.6,32.83,18.33,32.22Z" transform="translate(0.18 -0.07)"/><path class="cls-4" d="M37.37,9.81a43.93,43.93,0,0,0-5-.61,18.76,18.76,0,0,0-8.2,2.4c-3.78,2-6.22,6.58-7.32,10.63a16.36,16.36,0,0,0-.47,7.45c.46,2.16,3.26,3,3.43,5.21.07,1-.81,1.75-.79,2.7a3.11,3.11,0,0,0,1,2.15,5.36,5.36,0,0,0,2.37.72c-1.57-1.72-.06-2.71.08-4.39a13,13,0,0,0-.57-4.46,6.83,6.83,0,0,1,2-8c.25,3.07,3.39,3,5.64,2.5,1-.19,4-1.38,4.46.15.33.95-1.2,1.78-1.55.69,0,1.62,0,3,2,3.37a6,6,0,0,0,6.85-2.94,5.27,5.27,0,0,1,2-2,7.4,7.4,0,0,1,3.29-.59c2.57-.05,3.45-1.91,3.34-4.36C49.58,13.73,43.24,10.33,37.37,9.81Z" transform="translate(0.18 -0.07)"/><path class="cls-12" d="M35.35,9.26a6.81,6.81,0,0,0-3.22,2,13.82,13.82,0,0,1,2.33,4.13,4.55,4.55,0,0,1-1.84,4.44c-1.5,1-10.06,2.51-4.13,4.56,1.81.63,3.69-.55,5.48-.14,1.43.33,2.36,2.41.88,3.39,1.28.61,3.27-.17,4.35-.86a16.77,16.77,0,0,1,2.34-1.48,11.84,11.84,0,0,0,4.86-3.5c1.77-2.35,1.81-5.35-.72-8.92C43.63,10,38.73,8.35,35.35,9.26Z" transform="translate(0.18 -0.07)"/><path class="cls-12" d="M26.05,10.76c-7.48.51-6,7-9.16,11.56-1.08,1.57-2.12,2.94-1.2,4.77.75,1.5,3.11,3.68,4.79,3.88A6.12,6.12,0,0,1,20,27c1.36-4.79,6.93-6.25,9.36-10.11C31.33,13.73,29.9,10.51,26.05,10.76Z" transform="translate(0.18 -0.07)"/><path class="cls-13" d="M47.69,37.6a2.65,2.65,0,0,0-2.22-1c-1-.07-2.35.22-1.62,1.75.38.81,4.27,1.64,4-.2A1.61,1.61,0,0,0,47.69,37.6Z" transform="translate(0.18 -0.07)"/><path class="cls-13" d="M28.69,37.47a2.75,2.75,0,0,0-2.62-.69c-1.1.14-2.55.8-1.49,2.4.56.86,5,.91,4.37-1.16A1.86,1.86,0,0,0,28.69,37.47Z" transform="translate(0.18 -0.07)"/><path class="cls-14" d="M42.09,29.6c2.16.2,4-.44,7.21-.17C48.11,27.94,43.71,27.91,42.09,29.6Z" transform="translate(0.18 -0.07)"/><path class="cls-11" d="M37.28,38.3c-.73,0-1-.3-1.54,0s.6,1.29,1.51,1.21,1.88-.93,1.61-1.24S38.1,38.29,37.28,38.3Z" transform="translate(0.18 -0.07)"/><path class="cls-14" d="M22.8,29.13c4.06.1,5.43.28,8.24.21C29.56,27.44,24.59,27.57,22.8,29.13Z" transform="translate(0.18 -0.07)"/><g class="cls-15"><path class="cls-16" d="M36.71,40.85c-2.9.06-7.17.88-9.43-.46,3.72,6.39,6,7.59,9,7.82,3.72.28,5-2.3,5.62-4.24a11.09,11.09,0,0,1,2.91-3.39C42.5,41.11,40.21,40.78,36.71,40.85Z" transform="translate(0.18 -0.07)"/></g><path class="cls-17" d="M29,41.52s2.24,4.29,6.87,4.45c3,.1,4.94-.87,5.51-2.31a4,4,0,0,1,1.9-2.12A29.17,29.17,0,0,1,29,41.52Z" transform="translate(0.18 -0.07)"/><path class="cls-18" d="M30.73,41.92a2.31,2.31,0,0,0,1.77,1.81,15,15,0,0,0,6.74.4c1.59-.23,2.4-2.25,2.4-2.25A31.35,31.35,0,0,1,30.73,41.92Z" transform="translate(0.18 -0.07)"/><path class="cls-18" d="M37.08,44.27c-2.12,0-3.88-.12-4.93-.84-.75-.52-.83,0-.67.36,0,0,.66,1.78,4.18,2.24s5.16-1.65,4.77-2S39.05,44.22,37.08,44.27Z" transform="translate(0.18 -0.07)"/><path class="cls-19" d="M30.73,41.92a2.09,2.09,0,0,0,.41.91s7.94-.58,9.83.17a4.34,4.34,0,0,0,.67-1.12A36,36,0,0,1,30.73,41.92Z" transform="translate(0.18 -0.07)"/><path class="cls-19" d="M32.78,43.7c2.82,1.8,6.25.36,6.25.36A11,11,0,0,1,32.78,43.7Z" transform="translate(0.18 -0.07)"/><path class="cls-20" d="M27.57,31.2c-2.13-.8-3.22,3.13-1.73,4.3a2.84,2.84,0,0,1,2.07,0C29.26,34.71,29.16,31.8,27.57,31.2Z" transform="translate(0.18 -0.07)"/><path class="cls-21" d="M27.91,32.5c-.89.13-.56,1.94.37,1.49C28.94,33.66,28.69,32.38,27.91,32.5Z" transform="translate(0.18 -0.07)"/><path class="cls-20" d="M46.36,31.24c-2.14-1.37-4,3.65-1.64,4.36a2.61,2.61,0,0,1,1.88-.3C47.42,34.24,47.51,32,46.36,31.24Z" transform="translate(0.18 -0.07)"/><path class="cls-21" d="M46.24,32.31c-.85,0-.73,1.9.19,1.55C47.09,33.61,47,32.29,46.24,32.31Z" transform="translate(0.18 -0.07)"/><path class="cls-22" d="M46.42,31.13c-2-.75-2.6,1.58-2.6,1.58a1.81,1.81,0,0,1,2.29-.43,4.05,4.05,0,0,0,5-.37C48.69,32.72,47.48,31.54,46.42,31.13Z" transform="translate(0.18 -0.07)"/><path class="cls-22" d="M26.15,31.31a6.41,6.41,0,0,1-5,.89,4.46,4.46,0,0,0,5.23.19,2,2,0,0,1,2.38.18S28.2,30.26,26.15,31.31Z" transform="translate(0.18 -0.07)"/></g></svg>