<svg xmlns="http://www.w3.org/2000/svg" xmlns:xlink="http://www.w3.org/1999/xlink" viewBox="0 0 66 66"><defs><style>.cls-1{fill:none;}.cls-2{isolation:isolate;}.cls-3{clip-path:url(#clip-path);}.cls-29,.cls-4{fill:#fff;}.cls-5{fill:#fccb68;}.cls-6{fill:#eea54c;}.cls-7{fill:#ffae6d;}.cls-8{fill:#ebebeb;}.cls-9{fill:url(#linear-gradient);}.cls-10,.cls-22{fill:#c4170e;}.cls-10,.cls-13{opacity:0.2;}.cls-11{fill:#ffe496;}.cls-12{fill:#ff7752;}.cls-12,.cls-29{opacity:0.5;}.cls-13{fill:#ba5124;mix-blend-mode:multiply;}.cls-14{fill:#1e4c76;}.cls-15{fill:#9cd0ff;}.cls-16{fill:#6e4c3c;}.cls-17{fill:#121b21;}.cls-18{fill:#ff3b3b;}.cls-19{fill:#a80a0a;}.cls-20{fill:#fff9f0;}.cls-21{fill:#e8dac5;}.cls-22{opacity:0.1;}.cls-23{fill:url(#linear-gradient-2);}.cls-24{fill:url(#linear-gradient-3);}.cls-25{opacity:0.6;fill:url(#linear-gradient-4);}.cls-26{fill:url(#linear-gradient-5);}.cls-27{fill:url(#linear-gradient-6);}.cls-28,.cls-32{opacity:0.45;}.cls-28{fill:url(#linear-gradient-7);}.cls-30{fill:url(#linear-gradient-8);}.cls-31{fill:url(#linear-gradient-9);}.cls-32{fill:url(#linear-gradient-10);}.cls-33{fill:url(#linear-gradient-11);}</style><clipPath id="clip-path" transform="translate(0.18 -0.07)"><circle class="cls-1" cx="32.82" cy="33.07" r="33"/></clipPath><linearGradient id="linear-gradient" x1="33.84" y1="53.04" x2="33.7" y2="56.72" gradientUnits="userSpaceOnUse"><stop offset="0" stop-color="#ee996d"/><stop offset="0.06" stop-color="#f09b6d"/><stop offset="0.56" stop-color="#fba96d"/><stop offset="1" stop-color="#ffae6d"/></linearGradient><linearGradient id="linear-gradient-2" x1="34.42" y1="33.84" x2="37.61" y2="33.84" gradientUnits="userSpaceOnUse"><stop offset="0" stop-color="#b89377"/><stop offset="0.14" stop-color="#c59e83"/><stop offset="0.44" stop-color="#dab297"/><stop offset="0.73" stop-color="#e7bda3"/><stop offset="1" stop-color="#ebc1a7"/></linearGradient><linearGradient id="linear-gradient-3" x1="15.45" y1="35.81" x2="15.45" y2="31.07" xlink:href="#linear-gradient-2"/><linearGradient id="linear-gradient-4" x1="15.35" y1="35.54" x2="15.35" y2="31.3" gradientUnits="userSpaceOnUse"><stop offset="0" stop-color="#f2ebe6"/><stop offset="0.2" stop-color="#f9f5f3"/><stop offset="0.48" stop-color="#fdfdfc"/><stop offset="0.85" stop-color="#fff"/></linearGradient><linearGradient id="linear-gradient-5" x1="25.07" y1="41.35" x2="25.07" y2="25.37" xlink:href="#linear-gradient-2"/><linearGradient id="linear-gradient-6" x1="24.88" y1="41.11" x2="24.88" y2="25.03" gradientUnits="userSpaceOnUse"><stop offset="0" stop-color="#f2ebe6"/><stop offset="0.38" stop-color="#f9f5f3"/><stop offset="0.8" stop-color="#fffdfd"/></linearGradient><linearGradient id="linear-gradient-7" x1="25.9" y1="39.69" x2="25.9" y2="27.14" gradientUnits="userSpaceOnUse"><stop offset="0" stop-color="#d63600"/><stop offset="0.14" stop-color="#d53000"/><stop offset="0.61" stop-color="#d22100"/><stop offset="1" stop-color="#d11c00"/></linearGradient><linearGradient id="linear-gradient-8" x1="45.94" y1="40.51" x2="45.94" y2="25.34" xlink:href="#linear-gradient-2"/><linearGradient id="linear-gradient-9" x1="53.11" y1="35.99" x2="39.6" y2="28.59" xlink:href="#linear-gradient-6"/><linearGradient id="linear-gradient-10" x1="45.38" y1="39.04" x2="45.38" y2="27.05" xlink:href="#linear-gradient-7"/><linearGradient id="linear-gradient-11" x1="35.95" y1="39.63" x2="35.95" y2="24.12" xlink:href="#linear-gradient-6"/></defs><g class="cls-2"><g id="Layer_1" data-name="Layer 1"><g class="cls-3"><rect class="cls-4" width="66" height="66"/><path class="cls-5" d="M43,61.8C45.8,58,48.71,54.91,50,50.15a14.47,14.47,0,0,0,.11-5.37,29.39,29.39,0,0,1,.83-10.23,40.85,40.85,0,0,0,.43-10.37C50.6,6.3,27.67,2.42,19.19,12.79c-10,12.29-4.75,21-5.27,23.89-.78,4.4-3.25,7.84-2.6,11.43,1,5.51,6.23,6.11,2.43,13.46,2.22.7,5.07-1.27,6.39-3.17a14.29,14.29,0,0,0,8,7.67h8.44A12.7,12.7,0,0,0,43,61.8Z" transform="translate(0.18 -0.07)"/><path class="cls-6" d="M20.38,35c-2.77,6.1-3.54,12.8-.54,17.5,3.9,6.1,10.08,7.74,16.82,5.55,6.49-2.11,8.91-8.08,10.77-14.12,2-6.32,2.74-12.18-.69-18.11C39.33,13,25.9,22.82,20.38,35Z" transform="translate(0.18 -0.07)"/><path class="cls-7" d="M29.18,59.39c.73-.25,1.88-2.34,1.49-3s-.76-1-1.48-.74c-4,1.6-4.86,4.85-5.12,10.46H27C27.2,63.85,27,60.15,29.18,59.39Z" transform="translate(0.18 -0.07)"/><path class="cls-7" d="M38,55.37c-.71-.3-1.09,0-1.48.75S37.32,59,38,59.23c2.21.78,2,4.57,2.23,6.84h2.88C42.9,60.33,42,57,38,55.37Z" transform="translate(0.18 -0.07)"/><path class="cls-8" d="M39.82,62.3c.61-2.15.68-5.46-1.34-6.71-2.49-1.53-6.78-1.3-9.46,0-2,1-2.85,2.08-1.41,6.3a25.34,25.34,0,0,1,1.13,4.13H39A30.09,30.09,0,0,1,39.82,62.3Z" transform="translate(0.18 -0.07)"/><path class="cls-7" d="M27.47,61.5c1.38-1.65,1.38-4,1.45-5.8C26.92,56.57,26.09,57.75,27.47,61.5Z" transform="translate(0.18 -0.07)"/><path class="cls-7" d="M38.48,55.59a7.09,7.09,0,0,0-1.11-.52c1.19,2.06,1.08,4.79,2.73,5.85C40.61,58.86,40.11,56.6,38.48,55.59Z" transform="translate(0.18 -0.07)"/><path class="cls-9" d="M36.53,55.25c-.46-1-.06-2.41,0-4,.21-3.57-6-3.7-6,.19a12.31,12.31,0,0,1-.22,3.61,41.48,41.48,0,0,0,.26,5.13,8.92,8.92,0,0,1,3-.39,13.63,13.63,0,0,1,3.36.13A20,20,0,0,0,36.53,55.25Z" transform="translate(0.18 -0.07)"/><path class="cls-7" d="M31.24,15.71C23.53,17.07,17.91,28,19.14,38.43c.92,7.71,7.48,16,15.41,15.53,9.54-.61,14.35-11.84,13.37-21C46.81,22.54,42.05,13.8,31.24,15.71Z" transform="translate(0.18 -0.07)"/><path class="cls-10" d="M44.7,18.83a36.48,36.48,0,0,0-12.79-3c-2.81-.12-6.57-.36-9.22.72C17,18.92,17.44,23.85,17.3,28.78c-.08,2.53-1.12,4.86-.48,7.38.3,1.2,1,2.73,2.46,2.8,1.73.08,2.29-2.17,2.9-3.39,1.59-3.17,4.54-5.2,7.51-6.94.77-.45,1.64-.87,2.52-1.31,2.15-1.1,4.35-2.37,5.11-4.66C38.82,25.05,46,30,48.64,27.07,50.79,24.71,47,19.77,44.7,18.83Z" transform="translate(0.18 -0.07)"/><path class="cls-5" d="M42.45,13.78c-4.19-3.69-9.72-3.75-15-2.94-3.45.53-6.46,3-8.51,5.7-2.28,3-2.88,5.85-3.25,9.6a43.79,43.79,0,0,0,.31,8c.12,1.29.16,5.4,1.84,5.85,2,.52,2.88-5.65,3.74-6.86a19,19,0,0,1,8.09-6c2.94-1.32,6.35-3,7.52-6.26,2.3,2.32,6.73,6.11,10.29,5.92,2.86-.15,1.46-3.59.77-5.35A21.3,21.3,0,0,0,42.45,13.78Z" transform="translate(0.18 -0.07)"/><path class="cls-11" d="M31,8.68a16.2,16.2,0,0,0-13.07,8.84c-.85,1.75-2.41,5.38-2.11,7.38a2.48,2.48,0,0,0,2.11,2.2c.77.15,3.6-.47,3.78-1.46C21.45,26.82,20.42,27.81,20,29A30.25,30.25,0,0,0,32.8,23.33c.6-.49,4.67-4.54,4-5.34,3.34,4.13,8.28,5.7,13.21,3.87C48.52,11.71,38,8.32,31,8.68Z" transform="translate(0.18 -0.07)"/><path class="cls-11" d="M16.27,41.16c-3.49,2.24-5,10.24.73,9.2C15.77,47,16.27,41.16,16.27,41.16Z" transform="translate(0.18 -0.07)"/><path class="cls-12" d="M46.65,36.78a3.46,3.46,0,0,0-2.82-1.06c-1.2,0-2.81.42-1.74,2.14.58.92,5.38,1.61,4.82-.51A2.12,2.12,0,0,0,46.65,36.78Z" transform="translate(0.18 -0.07)"/><path class="cls-12" d="M28.28,36.4a3.66,3.66,0,0,0-3.14-.33c-1.23.3-2.75,1.16-1.2,2.62.82.79,5.88.22,4.76-1.77A2,2,0,0,0,28.28,36.4Z" transform="translate(0.18 -0.07)"/><path class="cls-13" d="M35.88,38c-1,.06-1-.39-1.69,0s.05,1.66,1.8,1.51,2.41-1.32,2-1.72S37,38,35.88,38Z" transform="translate(0.18 -0.07)"/><path class="cls-14" d="M45.11,31.44c-2.74-1.17-5.23,2.21-3.27,4a3.61,3.61,0,0,1,3.87-.13C46.83,34.48,46.58,32.07,45.11,31.44Z" transform="translate(0.18 -0.07)"/><path class="cls-15" d="M43.93,32c-1.27.4-.67,2.84.63,2C45.5,33.32,45.06,31.59,43.93,32Z" transform="translate(0.18 -0.07)"/><path class="cls-14" d="M24.72,31.66c-1.45.67-1.63,3.09-.48,3.86a3.59,3.59,0,0,1,3.86,0C30,33.72,27.42,30.41,24.72,31.66Z" transform="translate(0.18 -0.07)"/><path class="cls-15" d="M26.43,32.05c-1.14-.32-1.54,1.41-.57,2C27.18,34.87,27.71,32.41,26.43,32.05Z" transform="translate(0.18 -0.07)"/><path class="cls-16" d="M28.54,28.35a15,15,0,0,0-4,.23A7.05,7.05,0,0,0,22,29.66c-.22.18-.5.48-.49.75.23,0,.39-.11.6-.16a12.37,12.37,0,0,1,3.15-.34c.83,0,1.64,0,2.46,0,.55,0,1.3.09,1.6-.45S29.28,28.38,28.54,28.35Z" transform="translate(0.18 -0.07)"/><path class="cls-16" d="M47.3,29.28a6.53,6.53,0,0,0-2.48-.94,14.63,14.63,0,0,0-3.91-.07c-.71.05-1.11.46-.74,1.1s1,.37,1.56.37c.8,0,1.59-.08,2.39-.1a12.79,12.79,0,0,1,3.09.2c.2.05.36.18.57.14C47.79,29.72,47.52,29.44,47.3,29.28Z" transform="translate(0.18 -0.07)"/><path class="cls-17" d="M44.57,31a2.84,2.84,0,0,0-3.24,2,2.57,2.57,0,0,1,2.86-.88c3.72,1.59,5.69-1,5.69-1C47.22,32.31,45.86,31.21,44.57,31Z" transform="translate(0.18 -0.07)"/><path class="cls-17" d="M25.36,31.25c-1.29.25-2.64,1.37-5.31.16,0,0,2,2.61,5.69,1a2.57,2.57,0,0,1,2.88.84A2.83,2.83,0,0,0,25.36,31.25Z" transform="translate(0.18 -0.07)"/><path class="cls-18" d="M24.65,41.39C29,47.72,31.57,48.86,34.87,49c4.13.18,5.5-2.46,6.1-4.43a11.71,11.71,0,0,1,3.11-3.5c-2.56.61-5.1.34-9,.51C31.9,41.72,27.2,42.67,24.65,41.39Z" transform="translate(0.18 -0.07)"/><path class="cls-19" d="M26.61,42.48a9.65,9.65,0,0,0,7.73,4.29c3.29,0,5.44-1,6-2.49a4.27,4.27,0,0,1,2-2.2A35.41,35.41,0,0,1,26.61,42.48Z" transform="translate(0.18 -0.07)"/><path class="cls-20" d="M28.52,42.83s.17,1.3,2,1.78a18.15,18.15,0,0,0,7.47.2c1.75-.28,2.59-2.33,2.59-2.33A37.91,37.91,0,0,1,28.52,42.83Z" transform="translate(0.18 -0.07)"/><path class="cls-20" d="M35.62,45c-2.35.12-4.3,0-5.48-.7-.85-.5-.92,0-.73.39,0,0,.78,1.77,4.68,2.13,3.75.34,5.66-1.81,5.23-2.17S37.8,44.91,35.62,45Z" transform="translate(0.18 -0.07)"/><path class="cls-21" d="M28.52,42.83a2.07,2.07,0,0,0,.48.91s8.78-.81,10.88-.11a4.29,4.29,0,0,0,.71-1.15A43.47,43.47,0,0,1,28.52,42.83Z" transform="translate(0.18 -0.07)"/><path class="cls-21" d="M30.84,44.56c3.17,1.74,6.93.19,6.93.19A13.28,13.28,0,0,1,30.84,44.56Z" transform="translate(0.18 -0.07)"/><path class="cls-22" d="M39.32,38a5,5,0,0,1-1.2-2.57c-.31-1.09-.22-2.31-1.74-2.15a3,3,0,0,0-2.52,2.3A5,5,0,0,1,31,39.17a10.94,10.94,0,0,1-4.9,1.38,7.44,7.44,0,0,1-6.2-2.35c-1.08-1.13-1.29-2.83-1.67-4.29A7.15,7.15,0,0,0,17.28,31c-.79-.94-1.6,0-1.86.84-.61,2,.64,4.48,1.4,6.24s1.34,3,3.12,3.78a6.64,6.64,0,0,0,5.39.31,9.2,9.2,0,0,1,2.83-.81c3.23-.43,5.34-1.7,6.3-4,.58-1.4.41-2.87,1.46-2.92.72,0,.64.76.91,1.56,1,2.87,2.87,4.08,7.36,5.27.92.25,2.22.5,2.63,1.48a5.84,5.84,0,0,0,.73-1.37,14.92,14.92,0,0,0,.71-1.54,6.68,6.68,0,0,0,.26-.87,4.38,4.38,0,0,1-2.51.55C44.05,39.49,40.92,39.31,39.32,38Z" transform="translate(0.18 -0.07)"/><path class="cls-23" d="M36,32.65a2.72,2.72,0,0,0-1.21.23C34.58,33,34,34.5,34.9,35A1.06,1.06,0,0,1,36,34.19a1,1,0,0,1,1.11.83c.87-.54.32-2,.1-2.14A2.6,2.6,0,0,0,36,32.65Z" transform="translate(0.18 -0.07)"/><path class="cls-24" d="M14.8,32.23a.59.59,0,0,0-.48.76c.17.41.77,1.86.92,2.19s.86.32,1.38.26l-.89-3.32Z" transform="translate(0.18 -0.07)"/><path class="cls-25" d="M14.69,32.32a.5.5,0,0,0-.43.67c.18.37.78,1.68.92,2s.81.3,1.3.26l-.93-3Z" transform="translate(0.18 -0.07)"/><path class="cls-26" d="M17.17,26.45c-4.63,2.73-.33,12.81,3.74,14.39S32,40.24,34,37.62c1.79-2.27,1.16-6.76-1.75-9.17S21.83,23.77,17.17,26.45ZM32.29,37.27c-1.64,1.85-7,3-9.9,1.55s-5.6-9.26-2-11,9.73.86,11.33,2.43S33.74,35.67,32.29,37.27Z" transform="translate(0.18 -0.07)"/><path class="cls-27" d="M32.08,28.25c-2.42-2-7.09-3.59-11.67-3.17a8.67,8.67,0,0,0-3.56,1c-2.14,1.26-2,4.05-1.79,5.6.61,3.84,3.25,8,5.64,9a10.45,10.45,0,0,0,5,.4h0c3.47-.44,6.92-2,8.2-3.65C35.67,35.14,34.88,30.6,32.08,28.25Zm.46,9.15c-.95,1.06-3.05,1.92-5.37,2.21a9,9,0,0,1-5-.59c-1.88-.92-3.68-4.21-3.92-7.17-.18-2.13.49-3.67,1.88-4.34a6.48,6.48,0,0,1,2.15-.57c3.58-.34,8.18,1.63,9.65,3.07S34.11,35.66,32.54,37.4Z" transform="translate(0.18 -0.07)"/><path class="cls-28" d="M20.18,27.61c-3.73,1.81-1,9.9,2.09,11.42s8.55.3,10.25-1.61c1.5-1.66,1-5.7-.59-7.28S23.92,25.82,20.18,27.61Z" transform="translate(0.18 -0.07)"/><path class="cls-29" d="M31.56,30.25c-1.55-1.49-7.49-3.93-11-2.28-1.66.79-2,2.86-1.52,5,.49,2.37,14.11.67,13.51-1A4.43,4.43,0,0,0,31.56,30.25Z" transform="translate(0.18 -0.07)"/><path class="cls-4" d="M20.57,27.9c-2.28,1.12-2,4.8-.68,7.63-1.23-2.81-.68-5.37,1.56-6.47,3.51-1.71,8.67-.15,10.22,1.41a4.13,4.13,0,0,1,.79,1.18,4.29,4.29,0,0,0-.85-1.33C30.05,28.76,24.08,26.2,20.57,27.9Z" transform="translate(0.18 -0.07)"/><path class="cls-30" d="M53.06,26.39c-4.3-2.58-11-.54-13.72,1.95s-3.15,6.94-1.48,9.09c1.91,2.45,8.43,4,12.08,2.4S57.35,28.92,53.06,26.39ZM48.72,38.05c-2.64,1.47-7.58.69-9.12-1-1.35-1.51-1-5.37.42-6.91S47,26,50.34,27.68,51.4,36.57,48.72,38.05Z" transform="translate(0.18 -0.07)"/><path class="cls-31" d="M53.26,26.05A7.78,7.78,0,0,0,50,25c-4.17-.44-8.39,1.06-10.56,3.08-2.51,2.38-3.18,6.93-1.49,9.13,1.2,1.57,4.38,2.85,7.57,3.07a9.62,9.62,0,0,0,4.55-.64c2.17-1,4.48-4.92,4.94-8.45C55.2,29.8,55.22,27.23,53.26,26.05Zm-.89,5.37c-.16,2.73-1.73,5.82-3.42,6.76a8.37,8.37,0,0,1-4.54.8,7.77,7.77,0,0,1-4.93-1.85c-1.46-1.63-1-5.65.43-7.24a12.61,12.61,0,0,1,8.7-3,5.89,5.89,0,0,1,2,.54C51.84,28,52.48,29.45,52.37,31.42Z" transform="translate(0.18 -0.07)"/><path class="cls-32" d="M50.52,27.49c-3.45-1.71-9.21.9-10.7,2.53s-1.83,5.6-.43,7.16c1.6,1.77,6.72,2.58,9.46,1S54,29.18,50.52,27.49Z" transform="translate(0.18 -0.07)"/><path class="cls-29" d="M50.47,27.84c-3.19-1.55-8.5.79-9.87,2.26a4.14,4.14,0,0,0-.88,1.64c-.52,1.66,11.81,2.82,12.21.65C52.29,30.45,52,28.56,50.47,27.84Z" transform="translate(0.18 -0.07)"/><path class="cls-4" d="M50.46,27.77c-3.19-1.59-8.52.87-9.9,2.39a4,4,0,0,0-.75,1.31,3.84,3.84,0,0,1,.69-1.16c1.38-1.53,6-3.29,9.2-1.69,2,1,2.58,3.55,1.52,6.14C52.33,32.15,52.53,28.8,50.46,27.77Z" transform="translate(0.18 -0.07)"/><path class="cls-33" d="M37.12,32.87a3.86,3.86,0,0,0-2.33,0c-.21.12-.75,1.23.08,1.63A1,1,0,0,1,36,33.88,1,1,0,0,1,37,34.5C37.86,34.08,37.34,33,37.12,32.87Z" transform="translate(0.18 -0.07)"/></g></g></g></svg>