<svg id="Layer_1" data-name="Layer 1" xmlns="http://www.w3.org/2000/svg" xmlns:xlink="http://www.w3.org/1999/xlink" viewBox="0 0 66 66"><defs><style>.cls-1{fill:none;}.cls-2{clip-path:url(#clip-path);}.cls-3,.cls-8{fill:#fff;}.cls-4{fill:#ffb06b;}.cls-5{fill:#23232d;}.cls-6{fill:url(#linear-gradient);}.cls-7{fill:#fff9f0;}.cls-8{opacity:0.07;}.cls-9{fill:#261b18;}.cls-10{fill:#bf3c1b;opacity:0.3;}.cls-11{fill:#b54319;opacity:0.5;}.cls-12{fill:#57443a;}.cls-13{fill:#ffc48f;}.cls-14{fill:#cfc4c4;}.cls-15{fill:#2b221c;}.cls-16{fill:#121b21;}.cls-17{opacity:0.35;}.cls-18{fill:#c4170e;}.cls-19{fill:#8f2621;}.cls-20{fill:#e8dac5;}</style><clipPath id="clip-path" transform="translate(0.18 -0.07)"><circle class="cls-1" cx="32.82" cy="33.07" r="33"/></clipPath><linearGradient id="linear-gradient" x1="33.3" y1="51.97" x2="33.3" y2="55.54" gradientUnits="userSpaceOnUse"><stop offset="0" stop-color="#e88958"/><stop offset="0.34" stop-color="#f49d62"/><stop offset="0.69" stop-color="#fcab69"/><stop offset="1" stop-color="#ffb06b"/></linearGradient></defs><g class="cls-2"><rect class="cls-3" width="66" height="66"/><path class="cls-4" d="M28.39,55.11c-3.58,1.25-3.83,4.17-5.31,11H26.4c.64-3,1.18-5.84,2.73-7.14C30.36,57.9,30.17,54.48,28.39,55.11Z" transform="translate(0.18 -0.07)"/><path class="cls-4" d="M38.27,55.11c-1.78-.63-2,2.79-.73,3.82,1.54,1.3,2.08,4.15,2.73,7.14h3.32C42.11,59.28,41.86,56.36,38.27,55.11Z" transform="translate(0.18 -0.07)"/><path class="cls-4" d="M39,55.25c-2-1.48-8.91-1.82-11.59.2s.33,5.88,1.06,10.62h9.88C39,61.34,41.73,57.24,39,55.25Z" transform="translate(0.18 -0.07)"/><path class="cls-5" d="M39.37,62A11.8,11.8,0,0,1,39,55.25a2.11,2.11,0,0,0-.92-.58c-2.42-.79-6.9-1.06-9.56.08a4.28,4.28,0,0,0-1.11.7,10.4,10.4,0,0,1-.24,6.15,24.83,24.83,0,0,1,1.13,4.47H38.55A26.44,26.44,0,0,1,39.37,62Z" transform="translate(0.18 -0.07)"/><path class="cls-6" d="M36.12,50.5c.21-3.57-6-3.7-5.95.2,0,1.72.07,2.81-.4,3.28a8.34,8.34,0,0,1-1.25.77c.56,3.61.95,5.06,4.81,5.06,3.5,0,4.43-1.12,4.75-5.14a8.81,8.81,0,0,1-1.63-.79C35.9,53.44,36,52.08,36.12,50.5Z" transform="translate(0.18 -0.07)"/><path class="cls-7" d="M29.59,54a.54.54,0,0,0-.51.55.53.53,0,1,0,.51-.55Z" transform="translate(0.18 -0.07)"/><path class="cls-7" d="M30.79,54.83a.52.52,0,0,0-.5.54.53.53,0,0,0,.54.51.52.52,0,0,0,.5-.54A.53.53,0,0,0,30.79,54.83Z" transform="translate(0.18 -0.07)"/><path class="cls-7" d="M32.35,55.38a.53.53,0,0,0-.51.54.53.53,0,0,0,.54.51.53.53,0,0,0,0-1Z" transform="translate(0.18 -0.07)"/><path class="cls-7" d="M33.91,55.46a.53.53,0,1,0,.54.51A.53.53,0,0,0,33.91,55.46Z" transform="translate(0.18 -0.07)"/><path class="cls-7" d="M36.73,54a.52.52,0,0,0-.5.54.52.52,0,1,0,.5-.54Z" transform="translate(0.18 -0.07)"/><path class="cls-7" d="M35.48,54.88a.53.53,0,0,0-.5.55.52.52,0,0,0,1,0A.53.53,0,0,0,35.48,54.88Z" transform="translate(0.18 -0.07)"/><path class="cls-8" d="M35.88,60.2a10.23,10.23,0,0,1-5.67-.09c-1-.26-1.61.91-1.29,1.9.42,1.33,2.56,1.68,4.43,1.65,3.67-.06,5-1.43,4.43-3.06C37.61,60.17,36.82,59.87,35.88,60.2Z" transform="translate(0.18 -0.07)"/><path class="cls-9" d="M16.12,18.51c-2.59,7.13-2.75,12.62-4.42,23.85-.43,2.85-2.15,7.24-1.35,9,1.12,2.4,3.85,1,6.13,1.67,2.46.76,5.19,1.86,5.72-1.6a5.31,5.31,0,0,1,.3,2.09c1.9,0,8.39-2.15,12.79-2,3.92.09,12.09,3.52,13.66-1,1.18-3.38,2.16-18.25,1.55-23.1,0-.29,1.15-.72,1.19-1,.1-.86.17-1.48.18-1.72C52.62,5.29,22.59.74,16.12,18.51Z" transform="translate(0.18 -0.07)"/><path class="cls-4" d="M31.53,15.7C24,17.17,18.59,28.07,20,38.3,21,45.89,28,53.37,35.4,53.37c7.82,0,14-11.91,12.86-20.93C47,22.19,42.16,13.65,31.53,15.7Z" transform="translate(0.18 -0.07)"/><path class="cls-10" d="M44.85,18.57a35.67,35.67,0,0,0-12.66-2.72c-2.77-.07-6.49-.25-9.08.86-3.88,1.67-5.55,4.22-6.1,8.15-.36,2.66,2.31,5.21,4.36,6.87,1.46-1.42.78-3.35.74-5,.35,1.92,1.91,1.36,3.57,1.44,1.47.07,4,.71,5.34,0,.61-.32.72-.76.95-1.4a2.32,2.32,0,0,0,.82.65,8.87,8.87,0,0,0,3.38.37,13.12,13.12,0,0,0,4.88-.3c.69-.23,1.09-.43,1.29-1.2.27,1.63,2.73,1.34,4.07,1.3C48.77,27.46,47.12,19.47,44.85,18.57Z" transform="translate(0.18 -0.07)"/><path class="cls-4" d="M17.32,34c-3.72,1-2.24,6.46.81,7.56a7.29,7.29,0,0,0,3,.33l.06-.09c.45-.71-.17-4.67-.4-5.42C20.22,34.53,19.11,33.54,17.32,34Z" transform="translate(0.18 -0.07)"/><path class="cls-11" d="M18.63,36c-.84-.39-2.93.3-1.95,1.94.52-1.52,1.44-.52,1.3.56-.09.72-.87.73-.1,1.66.42.5,1.26.32,1.69,0C20.93,39.4,19.65,36.51,18.63,36Z" transform="translate(0.18 -0.07)"/><path class="cls-9" d="M31.72,24.4a.21.21,0,0,0,0,.06s0,0,0,0S31.72,24.37,31.72,24.4Z" transform="translate(0.18 -0.07)"/><path class="cls-9" d="M42.55,13.62C38.37,10.06,32.9,10.08,27.74,11a23.18,23.18,0,0,0-6.56,1.82c-1.54.86-2.15,2.88-2.87,4.41a27.48,27.48,0,0,0-1.92,9c-.14,1.61.49,3.25.65,4.85s.86,2.91,1.15,4.45a13.86,13.86,0,0,1-.45,7c-.32,1-1.08,1.75-.38,2.6a1.86,1.86,0,0,0,2.46.37c.49-.51,1.43-4.71,1.64-5.79a38.53,38.53,0,0,0,.34-8.38,20.4,20.4,0,0,1,.83-7.5A30,30,0,0,0,23,27.26c2.57-.31,5.3-.1,7.88-.2a10,10,0,0,0,.85-2.6.21.21,0,0,1,0-.06s0,0,0,0,0,0,0,0c.17.46.34,1.48.68,1.74.62.5,2.41.2,3.16.25,1.41.09,3.79.59,5.14,0,.87-.38,1-1.2,1.23-2.1h0c0-.05,0-.05,0,0h0c.27.47.39,1.28.83,1.5a9.21,9.21,0,0,0,2.55.46,20.71,20.71,0,0,0,3.05-.05c2-.38.57-3.95,0-5.24A21.08,21.08,0,0,0,42.55,13.62Z" transform="translate(0.18 -0.07)"/><path class="cls-9" d="M41.94,24.36h0C41.94,24.31,41.94,24.31,41.94,24.36Z" transform="translate(0.18 -0.07)"/><path class="cls-12" d="M30.27,9.07c-3.9.41-9.45,3.54-11.19,7.05-3.92,7.94-5.43,16.76-5.76,25.52-.08,2.22-1.37,5.6-1.24,7.64.12,1.87,1,1.91,2.52.85,2-1.39-.21-8.63.15-13.14.29-3.54,3.22-3.71,4.19-8.4,1.11,6.29.11,14.53-2.28,21.42,8.27-13.93,1.78-21.15,6.11-30.48a7.17,7.17,0,0,0,8,1.58,12.47,12.47,0,0,1,8.56-.24c3.39,1.29,6.56,1.93,10.8.12C48.06,11.08,37.36,8.33,30.27,9.07Z" transform="translate(0.18 -0.07)"/><path class="cls-13" d="M44.79,35.64c-1.17-.2-2.8,0-2,1.82.42,1,5,2.38,4.77.23a1.77,1.77,0,0,0-.17-.59A3.4,3.4,0,0,0,44.79,35.64Z" transform="translate(0.18 -0.07)"/><path class="cls-13" d="M29.15,36.24A3.61,3.61,0,0,0,26,36.1c-1.19.37-2.63,1.31-1,2.66.86.72,5.81-.14,4.58-2A2,2,0,0,0,29.15,36.24Z" transform="translate(0.18 -0.07)"/><path class="cls-11" d="M36.91,37.37c-1-.06-.95-.59-1.66-.19s-.18,2,1.55,2S39.34,38,39,37.47,38,37.45,36.91,37.37Z" transform="translate(0.18 -0.07)"/><path class="cls-13" d="M36.67,34.53c-.8,0-2,2.71-1.59,3.13,1,1,3.17.53,3.83-.16C39.17,37.23,37.58,34.52,36.67,34.53Z" transform="translate(0.18 -0.07)"/><path class="cls-9" d="M45.82,31.48c-2.7-1.15-5.16,2.18-3.22,3.91a3.53,3.53,0,0,1,3.81-.12C47.52,34.47,47.27,32.1,45.82,31.48Z" transform="translate(0.18 -0.07)"/><path class="cls-14" d="M46.12,33.35c-.74.23-.39,1.65.37,1.15C47,34.14,46.78,33.15,46.12,33.35Z" transform="translate(0.18 -0.07)"/><path class="cls-14" d="M43.59,31.87c-1.26.4-.66,2.81.62,2C45.14,33.22,44.71,31.53,43.59,31.87Z" transform="translate(0.18 -0.07)"/><path class="cls-9" d="M25.71,31.7c-1.43.66-1.61,3-.48,3.8a3.56,3.56,0,0,1,3.81,0C30.94,33.72,28.38,30.47,25.71,31.7Z" transform="translate(0.18 -0.07)"/><path class="cls-14" d="M25.47,33.58c-.67-.19-.9.82-.34,1.16C25.9,35.21,26.21,33.79,25.47,33.58Z" transform="translate(0.18 -0.07)"/><path class="cls-14" d="M28,32c-1.12-.32-1.51,1.39-.56,2C28.7,34.81,29.22,32.38,28,32Z" transform="translate(0.18 -0.07)"/><path class="cls-9" d="M29.37,27.83a15,15,0,0,0-3.92.6,6.8,6.8,0,0,0-2.38,1.3,1,1,0,0,0-.41.77c.22,0,.37-.13.56-.21a12.87,12.87,0,0,1,3.07-.62c.81-.09,1.61-.11,2.41-.22.54-.08,1.29,0,1.53-.59S30.09,27.8,29.37,27.83Z" transform="translate(0.18 -0.07)"/><path class="cls-15" d="M45.63,28.21a15,15,0,0,0-3.83-.52c-.7,0-1.14.33-.85,1s1,.48,1.49.54c.78.1,1.57.11,2.35.18a12.23,12.23,0,0,1,3,.56c.18.07.33.21.55.19,0-.25-.2-.55-.4-.73A6.48,6.48,0,0,0,45.63,28.21Z" transform="translate(0.18 -0.07)"/><path class="cls-16" d="M45.28,31a2.78,2.78,0,0,0-3.19,2,2.52,2.52,0,0,1,2.82-.86c3.67,1.57,5.61-1,5.61-1C47.9,32.34,46.55,31.25,45.28,31Z" transform="translate(0.18 -0.07)"/><path class="cls-16" d="M26.34,31.29c-1.27.24-2.61,1.35-5.24.15,0,0,2,2.58,5.62,1a2.52,2.52,0,0,1,2.83.83A2.79,2.79,0,0,0,26.34,31.29Z" transform="translate(0.18 -0.07)"/><g class="cls-17"><path class="cls-18" d="M25.64,41c4.25,6.24,6.83,7.37,10.08,7.51,4.07.17,5.43-2.43,6-4.37a11.26,11.26,0,0,1,3.07-3.45c-2.53.6-5,.33-8.86.5C32.79,41.3,28.16,42.24,25.64,41Z" transform="translate(0.18 -0.07)"/></g><path class="cls-19" d="M27.57,42a9.51,9.51,0,0,0,7.63,4.23c3.24,0,5.36-1,5.95-2.45a4.11,4.11,0,0,1,2-2.16A34.81,34.81,0,0,1,27.57,42Z" transform="translate(0.18 -0.07)"/><path class="cls-7" d="M29.46,42.39s.17,1.28,2,1.75a18,18,0,0,0,7.37.21,3.92,3.92,0,0,0,2.55-2.3A37.42,37.42,0,0,1,29.46,42.39Z" transform="translate(0.18 -0.07)"/><path class="cls-7" d="M36.46,44.55c-2.31.11-4.24,0-5.41-.7-.83-.49-.9,0-.72.38,0,0,.78,1.75,4.62,2.1s5.59-1.78,5.16-2.14S38.61,44.44,36.46,44.55Z" transform="translate(0.18 -0.07)"/><path class="cls-20" d="M29.46,42.39a2.06,2.06,0,0,0,.47.9s8.65-.8,10.74-.11a4.08,4.08,0,0,0,.69-1.13A42.93,42.93,0,0,1,29.46,42.39Z" transform="translate(0.18 -0.07)"/><path class="cls-20" d="M31.75,44.1c3.12,1.71,6.82.19,6.82.19A13.12,13.12,0,0,1,31.75,44.1Z" transform="translate(0.18 -0.07)"/></g></svg>