<svg id="Layer_1" data-name="Layer 1" xmlns="http://www.w3.org/2000/svg" xmlns:xlink="http://www.w3.org/1999/xlink" viewBox="0 0 66 66"><defs><style>.cls-1{fill:none;}.cls-2{clip-path:url(#clip-path);}.cls-3{fill:#fff;}.cls-4{fill:#8d573e;}.cls-5{fill:#ffbc82;}.cls-6{fill:url(#linear-gradient);}.cls-7{fill:#a1664c;}.cls-8{fill:#261b18;}.cls-9{fill:#bc551e;opacity:0.3;}.cls-10{fill:#57443a;}.cls-11{fill:#ff3b3b;}.cls-12{fill:#a80a0a;}.cls-13{fill:#fff9f0;}.cls-14{fill:#e8dac5;}.cls-15{fill:#ff7752;}.cls-16{fill:#d14f2e;opacity:0.4;}.cls-17{fill:#425361;}.cls-18{fill:#c3d5e3;}.cls-19{fill:#121b21;}</style><clipPath id="clip-path" transform="translate(0.19 -0.28)"><circle class="cls-1" cx="32.83" cy="33.28" r="33"/></clipPath><linearGradient id="linear-gradient" x1="33.25" y1="48.3" x2="33.25" y2="50.89" gradientUnits="userSpaceOnUse"><stop offset="0" stop-color="#e88958"/><stop offset="0.34" stop-color="#f49d62"/><stop offset="0.69" stop-color="#fcab69"/><stop offset="1" stop-color="#ffb06b"/></linearGradient></defs><g class="cls-2"><rect class="cls-3" width="66" height="66"/><path class="cls-4" d="M24.78,58.21a30.28,30.28,0,0,1-.93,3.54l3.4,1.18A36.28,36.28,0,0,0,28.3,59c.39-1.78.8-3.62,1.5-4l-1.63-3.21C26,52.94,25.39,55.5,24.78,58.21Z" transform="translate(0.19 -0.28)"/><path class="cls-5" d="M24.15,61.85A11.43,11.43,0,0,1,23,64.28h3.36c.21-.46.42-.94.6-1.45Z" transform="translate(0.19 -0.28)"/><path class="cls-4" d="M38.87,51.82,37.24,55c.7.35,1.11,2.19,1.5,4a36.28,36.28,0,0,0,1,3.93l3.4-1.18a32.4,32.4,0,0,1-.93-3.54C41.65,55.5,41.08,52.94,38.87,51.82Z" transform="translate(0.19 -0.28)"/><path class="cls-5" d="M40.09,62.83a14.62,14.62,0,0,0,.59,1.45H44a11.93,11.93,0,0,1-1.15-2.43Z" transform="translate(0.19 -0.28)"/><path class="cls-4" d="M39.66,58.66c1.08-4,1.2-6.48-1.29-7.3s-6.9-1.07-9.56.07c-2.12.91-2.8,2.38-1.35,6.86a18.5,18.5,0,0,1,1.14,6H38.67A19.7,19.7,0,0,1,39.66,58.66Z" transform="translate(0.19 -0.28)"/><path class="cls-6" d="M36.41,47.19c.2-3.57-6-3.71-5.95.19,0,1.73.13,3-.23,3.6-1.94,3,7.64,2.86,6.14.18C35.86,50.24,36.32,48.76,36.41,47.19Z" transform="translate(0.19 -0.28)"/><path class="cls-7" d="M36.06,55.7a10.22,10.22,0,0,1-5.67-.09c-1-.26-1.61.91-1.29,1.9.42,1.33,2.56,1.67,4.42,1.65,3.68-.06,5.06-1.43,4.43-3.06C37.79,55.67,37,55.37,36.06,55.7Z" transform="translate(0.19 -0.28)"/><path class="cls-8" d="M54.3,23.3c-1.3-1.13-2.11-1.82-2.24-3.54s.22-3.84-.61-5.52c-.74-1.52-2.48-1.84-3.9-2.52C46,11,45.26,9.79,44.33,8.35,42.57,5.62,38.89,5,36,6.31c-.29-1.49-2.24-2.13-4.29-2.19a11,11,0,0,0-6.32,2.26c-2,1.49-3.49,3.56-5.35,5.24-3.6,3.25-11.26,6.91-9.08,13.1.8,2.27,2.22,2.9.92,5.36-1.21,2.27-1.84,3.54.06,5.62.74.81,1.53,1.2,1.57,2.4s-1,2-.9,3.17c.13,2.41,2,4.15,4.31,5.57,2.92,1.79,6.59,3.09,8.55,4.64,3.47,2.75,5.29-2.1,8.08-2.21,1.46-.05,2.16,1.34,4,2.86,3,2.37,7.25,4.85,9.62,1.15a4.19,4.19,0,0,1-2.62-1.13c3.88.06,7.41-1.21,7.12-5.68-.11-1.71-.77-2.35.49-3.72S55.88,41.4,56,39.17c.11-2-2.36-2.45-2.8-4.1s1-2.46,1.95-3.69C57.5,28.22,57.1,25.74,54.3,23.3Z" transform="translate(0.19 -0.28)"/><path class="cls-5" d="M31.61,12.85C23.57,14.19,17.73,25,19,35.25c.95,7.61,7.8,15.81,16.06,15.32C45,50,50,38.9,49,29.86,47.84,19.6,42.87,11,31.61,12.85Z" transform="translate(0.19 -0.28)"/><path class="cls-9" d="M48.45,21.51a7.91,7.91,0,0,0-4.25-5.58c-2.91-1.22-7.8-3.7-10.94-2.67a25,25,0,0,0-9.89,6.58C20,23.41,17.45,31.72,20.1,36.2a12.22,12.22,0,0,0,1-2.9c1.28-3.4,5-5.39,7.64-7.7.79,1.85,2.39,2.17,4.14,2.55a4.61,4.61,0,0,1,.29-3.33,7.62,7.62,0,0,1,1-1.58c.43-.53,3.24-2.83,2.79-3.54,1.39,2.23,4,3.62,6.34,4.69,3,1.38,3.63,3.5,5,6.32-.31-.63.53-3.47.53-4.35A25.39,25.39,0,0,0,48.45,21.51Z" transform="translate(0.19 -0.28)"/><path class="cls-8" d="M50.07,20.38c-.4-1.93-3.22-3.92-4.32-5.64a15.26,15.26,0,0,0-5.33-5.35c-3.94-2.16-8.85-2-13.2-1.35-5.14.8-9.18,5.21-11.14,9.65-2.22,5-2.54,9.91-1.76,17,.41,3.68.9,8.43,3,11.6.63,1,2.32,2,1.66,3.36-.87,1.83-2.58-.41-2.29-.76a5.71,5.71,0,0,0-.38.54,4,4,0,0,0,1.06,2.79c2.51,2.55,5.69.92,6.88-2,1.59-3.91-1.94-5.91-2.95-9.42-1.1-3.81-1.32-7.28,1-10.64,2.24-3.16,3.91-5.7,7.57-7.44-1.07,2.27,1,6,3.8,4.9-2.35-.86-1.64-2.94-.52-4.54.4-.57,4.27-4.58,3.64-5.2a27.24,27.24,0,0,0,5,4.1c1.77,1.08,3.46,1.49,4.7,3.26a10.14,10.14,0,0,1,1.42,3c.24.79.07,2.16.49,2.83,1.17,1.81,3.61.1,3.89-1.48.37-2.14-1.06-3.25-2-5S50.39,22,50.07,20.38Z" transform="translate(0.19 -0.28)"/><path class="cls-10" d="M31.91,23h0S31.91,23.06,31.91,23Z" transform="translate(0.19 -0.28)"/><path class="cls-10" d="M46.29,13.15c-2.58-1.05-3.11-3.77-5.07-5.37a4.51,4.51,0,0,0-5.93.75c-.75-2.3-3.19-2.75-4.65-2.59s-2.83,1.39-3.81,2.55a23.82,23.82,0,0,1-6.66,5.44c-2.33,1.38-5.49,3.76-5.62,6.72-.05,1.14.66,4.14,1.73,4.78,1.23.74,2.84.3,4.13,0a25,25,0,0,0,12.07-8.34,33.12,33.12,0,0,0-.57,6c.69-1.32,1.81-2.37,2.5-3.71a11.61,11.61,0,0,0,.84-2.84,9.92,9.92,0,0,1,1.29-2.66c1.4,2.47,3.1,5.16,6.12,5.71,1,.19,2.07,0,3.09.19a7.46,7.46,0,0,1,2.32,1.17c2,1.13,2.3-1.91,2.43-3.48C50.74,14.21,48.69,14.13,46.29,13.15Z" transform="translate(0.19 -0.28)"/><path class="cls-10" d="M16.83,38.62a1.72,1.72,0,0,0-1.1.32c-1.13.87-1.88,5.93,4,5.61a4.55,4.55,0,0,1-.86-2.11C18.76,41.3,18.68,38.59,16.83,38.62Z" transform="translate(0.19 -0.28)"/><path class="cls-10" d="M51,24a1.75,1.75,0,0,0-1,.65c-1.2,1.41.84,3.19,1.67,4a4.55,4.55,0,0,1,1.09,2C56.78,26.32,52.41,23.68,51,24Z" transform="translate(0.19 -0.28)"/><path class="cls-10" d="M47.24,46.36c-.15,1.29.76,2.33-.1,3.7,1.55-.19,3.5-1.84,3-3.76C49.66,44,47.38,45.09,47.24,46.36Z" transform="translate(0.19 -0.28)"/><path class="cls-10" d="M14.65,31.59c-1,1.69.31,3.86,1.72,4.52-.38-1.57.8-2.27,1.06-3.54S15.86,29.6,14.65,31.59Z" transform="translate(0.19 -0.28)"/><path class="cls-10" d="M51.19,37.55c-.66,1.12-.26,2.43-1.59,3.34,1.49.45,3.93-.26,4.31-2.2C54.35,36.4,51.84,36.44,51.19,37.55Z" transform="translate(0.19 -0.28)"/><path class="cls-11" d="M26.78,38.91c4.27,6.11,6.77,7.16,9.89,7.2,3.91,0,5.12-2.59,5.62-4.55A11.42,11.42,0,0,1,45.13,38c-2.41.68-4.81.49-8.47.77C33.64,39,29.23,40.1,26.78,38.91Z" transform="translate(0.19 -0.28)"/><path class="cls-12" d="M28.67,39.92a9,9,0,0,0,7.43,4c3.11-.08,5.11-1.17,5.62-2.63a4.09,4.09,0,0,1,1.86-2.22A32,32,0,0,1,28.67,39.92Z" transform="translate(0.19 -0.28)"/><path class="cls-13" d="M30.48,40.22a2.35,2.35,0,0,0,1.95,1.69,16.69,16.69,0,0,0,7.07,0c1.64-.33,2.37-2.37,2.37-2.37A34.38,34.38,0,0,1,30.48,40.22Z" transform="translate(0.19 -0.28)"/><path class="cls-13" d="M37.26,42.16c-2.22.18-4.07.11-5.21-.53-.81-.47-.86.07-.67.4,0,0,.79,1.72,4.49,2s5.29-2,4.87-2.3S39.31,42,37.26,42.16Z" transform="translate(0.19 -0.28)"/><path class="cls-14" d="M30.48,40.22a2,2,0,0,0,.48.88s8.27-1.06,10.28-.44a4.2,4.2,0,0,0,.63-1.14A40,40,0,0,1,30.48,40.22Z" transform="translate(0.19 -0.28)"/><path class="cls-14" d="M32.73,41.85c3.05,1.62,6.54,0,6.54,0A12,12,0,0,1,32.73,41.85Z" transform="translate(0.19 -0.28)"/><path class="cls-15" d="M47,35.22a3.11,3.11,0,0,0-2.63-1.16c-1.17-.06-2.75.32-1.86,2.09.47.94,5,1.8,4.69-.34A2,2,0,0,0,47,35.22Z" transform="translate(0.19 -0.28)"/><path class="cls-15" d="M27.86,35.16c-.69-.89-2-.86-3-.71-1.24.19-2.84,1-1.61,2.74.65.94,5.61.89,4.87-1.42A1.83,1.83,0,0,0,27.86,35.16Z" transform="translate(0.19 -0.28)"/><path class="cls-8" d="M40.9,27.25a61.46,61.46,0,0,0,7.53.55C47.32,26,42.62,25.65,40.9,27.25Z" transform="translate(0.19 -0.28)"/><path class="cls-16" d="M36.15,36c-.73,0-1-.28-1.54,0s.63,1.27,1.54,1.17,1.85-1,1.57-1.27S37,36,36.15,36Z" transform="translate(0.19 -0.28)"/><path class="cls-8" d="M21.76,27.9c4-.31,5.4-.26,8.19-.62C28.3,25.54,23.37,26.17,21.76,27.9Z" transform="translate(0.19 -0.28)"/><path class="cls-17" d="M26.46,29.35c-2.14-.75-3.14,3.2-1.63,4.32a2.9,2.9,0,0,1,2.07,0C28.23,32.81,28.06,29.91,26.46,29.35Z" transform="translate(0.19 -0.28)"/><path class="cls-18" d="M26.1,30.78c-.88.16-.51,1.95.4,1.48C27.15,31.91,26.88,30.65,26.1,30.78Z" transform="translate(0.19 -0.28)"/><path class="cls-17" d="M45.51,29.17c-2.14-1.37-4,3.63-1.64,4.35a2.58,2.58,0,0,1,1.87-.3C46.56,32.16,46.65,29.9,45.51,29.17Z" transform="translate(0.19 -0.28)"/><path class="cls-18" d="M44.66,30.38c-.85,0-.73,1.89.18,1.55C45.5,31.68,45.41,30.36,44.66,30.38Z" transform="translate(0.19 -0.28)"/><path class="cls-19" d="M45.57,29.06c-2-.75-2.6,1.57-2.6,1.57a1.82,1.82,0,0,1,2.28-.43,4,4,0,0,0,5-.36C47.83,30.65,46.62,29.47,45.57,29.06Z" transform="translate(0.19 -0.28)"/><path class="cls-19" d="M25,29.49a6.32,6.32,0,0,1-5,1,4.43,4.43,0,0,0,5.22.07,2,2,0,0,1,2.38.13S27.06,28.4,25,29.49Z" transform="translate(0.19 -0.28)"/><circle cx="36.19" cy="24.72" r="1"/></g></svg>