<svg id="Layer_1" data-name="Layer 1" xmlns="http://www.w3.org/2000/svg" xmlns:xlink="http://www.w3.org/1999/xlink" viewBox="0 0 66 66"><defs><style>.cls-1{fill:none;}.cls-2{clip-path:url(#clip-path);}.cls-3{fill:#fff;}.cls-4{fill:#ffc38f;}.cls-5{fill:#f0f0f0;}.cls-6{fill:#e62628;}.cls-7{fill:#3a3a4a;}.cls-8{opacity:0.1;}.cls-9{fill:#fbfbfb;}.cls-10{fill:url(#linear-gradient);}.cls-11{fill:#c93712;}.cls-12{fill:#fff9f0;}.cls-13{fill:#d15426;opacity:0.3;}.cls-14{fill:#bf3c1b;opacity:0.2;}.cls-15{fill:#e85216;}.cls-16{fill:#ff7752;}.cls-17{fill:#1c5c57;}.cls-18{fill:#6cd9d2;opacity:0.7;}.cls-19{fill:#121b21;}.cls-20{fill:#f04d4d;}</style><clipPath id="clip-path" transform="translate(0.18 -0.07)"><circle class="cls-1" cx="32.82" cy="33.07" r="33"/></clipPath><linearGradient id="linear-gradient" x1="34.4" y1="50.25" x2="34.4" y2="55.19" gradientUnits="userSpaceOnUse"><stop offset="0" stop-color="#ee996d"/><stop offset="0.02" stop-color="#ee9a6e"/><stop offset="0.37" stop-color="#f8b181"/><stop offset="0.71" stop-color="#fdbf8d"/><stop offset="1" stop-color="#ffc491"/></linearGradient></defs><g class="cls-2"><rect class="cls-3" width="66" height="66"/><path class="cls-4" d="M26.87,56l-1.68-2.67a10.55,10.55,0,0,0-4.63,9.58,11.41,11.41,0,0,0,.59,3.15h3.38a8.78,8.78,0,0,1-.83-3.31A7.42,7.42,0,0,1,26.87,56Z" transform="translate(0.18 -0.07)"/><path class="cls-4" d="M43.28,53.34,41.6,56a7.4,7.4,0,0,1,3.16,6.75,8.78,8.78,0,0,1-.83,3.31h3.39a12.19,12.19,0,0,0,.59-3.15A10.57,10.57,0,0,0,43.28,53.34Z" transform="translate(0.18 -0.07)"/><path class="cls-5" d="M40.36,51.51c-4-2.21-9.73-1.45-12.36.33-3.89,2.62-2.67,7.1-1.64,14.23H41.7C42.84,59.51,44.2,53.65,40.36,51.51Z" transform="translate(0.18 -0.07)"/><path class="cls-6" d="M34.87,58.85l1.6-1.58a2.36,2.36,0,0,0-2.24-1.46,2.39,2.39,0,0,0-2.57,1.35l1.62,1.66-2,5L33,66.07H35.1l2-2.34Z" transform="translate(0.18 -0.07)"/><path class="cls-7" d="M28.42,51.1s-3.91,1.47-4.24,2.4,1,7.46,1.74,12.57h3.8C29.88,61.83,29.75,55.76,28.42,51.1Z" transform="translate(0.18 -0.07)"/><path class="cls-7" d="M43.83,53.5c-.34-.93-4.26-2.35-4.26-2.35-1.27,4.43-1.36,10.5-1.18,14.92h4C42.49,59.22,44.07,54.17,43.83,53.5Z" transform="translate(0.18 -0.07)"/><path class="cls-8" d="M28.7,54a8.58,8.58,0,0,0,3.4,4.57L34,56.21l2.47,2.32a7.2,7.2,0,0,0,3.34-5.31C39.8,51.81,27.93,51.05,28.7,54Z" transform="translate(0.18 -0.07)"/><path class="cls-9" d="M28.73,50.5c-2.1,3.21,3.21,7.27,3.21,7.27L34,55.93l2.34,1.93s4.8-3,3.1-7C37.91,47.19,30.85,47.26,28.73,50.5Z" transform="translate(0.18 -0.07)"/><path class="cls-10" d="M32.73,46.66c-1.3.39-2.17,2.05-2.26,3.76-.11,2.17,2.22,5.07,3.83,5.12,1.22,0,6.4-4,2.76-7.94A4.61,4.61,0,0,0,32.73,46.66Z" transform="translate(0.18 -0.07)"/><path class="cls-11" d="M52.87,28.93c2.48-.66,5.28-6.06,1.07-5.76,1.14,1.7-1.56,2.49-2.45,1.2a.73.73,0,0,1-.14-.32c-.14-2.13-2.33-3.6-4-4.91a23,23,0,0,0-8.74-4.2c-5.48-1.26-12-.95-16.39,2.67-1.76,1.46-3.29,4.51-5.72,5.09-3,.71-4.65,3.74-2.28,5.65a1.73,1.73,0,0,1-2.62-1.28c-2.57,1.78-3.54,5.24,0,6.81C7.45,36,8.49,40.41,12.94,42.31c-2.09,1.94-1,5.23,1.08,6.53-.16-1.37,1.12-4.42,3.49-2.86,1.45,1,.68,3.52-1.3,2.23-.52,2.33,3.4,3.77,4.56,1.84-.14,1.74,1.06,2.42,2.67,2.31,2.4-.15,3.24-1.76,4.86-2.25a24.49,24.49,0,0,1,6.56-.71c4-.07,7.41,3.86,11.38,2.15,1.53-.65,2.27-1.63,2.11-3.12-1.09.76-3.92-.35-1.61-2.16,1.16-.9,2.87-.06,4-.75,1.38-.81.82-3.71.92-3.77,1-.62,2.65-.67,2.75,1.07,2-4,.1-5.16-2.1-5.46C57.22,36.59,58.16,29.88,52.87,28.93Z" transform="translate(0.18 -0.07)"/><path class="cls-12" d="M48.78,40.35a1.4,1.4,0,0,0-1.36,1.41,1.35,1.35,0,0,0,1.39,1.34,1.4,1.4,0,0,0,1.36-1.41A1.35,1.35,0,0,0,48.78,40.35Z" transform="translate(0.18 -0.07)"/><path class="cls-4" d="M33.26,14.49c-8.09.74-14.38,7.63-13.88,18.51s8.39,19.57,17,18.62c7.1-.79,13.14-9.63,11.8-21.55C46.93,19.39,41.35,13.75,33.26,14.49Z" transform="translate(0.18 -0.07)"/><path class="cls-4" d="M17.29,31.28c-3.52,1.61-1.88,7.66,1.07,8.55a5.73,5.73,0,0,0,2.88,0,.37.37,0,0,0,.05-.11c.4-.86-.5-4.91-.74-5.73C19.93,31.92,19,30.51,17.29,31.28Z" transform="translate(0.18 -0.07)"/><path class="cls-13" d="M19.3,33.39c-.95-.5-3.4.16-2.37,2.14.69-1.73,1.7-.51,1.47.74-.15.83-1,.79-.22,1.93.45.61,1.44.45,1.95.17C21.75,37.46,20.45,34,19.3,33.39Z" transform="translate(0.18 -0.07)"/><path class="cls-14" d="M30.25,18.73a23.56,23.56,0,0,0-6.17,2.05c-2.88,1.46-3.06,3-4.46,5.71-.71,1.39-2.42,2.79-.78,4.24a2.26,2.26,0,0,0-1.13,1.05,3.75,3.75,0,0,0-.28,2.88c.32,1.07,1.24,1.54.76,2.81a3.13,3.13,0,0,0-.09,2.42c1,2.4,6.27,3.08,6.39-.24,0-.28,0-.87-.25-1.06s-.8.06-1.12.06a1.28,1.28,0,0,1-1.31-.94c-.14-.72.48-1.08,1-1.46a2.15,2.15,0,0,0,1-1.61c0-1-.72-1.15-1.33-1.67-1-.86-.71-.71-.16-1.63.68-1.13,1.11-2.62-.27-3.5a1.43,1.43,0,0,0,1.46-1.08c1.18.63,2.57-.62,2.95-1.69-.12.33,1.3-.29,1.39-.35A4,4,0,0,0,28.84,23c.11,1.48,1.64,2.49,2.84,1.32.77,1.84,2.33,1.79,4,1.37.6,2.12-1.2,1.24-1.81,2.3-1,1.76,2.62,2.53,3.6,2.18a2.81,2.81,0,0,0,1.7-2.81c.14,1.38,2.11.74,2.82.23.42,1.93,2.21,2.33,3.62,1,.24,3.19,4.41,3.14,3.58-.58C47.31,19.48,38.17,17.26,30.25,18.73Z" transform="translate(0.18 -0.07)"/><path class="cls-11" d="M50.27,15.27c1.77-3.72-5.55-6.55-8.33-4.53C41.51,6.16,35.75,5.89,33,9.13A5.55,5.55,0,0,0,29.34,7,4.65,4.65,0,0,0,25,8.28c1.54,0,4.14,2.94-.48,2.51-1.92-.18-3.06-.91-5,.13-1.55.83-2.6,2.3-1.14,3.74,0,0-3.43-.2-3.94,2.88-.21,1.27.31,1.58-1,2.53a3,3,0,0,1-2.85.67A5.08,5.08,0,0,0,12.39,24a3.49,3.49,0,0,0,3.78.11c-.13.78,2.2,7.42,3.23,6.71C17.71,32,17,34.32,18.65,35.4a3.08,3.08,0,0,0,1,.4c-2,1.85-1.32,4-.37,4.66a4.67,4.67,0,0,0,4.14.38,1.68,1.68,0,0,0,1.06-1.71c-.9.17-1.79.46-2.53-.29-2.07-2.08,2.21-3.82.15-5.47-.46-.36-1.24-.4-1.28-1.1s.77-1,1.07-1.38c1.06-1.48-.58-3.25-1.93-3.79.86-.05,3.32.37,3-1.27,1.36,1.18,3.35-.48,2.81-2.08.25.72,1.55.49,2,.19.81-.55.74-1.61,1.15-2.41a2.73,2.73,0,0,0,1.18,2.18,1.5,1.5,0,0,0,2.19-.56c.51,1.78,2.27,3.22,3.82,1.44a2.25,2.25,0,0,1,.06,2.31c-.74,1-1.73,0-2.36.43-.79.59.65,1.84,1.18,2a3.12,3.12,0,0,0,3.13-1.07,4,4,0,0,0,.42-2.34c.87,1.39,2.31,2.33,3.75.87,1,1.32,2.07,1.94,3.56.64.72,1.19.6,2.79,2.32,3,2,.29,1.88-2,1.52-3.36-.45-1.68-1.07-4.95.87-6.42,1.2-.91,3-.33,2.43,1.25a3.13,3.13,0,0,0,1.16-4.35A5,5,0,0,0,50.27,15.27Z" transform="translate(0.18 -0.07)"/><path class="cls-12" d="M19.63,40.84a1.31,1.31,0,0,0-1.26,1.31,1.25,1.25,0,0,0,1.29,1.23,1.29,1.29,0,0,0,1.25-1.3A1.25,1.25,0,0,0,19.63,40.84Z" transform="translate(0.18 -0.07)"/><path class="cls-15" d="M29.06,13.7v0C29.07,13.63,29.06,13.63,29.06,13.7Z" transform="translate(0.18 -0.07)"/><path class="cls-15" d="M49.49,24.24a11.61,11.61,0,0,0-.2-2.46c-.29-1.29-1-1.63-2.24-1.58a3.63,3.63,0,0,1,5.75-.69c.64-2.31-2.17-4.35-4.44-3.76.48-1.34.87-3-.45-4a4.82,4.82,0,0,0-5.19-.3c-1.25.76-2.65,2.26-4.42,1.16,1.05.66,3.58-2.94.59-4.22-1.87-.8-3.49.25-4.75,1.49a4,4,0,0,0-1,1.32C31.85,8.76,29.9,7.28,26.83,8c2.33,0,3.31,3.68,1.2,4.7-1.22.59-2.35-.7-3.34-1.15a5.5,5.5,0,0,0-3.33-.31,4.24,4.24,0,0,0-2.52,2c1.67-.22,2.63,3.06,6.28,2a4.21,4.21,0,0,1-4.6.76,3.52,3.52,0,0,0-3.21-.23c-1.55.85-1.16,3-1.93,4.36s-1.34,1.36-2.6,1.72a4.72,4.72,0,0,0,3.73.79c-1.11.11-1.75,1.67-1.85,2.52-.12,1.11.84,2,.68,3-.14.86-1.33,1.44-2.14,1.41a2,2,0,0,0,2.17.36c.94-.32,1.14-1.55,1.91-1.72,1.06-.23,2.16,1.55,2.14,2.36,1.59-.77-.29-3.22-1.22-3.93,1,0,3.91-.12,3.72-1.59.12.89,2,0,2.27-.47a1.71,1.71,0,0,0-.51-2.12c.6.07,1.69.64,2.15.1s-.07-1.56-.33-2c4.78,1.84,3.42-3.1.49-3,2.21-.18,2.81-.51,3.07-3.91v0c0-.07,0-.07,0,0v0c.16,2-.36,3.95,3,3.64C27.21,19.08,29.13,23,34,21.85c-.73.17-.79,1.56.31,2.34a2.35,2.35,0,0,0,2.4-.14c.85,1.32,1.12,2.48.09,3.64,1.16.07,1.6-1.66,1.77-2.5.88.53,1.67,1.34,2.76.9.82-.32,1.26-1.22,1.8-1.84,0,1.45.56,2.53,1.44,2.72A2.69,2.69,0,0,0,47.17,26,3.83,3.83,0,0,0,48.3,29a2.62,2.62,0,0,0,3.26.52,1.25,1.25,0,0,1-1.18-.72c2-.19,3.62-1.27,3.44-3.36C52.43,26,49.59,26.37,49.49,24.24Z" transform="translate(0.18 -0.07)"/><path class="cls-11" d="M40.67,21.42c.92,3.24,3.7,4.11,5.36,1.47C44.3,24.44,41.46,23.12,40.67,21.42Z" transform="translate(0.18 -0.07)"/><path class="cls-11" d="M19.14,25.06c2,1.65,4.31.07,3.32-2.32C22.24,24.3,20.34,25.52,19.14,25.06Z" transform="translate(0.18 -0.07)"/><path class="cls-11" d="M46.21,24.06c-1.19,2.22,1,4,3.2,2.47C47.77,26.72,46,25.28,46.21,24.06Z" transform="translate(0.18 -0.07)"/><path class="cls-11" d="M43.49,18.9a4.56,4.56,0,0,0,5.56,1.22L49,18.63A6.93,6.93,0,0,1,43.49,18.9Z" transform="translate(0.18 -0.07)"/><path class="cls-11" d="M44.54,14.57a3.43,3.43,0,0,0,4.24,1.1L49,14A4.33,4.33,0,0,1,44.54,14.57Z" transform="translate(0.18 -0.07)"/><path class="cls-11" d="M14.36,22.79l.46,1.46c2.37.05,4-.93,4.72-3A6.74,6.74,0,0,1,14.36,22.79Z" transform="translate(0.18 -0.07)"/><path class="cls-15" d="M11.25,29.1l-.06-1c-1,1.1-1.73,2.35-1,3.71.49.89,1.83,1.84,2.91,1.08.43-.31.57-1.12.67-1.58l-.06-.06C12.37,31.44,11,30.4,11.25,29.1Z" transform="translate(0.18 -0.07)"/><path class="cls-15" d="M12.69,34.32l-.81.48C10,34.84,9,38,9.8,39.41A3.89,3.89,0,0,0,12.38,41a4.74,4.74,0,0,1-1-3.64C11.65,36.29,12.66,35.49,12.69,34.32Z" transform="translate(0.18 -0.07)"/><path class="cls-15" d="M54.28,30.56a4.44,4.44,0,0,0-1.72-.72v.32C54.27,32.37,54,34,53,36.29c0,0,.09.08.09.06C55.47,35.37,56.61,32.15,54.28,30.56Z" transform="translate(0.18 -0.07)"/><path class="cls-15" d="M53.07,38.31l-.8-.21c-.36,1.88,2,1.44,2.3,2.83C55,39.77,54.78,38.22,53.07,38.31Z" transform="translate(0.18 -0.07)"/><path class="cls-15" d="M13,43.43a3,3,0,0,0,.19,4c0-.61.44-1.08.44-1.69s-.41-1-.34-1.65Z" transform="translate(0.18 -0.07)"/><path class="cls-16" d="M47.1,37.2a2.65,2.65,0,0,0-2.22-1c-1-.07-2.35.22-1.63,1.75.39.81,4.28,1.64,4-.2A1.39,1.39,0,0,0,47.1,37.2Z" transform="translate(0.18 -0.07)"/><path class="cls-16" d="M28.86,36.91a2.77,2.77,0,0,0-2.62-.7c-1.1.15-2.54.8-1.49,2.41.56.85,5,.91,4.37-1.16A1.65,1.65,0,0,0,28.86,36.91Z" transform="translate(0.18 -0.07)"/><path class="cls-11" d="M41.5,29.2c2.16.2,4-.44,7.21-.17C47.52,27.54,43.12,27.51,41.5,29.2Z" transform="translate(0.18 -0.07)"/><path class="cls-13" d="M36.69,37.9c-.74,0-1-.3-1.54,0s.6,1.29,1.51,1.21,1.88-.93,1.61-1.24S37.51,37.89,36.69,37.9Z" transform="translate(0.18 -0.07)"/><path class="cls-11" d="M22.21,28.73c4.06.1,5.42.28,8.24.21C29,27,24,27.17,22.21,28.73Z" transform="translate(0.18 -0.07)"/><path class="cls-17" d="M27,30.8c-2.13-.8-3.23,3.13-1.74,4.29a2.92,2.92,0,0,1,2.08.06C28.67,34.31,28.57,31.39,27,30.8Z" transform="translate(0.18 -0.07)"/><path class="cls-18" d="M27.31,32.1c-.88.13-.55,1.94.37,1.48C28.35,33.26,28.1,32,27.31,32.1Z" transform="translate(0.18 -0.07)"/><path class="cls-17" d="M45.77,30.84c-2.14-1.37-4,3.64-1.64,4.36A2.6,2.6,0,0,1,46,34.9C46.83,33.84,46.92,31.57,45.77,30.84Z" transform="translate(0.18 -0.07)"/><path class="cls-18" d="M45.65,31.91c-.85,0-.73,1.89.18,1.55C46.49,33.21,46.4,31.89,45.65,31.91Z" transform="translate(0.18 -0.07)"/><path class="cls-19" d="M45.83,30.73c-2-.75-2.61,1.58-2.61,1.58a1.81,1.81,0,0,1,2.29-.43,4,4,0,0,0,5-.37C48.1,32.32,46.88,31.14,45.83,30.73Z" transform="translate(0.18 -0.07)"/><path class="cls-19" d="M25.55,30.91a6.37,6.37,0,0,1-5,.89,4.46,4.46,0,0,0,5.23.19,2,2,0,0,1,2.38.18S27.6,29.86,25.55,30.91Z" transform="translate(0.18 -0.07)"/><path class="cls-20" d="M25.82,40.3c1.08,2.06,3.72,1.06,2.61-1A2,2,0,0,1,25.82,40.3Z" transform="translate(0.18 -0.07)"/><path class="cls-20" d="M43.27,38.91a1.49,1.49,0,1,0,2.84.8A2.22,2.22,0,0,1,43.27,38.91Z" transform="translate(0.18 -0.07)"/><path class="cls-20" d="M44.51,40a.63.63,0,0,0-.79.32c-1,2.93-4.18,4.86-7.84,4.84a8.18,8.18,0,0,1-7.49-4.28.7.7,0,0,0-.82-.34.5.5,0,0,0-.33.71,9.43,9.43,0,0,0,8.37,5h.33c4.21,0,7.77-2.16,9-5.55A.57.57,0,0,0,44.51,40Z" transform="translate(0.18 -0.07)"/></g></svg>