<svg id="Layer_1" data-name="Layer 1" xmlns="http://www.w3.org/2000/svg" xmlns:xlink="http://www.w3.org/1999/xlink" viewBox="0 0 66 66"><defs><style>.cls-1{fill:none;}.cls-2{clip-path:url(#clip-path);}.cls-3{fill:#f1c4b5;}.cls-4{fill:#ff9819;}.cls-5{opacity:0.15;}.cls-6{fill:#108d8e;}.cls-7{fill:#27b3b0;}.cls-8{fill:#0a6f72;}.cls-9{fill:#323240;}.cls-10{fill:#c93712;}.cls-11{fill:#ffbc82;}.cls-12,.cls-17{fill:#b54319;}.cls-12{opacity:0.2;}.cls-13{fill:#e85216;}.cls-14{fill:#535363;}.cls-15{fill:#747482;}.cls-16{fill:#ff7752;opacity:0.4;}.cls-17{opacity:0.3;}.cls-18{fill:#261b18;}.cls-19{fill:#947463;}.cls-20{fill:#121b21;}.cls-21{fill:#ff3b3b;}.cls-22{fill:#8f2621;}.cls-23{fill:#fff9f0;}.cls-24{fill:#e8dac5;}</style><clipPath id="clip-path" transform="translate(0.49 -0.07)"><circle class="cls-1" cx="32.52" cy="33.07" r="33"/></clipPath></defs><g class="cls-2"><rect class="cls-3" width="66" height="66"/><path class="cls-4" d="M38.94,61.33c.07-1.6-.33-5-2.14-5.73a14.12,14.12,0,0,0-9.45,0c-2.12.91-2.86,2.2-1.41,6.68.51,1.59,1.1,1.44,1.2,3.12a4.28,4.28,0,0,1,0,.62H37.79C38.11,64.14,38.85,63.55,38.94,61.33Z" transform="translate(0.49 -0.07)"/><path class="cls-4" d="M27.37,58.21,25.74,55c-2.22,1.12-2.79,3.68-3.39,6.39a23,23,0,0,1-1.41,4.68h3.89a38,38,0,0,0,1-3.9C26.26,60.4,26.67,58.56,27.37,58.21Z" transform="translate(0.49 -0.07)"/><path class="cls-4" d="M39.55,55l-1.63,3.21c.7.35,1.11,2.19,1.5,4a38,38,0,0,0,1,3.9h3.88a23.65,23.65,0,0,1-1.4-4.68C42.34,58.68,41.77,56.12,39.55,55Z" transform="translate(0.49 -0.07)"/><path class="cls-5" d="M39.87,55.82a3.93,3.93,0,0,0-3.38-2.13,8.3,8.3,0,0,0-4.45,1c1.86.92,2.34,6.4,2.49,9.85,0,.49,0,1,0,1.56h5.09C40.43,62.11,40.78,57.52,39.87,55.82Z" transform="translate(0.49 -0.07)"/><path class="cls-6" d="M36.67,53.52A9.26,9.26,0,0,0,32,54.62c2,.86,3,5.17,3.3,10.09,0,.36,0,.83,0,1.36h6.82C42,62,41.24,57.14,40.28,55.53A4.11,4.11,0,0,0,36.67,53.52Z" transform="translate(0.49 -0.07)"/><path class="cls-7" d="M40.43,60.27c-.88-.05-.59,2.69-.64,3.28A4.54,4.54,0,0,0,38.84,62a5.68,5.68,0,0,0-.91,2.59c-.3,1.32-1.15-.28-1.47-.59,0,0,0,1.26-.07,2h5.15C41.52,64.12,41.41,60.32,40.43,60.27Z" transform="translate(0.49 -0.07)"/><path class="cls-5" d="M24,58.68c2.36,3.74,8.56,4.51,11.55,3.59a9.09,9.09,0,0,0,6.42-6.38C44.39,45.62,17.31,48.13,24,58.68Z" transform="translate(0.49 -0.07)"/><path class="cls-6" d="M23.52,57.86c2.49,3.7,9.06,4.45,12.23,3.53,2.43-.7,5.85-2.54,6.82-6.36C45.19,44.83,16.48,47.39,23.52,57.86Z" transform="translate(0.49 -0.07)"/><path class="cls-8" d="M25.85,52.78c1.74,1.76,6.29,2.75,9.32,2,1.72-.42,4.55-.93,5.31-2.68C42.5,47.44,20.94,47.79,25.85,52.78Z" transform="translate(0.49 -0.07)"/><path class="cls-7" d="M35.59,55.66c-.32-.36-1.64.14-3.08.11-2.63,0-2.67-.68-4.08-.72-.32,1.39,2.73,2.17,3.42,2.39-.73,0-2.25-.21-2.85.4-.87.87,0,2,.72,2.31a7,7,0,0,0,3.9.35c.4-.09,1.39-.22,1.53-.81.1-.44-.3-.43-.26-.87s.54-.55.51-1-.4-.49-.86-.52C34.89,57.11,36.05,56.19,35.59,55.66Z" transform="translate(0.49 -0.07)"/><path class="cls-9" d="M33.66,12.47c-34-.12-35.48,39.93-.7,36.85C67.46,46.27,63.14,12.57,33.66,12.47Z" transform="translate(0.49 -0.07)"/><path class="cls-10" d="M18.93,13.5a30.37,30.37,0,0,0-6.17,23.73A32.47,32.47,0,0,0,16.24,47.7c3.87,7.23,10.75,1.55,17.93,2.23,5.81.55,10.48,5.5,14-.39,4.94-8.35,4.88-16.58,3.16-25C47.77,7.23,27.17,3.27,18.93,13.5Z" transform="translate(0.49 -0.07)"/><path class="cls-11" d="M30.91,16.37C23.3,17.72,17.76,28.53,19,38.78c.9,7.61,7.37,15.81,15.19,15.32,9.41-.6,14.15-11.68,13.19-20.72C46.26,23.11,41.56,14.49,30.91,16.37Z" transform="translate(0.49 -0.07)"/><path class="cls-12" d="M44.18,19.45a36,36,0,0,0-12.61-2.92c-2.77-.12-6.49-.35-9.1.72-3.9,1.6-5.62,4.13-6.22,8-.41,2.66,2.22,5.25,4.24,7,1.49-1.4.83-3.34.82-5,0,2.34,6.43,2.17,7.86,1.67a27.58,27.58,0,0,0,2.68-1.09c2.17-1.05,4.39-2.57,5-4.58,1.48,2.37,8.52,7.26,11.16,4.36C50.18,25.25,46.4,20.38,44.18,19.45Z" transform="translate(0.49 -0.07)"/><path class="cls-10" d="M40.4,12.92c-3.94-2.16-8.85-2-13.2-1.35-5.14.79-9.19,5.21-11.14,9.65-2.22,5-3.92,9.91-3.13,17C13.46,43,14.78,48.47,20,53c2.95,2.59,7.25,5.51,8.38,9.62.79-1.51.71-5.39.19-6.94C27,51.16,22.6,49,21.25,44.33c-1.1-3.82-1.7-7.78,0-11.54,1.42-3.17,5.05-3.83,8.15-5.22,2.89-1.29,6.26-2.94,7.41-6.17a27,27,0,0,0,5,4.11c1.77,1.08,3.45,1.49,4.7,3.26C48.72,32,48.83,36.36,47.77,40c-1.4,4.79-4.64,9.48-9.17,13.8-2.21,2.11-2.4,6.51-.85,10.34,1.35-8.78,8.45-8.55,11.8-17.25a28.86,28.86,0,0,0-1.61-24.8C45.88,18.48,44.17,15,40.4,12.92Z" transform="translate(0.49 -0.07)"/><path class="cls-13" d="M16.05,26c-.77.9.5,1.41,1.64,1.64.76.14,3.5-.46,3.68-1.44-.21,1.17-1.2,2.14-1.6,3.3a29.21,29.21,0,0,0,12.42-5.58c.58-.48,4.53-4.48,3.9-5.27,3.25,4.08,7,6.68,11.8,4.88C36.48,11.8,19.48,22,16.05,26Z" transform="translate(0.49 -0.07)"/><path class="cls-13" d="M19.32,42.33c-1.3-2.07-3.56-2.8-4.57-5.19,0,0,.24,9.72,5.28,13.81a6.93,6.93,0,0,1-.35-3.26C20,45.63,20.57,44.31,19.32,42.33Z" transform="translate(0.49 -0.07)"/><path class="cls-13" d="M46.74,46.37c-1.22.76-2.14,1.09-2.59,2.63s.41,2.68-.93,4.54c0,0,5.27-1.57,5-8.84A4.75,4.75,0,0,1,46.74,46.37Z" transform="translate(0.49 -0.07)"/><path class="cls-14" d="M39.41,4.16c-3.14-2.23-13.37-2.08-17,.62-2.26,1.69-5.38,11.55-5.38,11.55l29.4-1.55S40.91,5.23,39.41,4.16Z" transform="translate(0.49 -0.07)"/><path class="cls-15" d="M18.19,13.06a32.38,32.38,0,0,0-1.13,3.27l29.4-1.55s-.71-1.25-2.09-3.49C41.89,7.26,20.07,8.15,18.19,13.06Z" transform="translate(0.49 -0.07)"/><path class="cls-9" d="M32.85,11.47c-21.22,1-26.22,13.2-25.29,22.4.37,3.66,3.88,1.45,5.06-2.78C17,15.55,46.67,11,52.1,29.59c1.92,6.59,4.67,7,5.2,1.69C58.2,22.32,52.81,10.5,32.85,11.47Z" transform="translate(0.49 -0.07)"/><path class="cls-16" d="M46.1,37.15a3.39,3.39,0,0,0-2.78-1c-1.18,0-2.77.41-1.71,2.11.57.9,5.3,1.58,4.75-.5A1.56,1.56,0,0,0,46.1,37.15Z" transform="translate(0.49 -0.07)"/><path class="cls-16" d="M28,36.78a3.58,3.58,0,0,0-3.09-.33c-1.21.3-2.71,1.15-1.19,2.59.81.77,5.8.22,4.7-1.75A2.12,2.12,0,0,0,28,36.78Z" transform="translate(0.49 -0.07)"/><path class="cls-17" d="M35.58,38.49c-1-.05-.95-.46-1.66-.15s-.18,1.5,1.55,1.56S38,39,37.68,38.56,36.67,38.55,35.58,38.49Z" transform="translate(0.49 -0.07)"/><path class="cls-18" d="M44.69,32c-2.54-1.08-4.85,2.05-3,3.68a3.35,3.35,0,0,1,3.59-.11A2.26,2.26,0,0,0,44.69,32Z" transform="translate(0.49 -0.07)"/><path class="cls-19" d="M43.64,32.31c-1.18.37-.62,2.64.59,1.84C45.1,33.58,44.69,32,43.64,32.31Z" transform="translate(0.49 -0.07)"/><path class="cls-18" d="M24.58,32.2a2.25,2.25,0,0,0-.45,3.58,3.33,3.33,0,0,1,3.58,0C29.49,34.11,27.08,31,24.58,32.2Z" transform="translate(0.49 -0.07)"/><path class="cls-19" d="M26.69,32.51c-1.07-.29-1.43,1.31-.54,1.86C27.38,35.13,27.88,32.85,26.69,32.51Z" transform="translate(0.49 -0.07)"/><path class="cls-18" d="M28.25,28.84a14.64,14.64,0,0,0-4,.23,6.73,6.73,0,0,0-2.5,1.07c-.21.17-.49.46-.48.73.22,0,.39-.1.59-.16A12.56,12.56,0,0,1,25,30.38c.81,0,1.62,0,2.43,0,.54,0,1.28.09,1.57-.44S29,28.87,28.25,28.84Z" transform="translate(0.49 -0.07)"/><path class="cls-18" d="M46.74,29.76a6.39,6.39,0,0,0-2.44-.93,14.26,14.26,0,0,0-3.86-.07c-.7.06-1.1.46-.73,1.09s1,.36,1.54.36c.79,0,1.57-.08,2.36-.09a11.91,11.91,0,0,1,3,.19c.2.05.36.17.57.13C47.23,30.19,47,29.91,46.74,29.76Z" transform="translate(0.49 -0.07)"/><path class="cls-20" d="M44.19,31.56a2.64,2.64,0,0,0-3,1.88,2.39,2.39,0,0,1,2.66-.81,4.29,4.29,0,0,0,5.27-1C46.65,32.8,45.38,31.78,44.19,31.56Z" transform="translate(0.49 -0.07)"/><path class="cls-20" d="M25.17,31.81c-1.2.24-2.45,1.28-4.93.15a4.3,4.3,0,0,0,5.29.92,2.37,2.37,0,0,1,2.66.78A2.64,2.64,0,0,0,25.17,31.81Z" transform="translate(0.49 -0.07)"/><path class="cls-21" d="M24.41,41.7c4.25,6.24,6.83,7.37,10.08,7.51,4.07.17,5.42-2.43,6-4.37a11.53,11.53,0,0,1,3.07-3.45c-2.53.6-5,.33-8.85.5C31.55,42,26.92,43,24.41,41.7Z" transform="translate(0.49 -0.07)"/><path class="cls-22" d="M26.34,42.77A9.5,9.5,0,0,0,34,47c3.25,0,5.37-1,5.95-2.45a4.15,4.15,0,0,1,2-2.16A35,35,0,0,1,26.34,42.77Z" transform="translate(0.49 -0.07)"/><path class="cls-23" d="M28.23,43.12s.17,1.28,2,1.75a17.88,17.88,0,0,0,7.38.2c1.72-.27,2.55-2.29,2.55-2.29A37.42,37.42,0,0,1,28.23,43.12Z" transform="translate(0.49 -0.07)"/><path class="cls-23" d="M35.23,45.27c-2.32.11-4.24,0-5.41-.69-.84-.49-.9.05-.72.38,0,0,.77,1.75,4.62,2.1s5.58-1.78,5.16-2.14S37.37,45.17,35.23,45.27Z" transform="translate(0.49 -0.07)"/><path class="cls-24" d="M28.23,43.12a1.94,1.94,0,0,0,.47.9s8.65-.8,10.73-.11a4.3,4.3,0,0,0,.7-1.13A42.93,42.93,0,0,1,28.23,43.12Z" transform="translate(0.49 -0.07)"/><path class="cls-24" d="M30.51,44.83c3.13,1.71,6.83.19,6.83.19A13.17,13.17,0,0,1,30.51,44.83Z" transform="translate(0.49 -0.07)"/></g></svg>