<svg id="Layer_1" data-name="Layer 1" xmlns="http://www.w3.org/2000/svg" xmlns:xlink="http://www.w3.org/1999/xlink" viewBox="0 0 66 66"><defs><style>.cls-1{fill:none;}.cls-2{clip-path:url(#clip-path);}.cls-3{fill:#a77e64;}.cls-4{fill:#261b18;}.cls-5{fill:#ff9819;}.cls-6{fill:#ad9162;}.cls-7{fill:#ccaf7e;}.cls-8{fill:#57472f;}.cls-9{fill:url(#linear-gradient);}.cls-10{opacity:0.1;}.cls-11{fill:#ffbc82;}.cls-12{fill:#bf3c1b;}.cls-12,.cls-15,.cls-26{opacity:0.3;}.cls-13{fill:#57443a;}.cls-14{fill:#ff7752;opacity:0.4;}.cls-15{fill:#b54319;}.cls-16{fill:#947463;}.cls-17{fill:#121b21;}.cls-18{fill:#ff3b3b;}.cls-19{fill:#8f2621;}.cls-20{fill:#fff9f0;}.cls-21{fill:#e8dac5;}.cls-22{fill:#588a17;}.cls-23{fill:#85b428;}.cls-24{fill:#daef3f;}.cls-25{fill:#82c126;}.cls-26{fill:#004022;}.cls-27{fill:#579418;}.cls-28{fill:#bbe351;}.cls-29{fill:#8cce29;}</style><clipPath id="clip-path" transform="translate(0.18 0.04)"><circle class="cls-1" cx="32.82" cy="32.96" r="33"/></clipPath><linearGradient id="linear-gradient" x1="-464.03" y1="52.21" x2="-464.03" y2="57.09" gradientTransform="matrix(-1, 0, 0, 1, -431.62, 0)" gradientUnits="userSpaceOnUse"><stop offset="0" stop-color="#ee996d"/><stop offset="0.02" stop-color="#ee9a6e"/><stop offset="0.37" stop-color="#f8b181"/><stop offset="0.71" stop-color="#fdbf8d"/><stop offset="1" stop-color="#ffc491"/></linearGradient></defs><g class="cls-2"><rect class="cls-3" width="66" height="66"/><path class="cls-4" d="M12.58,36.3a32.52,32.52,0,0,0,3.58,10.63c4,7.34,9.92,6.49,17.32,7.18,6,.55,10.09-1.85,13.91-7.68,5.12-7.79,5.07-14.4,4.1-22.83C49.36,5.18,27.43,1.82,18.94,12.2A30.58,30.58,0,0,0,12.58,36.3Z" transform="translate(0.18 0.04)"/><path class="cls-5" d="M26.13,54.85a2,2,0,0,0-2.82-.21c-3.3,2.84-4,6.29-4,11.32h4.25c.08-2.47.39-6.59,2.38-8.3A2,2,0,0,0,26.13,54.85Z" transform="translate(0.18 0.04)"/><path class="cls-5" d="M38.68,54.85a2,2,0,0,1,2.82-.21c3.3,2.84,4,6.29,4,11.32H41.27c-.08-2.47-.39-6.59-2.38-8.3A2,2,0,0,1,38.68,54.85Z" transform="translate(0.18 0.04)"/><path class="cls-6" d="M23.5,54.51c-2,1.37,1.22,5.14,1.22,11.45H39.85c0-5.58,3.1-10.34,1.19-11.45C36.85,52.07,28.53,51.1,23.5,54.51Z" transform="translate(0.18 0.04)"/><path class="cls-7" d="M32.35,56.51c6.94,0,10.58-2.47,8.87-4.89-5.23-7.42-12.47-8.36-17.83,0C21.74,54.18,24.83,56.51,32.35,56.51Z" transform="translate(0.18 0.04)"/><path class="cls-8" d="M32.36,55.64c3.91-.06,11.35-4,9.36-6.4-1.79-2.16-17.17-2.9-18.06-.33C22.91,51.08,28.45,55.69,32.36,55.64Z" transform="translate(0.18 0.04)"/><path class="cls-9" d="M28.06,52c.17-2.27,2.61-3.13,4.35-3.13s4.17.86,4.34,3.13A2.38,2.38,0,0,1,36,54.2a5.73,5.73,0,0,1-3.6,1.72A5.73,5.73,0,0,1,28.8,54.2,2.38,2.38,0,0,1,28.06,52Z" transform="translate(0.18 0.04)"/><path class="cls-7" d="M39,61.57a.38.38,0,0,1-.37-.29,11.13,11.13,0,0,0-2.5-5,.38.38,0,1,1,.55-.52A11.93,11.93,0,0,1,39.4,61.1a.38.38,0,0,1-.28.46Z" transform="translate(0.18 0.04)"/><path class="cls-7" d="M25.65,61.57h-.1a.38.38,0,0,1-.27-.46A11.83,11.83,0,0,1,28,55.79a.37.37,0,0,1,.53,0,.38.38,0,0,1,0,.54,11.23,11.23,0,0,0-2.5,5A.37.37,0,0,1,25.65,61.57Z" transform="translate(0.18 0.04)"/><path class="cls-6" d="M32.09,56.08c-1.42,0,4.59-.34,4.6-4.83C38.22,51.84,39.52,56.2,32.09,56.08Z" transform="translate(0.18 0.04)"/><path class="cls-6" d="M32.74,56.08c1.42,0-5.17-.59-4.59-4.83C26.61,51.84,25.31,56.2,32.74,56.08Z" transform="translate(0.18 0.04)"/><path class="cls-7" d="M25.84,60.36c.65,2.21,3.77,2.78,6.49,2.73,5.36-.1,7.08-2.61,6.13-5.33-.25-.73-1.17-1.11-2.2,0-1.54,1.62-6.75,1.75-8.72-.31C26.43,56.26,25.35,58.69,25.84,60.36Z" transform="translate(0.18 0.04)"/><g class="cls-10"><path d="M38.66,63.12a6.59,6.59,0,0,1-2.82,1.71,16.93,16.93,0,0,0,2.59.09c-2.34,1.22-9.75,1.26-11.23.18.33-.08,2.07,0,2.3-.07a10,10,0,0,1-3.72-1.89C29.82,64.73,35.22,64.26,38.66,63.12Z" transform="translate(0.18 0.04)"/></g><path class="cls-11" d="M18.89,37.88c.91,7.72,7.48,16,15.42,15.55,9.55-.61,14.38-11.86,13.4-21C46.59,22,41.82,13.22,31,15.13,23.28,16.49,17.66,27.47,18.89,37.88Z" transform="translate(0.18 0.04)"/><path class="cls-12" d="M32,26.73a25.14,25.14,0,0,1-2.71,1.11c-1.46.5-8,.68-8-1.7,0,1.7.68,3.67-.83,5.09-2.05-1.72-4.72-4.35-4.31-7,.62-4,2.36-6.54,6.33-8.17,2.65-1.08,6.42-.84,9.23-.72a36.33,36.33,0,0,1,12.81,3c2.25.94,6.09,5.88,3.94,8.24-2.69,2.95-9.83-2-11.33-4.42C36.41,24.12,34.16,25.66,32,26.73Z" transform="translate(0.18 0.04)"/><path class="cls-4" d="M27.24,10.25c-5.22.81-9.33,5.29-11.32,9.8-2.25,5.12-4.14,9.05-3.34,16.25a27.69,27.69,0,0,0,6.94,16.18c2.71,2.93,8,5.07,9.11,9.25.81-1.54.38-4.61-.14-6.18-1.53-4.61-5.92-7.28-7.29-12-1.12-3.87-1.34-7.39,1.07-10.8a16.83,16.83,0,0,1,7.19-6.21c2.94-1.31,6.35-3,7.52-6.26a28.14,28.14,0,0,0,5.07,4.17c1.79,1.09,3.51,1.5,4.77,3.3,2.26,3.23,2.38,7.72,1.3,11.39-1.42,4.87-4.8,11.15-10,13.44-2.84,1.26-1.76,7.19-.18,11.07C39.32,54.7,46.26,53,48.81,46.5,54.26,32.63,52,27.28,48.3,20.92c-2.1-3.65-3.83-7.21-7.66-9.3C36.64,9.42,31.65,9.57,27.24,10.25Z" transform="translate(0.18 0.04)"/><path class="cls-13" d="M30.71,8.09c7.1-.36,17.6,3,19.1,13.2-4.94,1.83-9.88.26-13.23-3.88.66.8-3.42,4.86-4,5.35a30.44,30.44,0,0,1-12.81,5.66c.41-1.17,1.43-2.16,1.65-3.34-.18,1-3,1.6-3.79,1.45a2.5,2.5,0,0,1-2.12-2.2c-.29-2,1.27-5.63,2.12-7.39A16.26,16.26,0,0,1,30.71,8.09Z" transform="translate(0.18 0.04)"/><path class="cls-13" d="M14.39,36.35c1,2.42,3.32,3.17,4.64,5.27s.73,3.35.36,5.45a7,7,0,0,0,.37,3.3C14.63,46.22,14.39,36.35,14.39,36.35Z" transform="translate(0.18 0.04)"/><path class="cls-13" d="M43.12,52c1.44-1.82.83-2.62,1.47-4.09s1.46-1.83,2.63-2.66a6.86,6.86,0,0,0,1.56-1.67A10.81,10.81,0,0,1,43.12,52Z" transform="translate(0.18 0.04)"/><path class="cls-14" d="M46.43,36.23a1.66,1.66,0,0,1,.26.57c.56,2.12-4.25,1.43-4.82.51-1.08-1.73.53-2.16,1.74-2.14A3.44,3.44,0,0,1,46.43,36.23Z" transform="translate(0.18 0.04)"/><path class="cls-14" d="M28,35.85a2.12,2.12,0,0,1,.42.51c1.12,2-3.94,2.57-4.76,1.78-1.55-1.46,0-2.32,1.2-2.63A3.63,3.63,0,0,1,28,35.85Z" transform="translate(0.18 0.04)"/><path class="cls-15" d="M37.87,37.66c-.39-.48-1,0-2.12-.08s-1-.46-1.69-.15S33.87,39,35.63,39,38.21,38.07,37.87,37.66Z" transform="translate(0.18 0.04)"/><path class="cls-4" d="M45,31c-2.58-1.1-4.93,2.08-3.08,3.73a3.41,3.41,0,0,1,3.64-.11A2.29,2.29,0,0,0,45,31Z" transform="translate(0.18 0.04)"/><path class="cls-16" d="M43.93,31.31c1.07-.33,1.48,1.29.59,1.87C43.3,34,42.73,31.68,43.93,31.31Z" transform="translate(0.18 0.04)"/><path class="cls-4" d="M24.57,31.2c2.55-1.18,5,1.93,3.19,3.64a3.4,3.4,0,0,0-3.64,0A2.28,2.28,0,0,1,24.57,31.2Z" transform="translate(0.18 0.04)"/><path class="cls-16" d="M26.71,31.51c-1.07-.3-1.44,1.33-.54,1.89C27.42,34.17,27.92,31.85,26.71,31.51Z" transform="translate(0.18 0.04)"/><path class="cls-4" d="M28.3,27.78c.73,0,1.15.44.77,1.12s-1,.43-1.6.45c-.81,0-1.63,0-2.45,0a13,13,0,0,0-3.17.33c-.2.06-.37.2-.59.17,0-.27.27-.57.49-.75A6.81,6.81,0,0,1,24.28,28,15.54,15.54,0,0,1,28.3,27.78Z" transform="translate(0.18 0.04)"/><path class="cls-4" d="M40.68,27.7c-.71.06-1.11.47-.74,1.11s1,.37,1.57.37c.8,0,1.59-.08,2.39-.1a12.79,12.79,0,0,1,3.09.2c.2,0,.36.18.58.13,0-.25-.27-.53-.49-.69a6.54,6.54,0,0,0-2.48-.95A15.59,15.59,0,0,0,40.68,27.7Z" transform="translate(0.18 0.04)"/><path class="cls-17" d="M49.48,30.64a4.34,4.34,0,0,1-5.35,1,2.41,2.41,0,0,0-2.69.82,2.66,2.66,0,0,1,3-1.9C45.7,30.77,47,31.81,49.48,30.64Z" transform="translate(0.18 0.04)"/><path class="cls-17" d="M20.17,31a4.36,4.36,0,0,0,5.37.94,2.41,2.41,0,0,1,2.7.79,2.67,2.67,0,0,0-3.07-1.87C24,31,22.69,32.1,20.17,31Z" transform="translate(0.18 0.04)"/><path class="cls-18" d="M43.86,40.53c-2.57.61-5.11.34-9,.51-3.21.14-7.92,1.09-10.47-.2,4.32,6.34,6.94,7.48,10.23,7.63,4.14.17,5.51-2.47,6.11-4.44A11.76,11.76,0,0,1,43.86,40.53Z" transform="translate(0.18 0.04)"/><path class="cls-19" d="M26.36,41.93a35.45,35.45,0,0,0,15.83-.39,4.21,4.21,0,0,0-2,2.2c-.59,1.46-2.74,2.5-6,2.49A9.65,9.65,0,0,1,26.36,41.93Z" transform="translate(0.18 0.04)"/><path class="cls-20" d="M28.28,42.29s.17,1.3,2,1.78a18.37,18.37,0,0,0,7.48.2c1.76-.28,2.59-2.33,2.59-2.33A38,38,0,0,1,28.28,42.29Z" transform="translate(0.18 0.04)"/><path class="cls-20" d="M29.16,44.16c-.18-.34-.11-.89.74-.39,1.18.69,3.14.82,5.49.7,2.18-.1,3.27-.72,3.7-.36s-1.48,2.52-5.23,2.18C30,45.93,29.16,44.16,29.16,44.16Z" transform="translate(0.18 0.04)"/><path class="cls-21" d="M28.76,43.2s8.78-.82,10.9-.12a4,4,0,0,0,.7-1.14,44,44,0,0,1-12.08.35A2.07,2.07,0,0,0,28.76,43.2Z" transform="translate(0.18 0.04)"/><path class="cls-21" d="M30.6,44a13.28,13.28,0,0,0,6.93.19S33.78,45.76,30.6,44Z" transform="translate(0.18 0.04)"/><path class="cls-4" d="M25.55,14.46c-.63.16-1.21.31-1.71.46-4.94,1.43-16,5.23-8.93,11.85,2,1.9,3.5-.49,5.25-1.54a39.81,39.81,0,0,1,7.54-3.74,47.52,47.52,0,0,1,8.53-2,3.33,3.33,0,0,0,.79-.31c1.41,1.8,4.07,1.59,6,1.22,1.51-.29,1.26-.31,2.58.75.82.66,2.38,2.26,3.45,2.41,1.82.26,2.32-4.55,1.89-5.62C47.94,10.41,32.8,12.65,25.55,14.46Z" transform="translate(0.18 0.04)"/><path class="cls-22" d="M12.19,31.9c2.28-3.45,7-7.66,13.62-10.41C32.63,18.68,42.37,18.16,43,15.7s-8.23-2.09-13.27-2.58c-14-1.35-18.73,5.19-18.79,7-.06,1.66.21,5.28-.11,11.18C10.8,32.5,11.61,32.77,12.19,31.9Z" transform="translate(0.18 0.04)"/><path class="cls-23" d="M36.49,18.08c-3.35,1.14-7,1.07-10.23,2.28-2.65,1-9.14,6.09-10.35,1.69-.91-3.31,1.62-6.94,4.79-7.83a24.46,24.46,0,0,1,8.93-.78c1.36.11,10.15.47,8.67,3a2.82,2.82,0,0,1-.43.55Z" transform="translate(0.18 0.04)"/><path class="cls-24" d="M27.55,16.06s1.18-.24,1.65.56-.72,1.42-.89.6A1.76,1.76,0,0,0,27.55,16.06Z" transform="translate(0.18 0.04)"/><path class="cls-24" d="M21.4,15.45c1-.36,4.79-.13,5.22,2.67s7.44.84,3.92-2A7.94,7.94,0,0,0,21.4,15.45Zm6,1.94c-.18,0-1,.32-.67-.28.08-.19.87-.25.49-.6s-.73.29-1,0,.35-.29.17-.57-1.73.4-.83-.55c-.48-.33-1,.49-1.38,0,.07,0,.13-.15.18-.18-.14,0-.28-.12-.4-.16a.46.46,0,0,1,.53-.26c.19,0,.31.34.45.32s.05-.23.18-.3c.66-.36.2,0,.64.29.06-.31.21-.61.51-.4.1.07-.1.33.07.44s.23-.1.34-.15,0-.34.29-.31.11.17.18.27-.22.34.09.4.15-.18.26-.25c.27-.15.38-.48.63,0,.16.28-.26.69.35.48.21-.07.33-.7.6-.07.12.26-.39.6.26.62.2,0,.28-.35.52-.3.43.11.08.71,0,.93.17,0,.51-.25.68-.16,0,.11-.13.2-.15.31-.09.38-.43.23,0,.42.09,0,.9-.16.67.3s-1.19-.51-1.18.22c0,.17.6.52.33.75s-.39-.31-.52-.38c-.85-.49-.51.51-.65,1-.75,0-.2-.73-.63-1s-.58.57-1,.45c-.79-.22.51-.88.21-1.14A.48.48,0,0,0,27.36,17.39Z" transform="translate(0.18 0.04)"/><path class="cls-22" d="M51.22,25a21.59,21.59,0,0,0-12.65-7.13C32.29,17,36.38,14,40.69,14.24S51.41,16,52.1,17.33s.14,5.43.47,7.13C52.71,25.18,51.88,25.94,51.22,25Z" transform="translate(0.18 0.04)"/><path class="cls-25" d="M50.36,23.61a1.44,1.44,0,0,1-.23-.32c-.33-.58-.16-1.27-.59-1.87A13.4,13.4,0,0,1,48.48,19c.51-.43,2.73-2.9,3.48-1.73-.32,0-.81-.18-.78.27,0,.19.78.68.27.76-.29,0-.68-.79-.91-.35s.51.47.55.76c.09.64-.47.06-.63,0s-.89-.36-.57.25c.08.15,1.15.48.64.69-.35.15-.69-.55-1.06-.25s.25.77.6.82.88-.31.79.19-.67,0-.85.27c-.56.74,1.46.17,1.31.88-.11.52-.69,0-1,.13-.45.29.11.77.47.88s.94-.19.87.37-.74-.08-1,.14.66,1.21.9,1.38A8.05,8.05,0,0,1,50.36,23.61Z" transform="translate(0.18 0.04)"/><path class="cls-26" d="M43.91,18.74c1.38.59,3.44,2.84,4.89,2.85s-.74-1.2-.67-1.83c.11-1.22,3-.44,3.39-1.77.53-1.93-5.59-2.29-6.75-2.35-1.9-.09-3.34.82-2.1,2.62Z" transform="translate(0.18 0.04)"/><path class="cls-26" d="M36.84,18a14.19,14.19,0,0,1-1.72,0,33.17,33.17,0,0,0-4.34.39c-.87.12-2.56.55-3.39.06-1.15-.69.54-1.22,1-1.92.17-.25-2.74-.72-2.95-.74a6.66,6.66,0,0,1-2.34-.51c-1.35-1.08,2.31-1.19,2.87-1.25A32.7,32.7,0,0,1,31.41,14c1.2.07,8.8,1.22,6.3,3.66A1.49,1.49,0,0,1,36.84,18Z" transform="translate(0.18 0.04)"/><path class="cls-23" d="M39.66,12.87c-2.08-2.21-2-4.2-5.3-5.32-3.12-1.06-6.47.27-9.69,0C27.05,14.3,31,17.83,38.13,15.87c1-.28,2-.57,3.06-.76Z" transform="translate(0.18 0.04)"/><path class="cls-27" d="M37.66,13.77c-.27-1.92-2.63-3.63-4.61-3.86.64.88,2.07,1.95,2.19,3-.74.13-2.22-.9-3-1.17-1-.39-2-.81-3-1.28A8,8,0,0,0,37.47,16c.58-.06,1.44-.16,1.78-.64Z" transform="translate(0.18 0.04)"/><path class="cls-23" d="M47.48,10C49.29,9.44,53.35,11,55.17,11c-1.22,3.48-4.06,6.92-7.4,7.7C44.94,19.4,43,16.62,40.25,16A11.45,11.45,0,0,1,47.48,10Z" transform="translate(0.18 0.04)"/><path class="cls-27" d="M44.73,14.78c2.06-.34,3.66-1.87,5.76-2.18-.53,1.6-2.06,1.89-2.86,3.12a8.09,8.09,0,0,1,1.35.36c-1.52,1.18-7.16,2-5.85-1.21Z" transform="translate(0.18 0.04)"/><path class="cls-23" d="M46,15.39c-.43,2-1.58,4.69-4.1,4.49-2-.15-4.75-.84-4.85-3.08,0-1.06.37-4.3,1.12-5.14,1.06-1.19,4.09-.07,5.36.3C45.29,12.49,46.36,13.52,46,15.39Z" transform="translate(0.18 0.04)"/><path class="cls-28" d="M39.19,12c1.17-.56,2.43-.08,3.66,0l1.17.32c1.66.46,2.2,3,1.31,4.26,0,0-.09,0-.09,0,.07-.73.71-1.84-.06-2.34-.11.11-.46,1.82-.83,1.09s.68-1.35-.27-2c-.33.36,0,2.26-.93,1.88s.49-1.7-.44-2.22c-.16.37-.48,3.37-1.38,2.59-.33-.29.9-3.23-.17-2.73-.55.26-.7,3.17-1.24.81-.08-.35-.1-.72-.16-1.07a2.27,2.27,0,0,0-.3.06c.23,1-.48,1.75-.74.4-.28.36-.41.83-.68,1.16C38.53,13.26,38.07,12.51,39.19,12Z" transform="translate(0.18 0.04)"/><path class="cls-28" d="M37.39,10.84c-.9-1.69-1.47-2.67-3.45-3.15s-4,0-6,.1A8.17,8.17,0,0,0,25.33,8a7.6,7.6,0,0,0,1.42,2.64c.4-.72-.89-1.47-.84-1.61.27-.71.86-.07,1.36.13-.24-.29-.19-.54-.24-.86.49.19.77.53,1.28.55-.19-.46-.13-.71.34-.73s.54.67,1,.67c.16,0-.13-.68.39-.71s.2.79.84.62c.11,0,.24-.81.26-1,.7.32.09,1,1,1.17l0,0a1.09,1.09,0,0,1,.2-1c.49.28.21.87.39,1,.93.81.4-.21.7-.36s.21-.71.84,0c.27.3-.66.88.29,1,0-.29.26-.6.29-.85,1,.25.08.85.48,1.23s.57-.12.48-.51a17.86,17.86,0,0,1,1.82,2.25Z" transform="translate(0.18 0.04)"/><path class="cls-28" d="M44.46,12c1.21-.83,2-1.63,3.51-1.61a41.42,41.42,0,0,1,4.53.83,12.07,12.07,0,0,1,2,.26c-.11,1.25-1.22,2.29-2,3.26a3.82,3.82,0,0,1,.26-1.56s1.19-1,1-1a7.18,7.18,0,0,0-.89.56c-1-.26.26-.65-.07-.86-.64-.41-1.37.48-2.1.25.35-.49.25-.86-.35-.87-.44,0-.87.91-1.36.72-.8-.3.27-.86.07-1-.69-.7-1.08,1.17-2,.83.34-.26.35-.55.47-.86-.7,0-1.09.58-1.67.82C45.49,11.83,44.74,11.76,44.46,12Z" transform="translate(0.18 0.04)"/><path class="cls-27" d="M45,17.27c-.8,2.22-4.72.67-6.18-.15a3.23,3.23,0,0,1-1.4-1.26c-.86,3.25,4.94,4.83,7,2.62a3.65,3.65,0,0,0,.89-1.65Z" transform="translate(0.18 0.04)"/><path class="cls-24" d="M21.81,23c.13-.23.31-.76.57-.87s.57.14.78,0c1.09-.62-.28-.49-.43-.62-.71-.6.41-.63.79-.7.82-.15.89-.25.21-.69-.16-.1-.72.17-.62-.28s.64-.13.89-.19c.86-.23,1.22-1.46.17-1.15-.58.17-.55,1.29-1.08.13-.09-.21.32-.7-.3-.79s-.31.58-.69.67c-1.22.3.18-1.46-.71-1.43-.52,0-1.28,1.88-1.3.17,0-.18.22-.43.34-.54-.91-.81-.74.4-1.39.46s-.53-.68-.24-1C18.13,15.32,17,17.65,17,16c0,0,.45-.83,0-.75,1.34-.23,4,1.24,5.3,1.76l3.67,1.52L24.5,20.74A4,4,0,0,1,21.81,23Z" transform="translate(0.18 0.04)"/><path class="cls-24" d="M20.23,21.39a2.05,2.05,0,0,0-2-1c-1.21.26-.85,1.84.14,1.3A2.56,2.56,0,0,1,20.23,21.39Z" transform="translate(0.18 0.04)"/><path class="cls-24" d="M38.4,14.92s-.65,1.22.27,1.88,2-.47,1-.82A2,2,0,0,1,38.4,14.92Z" transform="translate(0.18 0.04)"/><path class="cls-24" d="M43,17.25s1.13.33,1.63-.42-.58-1.42-.81-.64A1.71,1.71,0,0,1,43,17.25Z" transform="translate(0.18 0.04)"/><path class="cls-24" d="M31.6,10.33a1.53,1.53,0,0,0-1.43-.88c-.94.14-.76,1.36,0,1A1.94,1.94,0,0,1,31.6,10.33Z" transform="translate(0.18 0.04)"/><path class="cls-24" d="M49.66,16s.94.15,1.27-.49-.62-1.09-.72-.44A1.37,1.37,0,0,1,49.66,16Z" transform="translate(0.18 0.04)"/><path class="cls-29" d="M12.19,21.22s1.64.5,2.4-.57-.81-2.1-1.16-1A2.54,2.54,0,0,1,12.19,21.22Z" transform="translate(0.18 0.04)"/><path class="cls-29" d="M13.82,24.32s-1.1.85-.64,1.83,1.93.41,1.23-.33A2,2,0,0,1,13.82,24.32Z" transform="translate(0.18 0.04)"/><path class="cls-24" d="M32.23,14.49l-1.74-1.65s-.78.92.07,1.42A2.18,2.18,0,0,0,32.23,14.49Z" transform="translate(0.18 0.04)"/><path class="cls-24" d="M46.68,13.94,48.77,13s-.64-.93-1.37-.37A1.75,1.75,0,0,0,46.68,13.94Z" transform="translate(0.18 0.04)"/><path class="cls-28" d="M24.76,13.45s-7.94,0-11.93,4.39c0,0,.18,1,2.1-.44A24.61,24.61,0,0,1,24.76,13.45Z" transform="translate(0.18 0.04)"/></g></svg>