<svg id="Layer_1" data-name="Layer 1" xmlns="http://www.w3.org/2000/svg" xmlns:xlink="http://www.w3.org/1999/xlink" viewBox="0 0 66 66"><defs><style>.cls-1{fill:none;}.cls-2{clip-path:url(#clip-path);}.cls-3{fill:#ef5649;}.cls-4{fill:#261b18;}.cls-5{fill:#6f6e82;}.cls-6{fill:#ff87b3;}.cls-7{fill:#754c24;}.cls-8{fill:#fffcfc;opacity:0.3;}.cls-9{fill:#7a4f2e;}.cls-10,.cls-13{fill:#b54319;}.cls-10{opacity:0.2;}.cls-11{fill:#57443a;}.cls-12{fill:#ff7752;opacity:0.4;}.cls-13{opacity:0.5;}.cls-14{fill:#8c6239;}.cls-15{fill:#425361;}.cls-16{fill:#c3d5e3;}.cls-17{fill:#121b21;}.cls-18{opacity:0.35;}.cls-19{fill:#c4170e;}.cls-20{fill:#8f2621;}.cls-21{fill:#fff9f0;}.cls-22{fill:#e8dac5;}</style><clipPath id="clip-path" transform="translate(-0.18 -0.28)"><circle class="cls-1" cx="33.19" cy="33.28" r="33"/></clipPath></defs><g class="cls-2"><rect class="cls-3" width="66" height="66"/><path class="cls-4" d="M48.58,53.65c1.16-3.39,3.85-16.48,3.34-28.94C51.21,7.08,28.59,3.25,20.23,13.48,10.32,25.6,15.54,34.17,15,37c-.76,4.34-3.2,7.73-2.56,11.27,1,5.44,6.14,6,2.39,13.28,2.19.68,5-1.25,6.31-3.13a13.49,13.49,0,0,0,8.7,7.82h6.72C41.47,65,46.13,60.86,48.58,53.65Z" transform="translate(-0.18 -0.28)"/><path class="cls-5" d="M40.85,57.26c-2.15-2.65-8.4-3.4-11.78-2-2.56,1-2.63,5.81-2,11H40.19C40.48,62.71,41.58,58.16,40.85,57.26Z" transform="translate(-0.18 -0.28)"/><path class="cls-6" d="M39.35,62.69c.61-2.28.16-6.54-1.35-7.11a14.12,14.12,0,0,0-9.45.06c-2.12.9-2.85,2.19-1.41,6.67a30.75,30.75,0,0,1,1.06,4H38.55A35.64,35.64,0,0,1,39.35,62.69Z" transform="translate(-0.18 -0.28)"/><path class="cls-7" d="M36.09,51.21c.21-3.57-6-3.7-6,.2a12.27,12.27,0,0,1-.22,3.6c-.73,1.59,7,1.88,6.14.18C35.6,54.23,36,52.79,36.09,51.21Z" transform="translate(-0.18 -0.28)"/><path class="cls-8" d="M35.86,59.16a10.41,10.41,0,0,1-5.67-.09c-1-.26-1.61.91-1.29,1.9.41,1.33,2.55,1.67,4.42,1.64,3.68,0,5-1.42,4.43-3C37.58,59.13,36.8,58.83,35.86,59.16Z" transform="translate(-0.18 -0.28)"/><path class="cls-9" d="M32.12,16.36C24.51,17.7,19,28.51,20.18,38.76c.9,7.61,7.37,15.81,15.2,15.32,9.4-.6,14.15-11.68,13.19-20.72C47.47,23.1,42.77,14.47,32.12,16.36Z" transform="translate(-0.18 -0.28)"/><path class="cls-10" d="M45.39,19.44a35.53,35.53,0,0,0-12.62-2.92c-2.76-.12-6.48-.36-9.09.71-3.91,1.6-5.62,4.13-6.23,8-.41,2.66,2.22,5.25,4.25,7,1.48-1.4.83-3.34.81-5,0,2.34,6.43,2.17,7.87,1.67a24.33,24.33,0,0,0,2.67-1.09c2.18-1.05,4.39-2.57,5.06-4.57,1.48,2.36,8.51,7.26,11.16,4.35C51.39,25.23,47.61,20.37,45.39,19.44Z" transform="translate(-0.18 -0.28)"/><path class="cls-4" d="M43.17,14.45c-4.13-3.63-9.59-3.7-14.76-2.9C25,12.08,22,14.49,20,17.18c-2.25,3-2.84,5.76-3.21,9.46a44.38,44.38,0,0,0,.31,7.88c.12,1.28.16,5.33,1.82,5.77,1.95.52,3.74-5.42,4.59-6.62a16.54,16.54,0,0,1,7.07-6.11c2.9-1.3,6.26-2.95,7.42-6.17,2.27,2.29,6.64,6,10.15,5.84,2.82-.15,1.44-3.55.76-5.28A21.06,21.06,0,0,0,43.17,14.45Z" transform="translate(-0.18 -0.28)"/><path class="cls-11" d="M31.83,9.42a16,16,0,0,0-12.89,8.72c-.84,1.73-2.38,5.31-2.09,7.28a2.46,2.46,0,0,0,2.08,2.17c.77.15,3.56-.46,3.74-1.44-.22,1.17-1.23,2.14-1.63,3.3a29.93,29.93,0,0,0,12.62-5.58c.58-.48,4.59-4.48,4-5.26,3.3,4.07,8.17,5.61,13,3.81C49.16,12.41,38.82,9.07,31.83,9.42Z" transform="translate(-0.18 -0.28)"/><path class="cls-12" d="M47.31,37.14a3.41,3.41,0,0,0-2.78-1c-1.19,0-2.77.41-1.71,2.11.56.91,5.3,1.59,4.75-.5A1.92,1.92,0,0,0,47.31,37.14Z" transform="translate(-0.18 -0.28)"/><path class="cls-12" d="M29.19,36.77a3.61,3.61,0,0,0-3.1-.34c-1.21.3-2.7,1.15-1.18,2.59.81.78,5.8.22,4.69-1.75A1.69,1.69,0,0,0,29.19,36.77Z" transform="translate(-0.18 -0.28)"/><path class="cls-13" d="M36.79,38.05c-1-.06-1-.59-1.66-.19s-.19,2,1.55,2,2.54-1.2,2.2-1.73S37.88,38.13,36.79,38.05Z" transform="translate(-0.18 -0.28)"/><path class="cls-14" d="M36.61,33.66c-.8,0-2,3.85-1.56,4.44,1,1.45,3.17.79,3.83-.18C39.14,37.53,37.52,33.64,36.61,33.66Z" transform="translate(-0.18 -0.28)"/><path class="cls-15" d="M45.79,31.87c-2.7-1.15-5.16,2.18-3.22,3.91a3.58,3.58,0,0,1,3.81-.12C47.49,34.87,47.24,32.49,45.79,31.87Z" transform="translate(-0.18 -0.28)"/><path class="cls-16" d="M46.09,33.74c-.74.24-.39,1.65.37,1.16C47,34.54,46.75,33.54,46.09,33.74Z" transform="translate(-0.18 -0.28)"/><path class="cls-16" d="M43.56,32.27c-1.25.39-.66,2.8.62,2C45.12,33.62,44.68,31.92,43.56,32.27Z" transform="translate(-0.18 -0.28)"/><path class="cls-15" d="M25.68,32.09c-1.42.66-1.61,3-.47,3.81a3.52,3.52,0,0,1,3.81,0C30.91,34.12,28.35,30.86,25.68,32.09Z" transform="translate(-0.18 -0.28)"/><path class="cls-16" d="M25.44,34c-.66-.19-.89.82-.33,1.16C25.88,35.61,26.18,34.18,25.44,34Z" transform="translate(-0.18 -0.28)"/><path class="cls-16" d="M27.92,32.42c-1.12-.31-1.51,1.4-.56,2C28.67,35.21,29.19,32.78,27.92,32.42Z" transform="translate(-0.18 -0.28)"/><path class="cls-4" d="M29.45,28.82a15.08,15.08,0,0,0-4,.23A6.68,6.68,0,0,0,23,30.12a1.1,1.1,0,0,0-.48.73c.22,0,.39-.1.59-.16a12.51,12.51,0,0,1,3.11-.33c.81,0,1.61,0,2.42,0,.54,0,1.28.09,1.58-.44S30.17,28.85,29.45,28.82Z" transform="translate(-0.18 -0.28)"/><path class="cls-4" d="M48,29.74a6.39,6.39,0,0,0-2.44-.93,15.12,15.12,0,0,0-3.86-.07c-.71.06-1.1.46-.73,1.09s1,.36,1.54.37c.79,0,1.57-.09,2.36-.1a11.91,11.91,0,0,1,3,.2c.2,0,.36.17.57.13C48.44,30.17,48.17,29.9,48,29.74Z" transform="translate(-0.18 -0.28)"/><path class="cls-17" d="M45.25,31.41a2.81,2.81,0,0,0-3.19,2,2.53,2.53,0,0,1,2.82-.86c3.67,1.56,5.61-1,5.61-1C47.87,32.73,46.53,31.64,45.25,31.41Z" transform="translate(-0.18 -0.28)"/><path class="cls-17" d="M26.31,31.68c-1.27.25-2.6,1.35-5.23.16,0,0,2,2.58,5.61,1a2.53,2.53,0,0,1,2.83.84A2.79,2.79,0,0,0,26.31,31.68Z" transform="translate(-0.18 -0.28)"/><g class="cls-18"><path class="cls-19" d="M25.61,41.68c4.25,6.24,6.83,7.37,10.08,7.51,4.08.18,5.43-2.43,6-4.37a11.53,11.53,0,0,1,3.07-3.45c-2.53.6-5,.34-8.86.5C32.76,42,28.13,43,25.61,41.68Z" transform="translate(-0.18 -0.28)"/></g><path class="cls-20" d="M27.55,42.75A9.48,9.48,0,0,0,35.17,47c3.25,0,5.37-1,5.95-2.45a4.15,4.15,0,0,1,2-2.16A34.78,34.78,0,0,1,27.55,42.75Z" transform="translate(-0.18 -0.28)"/><path class="cls-21" d="M29.43,43.11s.17,1.28,2,1.75a18,18,0,0,0,7.37.2,3.92,3.92,0,0,0,2.55-2.3A37.57,37.57,0,0,1,29.43,43.11Z" transform="translate(-0.18 -0.28)"/><path class="cls-21" d="M36.43,45.26c-2.31.11-4.24,0-5.4-.7-.84-.49-.91,0-.72.38,0,0,.77,1.75,4.62,2.1s5.58-1.78,5.15-2.14S38.58,45.15,36.43,45.26Z" transform="translate(-0.18 -0.28)"/><path class="cls-22" d="M29.43,43.11a2,2,0,0,0,.47.89s8.66-.8,10.74-.11a4.08,4.08,0,0,0,.69-1.13A43.16,43.16,0,0,1,29.43,43.11Z" transform="translate(-0.18 -0.28)"/><path class="cls-22" d="M31.72,44.81c3.13,1.71,6.83.19,6.83.19A13,13,0,0,1,31.72,44.81Z" transform="translate(-0.18 -0.28)"/><path class="cls-5" d="M29.07,55.24a13,13,0,0,0-2.53,1.32h0c-1.38.84-3.08,2.93-2.55,9.73H28.6C28.2,61.84,28,57.74,29.07,55.24Z" transform="translate(-0.18 -0.28)"/><path class="cls-5" d="M40.48,56.91a10.49,10.49,0,0,0-2.88-1.62c1.09,2.49.86,6.57.47,11h4.46C43,60.29,41.73,58,40.48,56.91Z" transform="translate(-0.18 -0.28)"/></g></svg>