<svg id="Layer_1" data-name="Layer 1" xmlns="http://www.w3.org/2000/svg" xmlns:xlink="http://www.w3.org/1999/xlink" viewBox="0 0 66 66.01"><defs><style>.cls-1{fill:none;}.cls-2{clip-path:url(#clip-path);}.cls-3{fill:#a77e64;}.cls-4{fill:#1e1e29;}.cls-5{fill:#f0f0f0;}.cls-6{fill:#535361;}.cls-7{opacity:0.1;}.cls-8{fill:#fbfbfb;}.cls-9{fill:#a57f63;}.cls-10{fill:#261b18;}.cls-11{fill:#573d2f;}.cls-12{fill:#a3673a;}.cls-13{fill:#bf3c1b;}.cls-13,.cls-14,.cls-24{opacity:0.3;}.cls-14{fill:#b54d26;}.cls-15{fill:#ff7752;}.cls-16{fill:#1c5c57;}.cls-17{fill:#6cd9d2;}.cls-17,.cls-26{opacity:0.7;}.cls-18{fill:#e64e4e;opacity:0.6;}.cls-19{fill:#8f3935;}.cls-20{fill:#fff7ea;}.cls-21{fill:#ecdcc4;}.cls-22{fill:#161110;}.cls-23{fill:#f06799;}.cls-24,.cls-25,.cls-26{fill:#fff;}.cls-27{fill:#ffd1e2;}.cls-28{fill:#f43408;stroke:#ef0a1b;stroke-miterlimit:10;}</style><clipPath id="clip-path" transform="translate(0.18 -0.27)"><circle class="cls-1" cx="32.83" cy="33.27" r="33"/></clipPath></defs><g class="cls-2"><rect class="cls-3" width="66" height="66"/><path class="cls-4" d="M22.63,66.27c-.44-4.57.65-8.58,2.71-9.88l-2.11-3.13C20.11,55,19,59.87,19,66.27Z" transform="translate(0.18 -0.27)"/><path class="cls-4" d="M42.29,66.27c.43-4.57-.65-8.58-2.72-9.88l2.11-3.13c3.12,1.72,4.24,6.61,4.25,13Z" transform="translate(0.18 -0.27)"/><path class="cls-5" d="M26.36,52c-3.93,2.65-2.73,7.14-1.68,14.3H40.3c1.15-6.6,2.49-12.48-1.39-14.64S29,50.16,26.36,52Z" transform="translate(0.18 -0.27)"/><path class="cls-4" d="M27,51.86S22.78,53,22.44,54s1.06,7.2,1.79,12.31l3.9,0C28.29,62.08,28.18,56.2,27,51.86Z" transform="translate(0.18 -0.27)"/><path class="cls-6" d="M27.79,54.1c-.23-.59-3.92.84-3.85,1.35s2.38,6.9,3.48,10.82l.72,0C28.38,60.81,28.16,55.09,27.79,54.1Z" transform="translate(0.18 -0.27)"/><path class="cls-6" d="M27.83,50.09c-1.86,1.11-3.92,2.48-4,2.91s4.1,2.59,4.09,2.15S27.83,50.09,27.83,50.09Z" transform="translate(0.18 -0.27)"/><path class="cls-4" d="M38.11,51.27s3.57,1.56,4.29,2.47c.44.57-1.22,5.63-1.43,12.53H36.8C36.67,61.81,36.84,55.73,38.11,51.27Z" transform="translate(0.18 -0.27)"/><path class="cls-6" d="M37.12,54.1c.23-.59,3.92.84,3.85,1.35s-2.39,6.9-3.5,10.82h-.71C36.52,60.8,36.75,55.09,37.12,54.1Z" transform="translate(0.18 -0.27)"/><path class="cls-6" d="M37.08,50.09c1.86,1.11,3.92,2.48,4,2.91S37,55.59,37,55.15,37.08,50.09,37.08,50.09Z" transform="translate(0.18 -0.27)"/><path class="cls-7" d="M38.33,53.38A7.3,7.3,0,0,1,35,58.76L32.44,56.4l-1.91,2.38a8.72,8.72,0,0,1-3.46-4.65C26.3,51.17,38.35,51.94,38.33,53.38Z" transform="translate(0.18 -0.27)"/><path class="cls-8" d="M32.46,56.12l2.37,2s4.88-3,3.15-7.14c-1.55-3.69-8.73-3.62-10.88-.33S30.36,58,30.36,58Z" transform="translate(0.18 -0.27)"/><path class="cls-9" d="M32.77,55.73c1.23,0,6.49-4.07,2.79-8.06a4.69,4.69,0,0,0-4.39-1c-1.32.39-2.2,2.08-2.29,3.82C28.76,52.73,31.13,55.67,32.77,55.73Z" transform="translate(0.18 -0.27)"/><path class="cls-8" d="M31.88,60.07a.55.55,0,0,0,.55.54.54.54,0,0,0,.54-.54.55.55,0,0,0-.54-.55A.55.55,0,0,0,31.88,60.07Z" transform="translate(0.18 -0.27)"/><path class="cls-8" d="M31.88,63.15a.55.55,0,0,0,.55.54.54.54,0,0,0,.54-.54.55.55,0,0,0-.54-.55A.55.55,0,0,0,31.88,63.15Z" transform="translate(0.18 -0.27)"/><path class="cls-10" d="M27.18,12.25c2.76,3.5,1.84,8.83-2.06,11.9s-9.3,2.72-12-.78a8.56,8.56,0,0,1,1.26-12C18.23,8.28,24.42,8.75,27.18,12.25Z" transform="translate(0.18 -0.27)"/><path class="cls-11" d="M23.36,11.49c-1.42.58-2.65,2.22-4.21,2.52-.13.75-1.41,2.25-2.17,1.45,0,1.1-.9,3.27-1.77,1.52-.3,1.17-1.07,3.07-2.07,1.33-1.2-2.07,0-4.83,1.92-6.31S21.83,9.14,23.36,11.49Z" transform="translate(0.18 -0.27)"/><path class="cls-10" d="M48.71,32.39c2.06-8.28.87-15.4-4.79-19.6-10.87-8.08-25.93-2-28.29,7.9A19.19,19.19,0,0,0,19.76,38c1.88,2.24,3.2,4.88,5,7.1s4-1.39,5.52-2.22a10.87,10.87,0,0,1,6.88-1.25c2.06.37,3.46,2.57,5.56,2.68,2.76.14,3.66-4.45,4.36-6.4C47.75,36.09,48.25,34.24,48.71,32.39Z" transform="translate(0.18 -0.27)"/><path class="cls-12" d="M19.5,37c.82,7.68,8.49,15.62,15.38,15.86,7.34.25,13.91-11.5,13-20.93C46.92,21.7,42.32,13,31.66,14.79,24.05,16.05,18.4,26.78,19.5,37Z" transform="translate(0.18 -0.27)"/><path class="cls-13" d="M30,21.39c-3.29.45-6.07,1.91-7.15,6.12a27.75,27.75,0,0,0-1.11,3.93,17.42,17.42,0,0,1-1.86-6.37c-.26-2-.51-4.46.21-6.39.57-1.55,2.34-2.38,3.77-3,2.61-1.09,5.61-.85,8.37-.72a33.92,33.92,0,0,1,9.14,1.7c1.51.5,4.83,1.27,5.62,2.85,1.76,3.53-6.86,1.82-8.35,1.81A65.5,65.5,0,0,0,30,21.39Z" transform="translate(0.18 -0.27)"/><path class="cls-12" d="M17.78,40.67a3.12,3.12,0,0,0,2.78,0l.07-.09c.46-.7-.05-4.67-.25-5.42-.52-1.89-1.6-2.91-3.4-2.47C13.23,33.62,14.77,39.49,17.78,40.67Z" transform="translate(0.18 -0.27)"/><path class="cls-14" d="M19.05,39c1.38-.81.18-3.73-.83-4.23-.82-.4-2.92.23-2,1.89.56-1.5,1.45-.48,1.28.59-.12.72-.89.71-.15,1.66A1.38,1.38,0,0,0,19.05,39Z" transform="translate(0.18 -0.27)"/><path class="cls-10" d="M45.61,22.49c.55,1.1,5.37-1.94,1.24-6.8-1.8-2.12-6.31-3.22-8.93-3.81a26.05,26.05,0,0,0-7.78-.46c-4.3.39-9.53,2.27-11,6.78-.91,2.76-.57,6-.44,8.87.08,1.73-.71,5,.73,6.39,1.67,1.56,2.42-.7,2.63-2.34.24-1.83.15-3.85.73-5.63,1.43-4.33,3.77-5.1,10.06-5.4C36.09,19.94,44.15,19.55,45.61,22.49Z" transform="translate(0.18 -0.27)"/><path class="cls-11" d="M21.38,13.84A13.33,13.33,0,0,1,26.9,11c5.75-1.38,12.92-1.1,17.19,3.37,1.25,1.31,3.51,4.59,1.4,5.18-1.37.38-5.31-.78-5.28-2.57a1.79,1.79,0,0,1-1,1.61,1.67,1.67,0,0,1-.65-1.25c-.73,1.57-1,1.35-2.8,1.38a39.19,39.19,0,0,0-5.07.49c-1.29.2-2.52.78-3.65.2-.78-.41-1.3-1.26-2.05-1.73.09,1.52-.91,4.4-2.67,2.42-.08.43.17,1.87-.3,2.12s-1.93-.79-2.26-1c.12,1,.25,2.09.28,3.1-1.61.55-2.43-1.68-2.49-2.72a7.64,7.64,0,0,1,1.07-4.41A12.7,12.7,0,0,1,21.38,13.84Z" transform="translate(0.18 -0.27)"/><path class="cls-15" d="M46.61,37.38a2,2,0,0,1,.28.54c.64,2-4,1.72-4.6.86-1.12-1.62.4-2.16,1.56-2.23A3.17,3.17,0,0,1,46.61,37.38Z" transform="translate(0.18 -0.27)"/><path class="cls-15" d="M28.59,37.18a1.85,1.85,0,0,1,.32.51c.79,1.94-3.54,2.08-4.7,1.2-1.62-1.22.4-2.24,1.55-2.37A3.35,3.35,0,0,1,28.59,37.18Z" transform="translate(0.18 -0.27)"/><path class="cls-16" d="M28.05,31.76c-2.69-.81-4.48,2.16-2.66,3.2a6,6,0,0,1,2.67.22A1.74,1.74,0,0,0,28.05,31.76Z" transform="translate(0.18 -0.27)"/><path class="cls-14" d="M37.81,36.79c-.41-.42-1.18.08-1.94.12S34.58,36.6,34,37s.17,1.41,2,1.29S38.16,37.14,37.81,36.79Z" transform="translate(0.18 -0.27)"/><path class="cls-17" d="M27.79,33.34c-.83.21-.24,1.57.58,1.11C29,34.11,28.53,33.16,27.79,33.34Z" transform="translate(0.18 -0.27)"/><path class="cls-16" d="M45.31,31.6c-2.77-.45-4.15,2.74-2.21,3.53A6,6,0,0,1,45.78,35,1.74,1.74,0,0,0,45.31,31.6Z" transform="translate(0.18 -0.27)"/><path class="cls-17" d="M45.18,33.26c-.78.31,0,1.59.7,1C46.41,33.87,45.87,33,45.18,33.26Z" transform="translate(0.18 -0.27)"/><path class="cls-18" d="M27.51,41.13c4.28,0,11.66-.82,16.32.12.43.08.68.17.34.37-1.06.62-2.43,1.65-2.58,2.54-.31,1.79-.88,5.2-5.78,5.08-5.86-.14-8.18-6-8.79-7.64C26.88,41.23,27.16,41.13,27.51,41.13Z" transform="translate(0.18 -0.27)"/><path class="cls-19" d="M27.68,41.72a37.69,37.69,0,0,0,15.54-.14,3.44,3.44,0,0,0-1.86,2.13c-.31,1.15-1,2.79-6.2,2.84A7.81,7.81,0,0,1,27.68,41.72Z" transform="translate(0.18 -0.27)"/><path class="cls-20" d="M29.52,42.26a2.39,2.39,0,0,0,1.68,2.19,13.63,13.63,0,0,0,7.38.39c1.77-.36,2.94-2.72,2.94-2.72A61.24,61.24,0,0,1,29.52,42.26Z" transform="translate(0.18 -0.27)"/><path class="cls-20" d="M30.06,44.6c-.15-.4-.11-.84.82-.51a19.14,19.14,0,0,0,5.67.73c2.45,0,3.08-.79,3.49-.36s-1.44,2.44-5.33,2.12C30.26,46.22,30.06,44.6,30.06,44.6Z" transform="translate(0.18 -0.27)"/><path class="cls-21" d="M29.66,42.92S39,42.33,41,43a4,4,0,0,0,.52-.87,71.16,71.16,0,0,1-12,.11A2.06,2.06,0,0,0,29.66,42.92Z" transform="translate(0.18 -0.27)"/><path class="cls-21" d="M31.39,44.11a20.1,20.1,0,0,0,8.11.25S35.14,45.73,31.39,44.11Z" transform="translate(0.18 -0.27)"/><path class="cls-22" d="M21,30.89s.73,2.83,5.52,1.25c1.94-.64,2.95,1.43,2.95,1.43s.1-3.25-2.77-2.68C25.23,31.18,23.33,32.66,21,30.89Z" transform="translate(0.18 -0.27)"/><path class="cls-22" d="M50.55,31.52s-1,2.61-5.25.89a2.48,2.48,0,0,0-3,1.06s.26-3.14,2.91-2.38C46.53,31.48,48.16,33.05,50.55,31.52Z" transform="translate(0.18 -0.27)"/><path class="cls-10" d="M48.09,28.22c-.18-.71-1.85-1.53-3.56-1.45-1.88.09-3.73,1.16-3.54,2.09s1.76-.1,3.6-.48C46.89,27.9,48.15,28.46,48.09,28.22Z" transform="translate(0.18 -0.27)"/><path class="cls-10" d="M22.88,27.66c.11-.68,2.39-1.26,4.48-1,2.28.28,4.47,1.5,4.17,2.36s-2-.21-4.19-.77C24.56,27.55,22.82,28.11,22.88,27.66Z" transform="translate(0.18 -0.27)"/><path class="cls-14" d="M40.23,37.91a4.2,4.2,0,0,1-1-1.22,3.74,3.74,0,0,1-.12-3.2c.58-1.42,2.16-1.48,3.47-1.55,1.59-.08,3.2,0,4.78-.08,1-.06,1.31-.28,1.54-1.29.34-1.44-1-1.49-2.07-1.47a22,22,0,0,0-4.5.53,19.64,19.64,0,0,0-3.9.94,4.51,4.51,0,0,1-2.81.76c-2.28-.18-4.16-1.67-6.44-2a26,26,0,0,0-5.36-.4c-1.05.07-3.13.57-1.58,1.88.79.67,1.9.43,2.87.51.61,0,1.23.08,1.84.16,2.17.27,5.52.09,5.25,2.8-.18,1.86-1.45,3.73-3,4a19.92,19.92,0,0,1-4.49.3,7.82,7.82,0,0,1-3.22-.81c-.28-.15-1.13-.74-1.43-.35-.51.65,1.22,1.82,1.68,2a10.71,10.71,0,0,0,3.31.86c2.82.4,5.75.36,7.44-2.19,1-1.48,1.51-3.24,2.43-4.76,1.5-2.49,2,1,2.43,2.5a7.72,7.72,0,0,0,1.05,2.43,5.74,5.74,0,0,0,4.15,2.16,6.28,6.28,0,0,0,2.76-.26c.54-.2.77-.8.15-1.06a5,5,0,0,0-1.39-.11,11.58,11.58,0,0,1-1.75-.2A5.18,5.18,0,0,1,40.23,37.91Z" transform="translate(0.18 -0.27)"/><path class="cls-23" d="M15.85,27.91c.46-.36,2,.21,3.91.22,2.64,0,16.09-.41,14.81,5.21a7.83,7.83,0,0,1-4.22,5.77c-2.06,1-8.55.22-10.48-1.62-2.32-2.2-2.13-5.56-2.21-6.86a3.29,3.29,0,0,1-1.45-.55S15.26,28.38,15.85,27.91Zm4.28,8.14c1.58,2.09,7.88,3.06,10.41,1.54,1.91-1.15,3.35-4.94,2.37-5.73-2-1.65-10.9-2.5-13.31-1.15C18.8,31.15,18.92,34.44,20.13,36.05Z" transform="translate(0.18 -0.27)"/><path class="cls-23" d="M53.62,30.73a2.75,2.75,0,0,1-1.33.49c-.12,1.3-.06,4.67-2.23,6.79-1.8,1.77-7.69,2.3-9.51,1.28-2.27-1.26-3.22-3.59-3.62-5.9-1-5.66,11.16-4.82,13.55-4.73,1.69.05,3.13-.47,3.53-.09S53.62,30.73,53.62,30.73Zm-3.08.52c-2.14-1.43-10.2-.87-12.06.71-.91.76.26,4.6,2,5.81,2.23,1.59,8,.83,9.45-1.21C51,35,51.24,31.71,50.54,31.25Z" transform="translate(0.18 -0.27)"/><path class="cls-24" d="M40.07,31.51c1.48-.59,9-1,9.86-.21.61.58-1.58,1.42-2.58,1.58a17.84,17.84,0,0,1-5.74,0C41.1,32.81,38.72,32,40.07,31.51Z" transform="translate(0.18 -0.27)"/><path class="cls-25" d="M46,31.37c1.53-.2,4.17.09,3.88.55s-4.53.71-4.89.06C44.78,31.65,45.25,31.46,46,31.37Z" transform="translate(0.18 -0.27)"/><path class="cls-26" d="M41.24,36.46c1,.08,2.54.69,2.29,1s-2.85-.12-3-.68C40.48,36.51,40.79,36.43,41.24,36.46Z" transform="translate(0.18 -0.27)"/><path class="cls-26" d="M21.6,35.63c1,.19,2.57,1,2.27,1.29s-3-.47-3-1C20.79,35.58,21.13,35.54,21.6,35.63Z" transform="translate(0.18 -0.27)"/><path class="cls-24" d="M21.13,30.65c.87-.71,9.16.19,10.81.84,1.49.6-1.07,1.18-1.63,1.23A22.52,22.52,0,0,1,24,32.31C22.93,32.1,20.5,31.15,21.13,30.65Z" transform="translate(0.18 -0.27)"/><path class="cls-25" d="M28.34,30.89c1.63,0,4.37.62,4,1s-4.82.13-5.12-.56C27.06,31,27.58,30.89,28.34,30.89Z" transform="translate(0.18 -0.27)"/><path class="cls-23" d="M32.78,29.92a7.1,7.1,0,0,0,5.84.13c1.76-.73,0,.64-.37,1s-.42,4.61-1.18,3-2-1.55-2.73.16-.28-1.18-.46-2.14S31,29.21,32.78,29.92Z" transform="translate(0.18 -0.27)"/><path class="cls-27" d="M32.71,30.7c-1.93-1.7-5.35-2.18-12.09-2C25.67,29.14,29.7,29.42,32.71,30.7Z" transform="translate(0.18 -0.27)"/><path class="cls-27" d="M39.27,30.56C41,29,43.86,29.1,50,29.08,45.43,29.58,42,29.38,39.27,30.56Z" transform="translate(0.18 -0.27)"/></g><circle class="cls-28" cx="35.43" cy="25.48" r="0.25"/></svg>