<svg id="Layer_1" data-name="Layer 1" xmlns="http://www.w3.org/2000/svg" xmlns:xlink="http://www.w3.org/1999/xlink" viewBox="0 0 66 66"><defs><style>.cls-1{fill:none;}.cls-2{clip-path:url(#clip-path);}.cls-3{fill:#fff;}.cls-4{fill:#e62628;}.cls-5{fill:url(#linear-gradient);}.cls-6{fill:#ff3b3b;}.cls-7{fill:#ffb06b;}.cls-8{fill:#fdd281;}.cls-9{fill:#ffa763;}.cls-10,.cls-19{fill:#c4170e;}.cls-10{opacity:0.2;}.cls-11{fill:#b54319;opacity:0.5;}.cls-12{fill:#ffebbd;}.cls-13{fill:#ffc48f;}.cls-14{fill:#305d80;}.cls-15{fill:#86bae3;}.cls-16{fill:#6e4c3c;}.cls-17{fill:#121b21;}.cls-18{opacity:0.35;}.cls-20{fill:#8f2621;}.cls-21{fill:#fff9f0;}.cls-22{fill:#e8dac5;}</style><clipPath id="clip-path" transform="translate(0.18 -0.07)"><circle class="cls-1" cx="32.82" cy="33.07" r="33"/></clipPath><linearGradient id="linear-gradient" x1="33.85" y1="52" x2="33.18" y2="55.79" gradientUnits="userSpaceOnUse"><stop offset="0" stop-color="#e88958"/><stop offset="0.34" stop-color="#f49d62"/><stop offset="0.69" stop-color="#fcab69"/><stop offset="1" stop-color="#ffb06b"/></linearGradient></defs><g class="cls-2"><rect class="cls-3" width="66" height="66"/><path class="cls-4" d="M39.93,61.9c1.08-4,1.2-6.48-1.3-7.3s-6.9-1.07-9.56.07c-2.12.91-2.8,2.38-1.35,6.85a27.58,27.58,0,0,1,1.15,4.55H39.05A30.65,30.65,0,0,1,39.93,61.9Z" transform="translate(0.18 -0.07)"/><path class="cls-5" d="M36.67,50.42c.21-3.57-6-3.7-6,.2a11.79,11.79,0,0,1-.23,3.6c-.33.72.16,3.16,3.39,3.16,2.93,0,3-2.49,2.76-3C36.17,53.45,36.58,52,36.67,50.42Z" transform="translate(0.18 -0.07)"/><path class="cls-6" d="M36.43,59.27a10.23,10.23,0,0,1-5.67-.09c-1-.26-1.61.91-1.29,1.91.42,1.32,2.56,1.67,4.43,1.64,3.67-.06,5.05-1.42,4.43-3C38.16,59.24,37.37,58.94,36.43,59.27Z" transform="translate(0.18 -0.07)"/><path class="cls-4" d="M29.38,58.1l-1.56-2.67c-2.6,1.51-3.52,6.16-3.66,10.64h3.11C27.54,63.24,27.56,59.16,29.38,58.1Z" transform="translate(0.18 -0.07)"/><path class="cls-7" d="M25.53,58.33c2.78.66,3.89-.69,3.39-3.59A5.64,5.64,0,0,0,25.53,58.33Z" transform="translate(0.18 -0.07)"/><path class="cls-4" d="M40.1,55.43,38.55,58.1c1.81,1.06,1.83,5.14,2.1,8h3.12C43.63,61.59,42.71,56.94,40.1,55.43Z" transform="translate(0.18 -0.07)"/><path class="cls-7" d="M39,54.74c-.51,2.9.61,4.25,3.38,3.59A5.65,5.65,0,0,0,39,54.74Z" transform="translate(0.18 -0.07)"/><path class="cls-8" d="M17.24,18.13c-2.71,7.08-3,12.57-4.81,23.77-.47,2.84-2.26,7.21-1.49,8.93,1.08,2.42,3.83,1,6.1,1.77,2.45.8,5.16,1.95,5.75-1.5a5.49,5.49,0,0,1,.26,2.09c1.9.05,8.42-2,12.82-1.83,3.91.16,12,3.71,13.68-.79,1.23-3.36,2.45-18.21,1.92-23.06,0-.3,1.17-.71,1.2-1,.12-.86.2-1.47.21-1.72C54,5.5,24,.47,17.24,18.13Z" transform="translate(0.18 -0.07)"/><path class="cls-9" d="M32.69,15.57C25.08,16.91,19.55,27.72,20.76,38c.9,7.61,7.81,15.2,15.19,15.32,7.82.12,14.16-11.68,13.19-20.72C48.05,22.31,43.35,13.68,32.69,15.57Z" transform="translate(0.18 -0.07)"/><path class="cls-10" d="M46,18.65a35.74,35.74,0,0,0-12.62-2.92c-2.77-.12-6.48-.36-9.09.71-3.91,1.61-5.62,4.13-6.23,8-.41,2.66,2.22,5.25,4.25,7,1.48-1.4.82-3.34.81-5,.32,1.92,1.89,1.39,3.55,1.5,1.47.09,4,.77,5.34.07.61-.32.73-.75,1-1.39a2.21,2.21,0,0,0,.81.66,8.84,8.84,0,0,0,3.38.43A13.33,13.33,0,0,0,42,27.46c.69-.22,1.1-.41,1.31-1.18.24,1.63,2.7,1.39,4,1.37C53.2,27.55,49.16,20,46,18.65Z" transform="translate(0.18 -0.07)"/><path class="cls-9" d="M18.19,33.67c-3.74,1-2.34,6.42.68,7.56a7.16,7.16,0,0,0,3,.38l.06-.09c.46-.7-.09-4.67-.31-5.42C21.08,34.21,20,33.2,18.19,33.67Z" transform="translate(0.18 -0.07)"/><path class="cls-11" d="M19.46,35.69c-.83-.4-2.93.26-2,1.91.55-1.51,1.45-.5,1.29.58-.1.72-.88.72-.12,1.66.4.51,1.25.34,1.68.08C21.7,39.09,20.47,36.18,19.46,35.69Z" transform="translate(0.18 -0.07)"/><path class="cls-8" d="M43.75,13.66C39.62,10,34.16,10,29,10.76a23,23,0,0,0-6.59,1.72c-1.55.83-2.2,2.84-2.94,4.37a27.46,27.46,0,0,0-2.07,9c-.16,1.6.44,3.25.58,4.86s.8,2.92,1.07,4.46a13.87,13.87,0,0,1-.57,7c-.33.95-1.1,1.73-.41,2.59a1.85,1.85,0,0,0,2.45.41c.5-.51,1.51-4.69,1.74-5.76A38.53,38.53,0,0,0,22.71,31a20.54,20.54,0,0,1,.95-7.48A27.59,27.59,0,0,0,24,27c2.57-.26,5.3,0,7.88-.06a10,10,0,0,0,.89-2.6.11.11,0,0,1,0-.06s0,0,0,0a0,0,0,0,0,0,0c.16.47.32,1.49.65,1.76.61.51,2.41.23,3.16.3,1.4.11,3.78.65,5.14.09.88-.36,1-1.18,1.25-2.07h0c0-.05,0-.05,0,0h0c.27.46.38,1.28.81,1.5a9.23,9.23,0,0,0,2.55.5,19.41,19.41,0,0,0,3,0c2-.34.64-3.94.13-5.24A21.23,21.23,0,0,0,43.75,13.66Z" transform="translate(0.18 -0.07)"/><path class="cls-8" d="M32.74,24.26a.11.11,0,0,0,0,.06,0,0,0,0,1,0,0Q32.74,24.21,32.74,24.26Z" transform="translate(0.18 -0.07)"/><path class="cls-8" d="M43,24.39h0C43,24.34,43,24.34,43,24.39Z" transform="translate(0.18 -0.07)"/><path class="cls-12" d="M31.54,8.92c-3.91.34-9.51,3.38-11.3,6.87-4,7.87-5.7,16.66-6.18,25.42-.12,2.21-1.45,5.58-1.36,7.61s1,1.93,2.51.89c2-1.35-.07-8.63.37-13.13.34-3.54,3.27-3.66,4.31-8.33,1,6.31-.12,14.53-2.62,21.38,8.49-13.79,2.12-21.12,6.6-30.37a7.2,7.2,0,0,0,8,1.7,12.44,12.44,0,0,1,8.55-.1c3.37,1.35,6.53,2,10.8.29C49.29,11.21,38.64,8.29,31.54,8.92Z" transform="translate(0.18 -0.07)"/><path class="cls-13" d="M45.34,35.56c-1.17-.19-2.8,0-2,1.83.42,1,5,2.37,4.77.22a1.62,1.62,0,0,0-.17-.59A3.43,3.43,0,0,0,45.34,35.56Z" transform="translate(0.18 -0.07)"/><path class="cls-13" d="M29.7,36.16A3.61,3.61,0,0,0,26.59,36c-1.19.37-2.63,1.31-1,2.66.86.72,5.81-.14,4.58-2A1.84,1.84,0,0,0,29.7,36.16Z" transform="translate(0.18 -0.07)"/><path class="cls-11" d="M37.46,37.3c-1-.07-1-.6-1.66-.19s-.18,1.94,1.55,2,2.54-1.2,2.21-1.73S38.55,37.37,37.46,37.3Z" transform="translate(0.18 -0.07)"/><path class="cls-13" d="M37.22,34.45c-.8,0-2,2.72-1.59,3.13,1,1,3.17.53,3.83-.16C39.72,37.15,38.13,34.44,37.22,34.45Z" transform="translate(0.18 -0.07)"/><path class="cls-14" d="M46.37,31.4c-2.7-1.15-5.16,2.18-3.22,3.91A3.55,3.55,0,0,1,47,35.19C48.07,34.4,47.82,32,46.37,31.4Z" transform="translate(0.18 -0.07)"/><path class="cls-15" d="M46.67,33.27c-.74.23-.39,1.65.37,1.15C47.58,34.07,47.33,33.07,46.67,33.27Z" transform="translate(0.18 -0.07)"/><path class="cls-15" d="M44.14,31.8c-1.26.39-.66,2.8.62,2C45.69,33.15,45.26,31.45,44.14,31.8Z" transform="translate(0.18 -0.07)"/><path class="cls-14" d="M26.26,31.62c-1.43.66-1.61,3-.48,3.8a3.56,3.56,0,0,1,3.81,0C31.49,33.65,28.93,30.39,26.26,31.62Z" transform="translate(0.18 -0.07)"/><path class="cls-15" d="M26,33.5c-.67-.19-.9.82-.34,1.16C26.45,35.14,26.76,33.71,26,33.5Z" transform="translate(0.18 -0.07)"/><path class="cls-15" d="M28.5,32c-1.12-.31-1.51,1.39-.56,2C29.25,34.74,29.77,32.31,28.5,32Z" transform="translate(0.18 -0.07)"/><path class="cls-16" d="M29.92,27.76a15.37,15.37,0,0,0-3.92.59,7,7,0,0,0-2.38,1.3,1,1,0,0,0-.41.78c.22,0,.37-.14.56-.22a12.87,12.87,0,0,1,3.07-.62c.81-.09,1.61-.11,2.41-.22.54-.07,1.29,0,1.53-.59S30.64,27.72,29.92,27.76Z" transform="translate(0.18 -0.07)"/><path class="cls-16" d="M46.18,28.14a14.62,14.62,0,0,0-3.83-.53c-.7,0-1.14.33-.85,1s1,.48,1.49.54c.78.1,1.57.11,2.35.19a11.76,11.76,0,0,1,3,.55c.19.07.33.21.55.2,0-.25-.2-.56-.4-.74A6.46,6.46,0,0,0,46.18,28.14Z" transform="translate(0.18 -0.07)"/><path class="cls-17" d="M45.83,30.94a2.8,2.8,0,0,0-3.19,2,2.52,2.52,0,0,1,2.82-.87c3.67,1.57,5.61-1,5.61-1C48.45,32.26,47.11,31.17,45.83,30.94Z" transform="translate(0.18 -0.07)"/><path class="cls-17" d="M26.89,31.21c-1.27.24-2.61,1.35-5.24.16,0,0,2,2.58,5.62,1a2.52,2.52,0,0,1,2.83.83A2.79,2.79,0,0,0,26.89,31.21Z" transform="translate(0.18 -0.07)"/><g class="cls-18"><path class="cls-19" d="M26.19,40.89c4.25,6.25,6.83,7.37,10.08,7.51,4.07.18,5.43-2.42,6-4.37a11.39,11.39,0,0,1,3.07-3.45c-2.53.6-5,.34-8.86.5C33.34,41.22,28.71,42.16,26.19,40.89Z" transform="translate(0.18 -0.07)"/></g><path class="cls-20" d="M28.12,42a9.51,9.51,0,0,0,7.63,4.23c3.24,0,5.36-1,6-2.46a4.16,4.16,0,0,1,2-2.16A34.91,34.91,0,0,1,28.12,42Z" transform="translate(0.18 -0.07)"/><path class="cls-21" d="M30,42.32s.17,1.28,2,1.75a18,18,0,0,0,7.37.2C41.09,44,41.91,42,41.91,42A37.57,37.57,0,0,1,30,42.32Z" transform="translate(0.18 -0.07)"/><path class="cls-21" d="M37,44.47c-2.31.11-4.24,0-5.41-.7-.83-.48-.9,0-.72.38,0,0,.78,1.75,4.62,2.1s5.59-1.78,5.16-2.14S39.16,44.36,37,44.47Z" transform="translate(0.18 -0.07)"/><path class="cls-22" d="M30,42.32a2,2,0,0,0,.47.89s8.65-.8,10.74-.11A4.08,4.08,0,0,0,41.91,42,43.16,43.16,0,0,1,30,42.32Z" transform="translate(0.18 -0.07)"/><path class="cls-22" d="M32.3,44c3.12,1.71,6.82.19,6.82.19A13,13,0,0,1,32.3,44Z" transform="translate(0.18 -0.07)"/></g></svg>