<svg id="Layer_1" data-name="Layer 1" xmlns="http://www.w3.org/2000/svg" xmlns:xlink="http://www.w3.org/1999/xlink" viewBox="0 0 66 66"><defs><style>.cls-1{fill:none;}.cls-2{clip-path:url(#clip-path);}.cls-21,.cls-22,.cls-3{fill:#fff;}.cls-4{fill:#e62628;}.cls-5{fill:url(#linear-gradient);}.cls-6{fill:#ff3b3b;}.cls-7{fill:#261b18;}.cls-8{fill:#ffbc82;}.cls-9{fill:#bf3c1b;}.cls-19,.cls-21,.cls-9{opacity:0.3;}.cls-10{fill:#57443a;}.cls-11{fill:#ffc48f;}.cls-12{fill:#b54319;opacity:0.5;}.cls-13{fill:#425361;}.cls-14{fill:#c3d5e3;}.cls-15{fill:#121b21;}.cls-16{fill:#a80a0a;}.cls-17{fill:#fff9f0;}.cls-18{fill:#e8dac5;}.cls-19{fill:#b54d26;}.cls-20{fill:#3a3a4a;}.cls-22{opacity:0.7;}.cls-23{fill:#c1c5c9;}</style><clipPath id="clip-path" transform="translate(0.18 -0.07)"><circle class="cls-1" cx="32.82" cy="33.07" r="33"/></clipPath><linearGradient id="linear-gradient" x1="33.01" y1="52.55" x2="33.01" y2="55.88" gradientUnits="userSpaceOnUse"><stop offset="0" stop-color="#e88958"/><stop offset="0.34" stop-color="#f49d62"/><stop offset="0.69" stop-color="#fcab69"/><stop offset="1" stop-color="#ffb06b"/></linearGradient></defs><g class="cls-2"><rect class="cls-3" width="66" height="66"/><path class="cls-4" d="M39,55l-1.64,3.21c.52.26,1,2.59,1.25,3.85a27.89,27.89,0,0,0,1,4h3.92a16.94,16.94,0,0,1-1.43-4.72C41.6,58.62,41.08,56,39,55Z" transform="translate(0.18 -0.07)"/><path class="cls-4" d="M29.54,58.21,27.91,55c-2.22,1.12-2.79,3.68-3.39,6.39a23,23,0,0,1-1.41,4.68H27a35.43,35.43,0,0,0,1-3.9C28.43,60.4,28.84,58.56,29.54,58.21Z" transform="translate(0.18 -0.07)"/><path class="cls-4" d="M39.4,61.84c1.08-4,1.2-6.49-1.3-7.31s-6.89-1.06-9.55.08c-2.12.9-2.8,2.37-1.36,6.85a27.51,27.51,0,0,1,1.16,4.61H38.51A32.13,32.13,0,0,1,39.4,61.84Z" transform="translate(0.18 -0.07)"/><path class="cls-5" d="M36.14,50.36c.21-3.57-6-3.7-5.95.19,0,1.73.13,3.05-.22,3.61-1.24,1.93,3.41,4.69,3.41,4.69s3.62-2.91,2.73-4.51C35.59,53.41,36.05,51.94,36.14,50.36Z" transform="translate(0.18 -0.07)"/><path class="cls-6" d="M35.91,59.21a10.22,10.22,0,0,1-5.67-.09c-1-.26-1.61.91-1.3,1.91.42,1.32,2.56,1.67,4.43,1.64,3.68-.06,5.05-1.43,4.43-3.05C37.63,59.18,36.85,58.88,35.91,59.21Z" transform="translate(0.18 -0.07)"/><path class="cls-7" d="M54,26.48c-1.3-1.13-2.12-1.82-2.24-3.55s.22-3.83-.61-5.51c-.75-1.52-2.49-1.85-3.9-2.52-1.6-.76-2.29-1.93-3.22-3.37a6.61,6.61,0,0,0-8.38-2C35.4,8,33.45,7.36,31.39,7.3a10.93,10.93,0,0,0-6.31,2.26c-2,1.49-3.49,3.55-5.35,5.23-3.61,3.26-11.26,6.92-9.08,13.11.8,2.26,2.22,2.89.92,5.35-1.21,2.28-1.84,3.55,0,5.63.74.81,1.54,1.2,1.57,2.39s-1,2-.9,3.17c.14,2.42,2,4.15,4.31,5.58,2.93,1.79,6.6,3.09,8.56,4.64,3.46,2.74,5.29-2.11,8.08-2.21,1.45-.06,2.15,1.34,4,2.85,3,2.37,7.25,4.86,9.62,1.15a4.1,4.1,0,0,1-2.62-1.12c3.88.06,7.41-1.21,7.12-5.69-.11-1.7-.77-2.35.48-3.71s3.73-1.35,3.85-3.58c.11-2-2.35-2.46-2.8-4.11s1-2.45,2-3.69C57.24,31.39,56.84,28.92,54,26.48Z" transform="translate(0.18 -0.07)"/><path class="cls-8" d="M31.35,16c-8,1.35-13.89,12.15-12.6,22.41.95,7.6,7.79,15.81,16.06,15.32,9.94-.6,15-11.68,13.93-20.71C47.58,22.77,42.61,14.15,31.35,16Z" transform="translate(0.18 -0.07)"/><path class="cls-9" d="M48.18,24.69a7.94,7.94,0,0,0-4.24-5.59C41,17.88,36.13,15.41,33,16.43A25.21,25.21,0,0,0,23.11,23c-3.42,3.57-5.92,11.87-3.28,16.35a12.07,12.07,0,0,0,1-2.9c1.28-3.39,5-5.38,7.65-7.69.78,1.85,2.39,2.17,4.13,2.55A4.66,4.66,0,0,1,32.88,28a7.73,7.73,0,0,1,1-1.59c.43-.53,3.23-2.82,2.78-3.54,1.4,2.23,4.05,3.63,6.34,4.7,3,1.38,3.63,3.49,5,6.31-.31-.63.54-3.47.54-4.35A24.51,24.51,0,0,0,48.18,24.69Z" transform="translate(0.18 -0.07)"/><path class="cls-7" d="M49.8,23.56c-.4-1.93-3.21-3.93-4.32-5.64a15.09,15.09,0,0,0-5.32-5.36c-3.94-2.16-8.85-2-13.2-1.34-5.14.79-9.19,5.21-11.14,9.65-2.22,5-2.55,9.91-1.76,17,.41,3.68.89,8.44,3,11.61.64,1,2.33,2,1.67,3.36-.88,1.83-2.59-.41-2.29-.76a5.71,5.71,0,0,0-.38.54,4,4,0,0,0,1.06,2.78c2.51,2.56,5.69.92,6.88-2,1.58-3.9-1.95-5.91-3-9.41-1.1-3.82-1.32-7.28,1.06-10.65,2.23-3.15,3.91-5.7,7.56-7.43-1.06,2.27,1,6,3.8,4.89-2.34-.85-1.64-2.93-.51-4.53.4-.57,4.26-4.58,3.64-5.21a27.23,27.23,0,0,0,5,4.11c1.78,1.08,3.46,1.48,4.71,3.25a10.6,10.6,0,0,1,1.42,3c.23.78.06,2.16.49,2.82,1.16,1.82,3.61.11,3.88-1.48.38-2.14-1-3.24-1.94-5C49.28,26.13,50.12,25.13,49.8,23.56Z" transform="translate(0.18 -0.07)"/><path class="cls-10" d="M31.64,26.2h0Z" transform="translate(0.18 -0.07)"/><path class="cls-10" d="M46,16.32C43.44,15.27,42.92,12.56,41,11a4.49,4.49,0,0,0-5.92.75c-.75-2.3-3.19-2.75-4.65-2.6s-2.83,1.39-3.82,2.55a23.5,23.5,0,0,1-6.65,5.45c-2.34,1.37-5.5,3.75-5.63,6.71C14.24,25,15,28,16,28.61c1.23.73,2.85.3,4.13,0a24.91,24.91,0,0,0,12.07-8.33,34.09,34.09,0,0,0-.57,6c.7-1.31,1.82-2.37,2.51-3.7A12.29,12.29,0,0,0,35,19.64,9.91,9.91,0,0,1,36.28,17c1.39,2.48,3.1,5.16,6.11,5.72,1,.18,2.08,0,3.1.19a7.25,7.25,0,0,1,2.32,1.17c2,1.12,2.3-1.92,2.42-3.49C50.47,17.39,48.42,17.31,46,16.32Z" transform="translate(0.18 -0.07)"/><path class="cls-10" d="M16.57,41.79a1.81,1.81,0,0,0-1.11.33c-1.12.87-1.87,5.92,4,5.61a4.35,4.35,0,0,1-.86-2.12C18.5,44.47,18.42,41.76,16.57,41.79Z" transform="translate(0.18 -0.07)"/><path class="cls-10" d="M50.76,27.17a1.84,1.84,0,0,0-1,.64c-1.19,1.42.85,3.2,1.67,4a4.42,4.42,0,0,1,1.09,2C56.52,29.49,52.14,26.85,50.76,27.17Z" transform="translate(0.18 -0.07)"/><path class="cls-10" d="M47,49.54c-.15,1.29.75,2.33-.1,3.7,1.55-.19,3.49-1.84,3-3.76C49.39,47.21,47.12,48.26,47,49.54Z" transform="translate(0.18 -0.07)"/><path class="cls-10" d="M14.38,34.77c-1,1.68.32,3.85,1.73,4.52-.38-1.57.79-2.28,1.06-3.55S15.6,32.77,14.38,34.77Z" transform="translate(0.18 -0.07)"/><path class="cls-10" d="M50.93,40.72c-.66,1.12-.26,2.43-1.6,3.34,1.49.46,3.94-.26,4.31-2.19C54.09,39.58,51.58,39.62,50.93,40.72Z" transform="translate(0.18 -0.07)"/><path class="cls-11" d="M44.82,35.5c-1.18-.2-2.81,0-2,1.82.42,1,5,2.38,4.77.23A1.56,1.56,0,0,0,47.4,37,3.38,3.38,0,0,0,44.82,35.5Z" transform="translate(0.18 -0.07)"/><path class="cls-11" d="M29.17,36.1A3.61,3.61,0,0,0,26.06,36c-1.19.37-2.63,1.3-1,2.66.85.72,5.8-.14,4.58-2A2.07,2.07,0,0,0,29.17,36.1Z" transform="translate(0.18 -0.07)"/><path class="cls-12" d="M36.27,37.3c-1-.07-1-.6-1.67-.2s-.18,1.95,1.55,2,2.54-1.2,2.21-1.73S37.35,37.37,36.27,37.3Z" transform="translate(0.18 -0.07)"/><path class="cls-11" d="M36,34.45c-.8,0-2,2.72-1.59,3.13,1,1,3.17.53,3.83-.16C38.53,37.15,36.93,34.44,36,34.45Z" transform="translate(0.18 -0.07)"/><path class="cls-13" d="M45.84,31.34c-2.7-1.16-5.16,2.18-3.22,3.91a3.53,3.53,0,0,1,3.81-.12C47.54,34.33,47.29,32,45.84,31.34Z" transform="translate(0.18 -0.07)"/><path class="cls-14" d="M46.14,33.21c-.74.23-.39,1.65.37,1.15C47.06,34,46.8,33,46.14,33.21Z" transform="translate(0.18 -0.07)"/><path class="cls-14" d="M43.61,31.73c-1.25.4-.66,2.81.63,2C45.16,33.08,44.73,31.39,43.61,31.73Z" transform="translate(0.18 -0.07)"/><path class="cls-13" d="M25.73,31.56c-1.42.66-1.61,3-.48,3.8a3.58,3.58,0,0,1,3.82,0C31,33.58,28.4,30.33,25.73,31.56Z" transform="translate(0.18 -0.07)"/><path class="cls-14" d="M25.49,33.44c-.66-.19-.89.82-.33,1.16C25.93,35.07,26.23,33.65,25.49,33.44Z" transform="translate(0.18 -0.07)"/><path class="cls-14" d="M28,31.89c-1.13-.32-1.52,1.39-.57,2C28.72,34.67,29.24,32.24,28,31.89Z" transform="translate(0.18 -0.07)"/><path class="cls-7" d="M30,27.88a15,15,0,0,0-4-.08,7,7,0,0,0-2.57.88c-.23.16-.53.43-.53.7.21.05.39-.08.59-.12a12.62,12.62,0,0,1,3.13-.09c.81,0,1.61.16,2.42.19.54,0,1.27.18,1.6-.33S30.73,28,30,27.88Z" transform="translate(0.18 -0.07)"/><path class="cls-7" d="M47.61,28.41a6.41,6.41,0,0,0-2.49-.81,14.6,14.6,0,0,0-3.85.12c-.7.09-1.08.52-.68,1.12s1,.32,1.56.3c.79,0,1.56-.17,2.35-.22a11.89,11.89,0,0,1,3,0c.2,0,.37.15.58.1C48.12,28.82,47.83,28.55,47.61,28.41Z" transform="translate(0.18 -0.07)"/><path class="cls-15" d="M45.3,30.88a2.79,2.79,0,0,0-3.19,2A2.53,2.53,0,0,1,44.93,32c3.67,1.57,5.61-1,5.61-1C47.92,32.2,46.58,31.11,45.3,30.88Z" transform="translate(0.18 -0.07)"/><path class="cls-15" d="M26.36,31.15c-1.27.24-2.6,1.35-5.23.15,0,0,2,2.58,5.61,1a2.54,2.54,0,0,1,2.84.83A2.8,2.8,0,0,0,26.36,31.15Z" transform="translate(0.18 -0.07)"/><path class="cls-6" d="M25.66,40.83c4.25,6.24,6.83,7.37,10.08,7.51,4.08.17,5.43-2.43,6-4.37a11.53,11.53,0,0,1,3.07-3.45c-2.53.6-5,.34-8.86.5C32.81,41.16,28.18,42.1,25.66,40.83Z" transform="translate(0.18 -0.07)"/><path class="cls-16" d="M27.6,41.9a9.5,9.5,0,0,0,7.62,4.23c3.25,0,5.37-1,6-2.45a4.15,4.15,0,0,1,2-2.16A34.78,34.78,0,0,1,27.6,41.9Z" transform="translate(0.18 -0.07)"/><path class="cls-17" d="M29.48,42.25s.17,1.28,2,1.75a18,18,0,0,0,7.37.21,3.92,3.92,0,0,0,2.55-2.3A37.42,37.42,0,0,1,29.48,42.25Z" transform="translate(0.18 -0.07)"/><path class="cls-17" d="M36.48,44.41c-2.31.11-4.24,0-5.4-.7-.84-.49-.91,0-.72.38,0,0,.77,1.75,4.62,2.1s5.58-1.78,5.15-2.14S38.63,44.3,36.48,44.41Z" transform="translate(0.18 -0.07)"/><path class="cls-18" d="M29.48,42.25a2.06,2.06,0,0,0,.47.9s8.66-.8,10.74-.11a4.08,4.08,0,0,0,.69-1.13A42.93,42.93,0,0,1,29.48,42.25Z" transform="translate(0.18 -0.07)"/><path class="cls-18" d="M31.77,44c3.13,1.71,6.83.19,6.83.19A13.17,13.17,0,0,1,31.77,44Z" transform="translate(0.18 -0.07)"/><path class="cls-19" d="M46.72,29a21,21,0,0,0-4.31.68,18.25,18.25,0,0,0-3.73,1,4.37,4.37,0,0,1-2.68.83c-2.21-.09-4.07-1.46-6.28-1.69a18.46,18.46,0,0,0-6.91.12c-.58.17-2.36.84-1.16,1.47s2.93.42,4.21.47c.6,0,1.19,0,1.78.09,2.1.19,5.33-.11,5.17,2.51-.11,1.8-1.27,3.65-2.73,4a18.55,18.55,0,0,1-4.32.45,7.34,7.34,0,0,1-3.13-.67c-.28-.13-1.12-.66-1.4-.28-.46.64,1.25,1.71,1.7,1.91a10.39,10.39,0,0,0,3.21.72c2.74.28,5.56.14,7.1-2.38.9-1.46,1.34-3.18,2.17-4.67,1.36-2.46,2,.87,2.44,2.32a7.48,7.48,0,0,0,1.09,2.3A5.57,5.57,0,0,0,43,40.15a6.16,6.16,0,0,0,2.66-.36c.5-.21.71-.8.1-1a5,5,0,0,0-1.34,0,11.79,11.79,0,0,1-1.69-.13,5,5,0,0,1-2-.87,3.5,3.5,0,0,1-1.28-4.22c.5-1.39,2-1.5,3.29-1.61,1.53-.13,3.08-.11,4.61-.25a17.2,17.2,0,0,1,2,.05c.88,0,2.76-.26,1.72-1.52S48.14,28.91,46.72,29Z" transform="translate(0.18 -0.07)"/><path class="cls-20" d="M20.63,29c-1.8.06-3.34-.44-3.77-.07s.42,2.08.42,2.08a3.13,3.13,0,0,0,1.42.48c.12,1.25.06,4.49,2.37,6.53,1.93,1.71,8.21,2.18,10.16,1.2a7.61,7.61,0,0,0,3.87-5.72C36.13,28.05,23.18,28.92,20.63,29Zm10.73,8.74c-2.39,1.55-8.49.84-10.09-1.12-1.23-1.51-1.45-4.67-.7-5.12,2.28-1.39,10.88-.88,12.88.63C34.41,32.88,33.16,36.58,31.36,37.75Z" transform="translate(0.18 -0.07)"/><path class="cls-20" d="M50.26,28.43c-2.3,0-14-.37-12.89,5,.46,2.22,1.47,4.44,3.7,5.57,1.79.91,7.45.2,9.13-1.57,2-2.13,1.83-5.37,1.9-6.62a2.74,2.74,0,0,0,1.26-.53s.82-1.65.31-2.1S51.9,28.43,50.26,28.43ZM50,36.07c-1.36,2-6.85,3-9.06,1.5C39.23,36.47,38,32.81,38.81,32c1.75-1.58,9.49-2.41,11.6-1.11C51.1,31.35,51,34.52,50,36.07Z" transform="translate(0.18 -0.07)"/><path class="cls-21" d="M40.33,31.55c-1.28.55,1,1.22,1.54,1.29a17.2,17.2,0,0,0,5.52-.23c1-.18,3-1.07,2.44-1.6C49,30.26,41.73,30.94,40.33,31.55Z" transform="translate(0.18 -0.07)"/><path class="cls-3" d="M46,31.21c-.69.11-1.14.31-1,.62.38.61,4.44.25,4.71-.22S47.49,31,46,31.21Z" transform="translate(0.18 -0.07)"/><path class="cls-22" d="M41.64,36.29c-.44,0-.74.07-.66.34.15.55,2.67.88,2.9.55S42.57,36.32,41.64,36.29Z" transform="translate(0.18 -0.07)"/><path class="cls-22" d="M22.68,36.18c-.46-.07-.79,0-.74.26.09.56,2.68,1.2,3,.9S23.64,36.33,22.68,36.18Z" transform="translate(0.18 -0.07)"/><path class="cls-21" d="M32.49,31.82c-1.61-.56-9.63-1.14-10.45-.43-.59.51,1.79,1.34,2.87,1.5a21.81,21.81,0,0,0,6.06.18C31.5,33,34,32.34,32.49,31.82Z" transform="translate(0.18 -0.07)"/><path class="cls-3" d="M29,31.37c-.73,0-1.23.17-1.07.51.32.65,4.61.79,5,.35S30.58,31.31,29,31.37Z" transform="translate(0.18 -0.07)"/><path class="cls-20" d="M38.88,30.2a6.86,6.86,0,0,1-5.63.08c-1.77-.62.92,1.14,1.13,2s-.09,3.71.52,2,1.84-1.77,2.63-.24.72-2.56,1-2.94S40.55,29.43,38.88,30.2Z" transform="translate(0.18 -0.07)"/><path class="cls-23" d="M21.48,29.54c4.88.24,8.78.37,11.73,1.49C31.28,29.46,28,29.12,21.48,29.54Z" transform="translate(0.18 -0.07)"/><path class="cls-23" d="M49.85,28.86c-6,.23-8.73.28-10.32,1.8C42.1,29.43,45.43,29.51,49.85,28.86Z" transform="translate(0.18 -0.07)"/></g></svg>