<svg id="Layer_1" data-name="Layer 1" xmlns="http://www.w3.org/2000/svg" xmlns:xlink="http://www.w3.org/1999/xlink" viewBox="0 0 66 66"><defs><style>.cls-1{fill:none;}.cls-2{clip-path:url(#clip-path);}.cls-26,.cls-27,.cls-3{fill:#fff;}.cls-4{fill:#93aebf;}.cls-5{fill:#ff697c;}.cls-13,.cls-6{fill:#5b6172;}.cls-14,.cls-6{opacity:0.4;}.cls-7{fill:#ffbc82;}.cls-8{fill:#313142;}.cls-9{fill:url(#linear-gradient);}.cls-10{fill:#535361;opacity:0.5;}.cls-11,.cls-15,.cls-26{opacity:0.3;}.cls-12{fill:#fff9f0;}.cls-13{opacity:0.2;}.cls-14{fill:#d14f2e;}.cls-15{fill:#b54d26;}.cls-16{fill:#4cb5cf;}.cls-17{fill:#9ddded;}.cls-18{fill:#fa9769;}.cls-19{fill:#121b21;}.cls-20{fill:#4a271b;}.cls-21{fill:#c7a295;}.cls-22{fill:#f73434;}.cls-22,.cls-27{opacity:0.7;}.cls-23{fill:#c22c25;}.cls-24{fill:#e8dac5;}.cls-25{fill:#e62628;}.cls-28{fill:#ff7373;}</style><clipPath id="clip-path" transform="translate(0.18 -0.07)"><circle class="cls-1" cx="32.82" cy="33.07" r="33"/></clipPath><linearGradient id="linear-gradient" x1="2800.34" y1="51.89" x2="2800.34" y2="55.43" gradientTransform="translate(-2767.63)" gradientUnits="userSpaceOnUse"><stop offset="0" stop-color="#ee996d"/><stop offset="0.3" stop-color="#f6a977"/><stop offset="0.67" stop-color="#fdb77f"/><stop offset="1" stop-color="#ffbc82"/></linearGradient></defs><g class="cls-2"><rect class="cls-3" width="66" height="66"/><path class="cls-4" d="M52,24c-.27-.34-1.29-.9-1.54-1.26-5.08-7.41-16.08-11.13-24.68-11.13a16.48,16.48,0,0,0-11.76,5.38c-2.9,3.25-3.89,7.61-4.12,12.78-.1,2.25-.36,8.58-3.68,8.49,1.62,1.24,3.74,1.65,4.36,0,0,8.41,10.09,22.06,13.82,24.29a13.73,13.73,0,0,0,8.41,1.82,16.36,16.36,0,0,0,13.27-9.54c1.08-2.38,2.1-4.78,3-7.23.8-2.19.95-4.89,2.24-6.83,1.28,1.38,4.19,1.36,5.11.43a3.93,3.93,0,0,1-2.66-3.82C54.73,32.08,55.15,27.73,52,24Z" transform="translate(0.18 -0.07)"/><path class="cls-5" d="M11.32,35.3c-1.91,3.31-1.53,7.83-.53,9.54a21.52,21.52,0,0,1,2.44,5.68C14.06,54.08,10.74,60,16,61.2c-1-1.39.06-2.57-.15-3.91,2.26,2,1.32,5.13,2.35,8.78H44.36a18.76,18.76,0,0,0,1.32-3.91c.28-1.22,1-2.27,1.14-3.55a4.41,4.41,0,0,0,3.87-2c-2.54-.22-2.51-2.35-1.47-4.06,1.3-2.14,3.22-4.25,3.72-6.76a7,7,0,0,0-.4-4c-.74-1.91-.44-3.86-.46-5.85-.23.55-1.51,4.27-1.26,4.73a23.33,23.33,0,0,1-.9-2.36c.42,2.58-.22,8.21-3.76,10.26-1.37.79-.1,3.06-1.24,4.13-.46.44-1.1.59-1.5,1.14a3.83,3.83,0,0,0-.52,3.45c-2,0-2.84-.3-3.38,0-1.07.68-2.77.16-3.89,0-3.33-.57-5.92-.07-9.13.13a5.49,5.49,0,0,1-4.36-2.37,10.09,10.09,0,0,1-.32,2.34c-4.58-2.25-1.47-7.44-4-10.49a3.22,3.22,0,0,1-2.07,2.35c-.88-1.38-1.48-4.6-2.45-7.14C12.45,46.09,10.61,39,11.32,35.3Z" transform="translate(0.18 -0.07)"/><path class="cls-6" d="M24.11,53.3a3.29,3.29,0,0,0-.33-2.14,15.94,15.94,0,0,1-1.47,1.61,4.31,4.31,0,0,1-1.59.42c.47-.12.34-2.32.3-2.65a9.69,9.69,0,0,0-1-2.6c-.32-.73-.43-1.22-1.17-1.67s-1.69-.51-2.37-1.1-.54-1.46-.9-2.3a10.93,10.93,0,0,0-1.73-2.07,7.07,7.07,0,0,1-2-5.06c.25-2.79,2.55-4.46,3.08-7.16.25-1.29-.14-5.24,1.55-8.15,3.28-5.66,10.87-2.16,14.29.26,2.68,1.89,5,4.48,7.87,6A14.33,14.33,0,0,0,44,28.33c1.55.1,3.15-.48,4.46.76,2,1.88.31,6.91-.17,9.2-.41,2,.69,4.14-.18,6C47.43,45.75,46,46.68,45,48s-1,2.58-1.47,3.91-1,2.61-.54,4.18c.25.89.57,1.66.78,2.56.81,3.4-.79,4.47-.13,7.46H22.23c.28-4.14-1.62-4.07-.67-7.57C22.07,56.64,23.78,55.11,24.11,53.3Z" transform="translate(0.18 -0.07)"/><path class="cls-7" d="M43,66.07c-.12-.75-.62-5.28-.8-6.12L39,60.62c.17.79.48,4.6.58,5.45Z" transform="translate(0.18 -0.07)"/><path class="cls-8" d="M37.5,61.8c-.39-1.82-1-2.46-1.1-2.47l.52-5.79c1.81.16,5,1.3,6.26,7Z" transform="translate(0.18 -0.07)"/><path class="cls-7" d="M23.14,66.07c.13-.75.63-5.28.81-6.12l3.12.67c-.17.79-.48,4.6-.58,5.45Z" transform="translate(0.18 -0.07)"/><path class="cls-8" d="M28.4,61.8l-5.69-1.23c1.24-5.73,4.46-6.87,6.26-7l.53,5.79C29.35,59.34,28.79,60,28.4,61.8Z" transform="translate(0.18 -0.07)"/><path class="cls-8" d="M38.21,66.07a27.05,27.05,0,0,1,1-5.1c1.09-4.1,1.22-6.58-1.32-7.41s-7-1.08-9.7.07c-2.16.92-2.84,2.41-1.38,7a23.41,23.41,0,0,1,1.26,5.48Z" transform="translate(0.18 -0.07)"/><path class="cls-9" d="M35.85,53.36c-.53-.94-.06-2.44,0-4,.21-3.62-6.05-3.76-6,.2,0,1.75.13,3.09-.23,3.65C27.1,57.09,38.19,57.56,35.85,53.36Z" transform="translate(0.18 -0.07)"/><path class="cls-10" d="M27.66,60.13c.51,1.34,3.13,1.71,5.41,1.69,4.49,0,6.17-1.42,5.4-3.08-.21-.45-1.17-.75-2.32-.42a15,15,0,0,1-6.92-.12A1.37,1.37,0,0,0,27.66,60.13Z" transform="translate(0.18 -0.07)"/><path class="cls-11" d="M41.31,46.46c0,3.16,2.32,5.65,5.1,5.56s5-2.72,5-5.88-2.31-5.65-5.1-5.56S41.28,43.3,41.31,46.46Zm1.37-.58a4,4,0,0,1,3.56-4.21,3.77,3.77,0,0,1,3.65,4,4,4,0,0,1-3.57,4.2A3.76,3.76,0,0,1,42.68,45.88Z" transform="translate(0.18 -0.07)"/><path class="cls-12" d="M41.87,45.71c0,3.13,2.29,5.58,5,5.49s5-2.68,4.92-5.8-2.28-5.58-5-5.49S41.84,42.6,41.87,45.71Zm1.24-.5A4,4,0,0,1,46.67,41a3.77,3.77,0,0,1,3.65,4,4,4,0,0,1-3.57,4.21A3.77,3.77,0,0,1,43.11,45.21Z" transform="translate(0.18 -0.07)"/><path class="cls-7" d="M47.6,30.31C46.32,19,40.43,13.72,31.81,13.79c-12.94.09-18.55,8.31-14.72,19.64C17.61,45,26,54.19,35.08,53.18,42.61,52.34,49,43,47.6,30.31Z" transform="translate(0.18 -0.07)"/><path class="cls-13" d="M16.35,31.37c.68-.1,1,.84,2.39.26-.49-7,2.6-9,4.91-9.83,1.68-.59,0-1.17-1.22-2.49-1-1-2.07-2.1-3.32-1.07S14.38,22.87,16.35,31.37Z" transform="translate(0.18 -0.07)"/><path class="cls-7" d="M16,40.67a6.26,6.26,0,0,0,3.07,0,.61.61,0,0,1,.05-.12c.43-.91-.53-5.21-.79-6.08-.66-2.21-1.66-3.71-3.46-2.89C11.14,33.3,12.88,39.72,16,40.67Z" transform="translate(0.18 -0.07)"/><path class="cls-14" d="M17.63,38.89c1.62-.9.32-4.35-.83-5-1-.51-3.4.16-2.37,2.14.69-1.73,1.7-.51,1.47.73-.15.84-1.05.8-.22,1.93C16.13,39.34,17.12,39.18,17.63,38.89Z" transform="translate(0.18 -0.07)"/><path class="cls-15" d="M29,16.36c.85.15,1.63.32,2.27.44,7.29,1.44,15.62,2.9,17.52,11.38,1,4.52-4.8,2.93-7,1.95-3.7-1.63-7.31-5.81-11.48-5.27-2.28.29-3.69.62-5.9-.31S16.22,18,19.1,14.63C20.79,12.65,26,15.84,29,16.36Z" transform="translate(0.18 -0.07)"/><path class="cls-16" d="M24.48,23.06c2.38,1.47,4.26.77,6.83.54a8.85,8.85,0,0,1,6,2A45.31,45.31,0,0,0,47.77,31.4c2.65.93,7.86,1,10.59.37-1.55-2.3-2.23-5.76-3.26-8.43-.29-.74-2.82-6-3.27-6.05a4,4,0,0,1,1.28.28,12.7,12.7,0,0,0-2-3.14c-3.36-4.06-9.36-5.49-14.31-5.65.33,0,1.09-.26,1.62-.33A13.71,13.71,0,0,0,31.5,7.31C26.74,7.77,15,11.61,19.44,18.5A22.6,22.6,0,0,0,24.48,23.06Z" transform="translate(0.18 -0.07)"/><path class="cls-11" d="M13.46,46.23c-.15,3.22,2,5.88,4.87,6s5.26-2.49,5.41-5.71-2-5.87-4.88-5.94S13.6,43,13.46,46.23Zm1.63-.75a3.81,3.81,0,0,1,3.63-3.84,3.61,3.61,0,0,1,3.27,4,3.79,3.79,0,0,1-3.63,3.83A3.6,3.6,0,0,1,15.09,45.48Z" transform="translate(0.18 -0.07)"/><path class="cls-12" d="M13.77,45.71c0,3.13,2.29,5.58,5,5.49s4.95-2.68,4.93-5.8-2.29-5.58-5-5.49S13.74,42.6,13.77,45.71Zm1.24-.5A4,4,0,0,1,18.57,41a3.77,3.77,0,0,1,3.65,4,4,4,0,0,1-3.56,4.21A3.78,3.78,0,0,1,15,45.21Z" transform="translate(0.18 -0.07)"/><path class="cls-17" d="M34.29,9.62c-1.65.73-3.48.69-5.06,1.65,0,0-.06.16-.07.18A23.73,23.73,0,0,1,49.7,15.11C46.14,14,41.7,13,38,14.16c6.63.31,12.35,5.28,15.5,10.72a16.53,16.53,0,0,1,1.29,2.43c-6.93.24-12.53-3-17.86-7.14a7,7,0,0,1,.37,1.37c-2.7-.95-5.62-1.5-7.41-4,.47.66-2,.88-2.09.88a8.68,8.68,0,0,1-4.06-1.27c-3-1.65-2.9-4.29,0-6S31,9.25,34.29,9.62Z" transform="translate(0.18 -0.07)"/><path class="cls-18" d="M46.5,37.88a1.65,1.65,0,0,1,.17.53c.28,2-3.84,1.08-4.25.22-.77-1.63.67-1.93,1.72-1.86A2.81,2.81,0,0,1,46.5,37.88Z" transform="translate(0.18 -0.07)"/><path class="cls-18" d="M26.34,37.74a1.83,1.83,0,0,1,.27.58c.64,2.2-4,2.14-4.63,1.23-1.12-1.7.41-2.39,1.58-2.55A2.94,2.94,0,0,1,26.34,37.74Z" transform="translate(0.18 -0.07)"/><path class="cls-19" d="M48.21,29.21c-1.27-1.58-5.94-1.62-7.66.17C42.85,29.6,44.77,28.92,48.21,29.21Z" transform="translate(0.18 -0.07)"/><path class="cls-14" d="M37.13,38.57c.28.32-.61,1.22-1.71,1.31s-2.15-1-1.6-1.28.85,0,1.63,0S36.79,38.19,37.13,38.57Z" transform="translate(0.18 -0.07)"/><path class="cls-19" d="M20.09,28.89c1.9-1.66,7.17-1.8,8.74.22C25.85,29.18,24.4,29,20.09,28.89Z" transform="translate(0.18 -0.07)"/><path class="cls-20" d="M25.51,35.7a3.09,3.09,0,0,0-2.2-.06c-1.58-1.24-.42-5.41,1.85-4.56C26.84,31.72,27,34.81,25.51,35.7Z" transform="translate(0.18 -0.07)"/><path class="cls-21" d="M24,32.09c.83-.13,1.09,1.22.39,1.57C23.44,34.15,23.09,32.23,24,32.09Z" transform="translate(0.18 -0.07)"/><path class="cls-20" d="M45.09,31.13c1.22.78,1.12,3.18.25,4.31a2.7,2.7,0,0,0-2,.32C40.82,35,42.81,29.68,45.09,31.13Z" transform="translate(0.18 -0.07)"/><path class="cls-21" d="M43.48,31.88c.79,0,.9,1.39.2,1.65C42.71,33.9,42.58,31.91,43.48,31.88Z" transform="translate(0.18 -0.07)"/><path class="cls-19" d="M50.11,31.84a4.3,4.3,0,0,1-5.29.39,2,2,0,0,0-2.44.45s.69-2.47,2.77-1.67C46.27,31.45,47.56,32.7,50.11,31.84Z" transform="translate(0.18 -0.07)"/><path class="cls-19" d="M18.31,32.14a4.71,4.71,0,0,0,5.54.21,2.16,2.16,0,0,1,2.53.19s-.57-2.45-2.74-1.34A6.73,6.73,0,0,1,18.31,32.14Z" transform="translate(0.18 -0.07)"/><path class="cls-22" d="M35,41.46c3.71-.07,6.11.28,8.57-.28a11.85,11.85,0,0,0-3.06,3.57c-.63,2-2,4.78-5.94,4.48C31.39,49,28.93,47.72,25,41,27.4,42.39,31.9,41.52,35,41.46Z" transform="translate(0.18 -0.07)"/><path class="cls-23" d="M26.84,42.17a30.75,30.75,0,0,0,15.07,0,4.2,4.2,0,0,0-2,2.24C39.3,46,37.22,47,34.09,46.87,29.2,46.7,26.84,42.17,26.84,42.17Z" transform="translate(0.18 -0.07)"/><path class="cls-12" d="M28.65,42.59a2.43,2.43,0,0,0,1.86,1.91,15.72,15.72,0,0,0,7.12.42c1.68-.24,2.54-2.37,2.54-2.37A33.05,33.05,0,0,1,28.65,42.59Z" transform="translate(0.18 -0.07)"/><path class="cls-12" d="M29.44,44.57c-.16-.36-.08-.93.71-.39,1.11.76,3,.94,5.21.89,2.08,0,3.13-.67,3.54-.27s-1.48,2.59-5,2.13S29.44,44.57,29.44,44.57Z" transform="translate(0.18 -0.07)"/><path class="cls-24" d="M29.08,43.56s8.39-.62,10.38.17a4.53,4.53,0,0,0,.71-1.18,37.77,37.77,0,0,1-11.52,0A2.36,2.36,0,0,0,29.08,43.56Z" transform="translate(0.18 -0.07)"/><path class="cls-24" d="M30.81,44.47a11.58,11.58,0,0,0,6.6.38S33.79,46.37,30.81,44.47Z" transform="translate(0.18 -0.07)"/><path class="cls-15" d="M39.9,38.19a4,4,0,0,1-1-1.2,3.75,3.75,0,0,1-.15-3.19c.55-1.42,2.13-1.49,3.44-1.57,1.58-.1,3.18,0,4.76-.14a18.47,18.47,0,0,1,2.1.11c.9,0,2.85-.19,1.81-1.52s-3-1.37-4.47-1.33a22.53,22.53,0,0,0-4.48.58,18.93,18.93,0,0,0-3.87,1,4.46,4.46,0,0,1-2.79.78c-2.27-.15-4.16-1.62-6.43-1.91a19.21,19.21,0,0,0-7.13-.06c-.61.15-2.47.8-1.24,1.48s3,.52,4.33.6c.62,0,1.23.07,1.84.14,2.16.25,5.5,0,5.26,2.74-.17,1.85-1.41,3.73-2.93,4a19.74,19.74,0,0,1-4.47.35,7.7,7.7,0,0,1-3.2-.78c-.29-.14-1.15-.72-1.44-.33-.49.65,1.24,1.8,1.7,2a10.68,10.68,0,0,0,3.3.83c2.82.37,5.73.29,7.39-2.27,1-1.48,1.47-3.24,2.36-4.76,1.47-2.49,2,.95,2.45,2.47a7.85,7.85,0,0,0,1.07,2.4,5.69,5.69,0,0,0,4.16,2.11A6.35,6.35,0,0,0,45,40.47c.53-.21.76-.81.14-1.06a5.32,5.32,0,0,0-1.38-.09A12.81,12.81,0,0,1,42,39.14,5.27,5.27,0,0,1,39.9,38.19Z" transform="translate(0.18 -0.07)"/><path class="cls-25" d="M15.9,30.66a3.2,3.2,0,0,0,1.46.52c.09,1.3-.06,4.64,2.26,6.81C21.57,39.8,28,40.46,30.07,39.5a7.84,7.84,0,0,0,4.15-5.79c1.21-5.61-12.17-5.06-14.8-5-1.87,0-3.45-.54-3.9-.18S15.9,30.66,15.9,30.66Zm3.38.59c2.39-1.37,11.26-.62,13.27,1,1,.78-.41,4.57-2.31,5.73-2.5,1.53-8.78.64-10.37-1.42C18.64,35,18.5,31.69,19.28,31.25Z" transform="translate(0.18 -0.07)"/><path class="cls-25" d="M53.52,28.74c-.4-.37-1.83.17-3.52.13-2.37-.05-14.45-.76-13.43,4.86C37,36,38,38.34,40.23,39.57c1.83,1,7.68.41,9.46-1.38,2.13-2.14,2-5.48,2.14-6.78a2.71,2.71,0,0,0,1.32-.51S54,29.23,53.52,28.74Zm-4,8c-1.47,2-7.15,2.86-9.39,1.3-1.7-1.19-2.9-5-2-5.76,1.84-1.59,9.86-2.24,12-.84C50.79,31.91,50.62,35.17,49.49,36.75Z" transform="translate(0.18 -0.07)"/><path class="cls-26" d="M39.67,31.82c1.46-.59,9-1.09,9.82-.3.6.56-1.56,1.42-2.56,1.59a17.7,17.7,0,0,1-5.71.08C40.71,33.11,38.34,32.36,39.67,31.82Z" transform="translate(0.18 -0.07)"/><path class="cls-3" d="M45.55,31.62c1.53-.21,4.16,0,3.87.51s-4.5.75-4.87.11C44.36,31.91,44.83,31.72,45.55,31.62Z" transform="translate(0.18 -0.07)"/><path class="cls-27" d="M40.89,36.74c1,.07,2.53.66,2.29,1s-2.84-.08-3-.65C40.13,36.8,40.44,36.71,40.89,36.74Z" transform="translate(0.18 -0.07)"/><path class="cls-27" d="M21.33,36.12c1,.18,2.56,1,2.27,1.26s-3-.43-3-1C20.52,36.08,20.86,36,21.33,36.12Z" transform="translate(0.18 -0.07)"/><path class="cls-26" d="M20.8,31.16c.87-.71,9.12.1,10.77.73s-1.05,1.18-1.6,1.24a22.64,22.64,0,0,1-6.25-.34C22.61,32.59,20.18,31.67,20.8,31.16Z" transform="translate(0.18 -0.07)"/><path class="cls-3" d="M28,31.33c1.62,0,4.35.57,4,1s-4.81.18-5.11-.5C26.71,31.48,27.23,31.34,28,31.33Z" transform="translate(0.18 -0.07)"/><path class="cls-25" d="M32.39,30.32a7.1,7.1,0,0,0,5.82.07c1.75-.75,0,.64-.35,1s-.38,4.59-1.15,3-2.05-1.51-2.72.19-.29-1.17-.48-2.12S30.59,29.63,32.39,30.32Z" transform="translate(0.18 -0.07)"/><path class="cls-28" d="M32.34,31.1c-2-1.68-5.35-2.12-12.06-1.85C25.31,29.62,29.32,29.85,32.34,31.1Z" transform="translate(0.18 -0.07)"/><path class="cls-28" d="M38.86,30.88c1.69-1.52,4.56-1.5,10.71-1.58C45,29.85,41.55,29.68,38.86,30.88Z" transform="translate(0.18 -0.07)"/></g></svg>