<svg id="Layer_1" data-name="Layer 1" xmlns="http://www.w3.org/2000/svg" xmlns:xlink="http://www.w3.org/1999/xlink" viewBox="0 0 66 66"><defs><style>.cls-1{fill:none;}.cls-2{clip-path:url(#clip-path);}.cls-3{fill:#a55a86;}.cls-4{fill:#94abd4;}.cls-5{fill:#7e92a8;}.cls-6{fill:#fff;}.cls-7{fill:#bacbe3;}.cls-8{fill:#c9beb7;}.cls-9{fill:#ffc38f;}.cls-10{fill:#bf3c1b;opacity:0.2;}.cls-11{fill:#d14f2e;opacity:0.4;}.cls-12{fill:#f0eae6;opacity:0.7;}.cls-13{fill:#ff7752;}.cls-14{fill:#614d45;}.cls-15{fill:#425361;}.cls-16{fill:#c3d5e3;}.cls-17{fill:#121b21;}.cls-18{fill:#ff3b3b;}.cls-19{fill:#7884ab;opacity:0.5;}.cls-20{fill:#f06799;}.cls-21{fill:#de3e78;}.cls-22{fill:#ff87b3;}</style><clipPath id="clip-path" transform="translate(0.19 -0.28)"><circle class="cls-1" cx="32.83" cy="33.28" r="33"/></clipPath></defs><g class="cls-2"><rect class="cls-3" width="66" height="66"/><path class="cls-4" d="M41.56,65.12c0-6.66,4.52-8.58.4-11.26-2.34-1.53-14.08-2-17,.13-4.22,3,.81,4.69.67,11.33,0,.33,0,.65,0,1h16C41.56,65.9,41.56,65.51,41.56,65.12Z" transform="translate(0.19 -0.28)"/><path class="cls-5" d="M46.5,13.74a53.44,53.44,0,0,0-25.91,2.55c-3.81,1.47-9.67,5.5-14.44,10.27-1.06.92-.17,1.81,1.78,2.79,5.76,2.89,18.82,2.07,24.23,1.52C39.21,30.15,51.39,27,56,24.24c2.16-1.3,3.32-2.55,2.67-3.55C55,19,47.89,14,46.5,13.74Z" transform="translate(0.19 -0.28)"/><path class="cls-6" d="M32.62,57.62a.91.91,0,0,0,1.81,0,.91.91,0,1,0-1.81,0Z" transform="translate(0.19 -0.28)"/><path class="cls-6" d="M32.73,62.94a.91.91,0,0,0,1.81,0,.91.91,0,1,0-1.81,0Z" transform="translate(0.19 -0.28)"/><path class="cls-7" d="M29.6,51.17a1.54,1.54,0,0,1,.68-.72c.8-.32,2.22.79,3.12.81s2.4-1,3.26-.87,1.15,2,1.07,3c-.18,2.31-5,2-6.41,1.61-.66-.18-1.93-.79-2.14-1.66A3.49,3.49,0,0,1,29.6,51.17Z" transform="translate(0.19 -0.28)"/><path class="cls-8" d="M53.22,32.62c2.93,0,1.5-6.94,1.27-8.49a16.22,16.22,0,0,0-6-10.57c-6.51-5-13.3-1.5-21-.48s-14.18,5-16.27,9.77c-.83,1.92-3.79,10.27-.09,10.62-1.5,1.61-2.2,6,.91,6.28-.86,2.18-.26,5.09,2.56,4.85.1,2.42,1.3,4.13,3.88,4C18.4,51.44,21,53,23,50.87c1.44,2.1,3.48.81,5.2-.12S32.09,49,34,50.07c.62.33.88,1,1.59,1.17.29.08,2.56-.35,2.34-.65,1,1.4,3.93,3,4.57.17,1.9,1.72,4.33-.33,4.08-2.49,2.85.43,3.47-2.12,3.2-4.42,2.89-.24,2.89-2.93,2.28-5.24C54.89,38.27,53.92,34.27,53.22,32.62Z" transform="translate(0.19 -0.28)"/><path class="cls-6" d="M48.55,41.41a1.35,1.35,0,0,1-1.34,1.37,1.34,1.34,0,0,1-1.37-1.33,1.36,1.36,0,1,1,2.71,0Z" transform="translate(0.19 -0.28)"/><path class="cls-9" d="M18.73,37.17C19.9,44.89,26,53.31,35,52.55c9.17-.78,13.58-12.22,12.27-21.73-1.43-10.34-6.45-18.9-17.15-16.66C22.44,15.75,17.19,26.85,18.73,37.17Z" transform="translate(0.19 -0.28)"/><path class="cls-10" d="M47,25.49c-1.8,2.62-6.17,3.44-9.39,2.59a4.42,4.42,0,0,0-3.59.24,11.85,11.85,0,0,1-4.63,1.23A8.54,8.54,0,0,1,24,27.68a3.4,3.4,0,0,1-3,3.08c.7.89,1.69,3.66-.44,3.26s-2.84-5-2.92-6.63c-.23-4.76-.58-9.81,4.57-12.08,2.59-1.14,5.63-1,8.43-1A36.26,36.26,0,0,1,40,15.61a22.9,22.9,0,0,1,5.25,1.85,5.6,5.6,0,0,1,1.93,1.68c.64,1,.49,2,.59,3.12A4.77,4.77,0,0,1,47,25.49Z" transform="translate(0.19 -0.28)"/><path class="cls-9" d="M16.93,40.52a7.5,7.5,0,0,0,3,.29l.06-.1c.44-.72-.24-4.71-.48-5.47-.61-1.89-1.75-2.86-3.55-2.35C12.25,34,13.84,39.45,16.93,40.52Z" transform="translate(0.19 -0.28)"/><path class="cls-11" d="M18.37,39.14c1.35-.88,0-3.78-1-4.24-.85-.38-3,.35-1.94,2,.51-1.54,1.45-.54,1.33.55-.09.73-.88.75-.08,1.68C17.09,39.62,17.94,39.42,18.37,39.14Z" transform="translate(0.19 -0.28)"/><path class="cls-8" d="M48.41,18.26a6.1,6.1,0,0,0-1.27-1.89,20,20,0,0,0-10.85-5.45,27.74,27.74,0,0,0-7.88-.12c-4.33.56-9.55,2.58-10.86,7-.81,2.71-.33,5.82-.07,8.56.18,2,0,4.22.72,6.18.35.92,2.95,4.57,3.17,1.58.1-1.31-.89-2.64-1.16-3.89,2.16.79,3.23-2.43,3.67-3.81a10.48,10.48,0,0,0,9.4.89,6.28,6.28,0,0,1,3.36-.72c1.22.19,2.22.75,3.5.73C44.92,27.21,50.23,22.63,48.41,18.26Z" transform="translate(0.19 -0.28)"/><path class="cls-12" d="M26.9,25.28c-1.66.95-3.54,1.66-5.4.7-.22,1.3-1,3.78-2.31,4.59-1.93,1.19-3-.45-3.6-1.86-1.69,1.84-3.65-.14-3.85-1.8-.39-3.42,4-4.47,6.92-5.05a121.43,121.43,0,0,1,16.26-1.92c2.86-.17,5.68-.23,8.55-.16,2.51.06,6.69-.53,8.74,1.18.72.62,1.61,2.54,1.11,3.45-.38.66-1.89,1.08-1.65-.17-.29,1.5-2,2.53-3,.83-.62-1.06-.36-2.42-1.17-3.5a10.74,10.74,0,0,1-3.39,3.28,7.17,7.17,0,0,1-4.67.44c-2-.44-1.87-.49-3.83.34S28,27.8,26.9,25.28Z" transform="translate(0.19 -0.28)"/><path class="cls-6" d="M19.45,42.69a1.36,1.36,0,1,1-1.37-1.33A1.36,1.36,0,0,1,19.45,42.69Z" transform="translate(0.19 -0.28)"/><path class="cls-11" d="M24.92,35.7c1-.89-2.14-1-2.63-.86,0,.62,1.47.32,1.9.42-.38.39-1.49.39-2,.65s-.43.47.15.46A10.59,10.59,0,0,0,24.92,35.7Z" transform="translate(0.19 -0.28)"/><path class="cls-11" d="M44.54,35.15c-1-.88,2.14-1,2.63-.86-.05.63-1.47.33-1.9.43.37.39,1.48.38,1.94.65s.44.47-.14.46A10.48,10.48,0,0,1,44.54,35.15Z" transform="translate(0.19 -0.28)"/><path class="cls-13" d="M46.21,37.52a1.55,1.55,0,0,1,.17.5c.31,1.82-3.57,1.09-4,.29-.76-1.5.59-1.82,1.57-1.77A2.63,2.63,0,0,1,46.21,37.52Z" transform="translate(0.19 -0.28)"/><path class="cls-13" d="M27.21,37.51a1.61,1.61,0,0,1,.27.54c.65,2-3.74,2.08-4.31,1.25-1.09-1.57.33-2.25,1.42-2.43A2.73,2.73,0,0,1,27.21,37.51Z" transform="translate(0.19 -0.28)"/><path class="cls-14" d="M48,30.08c-1.12-1.83-5.79-2.14-7.5-.55A60.65,60.65,0,0,0,48,30.08Z" transform="translate(0.19 -0.28)"/><path class="cls-11" d="M37.29,38.16c.28.3-.54,1.16-1.57,1.27s-2-.88-1.53-1.17.8,0,1.54,0S37,37.81,37.29,38.16Z" transform="translate(0.19 -0.28)"/><path class="cls-14" d="M21.39,30.18c1.62-1.72,6.52-2.35,8.17-.62C26.78,29.92,25.41,29.87,21.39,30.18Z" transform="translate(0.19 -0.28)"/><path class="cls-15" d="M26.51,35.93a2.92,2.92,0,0,0-2.06,0c-1.5-1.12-.51-5.06,1.63-4.31C27.67,32.17,27.84,35.07,26.51,35.93Z" transform="translate(0.19 -0.28)"/><path class="cls-16" d="M25.72,33c.77-.13,1.05,1.13.39,1.47C25.21,35,24.84,33.2,25.72,33Z" transform="translate(0.19 -0.28)"/><path class="cls-15" d="M45.05,31.44c1.14.73,1.05,3,.23,4a2.48,2.48,0,0,0-1.87.3C41,35.06,42.92,30.08,45.05,31.44Z" transform="translate(0.19 -0.28)"/><path class="cls-16" d="M44.2,32.64c.74,0,.84,1.31.18,1.55C43.48,34.53,43.36,32.67,44.2,32.64Z" transform="translate(0.19 -0.28)"/><path class="cls-17" d="M49.75,32.11a4,4,0,0,1-5,.37,1.81,1.81,0,0,0-2.28.42s.64-2.32,2.59-1.57C46.15,31.74,47.36,32.91,49.75,32.11Z" transform="translate(0.19 -0.28)"/><path class="cls-17" d="M19.69,32.76a4.44,4.44,0,0,0,5.2.07,2,2,0,0,1,2.37.12s-.58-2.27-2.59-1.19A6.36,6.36,0,0,1,19.69,32.76Z" transform="translate(0.19 -0.28)"/><path class="cls-18" d="M27.45,39.78c1.11,2.09-1.51,3.08-2.59,1A2,2,0,0,0,27.45,39.78Z" transform="translate(0.19 -0.28)"/><path class="cls-18" d="M42.23,39.42a1.48,1.48,0,1,0,2.83.8A2.2,2.2,0,0,1,42.23,39.42Z" transform="translate(0.19 -0.28)"/><path class="cls-18" d="M34.6,46.76a9.37,9.37,0,0,1-8.33-5,.51.51,0,0,1,.32-.71.69.69,0,0,1,.82.34,8.17,8.17,0,0,0,7.46,4.26c3.64,0,6.77-1.9,7.81-4.82a.61.61,0,0,1,.78-.31.57.57,0,0,1,.42.71c-1.21,3.36-4.76,5.55-9,5.52Z" transform="translate(0.19 -0.28)"/><path class="cls-4" d="M39.18,3c8.55.07,8.25,8.19,10.77,13.13C39,12.78,24,13.5,13.1,20.83c.31-4.2.24-10.1,2.38-12.39C18.59,5.11,28.76,2.94,39.18,3Z" transform="translate(0.19 -0.28)"/><path class="cls-7" d="M14.13,11.15s-.59-4.94,10.35-6.82C34,2.7,40.67,2.64,42.93,3.5c2.81,1.07,4,4.5,4,4.5S40.72,3.8,25.37,6.45C17,7.9,14.13,11.15,14.13,11.15Z" transform="translate(0.19 -0.28)"/><path class="cls-7" d="M57.8,19.51a35.71,35.71,0,0,1-9-5.6C37.71,10.79,23,13.45,13.4,18.82a65.64,65.64,0,0,1-6.88,6.69c-1.78,1.55-1.66,2.76,1.41,3.84-4-1.73-.67-3.94,1.45-5.09C18.94,19.06,43.45,17,56,19.84c1.81.41,3.39,1,2.4,2.46C59.66,20.9,58.91,20,57.8,19.51Z" transform="translate(0.19 -0.28)"/><path class="cls-19" d="M37.14,8A3.51,3.51,0,0,0,35.37,12a4.34,4.34,0,0,0,2.91,3.13c.6,1.35,1.11,2.47,2.56,3a8.12,8.12,0,0,0,3.46.36c1.61-.18,2.92-1,4.56-.7.72.12,2.32.66,2.9-.05.83-1-1.49-3-2.09-3.55a37.22,37.22,0,0,0-5.33-4.45C42.47,8.52,40,7.39,37.74,7.8A2.21,2.21,0,0,0,37.14,8Z" transform="translate(0.19 -0.28)"/><path class="cls-20" d="M44.73,3.84a2.21,2.21,0,0,1,2,1.27c2-2.26,6.51-1.2,4.75,2.13C57,6,58.49,14,53.6,13.91c.92,3.34-3.43,4.24-5,2.63-2.31,2.09-9.09,2.48-8.94-1.8-5.4-1.06-5.06-9,.17-9.78a6.73,6.73,0,0,1,2.53.15A2.29,2.29,0,0,1,44.73,3.84Z" transform="translate(0.19 -0.28)"/><path class="cls-21" d="M42.17,7.3c-4.66.75-2.88,7.4,1.22,6.39-.2,2.45,3.71,2.2,4.88,1.05-2,0-2.91-.65-3.27-2.61-2.85,1.08-4.56-1.84-2.68-4a4.15,4.15,0,0,1,1.22-.94Z" transform="translate(0.19 -0.28)"/><path class="cls-22" d="M49.64,11.63c1.5.93,3,.48,3.38-.84.45-1.53-2.24-2.88-3.42-2.73.84-1.87-4.27-2.84-2.36.41-1-.25-3.54-.55-4,.79-.32.94,1.19,1.87,1.95,2-.43-1.23,1.22-1.89,2.15-1.4a1.56,1.56,0,0,1,0,2.68,2.3,2.3,0,0,1-1.38.24C48.87,15,50.36,12.66,49.64,11.63Z" transform="translate(0.19 -0.28)"/><path class="cls-4" d="M27.14,58.09,24.3,54.66c-1.74,1.26-2.59,6.52-3.11,11.62h4.86A70.92,70.92,0,0,0,27.14,58.09Z" transform="translate(0.19 -0.28)"/><path class="cls-4" d="M42.75,54.66,39.9,58.09A73.3,73.3,0,0,0,41,66.28h4.87C45.34,61.18,44.48,55.92,42.75,54.66Z" transform="translate(0.19 -0.28)"/></g></svg>