<svg id="Layer_1" data-name="Layer 1" xmlns="http://www.w3.org/2000/svg" xmlns:xlink="http://www.w3.org/1999/xlink" viewBox="0 0 66 66"><defs><style>.cls-1{fill:none;}.cls-2{clip-path:url(#clip-path);}.cls-3{fill:#fff;}.cls-4{fill:#94abd4;}.cls-5{fill:#1e1e29;}.cls-6{opacity:0.2;}.cls-7{fill:#bacbe3;}.cls-8{fill:url(#linear-gradient);}.cls-9{fill:#d4bfa0;}.cls-10{fill:#704432;}.cls-11{fill:#ffcb9e;}.cls-12{fill:#bf3c1b;}.cls-12,.cls-13,.cls-18{opacity:0.3;}.cls-13{fill:#c94614;}.cls-14{fill:#eddbc0;}.cls-15{fill:#636f75;}.cls-16{fill:#ffa073;}.cls-17{fill:#224245;}.cls-18{fill:#b54d26;}.cls-19{fill:#ffdfc2;}.cls-20{fill:#d4e6dd;opacity:0.7;}.cls-21{fill:#2b221c;}.cls-22{opacity:0.8;}.cls-23{fill:#ad4c3d;}</style><clipPath id="clip-path" transform="translate(0.47 -0.07)"><circle class="cls-1" cx="32.53" cy="33.07" r="33"/></clipPath><linearGradient id="linear-gradient" x1="-2772.32" y1="52.2" x2="-2772.32" y2="57.09" gradientTransform="matrix(-1, 0, 0, 1, -2740.01, 0)" gradientUnits="userSpaceOnUse"><stop offset="0" stop-color="#ee996d"/><stop offset="0.02" stop-color="#ee9a6e"/><stop offset="0.37" stop-color="#f8b181"/><stop offset="0.71" stop-color="#fdbf8d"/><stop offset="1" stop-color="#ffc491"/></linearGradient></defs><g class="cls-2"><rect class="cls-3" width="66" height="66"/><path class="cls-4" d="M19,66.07c0-.25.19-3.08.36-4.9a8.7,8.7,0,0,1,7.21-7.74l.87,4.18c-2.37,1.17-2.69,8.46-2.69,8.46Z" transform="translate(0.47 -0.07)"/><path class="cls-4" d="M44.81,66.07c0-.25-.19-3.08-.35-4.9a8.72,8.72,0,0,0-7.21-7.74l-.88,4.18c2.37,1.17,2.7,8.46,2.7,8.46Z" transform="translate(0.47 -0.07)"/><path class="cls-4" d="M26,53.77c-3.21,2.17-2.79,6.51-2.52,12.3h18c.11-5.76-.09-10.87-3.24-12.63C34.28,51.26,28.57,52,26,53.77Z" transform="translate(0.47 -0.07)"/><path class="cls-5" d="M32.16,57.71A2.2,2.2,0,0,0,29.81,59l1.48,1.65L29.7,66.07h4.75l-1.72-5.36,1.46-1.57A2.15,2.15,0,0,0,32.16,57.71Z" transform="translate(0.47 -0.07)"/><path class="cls-6" d="M37.63,55.14a7,7,0,0,1-3.3,5.25l-2.44-2.3L30,60.41a8.51,8.51,0,0,1-3.37-4.53C25.91,53,37.65,53.74,37.63,55.14Z" transform="translate(0.47 -0.07)"/><path class="cls-7" d="M31.91,57.82l2.31,1.91s4.76-3,3.07-7c-1.52-3.59-8.5-3.53-10.6-.32s3.18,7.2,3.18,7.2Z" transform="translate(0.47 -0.07)"/><path class="cls-8" d="M32.21,57.44c1.2,0,6.32-4,2.73-7.86a4.62,4.62,0,0,0-4.29-.93c-1.29.38-2.14,2-2.23,3.72C28.31,54.51,30.61,57.38,32.21,57.44Z" transform="translate(0.47 -0.07)"/><path class="cls-9" d="M32,12C.41,14.63,2.32,51.91,34.34,46.23,66.11,40.6,59.36,9.68,32,12Z" transform="translate(0.47 -0.07)"/><path class="cls-10" d="M46.66,17.75a9.57,9.57,0,0,0-3.32-4.07c-3.38-2.16-7.23-2.58-11.12-2.6-3.66,0-7.72.37-10.9,2.37a10.6,10.6,0,0,0-4.65,5c-.7,1.75-1.52,3.3-.31,5a3.64,3.64,0,0,0,4,1.37,5.37,5.37,0,0,1,3.67.34c1.44.55,2.77,1.38,4.25,1.8,2.54.73,5.27.42,7.77,1.27a10.79,10.79,0,0,0,7.08.32c1.44-.42,3.73-.73,4.49-2.22.57-1.13.3-3.21.17-4.42A13.18,13.18,0,0,0,46.66,17.75Z" transform="translate(0.47 -0.07)"/><path class="cls-11" d="M18.1,38.19C19.17,46,25.21,54.62,34.31,54,43.6,53.31,48.22,41.79,47,32.16,45.71,21.69,40.75,13,29.9,15.08,22.14,16.59,16.68,27.74,18.1,38.19Z" transform="translate(0.47 -0.07)"/><path class="cls-12" d="M18.8,19.52c.53-1.53,2.28-2.38,3.7-3,2.59-1.14,5.61-1,8.39-.94A35.16,35.16,0,0,1,40.12,17c2,.57,5.7,1.09,6.38,3.32.87,2.83-.69,3.64-4,2.88-4.92-1.12-16.06-.51-18.44.72a5.74,5.74,0,0,0-2.56,1.83c-.67,1-1.06,2.1-1.71,3.08-.16.24-.62,1.16-1,1.09-.55-.09-.33-1.63-.32-2a15.68,15.68,0,0,0,.07-3.21A9.56,9.56,0,0,1,18.8,19.52Z" transform="translate(0.47 -0.07)"/><path class="cls-11" d="M16.23,41.56a7.52,7.52,0,0,0,3.08.33.47.47,0,0,1,.06-.09c.45-.73-.19-4.78-.42-5.54-.58-1.92-1.72-2.93-3.55-2.42C11.59,34.88,13.12,40.44,16.23,41.56Z" transform="translate(0.47 -0.07)"/><path class="cls-13" d="M17.7,40.19c1.39-.88.08-3.83-1-4.31-.86-.39-3,.32-2,2,.53-1.55,1.47-.53,1.33.57-.1.74-.89.75-.1,1.7C16.4,40.65,17.27,40.46,17.7,40.19Z" transform="translate(0.47 -0.07)"/><path class="cls-10" d="M41.09,14.62a17.36,17.36,0,0,0-5.4-1.09,40.21,40.21,0,0,0-10,.45c-1.92.43-4.55,1-6.09,2.26-2.16,1.79-2.34,4.28-2.22,6.87.11,2.28,2.5,3.24,3.8,1.6a7.41,7.41,0,0,1,5.13-2.43c2.94-.11,15.92-1,18.17.77,5,3.94,2.94-3.64.47-6.06A11.07,11.07,0,0,0,41.09,14.62Z" transform="translate(0.47 -0.07)"/><path class="cls-10" d="M21.19,24.71c-1.91,3-2.35,6.84-.93,11.66,0,0-2.24-2.45-4.06-2.66-.25-.68-.67-8.23.39-9.93A21.22,21.22,0,0,0,21.19,24.71Z" transform="translate(0.47 -0.07)"/><path class="cls-14" d="M36.94,4.41c1.59.65,8,7.42,8,7.42l-28.7,4.91S18.31,8.64,20.35,7C23.61,4.47,33.64,3.07,36.94,4.41Z" transform="translate(0.47 -0.07)"/><path class="cls-15" d="M42.53,9.36c1.58,1.57,2.4,2.47,2.4,2.47l-28.7,4.91A20.37,20.37,0,0,1,17,14C18.77,8.76,38.78,5.62,42.53,9.36Z" transform="translate(0.47 -0.07)"/><path class="cls-9" d="M31.17,11.12C11.56,13.8,7.91,25.5,9.52,34c.64,3.36,3.72,1,4.47-3,2.66-14.24,30.31-20.5,36.51-4.6,2.32,6,4.9,6.1,5,1.14C55.57,19.13,49.61,8.6,31.17,11.12Z" transform="translate(0.47 -0.07)"/><path class="cls-16" d="M46.47,36.83a2,2,0,0,1,.26.58c.55,2.14-4.29,1.41-4.86.48-1.07-1.75.55-2.17,1.77-2.15A3.5,3.5,0,0,1,46.47,36.83Z" transform="translate(0.47 -0.07)"/><path class="cls-16" d="M26.43,36.49a1.84,1.84,0,0,1,.42.52c1.11,2-4,2.54-4.82,1.74-1.54-1.49,0-2.34,1.24-2.64A3.64,3.64,0,0,1,26.43,36.49Z" transform="translate(0.47 -0.07)"/><path class="cls-17" d="M25.67,35.22a2.94,2.94,0,0,0-2-.17c-1.37-1.15-.11-4.7,1.89-3.84C27.07,31.85,27,34.53,25.67,35.22Z" transform="translate(0.47 -0.07)"/><path class="cls-18" d="M37.57,37.65c-.5-.61-1.2.07-2.5.08s-1.63-.52-2.44,0,.35,2,2.42,2S38,38.18,37.57,37.65Z" transform="translate(0.47 -0.07)"/><path class="cls-19" d="M34.77,33.34c-2.2-.19-2.36,4.45-1.86,4.85,1.23,1,3.8.28,4.55-.5C37.75,37.38,36.86,33.53,34.77,33.34Z" transform="translate(0.47 -0.07)"/><path class="cls-17" d="M44.82,31.36c1.09.66,1.08,2.9.26,3.81a2.63,2.63,0,0,0-2.11,0C41.29,34.06,42.78,30.14,44.82,31.36Z" transform="translate(0.47 -0.07)"/><path class="cls-20" d="M24.62,32.06c.72-.25,1.17.86.6,1.28C24.42,33.91,23.81,32.33,24.62,32.06Z" transform="translate(0.47 -0.07)"/><path class="cls-20" d="M43.77,32.06c.71-.14,1,1,.4,1.29C43.35,33.8,43,32.22,43.77,32.06Z" transform="translate(0.47 -0.07)"/><path class="cls-21" d="M28.36,26.75c.75.05,1.22.6.92,1.52-.24.73-1.89.43-4.06.56-2.35.14-3.82.51-4,0s1.09-1.4,3.14-1.86A13.7,13.7,0,0,1,28.36,26.75Z" transform="translate(0.47 -0.07)"/><path class="cls-21" d="M40.8,26.75c-.75.05-1.22.6-.92,1.52.24.73,1.89.43,4.06.56,2.34.14,3.05.38,3.26-.09s-.31-1.27-2.36-1.73A13.72,13.72,0,0,0,40.8,26.75Z" transform="translate(0.47 -0.07)"/><g class="cls-22"><path class="cls-23" d="M27.25,40c1.1,2.08-1.51,3.06-2.58,1A2,2,0,0,0,27.25,40Z" transform="translate(0.47 -0.07)"/><path class="cls-23" d="M41.93,39.6a1.47,1.47,0,1,0,2.81.79A2.2,2.2,0,0,1,41.93,39.6Z" transform="translate(0.47 -0.07)"/><path class="cls-23" d="M34.35,46.89a9.33,9.33,0,0,1-8.28-5,.5.5,0,0,1,.32-.7.68.68,0,0,1,.82.33,8.09,8.09,0,0,0,7.4,4.23c3.63,0,6.73-1.88,7.77-4.78a.62.62,0,0,1,.78-.32.56.56,0,0,1,.4.71c-1.19,3.34-4.71,5.51-8.88,5.48Z" transform="translate(0.47 -0.07)"/></g></g></svg>