<svg id="Layer_1" data-name="Layer 1" xmlns="http://www.w3.org/2000/svg" xmlns:xlink="http://www.w3.org/1999/xlink" viewBox="0 0 66 66"><defs><style>.cls-1{fill:none;}.cls-2{clip-path:url(#clip-path);}.cls-3{fill:#604949;}.cls-4{fill:#379bdb;}.cls-5{fill:#0d73b5;}.cls-6{fill:#f5ab76;}.cls-7{fill:#ca3564;}.cls-8{fill:#e34f7e;}.cls-9{fill:#b51b4c;}.cls-10{fill:#c93712;}.cls-11{fill:#ffcb9e;}.cls-12{fill:#bf3c1b;}.cls-12,.cls-15{opacity:0.3;}.cls-13{fill:#ffa073;}.cls-14{fill:#224245;}.cls-15{fill:#b54d26;}.cls-16{fill:#ffdfc2;}.cls-17{fill:#d4e6dd;opacity:0.7;}.cls-18{fill:#d94d15;}.cls-19{fill:#e88564;}.cls-20{fill:#e85216;}</style><clipPath id="clip-path" transform="translate(0.18 -0.07)"><circle class="cls-1" cx="32.82" cy="33.07" r="33"/></clipPath></defs><g class="cls-2"><rect class="cls-3" width="66" height="66"/><path class="cls-4" d="M25.9,57.81l-2.63-4.19A12.9,12.9,0,0,0,17.6,65.33c0,.25,0,.49.06.74h5c-.05-.33-.1-.66-.12-1A8,8,0,0,1,25.9,57.81Z" transform="translate(0.18 -0.07)"/><path class="cls-4" d="M43.37,57.81,46,53.62a12.9,12.9,0,0,1,5.67,11.71c0,.25,0,.49-.06.74h-5c.05-.33.1-.66.12-1A8,8,0,0,0,43.37,57.81Z" transform="translate(0.18 -0.07)"/><path class="cls-4" d="M42.3,51.56c-4.89-2.63-12-1.73-15.28.39-4.25,2.76-3.56,7.25-2.46,14.12H44.48C45.68,59.44,46.47,53.79,42.3,51.56Z" transform="translate(0.18 -0.07)"/><path class="cls-5" d="M34.13,46.74c-7.72,0-8,11.49.37,11.49C42.31,58.23,44.86,46.74,34.13,46.74Z" transform="translate(0.18 -0.07)"/><path class="cls-6" d="M37,45.68c-1.7-.46-4.48-.24-5.91,1.17-4.95,4.9-.13,9.72,3.76,9.72s5.38-3.51,5.23-6.21C39.94,48.23,38.76,46.16,37,45.68Z" transform="translate(0.18 -0.07)"/><path class="cls-7" d="M46.84,53.79c-.41-1.08-4.74-2.67-4.74-2.67A35.26,35.26,0,0,0,38,66.07H44.8C45.65,58.73,47.19,54.71,46.84,53.79Z" transform="translate(0.18 -0.07)"/><path class="cls-8" d="M42,49.28s-3.5,8.4-3.36,11.42c3.56-5.2,9.25-8.19,9.3-8.82S44.76,49.46,42,49.28Z" transform="translate(0.18 -0.07)"/><path class="cls-9" d="M42.68,56.49a3.11,3.11,0,0,0,3.31,0A15.32,15.32,0,0,0,42.68,56.49Z" transform="translate(0.18 -0.07)"/><path class="cls-9" d="M39.81,62.58c1.63,1,4.36.06,4.36-.09A27.23,27.23,0,0,0,39.81,62.58Z" transform="translate(0.18 -0.07)"/><path class="cls-7" d="M22.27,53.79c-.36.92,1.19,4.94,2,12.28h6.83A35.41,35.41,0,0,0,27,51.12S22.68,52.71,22.27,53.79Z" transform="translate(0.18 -0.07)"/><path class="cls-8" d="M21.15,51.88c.05.63,5.74,3.62,9.3,8.82.14-3-3.36-11.42-3.36-11.42C24.35,49.46,21.09,51.25,21.15,51.88Z" transform="translate(0.18 -0.07)"/><path class="cls-9" d="M23.12,56.52a3,3,0,0,0,3.25,0A14.77,14.77,0,0,0,23.12,56.52Z" transform="translate(0.18 -0.07)"/><path class="cls-9" d="M24.94,62.49c0,.15,2.73,1.09,4.36.09A27.25,27.25,0,0,0,24.94,62.49Z" transform="translate(0.18 -0.07)"/><path class="cls-10" d="M52.64,14.92c.57-.64,1.1-1.16.33-2.14s-2.61-1.57-3.6-.92c.4-.94.85-2.45-.17-3.17a3.77,3.77,0,0,0-3.7.45c1.35-3.39-4.65-5.42-6.13-2.4-.59-1.73-1.65-3.14-3.7-3C34.38,3.78,32.2,4.94,32,6.33c-.91-1.07-1.44-2.16-3.11-2.23a3.12,3.12,0,0,0-3.44,3.31c-1.38-.9-3.1-1.61-4.63-.7a3,3,0,0,0-1.51,3.7c-1-.43-2.46-1.13-3.47-.3s-.18,3,.6,3.86a2.21,2.21,0,0,0-2.53,1.72c-.53,2.17,1.08,4.3,1.72,6.25a70.68,70.68,0,0,1,1.94,9.58c.64,3.46,1.2,7.37,2.82,10.54,1.17,2.29,2.34,1.32,4.06.42,2.23-1.18,5.51-1.38,8-1.49s6.26-.33,8.62.78c1.55.72,2.36,1.31,4,.1a9.63,9.63,0,0,0,2.6-3.6c.95-2.1,1-4.2,1.17-6.46.36-4.55,1.08-9.12,4.51-12.4A4.43,4.43,0,0,0,54.47,18a2.09,2.09,0,0,0-2.36-2.34A4.32,4.32,0,0,1,52.64,14.92Z" transform="translate(0.18 -0.07)"/><path class="cls-11" d="M19.38,38.77c1.07,7.9,7.16,16.56,16.33,15.91,9.37-.67,14-12.28,12.81-22-1.31-10.56-6.31-19.36-17.26-17.22C23.45,17,17.94,28.23,19.38,38.77Z" transform="translate(0.18 -0.07)"/><path class="cls-12" d="M32.5,23.53c-2.33-.75-6.33.18-7.7.92-2.23,1.19-2.57,4.16-3.62,6.23a5.91,5.91,0,0,1-1.63-2.76,22.73,22.73,0,0,1-.37-3.86,11.83,11.83,0,0,1,.26-4.24c.55-1.62,2.34-2.53,3.8-3.19,2.66-1.2,5.76-1,8.62-1a35.38,35.38,0,0,1,9.47,1.49c2,.61,5.86,1.15,6.56,3.51.87,2.91-2.15,3.54-4.2,3.87A3.62,3.62,0,0,0,41,25.81a15.89,15.89,0,0,1-2.43,2.42,11.52,11.52,0,0,1-.43-1.37C37,29,33.84,28.91,32,27.81c1.11-.52,2.67-1.57,2-3A2.39,2.39,0,0,0,32.5,23.53Z" transform="translate(0.18 -0.07)"/><path class="cls-11" d="M17.49,42.16a7.61,7.61,0,0,0,3.1.34.47.47,0,0,1,.06-.09c.46-.73-.19-4.82-.42-5.59-.59-1.93-1.74-3-3.58-2.44C12.81,35.44,14.35,41,17.49,42.16Z" transform="translate(0.18 -0.07)"/><path class="cls-12" d="M19,40.78c1.4-.88.08-3.85-1-4.34-.87-.4-3,.32-2,2,.54-1.57,1.49-.54,1.34.57-.09.74-.89.75-.1,1.71C17.66,41.25,18.53,41.06,19,40.78Z" transform="translate(0.18 -0.07)"/><path class="cls-10" d="M47.64,21.39c0-.06,0-.13,0-.21.73-3.27-2.93-6.06-5.07-7.88-4.32-3.66-9.95-3.63-15.27-2.71a18.94,18.94,0,0,0-6,1.88c-1.59.89-2.22,3-2.95,4.55-.86,1.86,0,17.21.63,17.78a4.71,4.71,0,0,1,1,2,2.41,2.41,0,0,0,1.74.46,36.26,36.26,0,0,1-.22-7.93c.3-4.19.8-6.45,5.59-6.63,2.2-.08,8.06-.92,8.6,2.31.24,1.45-1,2.26-2.16,2.78,1.77.56,4,.46,4.55-1.72a2.5,2.5,0,0,1,.78,1.7c2.21-1.49.89-3.86,3.83-4.11C44.68,23.53,47,23.62,47.64,21.39Z" transform="translate(0.18 -0.07)"/><path class="cls-13" d="M48,37.15a1.8,1.8,0,0,1,.26.58c.55,2.16-4.32,1.42-4.9.48-1.07-1.76.56-2.18,1.79-2.16A3.53,3.53,0,0,1,48,37.15Z" transform="translate(0.18 -0.07)"/><path class="cls-13" d="M27.77,36.8a2,2,0,0,1,.42.52c1.12,2-4,2.56-4.86,1.76-1.55-1.5,0-2.36,1.25-2.65A3.67,3.67,0,0,1,27.77,36.8Z" transform="translate(0.18 -0.07)"/><path class="cls-14" d="M27,35.92a2.88,2.88,0,0,0-2-.17c-1.37-1.17-.1-4.74,1.91-3.87C28.41,32.52,28.35,35.22,27,35.92Z" transform="translate(0.18 -0.07)"/><path class="cls-15" d="M39.25,38.48c-.5-.62-1.21.06-2.51.08s-1.65-.53-2.47,0,.35,2,2.44,2S39.68,39,39.25,38.48Z" transform="translate(0.18 -0.07)"/><path class="cls-16" d="M36.43,34.13c-2.22-.19-2.38,4.49-1.88,4.89,1.24,1,3.83.28,4.59-.5C39.44,38.2,38.54,34.32,36.43,34.13Z" transform="translate(0.18 -0.07)"/><path class="cls-14" d="M46.3,31.74c1.1.66,1.09,2.93.27,3.84a2.67,2.67,0,0,0-2.13,0C42.75,34.47,44.26,30.51,46.3,31.74Z" transform="translate(0.18 -0.07)"/><path class="cls-17" d="M26.19,32.5c.73-.24,1.18.87.61,1.29C26,34.37,25.38,32.78,26.19,32.5Z" transform="translate(0.18 -0.07)"/><path class="cls-17" d="M45.5,32.17c.72-.14,1,1,.41,1.3C45.08,33.92,44.7,32.33,45.5,32.17Z" transform="translate(0.18 -0.07)"/><path class="cls-18" d="M42.08,28.7a6.71,6.71,0,0,0-.48.58c-1.45,1.88,2.66,1.08,3.37,1.06a10.75,10.75,0,0,1,2.56.26c.62.12,1.34-.12,1.37-.83s-.43-.78-1-.56c.87-.71-.1-.93-.72-.69.72-1.3-1.28-.59-1.76-.24.21-.47.45-.7-.14-.8s-1.13.38-1.51.66C44.06,27.18,42.25,28.53,42.08,28.7Z" transform="translate(0.18 -0.07)"/><path class="cls-18" d="M29.33,28.7a6.71,6.71,0,0,1,.48.58c1.45,1.88-2.66,1.08-3.37,1.06a10.75,10.75,0,0,0-2.56.26c-.62.12-1.34-.12-1.37-.83s.43-.78,1-.56c-.87-.71.1-.93.72-.69-.72-1.3,1.28-.59,1.76-.24-.21-.47-.45-.7.14-.8s1.13.38,1.51.66C27.35,27.18,29.16,28.53,29.33,28.7Z" transform="translate(0.18 -0.07)"/><path class="cls-19" d="M28.19,40.92C29.3,43,26.66,44,25.58,42A2,2,0,0,0,28.19,40.92Z" transform="translate(0.18 -0.07)"/><path class="cls-19" d="M43,40.56a1.49,1.49,0,1,0,2.84.8A2.22,2.22,0,0,1,43,40.56Z" transform="translate(0.18 -0.07)"/><path class="cls-19" d="M35.37,47.93a9.47,9.47,0,0,1-8.38-5,.5.5,0,0,1,.33-.7.69.69,0,0,1,.83.33,8.18,8.18,0,0,0,7.49,4.28c3.66,0,6.8-1.9,7.84-4.83a.61.61,0,0,1,.79-.32.57.57,0,0,1,.41.71c-1.2,3.38-4.77,5.57-9,5.55Z" transform="translate(0.18 -0.07)"/><path class="cls-20" d="M30.82,7.07a6.49,6.49,0,0,1,1.77,1.3c1.34-.88,3.39-2.86,5.16-2.21A1.75,1.75,0,0,1,38.45,9c.9-1.14,4.84-.32,4.29,1.62,1.51-.72,5-.85,3.78,1.86,1.21-.16,5,.12,2.67,2,.47-.38,2.07,1,2.11,1.56.06.9-1.41,2-1.95,2.6.28-2.68-3.47-2.62-3.26-.49-1-2.3-2.86-2.74-3,0-.13,2.54-1.54,4.25-4.35,3.93,2.4-1.62,2-2.87,1.15-5.49-.68,2.67-2.83.31-3.7-.46-.26,1.19-1.38,2-1.72,3.19a22.65,22.65,0,0,0-2.26-3.41c-.67,1.59-3.12,2.76-3.67.35-.61,1-1.38,2.38-2.84,2.27a2.37,2.37,0,0,1-2-2.44c-.81.3-2.41,3.58-1.9,4.34a23.2,23.2,0,0,0-2.88-4.06c-.68-.68-2.19-2.44-.2-2.73-.81-2.12,2.1-1.09,2.89-.62-.53-1-.67-3.11.18-4,1.33-1.44,3.69-.22,5,.65.49-1,.5-2.6,1.83-3A3.21,3.21,0,0,1,30.82,7.07Z" transform="translate(0.18 -0.07)"/></g></svg>