<svg id="Layer_1" data-name="Layer 1" xmlns="http://www.w3.org/2000/svg" xmlns:xlink="http://www.w3.org/1999/xlink" viewBox="0 0 66 66"><defs><style>.cls-1{fill:none;}.cls-2{clip-path:url(#clip-path);}.cls-3{fill:#fff;}.cls-4{fill:#a9acb0;}.cls-5{fill:#3a3a4a;}.cls-6{fill:#6e7073;}.cls-7{fill:#ebebeb;}.cls-8{fill:#ed9d6c;}.cls-9{fill:#b8bbbf;}.cls-10{fill:#8e9194;}.cls-11{fill:#2b241f;}.cls-12{fill:#857265;}.cls-13{fill:#ffb67d;}.cls-14{fill:#bc551e;opacity:0.4;}.cls-15,.cls-17{fill:#b54319;}.cls-15{opacity:0.5;}.cls-16{fill:#45362c;}.cls-17{opacity:0.3;}.cls-18{fill:#f59d66;}.cls-19{fill:#1f1a17;}.cls-20{fill:#8f322d;}.cls-21{fill:#fff3e2;}.cls-22{fill:#e8d5b8;}.cls-23{fill:#ffcb96;}.cls-24{fill:#a88888;}</style><clipPath id="clip-path" transform="translate(0.18 -0.07)"><circle class="cls-1" cx="32.82" cy="33.07" r="33"/></clipPath></defs><g class="cls-2"><rect class="cls-3" width="66" height="66"/><path class="cls-4" d="M45.73,54.7l-3.34,3.55c.46.9.86,4.24,1.17,7.82h5C47.84,58,47.19,55.76,45.73,54.7Z" transform="translate(0.18 -0.07)"/><path class="cls-4" d="M21.51,54.7c-1.46,1.06-2.1,3.28-2.8,11.37h5c.31-3.58.71-6.92,1.17-7.82Z" transform="translate(0.18 -0.07)"/><path class="cls-5" d="M41.36,52.62c-4.89-2.63-12-1.73-15.27.39-4,2.62-3.63,6.79-2.63,13.06H43.73C44.82,59.9,45.31,54.73,41.36,52.62Z" transform="translate(0.18 -0.07)"/><path class="cls-6" d="M33.17,47.8c-8.66,0-9,11.5.42,11.5C42.36,59.3,45.22,47.8,33.17,47.8Z" transform="translate(0.18 -0.07)"/><path class="cls-7" d="M33.17,47.18c-8.66,0-9,11,.42,11C42.36,58.13,45.22,47.18,33.17,47.18Z" transform="translate(0.18 -0.07)"/><path class="cls-8" d="M36.1,46.71c-2-.4-5.18-.2-6.82,1-5.73,4.25,2,8.06,4.34,9,2.88-1.18,6.21-3.6,6-5.94A4.53,4.53,0,0,0,36.1,46.71Z" transform="translate(0.18 -0.07)"/><polygon class="cls-9" points="32.66 57.91 34.88 57.87 33.8 56.85 32.66 57.91"/><path class="cls-4" d="M45.9,54.85c-.41-1.07-4.73-2.67-4.73-2.67a34.36,34.36,0,0,0-4.05,13.89H44C44.86,59.4,46.24,55.73,45.9,54.85Z" transform="translate(0.18 -0.07)"/><path class="cls-10" d="M41.08,48.83s-3.17,8.41-3,11.42c3.56-5.2,8.91-8.19,9-8.82S43.83,49,41.08,48.83Z" transform="translate(0.18 -0.07)"/><path class="cls-10" d="M38.65,61.63a28.78,28.78,0,0,0-.8,4.44h5.42c.26-2,.5-4.29.5-4.43C43.76,61.32,38.86,61.42,38.65,61.63Z" transform="translate(0.18 -0.07)"/><path class="cls-9" d="M38.86,61.36a31.84,31.84,0,0,0-.77,4.71h5c.25-2,.5-4.54.49-4.69C43.57,61.05,39.06,61.16,38.86,61.36Z" transform="translate(0.18 -0.07)"/><path class="cls-10" d="M38.8,61a6.28,6.28,0,0,0-.5,2.1A14.63,14.63,0,0,0,41,64.45c.15,0,2.63-1.22,2.74-1.29s.22-1.91,0-2A40.85,40.85,0,0,0,38.8,61Z" transform="translate(0.18 -0.07)"/><path class="cls-5" d="M41,63a.46.46,0,1,0,.45.45A.45.45,0,0,0,41,63Z" transform="translate(0.18 -0.07)"/><path class="cls-10" d="M40.7,57.55c1.6,1,4.36.18,4.36,0A26.54,26.54,0,0,0,40.7,57.55Z" transform="translate(0.18 -0.07)"/><path class="cls-10" d="M45.68,57.75a51.94,51.94,0,0,0-1.75,8.32h.21C44.74,63.12,45.79,57.77,45.68,57.75Z" transform="translate(0.18 -0.07)"/><path class="cls-4" d="M21.43,54.85c-.34.88,1,4.55,1.91,11.22H30.2a34.35,34.35,0,0,0-4-13.89S21.84,53.78,21.43,54.85Z" transform="translate(0.18 -0.07)"/><path class="cls-10" d="M20.3,51.43c.06.63,5.41,3.62,9,8.82.15-3-3-11.42-3-11.42C23.5,49,20.25,50.8,20.3,51.43Z" transform="translate(0.18 -0.07)"/><path class="cls-10" d="M23.56,61.64c0,.14.24,2.46.5,4.43h5.42a28.78,28.78,0,0,0-.8-4.44C28.46,61.42,23.57,61.32,23.56,61.64Z" transform="translate(0.18 -0.07)"/><path class="cls-9" d="M23.74,61.38c0,.15.24,2.67.5,4.69h5a33.35,33.35,0,0,0-.77-4.71C28.27,61.16,23.76,61.05,23.74,61.38Z" transform="translate(0.18 -0.07)"/><path class="cls-10" d="M23.65,61.14c-.26.11-.16,1.94,0,2s2.59,1.29,2.74,1.29A15,15,0,0,0,29,63.1a6.28,6.28,0,0,0-.5-2.1A40.85,40.85,0,0,0,23.65,61.14Z" transform="translate(0.18 -0.07)"/><circle class="cls-5" cx="26.49" cy="63.35" r="0.46"/><path class="cls-10" d="M22.27,57.58c0,.15,2.76,1,4.36,0A26.54,26.54,0,0,0,22.27,57.58Z" transform="translate(0.18 -0.07)"/><path class="cls-10" d="M23.19,66.07h.21a51.94,51.94,0,0,0-1.75-8.32C21.54,57.77,22.59,63.12,23.19,66.07Z" transform="translate(0.18 -0.07)"/><path class="cls-11" d="M29.46,10.31C10.05,14.8,14.23,37.6,19.9,36.43c3.45-.71,6.86-1.62,10.27-2.5s7.24-1.19,10.56,0c1,.35,1.8,1,2.83,1.27,3.37.87,6.17-.41,6.5-4,0-.19,0-.38,0-.57a31,31,0,0,0-1.21-9.08C46.59,13.08,37.67,8.4,29.46,10.31Z" transform="translate(0.18 -0.07)"/><path class="cls-12" d="M48.55,29.33c0,.54-.19,2.33.74,2.21s.85-1.86.87-2.45a31.33,31.33,0,0,0-.5-4.13C47.56,25.17,48.46,28,48.55,29.33Z" transform="translate(0.18 -0.07)"/><path class="cls-13" d="M32.46,14.63c-8.4.56-16.64,9.81-14,19.94,1.33,5.23,1.26,6.51,3.28,11.75S28.91,55,36.08,54.71c6.51-.24,8.94-3.51,10.75-9.06a34.8,34.8,0,0,0,2-13.1C48.19,22.1,40.86,14.07,32.46,14.63Z" transform="translate(0.18 -0.07)"/><path class="cls-13" d="M16,32.62c-4.17,1.05-2.67,6.4.68,7.44a8.91,8.91,0,0,0,3.33.3.61.61,0,0,0,.07-.1c.52-.7-.26-4.26-.49-5C19,33.42,18,32.11,16,32.62Z" transform="translate(0.18 -0.07)"/><path class="cls-14" d="M43.33,18.68c-3.95-.65-8.65.38-12.6,1.07-2.74.47-5.66,1.46-7.36,3.86s-4.05,4.57-3.69,7.65c.07.66,1.76,4.55,2.06,3,.46-2.35.82-5.73,1.23-5.64a46.52,46.52,0,0,0,8.6,1,25,25,0,0,0,13-4.32C48.16,22.85,45,19,43.33,18.68Z" transform="translate(0.18 -0.07)"/><path class="cls-11" d="M46.52,13.34C43.42,10.59,39,9.4,35,9.06c-9.73-.82-17.64,4.3-19.52,14.65-.69,3.86.71,7.67,2.36,9,1.23,1,1.89,4.2,4,3.2.7-.33.57-1,.37-1.62-.7-2.25-.94-4.78.36-6.86,6.39,1.58,15.37-.31,21.25-3.08A8.07,8.07,0,0,0,48.57,18,5.56,5.56,0,0,0,46.52,13.34Z" transform="translate(0.18 -0.07)"/><path class="cls-12" d="M20.06,27.59c-1.06-.46-1.69.58-2.67.44s-1.49-1.16-2.18-1.76a8,8,0,0,0,.28,4c.8,1.65,1.46,1.06,3.1,2,2,1.16,2.26,3.24,3.24,2.32a22.83,22.83,0,0,1-.58-2.95C21.13,30.37,21.48,28.2,20.06,27.59Z" transform="translate(0.18 -0.07)"/><path class="cls-15" d="M18.17,34.62c-1.05-.52-3.93-.18-2.87,1.61.92-1.42,2-.27,1.65.78-.23.7-1.26.58-.38,1.63a2.36,2.36,0,0,0,2.25.33C20.74,38.35,19.46,35.26,18.17,34.62Z" transform="translate(0.18 -0.07)"/><path class="cls-16" d="M32.6,10c-4.71.22-10.17,2.33-12.77,6.81a12.36,12.36,0,0,0-1.51,3.45c-.1.49-.3,3.46,6.51,4.73-1.38.37-7.18-.4-7.82-.39.75.26,1.55.59,2.32.87A26,26,0,0,0,32,26.27a9.54,9.54,0,0,1-4.71,1.11,28.29,28.29,0,0,0,4.95-.2c4.36-.55,9-2.06,12.31-5.27C47,19.56,47.24,17,46.12,15,43.9,11.05,36.59,9.85,32.6,10Z" transform="translate(0.18 -0.07)"/><path class="cls-11" d="M33.68,29c12.6-2.84,14-8.28,14-8.28l-2.51,1.15C41.36,26.51,33.68,29,33.68,29Z" transform="translate(0.18 -0.07)"/><path class="cls-17" d="M25.14,34c0,.6,1.37.31,1.77.41-.35.37-1.39.37-1.82.62s-.41.45.13.44a9.83,9.83,0,0,0,2.38-.64C28.58,33.93,25.6,33.82,25.14,34Z" transform="translate(0.18 -0.07)"/><path class="cls-17" d="M46.34,34.22c.35,0,1.4.37,1.55-.2-.35-.17-2.85-.4-2.21.53a6.65,6.65,0,0,0,1.84.88c.45.07.52-.1.2-.41S46.55,34.62,46.34,34.22Z" transform="translate(0.18 -0.07)"/><path class="cls-11" d="M42.23,29.24c.36,1.47,1.9.85,2.8.75.59-.06,2,.35,2.67,0a.58.58,0,0,0,.23-.18C49.75,27.46,41.5,26.28,42.23,29.24Z" transform="translate(0.18 -0.07)"/><path class="cls-11" d="M25.46,29.9a.73.73,0,0,0,.26.19c.72.32,2.27-.12,2.91-.06,1,.09,2.66.71,3.06-.79C32.5,26.18,23.48,27.46,25.46,29.9Z" transform="translate(0.18 -0.07)"/><path class="cls-18" d="M45.42,35.61c-1.06-.14-2.54.08-1.88,1.82.35.92,4.44,2.09,4.3,0a1.64,1.64,0,0,0-.13-.56A2.81,2.81,0,0,0,45.42,35.61Z" transform="translate(0.18 -0.07)"/><path class="cls-18" d="M28.43,36a3.1,3.1,0,0,0-2.81-.1c-1.07.37-2.36,1.28-.9,2.55.77.67,5.22-.21,4.1-2A1.44,1.44,0,0,0,28.43,36Z" transform="translate(0.18 -0.07)"/><path class="cls-19" d="M29.16,31.6c-1.78-1-3.34,2.22-2.19,3.47a2.61,2.61,0,0,1,1.83.38C30.13,34.93,30.48,32.38,29.16,31.6Z" transform="translate(0.18 -0.07)"/><path class="cls-15" d="M43.09,38.9c-.32.09.26.23,1,.48a.45.45,0,0,1,.28.26c-3.18,1.84-11.22,3.18-16.55-.14l.15-.13c.75-.54,1.8-.54,1.52-.74A4.88,4.88,0,0,0,27,39c-.64.47-.71,2.06-.22,2.15s.46-.78.82-1.39c.26,1.73,1.71,9.09,7.66,9.39,4.48.24,6-2.12,6.3-5,.18-1.58,1.82-3.48,2.84-4.38.05.48-.26,1.17.08,1.24.5.09,1-.91.75-1.76S43.09,38.9,43.09,38.9Z" transform="translate(0.18 -0.07)"/><path class="cls-20" d="M28.72,40.7s1.54,7.13,6.87,7.08c4.79-.05,5.49-2.44,5.79-4.12a4.65,4.65,0,0,1,1.74-3.1A15.68,15.68,0,0,1,28.72,40.7Z" transform="translate(0.18 -0.07)"/><path class="cls-21" d="M30.42,41.49S30.36,43.78,32,44.7a8.25,8.25,0,0,0,6.83.6c1.65-.52,2.76-4,2.76-4A18.21,18.21,0,0,1,30.42,41.49Z" transform="translate(0.18 -0.07)"/><path class="cls-21" d="M36.9,45.26a11.82,11.82,0,0,1-5.24-1.08c-.86-.5-.91.15-.77.74,0,0,.16,2.37,4.28,2.91,3.61.48,5.34-2.46,5-3.08S39.18,45.29,36.9,45.26Z" transform="translate(0.18 -0.07)"/><path class="cls-22" d="M30.41,41.46a4.69,4.69,0,0,0,.33,1.81s8.19-1.1,10.05-.13a12.52,12.52,0,0,0,.75-1.8S35.68,43.24,30.41,41.46Z" transform="translate(0.18 -0.07)"/><path class="cls-22" d="M32.13,44.21c3.45,2.38,7.52.4,7.52.4A12.1,12.1,0,0,1,32.13,44.21Z" transform="translate(0.18 -0.07)"/><path class="cls-15" d="M37.13,36.92c-1.13,0-1.61-.47-2.37-.12s.31,2,2.31,2S40,37.39,39.54,37,38.38,37,37.13,36.92Z" transform="translate(0.18 -0.07)"/><path class="cls-23" d="M37,31.37c-2-.05-3.08,5.12-2.06,5.9,1.25.95,3.61.45,4.39-.14C40,36.68,39.41,31.43,37,31.37Z" transform="translate(0.18 -0.07)"/><path class="cls-19" d="M44.14,34.88a2.49,2.49,0,0,1,1.79-.17c.91-.78,1.24-2.58.29-3.37C44.45,29.85,42.06,33.91,44.14,34.88Z" transform="translate(0.18 -0.07)"/><path class="cls-24" d="M28.21,32.21c-.78.18-.38,1.75.42,1.29C29.21,33.16,28.91,32.06,28.21,32.21Z" transform="translate(0.18 -0.07)"/><path class="cls-24" d="M44.88,31.9c-.79.05-.65,1.66.2,1.33C45.7,33,45.58,31.86,44.88,31.9Z" transform="translate(0.18 -0.07)"/><path class="cls-17" d="M36.62,50.37c.51-.06,1.1.91,1.08,1.46s-1.68,1.43-.09,1.31a1.21,1.21,0,0,0,1-1.77C38.17,50.22,37.51,50.26,36.62,50.37Z" transform="translate(0.18 -0.07)"/></g></svg>