<svg id="Layer_1" data-name="Layer 1" xmlns="http://www.w3.org/2000/svg" xmlns:xlink="http://www.w3.org/1999/xlink" viewBox="0 0 66 66"><defs><style>.cls-1{fill:none;}.cls-2{clip-path:url(#clip-path);}.cls-3{fill:#5f5d7f;}.cls-4{fill:#ffcb9e;}.cls-5{fill:#765aa3;}.cls-6{fill:#2b221c;}.cls-7{fill:#bf3c1b;}.cls-13,.cls-7,.cls-8{opacity:0.3;}.cls-8{fill:#c94614;}.cls-17,.cls-9{fill:#45362e;}.cls-10{fill:#bf795c;}.cls-11{fill:#ffa073;}.cls-12{fill:#261b18;}.cls-13{fill:#b54d26;}.cls-14{fill:#ffdfc2;}.cls-15{fill:#e6d2c3;opacity:0.7;}.cls-16{fill:#f5b37a;}.cls-17{opacity:0.5;}</style><clipPath id="clip-path" transform="translate(-0.18 -0.28)"><circle class="cls-1" cx="33.19" cy="33.28" r="33"/></clipPath></defs><g class="cls-2"><rect class="cls-3" width="66" height="66"/><path class="cls-4" d="M27.25,59.3l-2.11-3.57C21.69,57,20.91,59.91,20.08,63a33.39,33.39,0,0,1-1,3.29h5.12c.27-.83.49-1.64.7-2.41C25.55,61.33,26,59.75,27.25,59.3Z" transform="translate(-0.18 -0.28)"/><path class="cls-4" d="M41.51,55.73,39.4,59.3c1.21.45,1.69,2,2.38,4.57.21.77.43,1.58.7,2.41H47.6a33.39,33.39,0,0,1-1-3.29C45.74,59.91,45,57,41.51,55.73Z" transform="translate(-0.18 -0.28)"/><path class="cls-4" d="M33.74,53.13c-5.65-.07-9.38,1.71-9.4,2.26-.21,5.93,1.78,7.18,3.65,8.5,1.31.92,9.51.86,10.82,0,2.09-1.34,4-2.66,3.79-8.36C42.58,55,39.16,53.2,33.74,53.13Z" transform="translate(-0.18 -0.28)"/><path class="cls-5" d="M41.41,62.26c-.61-1.52-.35-3.07-.06-7.75a5.22,5.22,0,0,0-1.36-.6c.23,8-1.68,9.5-6.63,9.5-4.38,0-6.64-.95-6.36-9.69a5.12,5.12,0,0,0-1.63.64c.28,3.94.59,6.27-.09,7.82,0,1.35.1,2.75.17,4.1H41.24C41.31,65,41.37,63.58,41.41,62.26Z" transform="translate(-0.18 -0.28)"/><path class="cls-6" d="M45.35,12c-5.09-5.58-13.53-6.18-23.07-2a18.12,18.12,0,0,0,4.95-.2C22.22,12.07,16.3,15.11,15,21c-3.2,14.6,8.84,7.87,12.93,9,4.64,1.32,16.18-.18,19.41-5,1.45-2.16,1.53-5.42.7-8.3A12,12,0,0,0,45.35,12Z" transform="translate(-0.18 -0.28)"/><path class="cls-4" d="M30.19,15.2C22.36,16.73,16.84,28,18.28,38.57c1.07,7.92,7.18,16.6,16.38,16C44,53.85,48.71,42.21,47.5,32.47,46.18,21.89,41.17,13.06,30.19,15.2Z" transform="translate(-0.18 -0.28)"/><path class="cls-7" d="M40.52,17.13A35.85,35.85,0,0,0,31.2,15.7c-2.81,0-5.86-.2-8.48.95-1.44.64-3.21,1.5-3.74,3.05-.44,1.26-1,2.94-.26,4.05,1.5,2.35,4.42.95,5.53.37,2.4-1.25,13.33-.39,18.43-.4,2.12,0,5.18-.38,4.3-3.24C46.29,18.23,42.52,17.71,40.52,17.13Z" transform="translate(-0.18 -0.28)"/><path class="cls-4" d="M15.54,34.17c-3.85,1.06-2.3,6.67.84,7.8a7.67,7.67,0,0,0,3.11.34l.06-.1c.46-.73-.18-4.82-.42-5.59C18.54,34.68,17.39,33.66,15.54,34.17Z" transform="translate(-0.18 -0.28)"/><path class="cls-8" d="M16.89,36.23c-.86-.39-3,.32-2,2,.54-1.56,1.49-.54,1.35.58-.1.75-.9.76-.11,1.71a1.43,1.43,0,0,0,1.75,0C19.27,39.7,18,36.72,16.89,36.23Z" transform="translate(-0.18 -0.28)"/><path class="cls-6" d="M42.51,12.18c-5.92-3.1-15-2.29-20,1.4-3.38,2.51-5.17,5.52-5,9.74.11,2.31,3.22,2.67,4.53,1,1.13-1.42,2.7-1.78,4.49-1.85,3-.11,14.62-.66,17.36.28,1.5.51,3.49,1.29,3.79-1.09a8.93,8.93,0,0,0-2.16-7.22A11.72,11.72,0,0,0,42.51,12.18Z" transform="translate(-0.18 -0.28)"/><path class="cls-9" d="M43.86,13.18a14.77,14.77,0,0,0-8.39-4c-1.58-.14-4.75-.08-6.25.58a22.3,22.3,0,0,1,2.24.91,33.81,33.81,0,0,0-6.34,2.07c-.63.29-5.81,3.8-5.81,3.81,1.44.78,3.14.49,4.69.14a15.77,15.77,0,0,1,7.1-.19c2.22.5,4.21,1.61,6.41,2.12.06-1-.89-1.86-1.31-2.53,1.26,0,6.08,3,7.07,3.83-.24-.85-1.41-2.63-1.54-3.53,1.23.18,4,2.66,4.86,4.1a10.64,10.64,0,0,0-.33-3.6A8.45,8.45,0,0,0,43.86,13.18Z" transform="translate(-0.18 -0.28)"/><path class="cls-10" d="M16.07,28A31.43,31.43,0,0,0,16.35,34c1.84.21,4.1,2.69,4.1,2.69-.64-4.46.06-6.86.94-11.79C19.67,24.91,16.18,25.58,16.07,28Z" transform="translate(-0.18 -0.28)"/><path class="cls-11" d="M46.05,37.08A3.56,3.56,0,0,0,43.18,36c-1.23,0-2.87.4-1.78,2.17.57.94,5.46,1.68,4.91-.48A2.11,2.11,0,0,0,46.05,37.08Z" transform="translate(-0.18 -0.28)"/><path class="cls-11" d="M27.71,36.84a3.69,3.69,0,0,0-3.2-.37c-1.26.29-2.81,1.15-1.25,2.66.83.81,6,.29,4.86-1.76A2,2,0,0,0,27.71,36.84Z" transform="translate(-0.18 -0.28)"/><path class="cls-12" d="M25.83,31.66c-2-.87-3.29,2.71-1.91,3.88a2.88,2.88,0,0,1,2,.17C27.27,35,27.33,32.31,25.83,31.66Z" transform="translate(-0.18 -0.28)"/><path class="cls-13" d="M35.43,38.1c-1.18,0-1.65-.52-2.47,0s.35,2.06,2.44,2,3-1.51,2.55-2S36.74,38.09,35.43,38.1Z" transform="translate(-0.18 -0.28)"/><path class="cls-14" d="M35.12,33.67c-2.22-.19-2.39,4.49-1.88,4.89,1.24,1,3.84.29,4.6-.5C38.14,37.75,37.24,33.85,35.12,33.67Z" transform="translate(-0.18 -0.28)"/><path class="cls-12" d="M45.27,31.52c-2.05-1.23-3.56,2.73-1.87,3.85a2.66,2.66,0,0,1,2.14,0C46.37,34.46,46.38,32.18,45.27,31.52Z" transform="translate(-0.18 -0.28)"/><path class="cls-15" d="M24.86,32.54c-.82.27-.2,1.87.6,1.29C26,33.41,25.59,32.29,24.86,32.54Z" transform="translate(-0.18 -0.28)"/><path class="cls-15" d="M44.22,32.21c-.81.16-.42,1.75.41,1.3C45.22,33.18,44.94,32.06,44.22,32.21Z" transform="translate(-0.18 -0.28)"/><path class="cls-6" d="M27.72,27.23a10.26,10.26,0,0,0-4.15.25c-2.15.59-2.24,1.67-2.1,2.36s.9.37,3.31.25c2.22-.11,3.85.37,4.2-.67A1.59,1.59,0,0,0,27.72,27.23Z" transform="translate(-0.18 -0.28)"/><path class="cls-6" d="M46.08,27.36a10.18,10.18,0,0,0-4.15,0,1.59,1.59,0,0,0-1.14,2.26c.41,1,2,.44,4.23.43,2.42,0,3.19.26,3.29-.44S48.26,27.83,46.08,27.36Z" transform="translate(-0.18 -0.28)"/><path class="cls-6" d="M48.36,43.52c-.07-.87.56-1.88.74-2.77.44-2.19.53-6.21-1.53-7.61.42,4.1-.86,7.22-1.66,8-1.67,1.6-3.69-.57-4.48-1.12-2.13-1.5-3.34-.83-5.89-.52-3.39.05-5.05-.9-7.37,2.14C26.38,44,22,43,21,36.9c-.15-1,.06-3.12-1.46-2.64-1.72.54-.33,9.16-.33,10.84,0,1.36.16,4.34,1.81,4.7-.46,1.67-.21,4.38,2.2,3.71-.13,1.33-.21,2.87,1,3.67A3.37,3.37,0,0,0,28,56.92a4.33,4.33,0,0,0,2.8,2.5c1.09.23,3.15.09,3.44-1.25,1.1,1.32,7.17,2.55,7-.3,2.22,1.72,4.88,0,4.14-2.64,2.33.22,2.93-1,2.71-3.06,2-.49,2-2.82,1.73-4.48C49.54,46.29,48.46,44.88,48.36,43.52Z" transform="translate(-0.18 -0.28)"/><path class="cls-16" d="M38.76,42.94c-.44,1.11-2.4.41-3.13-.06-.74.8-2.81,1-3.58.26-.14.61-2.16,1.16-2.25,2,1.75,2.94,10.81,1.86,11.78-.31C41.39,44,39.4,43.58,38.76,42.94Z" transform="translate(-0.18 -0.28)"/><path class="cls-10" d="M32.23,44.42s4.09.55,6.44-.25C37.62,43.62,33.08,44,32.23,44.42Z" transform="translate(-0.18 -0.28)"/><path class="cls-17" d="M37.84,48A21.4,21.4,0,0,1,30,47.3c-1.45-.35-2.06-.74-3.25.26a10.48,10.48,0,0,0-2,2.28c-.73,1.16-.57,5.62,1,3.53.2,2.42,2.29,1.82,3.53.49.35,1.22.2,2.12,1.75,2.35A2.71,2.71,0,0,0,33.65,55c1,.43,2.09,2.27,3.32,1.72.88-.38.39-1.82,1-2.06.88-.38,2.44,1.92,3.51.79.66-.71-.28-1.85-.61-2.49.89.46,3.3,1.25,4,.07.37-.61-.18-1.83-.38-2.46.2.61,1.71.11,1.87-.37.25-.7-.72-1.73-1.11-2.19C43,45.41,40.71,47.51,37.84,48Z" transform="translate(-0.18 -0.28)"/></g></svg>