<svg id="Layer_1" data-name="Layer 1" xmlns="http://www.w3.org/2000/svg" xmlns:xlink="http://www.w3.org/1999/xlink" viewBox="0 0 66 66"><defs><style>.cls-1{fill:none;}.cls-2{clip-path:url(#clip-path);}.cls-3{fill:#fff;}.cls-4{fill:#ebebeb;}.cls-5{fill:#fbfbfb;}.cls-6{fill:#ffb67d;}.cls-7{fill:#255794;}.cls-8{fill:#4e84c7;}.cls-9{fill:#4f2619;}.cls-10{fill:#ffcb9e;}.cls-11,.cls-12{fill:#bf3c1b;}.cls-11{opacity:0.15;}.cls-12,.cls-15{opacity:0.3;}.cls-13{fill:#ffa073;}.cls-14{fill:#305d80;}.cls-15{fill:#b54d26;}.cls-16{fill:#ffdfc2;}.cls-17{fill:#86bae3;}.cls-18{fill:#f7a286;}.cls-19{fill:#8f3935;}.cls-20{fill:#fff9f0;}.cls-21{fill:#e8dac5;}.cls-22{fill:#784430;}</style><clipPath id="clip-path" transform="translate(0.18 -0.07)"><circle class="cls-1" cx="32.82" cy="33.07" r="33"/></clipPath></defs><g class="cls-2"><rect class="cls-3" width="66" height="66"/><path class="cls-4" d="M25.29,52.89c-3.4,1.71-3.69,9.55-3.12,13.18H43.69c.65-3.77.43-12.11-2.89-13.49C35.83,50.52,28.59,51.23,25.29,52.89Z" transform="translate(0.18 -0.07)"/><path class="cls-5" d="M32.85,58.69c2.32,0,12.14-5.24,5.24-10.38-2-1.48-5.86-1.71-8.23-1.23A5.45,5.45,0,0,0,25.57,52C25.36,54.82,29.78,58.61,32.85,58.69Z" transform="translate(0.18 -0.07)"/><path class="cls-6" d="M32.93,56.74c1.89,0,9.91-4.27,4.28-8.46-1.62-1.21-4.78-1.4-6.72-1a4.46,4.46,0,0,0-3.49,4C26.82,53.59,30.43,56.68,32.93,56.74Z" transform="translate(0.18 -0.07)"/><path class="cls-7" d="M49.62,66.07a59,59,0,0,0,.08-6.22c-.25-2.5-1.92-5.21-6.5-6.65l-2,4.3c2.37,1.19,2.69,8.57,2.69,8.57Z" transform="translate(0.18 -0.07)"/><path class="cls-7" d="M40.21,52.2s4.53,1.29,4.94,2.14a88.33,88.33,0,0,1-.61,11.73H38.41C38.65,63.19,39.17,54.79,40.21,52.2Z" transform="translate(0.18 -0.07)"/><path class="cls-8" d="M39.35,55.44c.52-.69,3.57,2.91,3.25,3.52-.09.18-3.06,6.18-3.41,7.11h-.93C38.45,63.61,38.83,56.14,39.35,55.44Z" transform="translate(0.18 -0.07)"/><path class="cls-8" d="M40.23,51.36a6.78,6.78,0,0,1,3.51,4.76c-.06.62-4.66,1.16-4.6.52C39.22,55.77,40.23,51.36,40.23,51.36Z" transform="translate(0.18 -0.07)"/><path class="cls-7" d="M25.66,52.2s-4.53,1.29-4.95,2.14a87.05,87.05,0,0,0,.62,11.73h6.13C27.22,63.19,26.69,54.79,25.66,52.2Z" transform="translate(0.18 -0.07)"/><path class="cls-7" d="M16.25,66.07a61.19,61.19,0,0,1-.09-6.22c.26-2.5,1.93-5.21,6.51-6.65l2,4.3c-2.37,1.19-2.7,8.57-2.7,8.57Z" transform="translate(0.18 -0.07)"/><path class="cls-8" d="M26.52,55.44C26,54.75,23,58.35,23.27,59c.09.18,3.06,6.18,3.41,7.11h.93C27.42,63.61,27,56.14,26.52,55.44Z" transform="translate(0.18 -0.07)"/><path class="cls-8" d="M25.64,51.36a6.78,6.78,0,0,0-3.51,4.76c.06.62,4.66,1.16,4.6.52C26.65,55.77,25.64,51.36,25.64,51.36Z" transform="translate(0.18 -0.07)"/><path class="cls-9" d="M46.91,7.09a6.81,6.81,0,0,0-1.83-2.86c-1.46,3-5.49,4.57-8.62,4a2,2,0,0,0,.75-1.5C36,7,34.82,7.6,33.56,7.83c-5,.93-10,1.07-14.13,4.43-5.89,4.75-5,12.45-3.83,18.94.64,3.51,1.21,7.48,2.85,10.68,1.19,2.32,2.38,1.35,4.12.43,2.26-1.19,5.58-1.39,8.09-1.51s6.34-.34,8.73.79c1.57.74,2.4,1.33,4,.1A9.72,9.72,0,0,0,46,38c1-2.12,1-4.26,1.18-6.54.24-3,1-5.4.77-8.36-.08-1-1.35-5,1-8.36a17,17,0,0,0-2.43.44C48,14.83,47.69,11,47.57,10A13.87,13.87,0,0,0,46.91,7.09Z" transform="translate(0.18 -0.07)"/><path class="cls-10" d="M17.44,38.55c1.09,8,7.26,16.79,16.56,16.12C43.48,54,48.2,42.23,47,32.39c-1.33-10.7-6.39-19.62-17.49-17.45C21.56,16.48,16,27.87,17.44,38.55Z" transform="translate(0.18 -0.07)"/><path class="cls-11" d="M30.63,23.51c-2.07-.59-4.92-1.09-6.9-.37-2.81,1-3.27,4.84-4.46,7.21a6,6,0,0,1-1.66-2.79,23.43,23.43,0,0,1-.37-3.92,11.89,11.89,0,0,1,.26-4.29c.56-1.64,2.37-2.56,3.86-3.23,2.69-1.22,5.83-1.06,8.72-1a36,36,0,0,1,9.61,1.51c2.06.62,5.93,1.17,6.65,3.56.9,3-3.49,4.09-5.66,4.63-3.86,1-6.06-.09-9.64-1.18Z" transform="translate(0.18 -0.07)"/><path class="cls-10" d="M15.52,42a7.48,7.48,0,0,0,3.14.34l.07-.09c.46-.74-.19-4.88-.43-5.66-.6-2-1.76-3-3.63-2.48C10.78,35.17,12.34,40.85,15.52,42Z" transform="translate(0.18 -0.07)"/><path class="cls-12" d="M17,40.59c1.41-.89.07-3.91-1-4.4-.88-.4-3.06.33-2,2,.54-1.58,1.5-.54,1.36.59-.1.75-.91.76-.11,1.73C15.7,41.06,16.58,40.87,17,40.59Z" transform="translate(0.18 -0.07)"/><path class="cls-9" d="M41,12.74c-3.34-2.83-7.32-3.29-11.53-2.32C26.9,11,24,11.37,21.83,13A20.67,20.67,0,0,0,17,17.67c-2,3.11-1,15.41.33,17.22.15.2,1.78,2.22,2.55,2.17a37.27,37.27,0,0,1-.22-8c.26-3.58,1.08-7.44,5.17-8.09,2.32-.36,9.7,2.81,11.38,3.17,2.26.47,7.55-2.05,8.32-2.37,1.89-.79,1.78-3,.89-4.44A19.32,19.32,0,0,0,41,12.74Z" transform="translate(0.18 -0.07)"/><path class="cls-13" d="M46.48,37.64a2.2,2.2,0,0,1,.07.79c-.22,2.92-5.31,1.92-5.58.65-.51-2.38,1.45-3,2.79-2.93C44.78,36.18,46.16,36.43,46.48,37.64Z" transform="translate(0.18 -0.07)"/><path class="cls-13" d="M26.2,37.06a2.35,2.35,0,0,1,.31.75c.72,2.9-4.67,3.41-5.35,2.25-1.27-2.16.5-3.3,1.85-3.65C24,36.13,25.49,36,26.2,37.06Z" transform="translate(0.18 -0.07)"/><path class="cls-14" d="M25.16,35.52a2.93,2.93,0,0,0-2-.17c-1.39-1.19-.11-4.81,1.93-3.93C26.59,32.08,26.53,34.81,25.16,35.52Z" transform="translate(0.18 -0.07)"/><path class="cls-15" d="M37.58,38.26c-.51-.63-1.23.06-2.55.08s-1.67-.53-2.5,0,.36,2.09,2.47,2S38,38.79,37.58,38.26Z" transform="translate(0.18 -0.07)"/><path class="cls-16" d="M34.64,32.41c-1.24.18-2.33,6-1.82,6.39,1.26,1,3.88.29,4.64-.5C37.77,38,36.77,32.11,34.64,32.41Z" transform="translate(0.18 -0.07)"/><path class="cls-14" d="M44.73,31.58c1.11.66,1.1,3,.27,3.88a2.7,2.7,0,0,0-2.16,0C41.12,34.33,42.65,30.33,44.73,31.58Z" transform="translate(0.18 -0.07)"/><path class="cls-17" d="M24.35,32c.73-.25,1.19.88.61,1.31C24.15,33.92,23.52,32.31,24.35,32Z" transform="translate(0.18 -0.07)"/><path class="cls-17" d="M43.91,32c.73-.15,1,1,.42,1.31C43.49,33.81,43.1,32.2,43.91,32Z" transform="translate(0.18 -0.07)"/><path class="cls-18" d="M43.66,41.46c-.58-.4-1.26-.71-1.82-1.06a1,1,0,0,0,.29.69c-2.43.14-4.86.33-7.3.44-1.61.07-3.22.19-4.83.22-1.18,0-3.42.25-4.34-.41a2.46,2.46,0,0,0,.85-.49,8.46,8.46,0,0,0-4.29,1.72c.9-.37,2.1-.9,2.91-.13a31.82,31.82,0,0,0,4.39,3.68c3.4,2.26,10,2,11.82-2.33.15-.38.94-1.64,1.5-1.77a4.66,4.66,0,0,1,1.83.49A2.89,2.89,0,0,0,43.66,41.46Z" transform="translate(0.18 -0.07)"/><path class="cls-19" d="M25.85,42a44.39,44.39,0,0,0,17-.48,4.35,4.35,0,0,0-2.21,2c-.63,1.35-3,2.33-6.5,2.34A10.6,10.6,0,0,1,25.85,42Z" transform="translate(0.18 -0.07)"/><path class="cls-20" d="M27.91,42.29s.19,1.19,2.17,1.62a23.1,23.1,0,0,0,8.06.13,4.08,4.08,0,0,0,2.79-2.17A48.11,48.11,0,0,1,27.91,42.29Z" transform="translate(0.18 -0.07)"/><path class="cls-20" d="M28.87,44c-.2-.31-.13-.82.79-.37,1.27.64,3.38.73,5.91.61,2.35-.11,3.53-.69,4-.36s-1.6,2.33-5.64,2C29.71,45.63,28.87,44,28.87,44Z" transform="translate(0.18 -0.07)"/><path class="cls-21" d="M28.43,43.12s9.46-.82,11.74-.19a3.89,3.89,0,0,0,.76-1.06,55.37,55.37,0,0,1-13,.42A1.76,1.76,0,0,0,28.43,43.12Z" transform="translate(0.18 -0.07)"/><path class="cls-21" d="M30.41,43.86a16.63,16.63,0,0,0,7.47.12S33.83,45.44,30.41,43.86Z" transform="translate(0.18 -0.07)"/><path class="cls-9" d="M20.56,30.05c1.74-2.1,6.52-2.34,7.91.15C25.77,30.33,24.46,30.12,20.56,30.05Z" transform="translate(0.18 -0.07)"/><path class="cls-9" d="M47.25,30.14c-1.49-2.08-5.61-2.3-6.82.2C42.76,30.46,43.89,30.23,47.25,30.14Z" transform="translate(0.18 -0.07)"/><path class="cls-22" d="M29.26,9.81a22.49,22.49,0,0,1,5.3-.55C38,9.31,42.62,9.6,45,6.54c2.32,2.67,2.1,7.78-.44,10.33l0,0a7.72,7.72,0,0,1,2.59-.54c.45,2.13-4.18,3.8-6.86,5.47.43-1.12,1.59-2.81,1.93-4.2-.51.36-5.59,4.06-5.92,4.64-.41-.45,6.1-8.11,6.19-8.81-.41.21-8.21,7.47-8.61,7.94-.74-.9,3.57-6.1,3.9-7.2-.37.11-8.24,5-8.22,5-.26-.88,2.55-3.18,3-3.93-.19,0-6.46,2.62-6.4,3a4.49,4.49,0,0,1,.12-2,11.81,11.81,0,0,0-9.11,4.63c.22-.28,0-2.32.16-2.88a10.7,10.7,0,0,1,1.12-2.71,8.16,8.16,0,0,1,4.09-3.1A35.59,35.59,0,0,1,29.26,9.81Z" transform="translate(0.18 -0.07)"/></g></svg>