<svg id="Layer_1" data-name="Layer 1" xmlns="http://www.w3.org/2000/svg" xmlns:xlink="http://www.w3.org/1999/xlink" viewBox="0 0 66 66"><defs><style>.cls-1{fill:none;}.cls-2{clip-path:url(#clip-path);}.cls-3{fill:#ed9335;}.cls-4{fill:#ffcb9e;}.cls-5{fill:#6c98cc;}.cls-6{fill:#d9d9d9;}.cls-7{fill:#fbfbfb;}.cls-8{fill:#f5b28c;}.cls-9{fill:#255794;}.cls-10{fill:#ba9552;}.cls-11,.cls-12{fill:#bf3c1b;}.cls-11{opacity:0.15;}.cls-12,.cls-15{opacity:0.3;}.cls-13{fill:#ffa073;}.cls-14{fill:#305d80;}.cls-15{fill:#b54d26;}.cls-16{fill:#ffdfc2;}.cls-17{fill:#86bae3;}.cls-18{fill:#f7a286;}.cls-19{fill:#8f3935;}.cls-20{fill:#fff9f0;}.cls-21{fill:#e8dac5;}.cls-22{fill:#a16b43;}.cls-23{fill:#f0d197;}</style><clipPath id="clip-path" transform="translate(0.19 -0.28)"><circle class="cls-1" cx="32.83" cy="33.28" r="33"/></clipPath></defs><g class="cls-2"><rect class="cls-3" width="66" height="66"/><path class="cls-4" d="M24.83,57a1.89,1.89,0,1,0-2.12-3.13c-6.23,4.21-7.47,8.22-7.42,10.85a8.15,8.15,0,0,0,.22,1.56h4a3.83,3.83,0,0,1-.42-1.64C19,62.26,21.06,59.54,24.83,57Z" transform="translate(0.19 -0.28)"/><path class="cls-5" d="M24.88,52.3c-3.65,1-8.48,4-10.39,9.21a16.56,16.56,0,0,0,5.87,2.84,7.89,7.89,0,0,1,3.07-4.76C24.5,58.91,25.93,52,24.88,52.3Z" transform="translate(0.19 -0.28)"/><path class="cls-4" d="M42.34,53.87A1.89,1.89,0,1,0,40.22,57C44,59.54,46,62.26,46,64.64a3.83,3.83,0,0,1-.42,1.64h4a8.15,8.15,0,0,0,.22-1.56C49.81,62.09,48.57,58.08,42.34,53.87Z" transform="translate(0.19 -0.28)"/><path class="cls-5" d="M40.17,52.3c-1.05-.3.38,6.61,1.45,7.29a7.89,7.89,0,0,1,3.07,4.76,16.56,16.56,0,0,0,5.87-2.84C48.65,56.25,43.82,53.34,40.17,52.3Z" transform="translate(0.19 -0.28)"/><path class="cls-6" d="M40.44,51.88c-4.89-2.62-12-1.72-15.27.4-4.23,2.75-3.57,7.19-2.48,14h20C43.86,59.73,44.52,54.07,40.44,51.88Z" transform="translate(0.19 -0.28)"/><path class="cls-7" d="M37.25,48.55C35.46,47.17,32,47,29.82,47.4A5.06,5.06,0,0,0,26,52c-.19,2.64,5.31,7.53,6.57,7.6C33.48,59.62,43.48,53.34,37.25,48.55Z" transform="translate(0.19 -0.28)"/><path class="cls-8" d="M36.54,47.16c-1.52-1.3-4.48-1.5-6.29-1.08A4.64,4.64,0,0,0,27,50.39c-.17,2.49,4.48,7.09,5.56,7.15C33.35,57.58,41.82,51.67,36.54,47.16Z" transform="translate(0.19 -0.28)"/><path class="cls-9" d="M25.69,51.36S20.86,53,20.44,54.11c-.26.7.56,5.32,1.07,12.17h5.85C27.41,61.67,27.09,55.92,25.69,51.36Z" transform="translate(0.19 -0.28)"/><path class="cls-9" d="M44.73,54.11c-.41-1.07-5.26-2.69-5.26-2.69-1.34,4.36-1.62,10.11-1.53,14.86H43.8C44.2,59.76,45,54.79,44.73,54.11Z" transform="translate(0.19 -0.28)"/><path class="cls-10" d="M46.93,15.42c1.5-.38,1.16-4.14,1-5.14a13.49,13.49,0,0,0-.65-2.87,6.77,6.77,0,0,0-1.8-2.82c-1.44,2.92-5.41,4.5-8.49,4a2,2,0,0,0,.74-1.48c-1.23.26-2.36.83-3.59,1.06-4.91.92-9.81,1-13.92,4.37-5.8,4.67-4.94,12.25-3.78,18.65.63,3.46,1.2,7.36,2.81,10.52,1.17,2.28,2.34,1.32,4.06.42,2.22-1.18,5.5-1.37,8-1.49s6.25-.33,8.6.78c1.55.72,2.36,1.31,3.94.1a9.55,9.55,0,0,0,2.6-3.6c.95-2.09,1-4.19,1.17-6.44.23-2.91,1-5.31.75-8.23-.08-1-1.32-4.93.94-8.24A17.77,17.77,0,0,0,46.93,15.42Z" transform="translate(0.19 -0.28)"/><path class="cls-4" d="M30.15,15.14C22.36,16.66,16.86,27.88,18.29,38.4c1.07,7.88,7.15,16.53,16.31,15.87,9.34-.66,14-12.25,12.78-21.94C46.07,21.79,41.08,13,30.15,15.14Z" transform="translate(0.19 -0.28)"/><path class="cls-11" d="M40.21,16.8a35.31,35.31,0,0,0-9.46-1.49c-2.85-.05-5.94-.21-8.6,1-1.46.66-3.25,1.57-3.79,3.18a11.58,11.58,0,0,0-.26,4.23,22.72,22.72,0,0,0,.36,3.86,5.85,5.85,0,0,0,1.64,2.75c1.17-2.33,1.62-6.09,4.39-7.1,2-.71,4.76-.21,6.79.36l.41.12c3.52,1.08,5.7,2.1,9.5,1.16,2.13-.53,6.45-1.58,5.56-4.56C46.05,17.94,42.23,17.4,40.21,16.8Z" transform="translate(0.19 -0.28)"/><path class="cls-4" d="M15.57,34c-3.83,1-2.29,6.64.84,7.76a7.56,7.56,0,0,0,3.09.34l.06-.09c.46-.73-.18-4.81-.42-5.58C18.55,34.52,17.41,33.51,15.57,34Z" transform="translate(0.19 -0.28)"/><path class="cls-12" d="M16.91,36.07c-.86-.39-3,.32-2,2,.54-1.56,1.49-.53,1.34.58-.1.74-.89.75-.1,1.7.43.52,1.3.33,1.74,0C19.28,39.52,18,36.56,16.91,36.07Z" transform="translate(0.19 -0.28)"/><path class="cls-10" d="M41.49,13c-3.29-2.79-7.21-3.24-11.35-2.28-2.53.58-5.41.93-7.52,2.56a20.26,20.26,0,0,0-4.76,4.57c-2,3.06-1,15.18.33,17,.15.2,1.75,2.19,2.51,2.13A36.7,36.7,0,0,1,20.48,29c.25-3.53,1.07-7.33,5.09-8,2.29-.36,9.55,2.77,11.21,3.12,2.22.47,7.43-2,8.19-2.33,1.87-.78,1.76-2.91.88-4.38A18.88,18.88,0,0,0,41.49,13Z" transform="translate(0.19 -0.28)"/><path class="cls-13" d="M44.21,35.85c-1.32,0-3.25.54-2.74,2.89C41.73,40,46.75,41,47,38.1a2.38,2.38,0,0,0-.06-.78C46.58,36.12,45.23,35.87,44.21,35.85Z" transform="translate(0.19 -0.28)"/><path class="cls-13" d="M26.92,36.92c-.7-1.06-2.13-.91-3.14-.64-1.33.35-3.07,1.47-1.82,3.61.67,1.14,6,.63,5.27-2.23A2.39,2.39,0,0,0,26.92,36.92Z" transform="translate(0.19 -0.28)"/><path class="cls-14" d="M25.81,31.52c-2-.87-3.27,2.7-1.9,3.86a2.91,2.91,0,0,1,2,.17C27.25,34.85,27.31,32.16,25.81,31.52Z" transform="translate(0.19 -0.28)"/><path class="cls-15" d="M35.62,38.18c-1.18,0-1.64-.52-2.46,0s.35,2.06,2.43,2,3-1.5,2.54-2S36.92,38.17,35.62,38.18Z" transform="translate(0.19 -0.28)"/><path class="cls-16" d="M35.24,32.35c-1.23.17-2.3,5.89-1.8,6.29,1.24,1,3.82.29,4.58-.5C38.31,37.83,37.33,32.05,35.24,32.35Z" transform="translate(0.19 -0.28)"/><path class="cls-14" d="M45.17,31.38c-2.05-1.23-3.55,2.72-1.86,3.83a2.65,2.65,0,0,1,2.12,0C46.26,34.3,46.26,32,45.17,31.38Z" transform="translate(0.19 -0.28)"/><path class="cls-17" d="M25.1,32.14c-.82.28-.2,1.86.6,1.29C26.27,33,25.82,31.89,25.1,32.14Z" transform="translate(0.19 -0.28)"/><path class="cls-17" d="M44.37,31.81c-.81.16-.42,1.75.4,1.3C45.37,32.78,45.08,31.67,44.37,31.81Z" transform="translate(0.19 -0.28)"/><path class="cls-18" d="M44.12,41.26c-.57-.39-1.24-.7-1.8-1a.91.91,0,0,0,.29.67c-2.39.15-4.79.33-7.19.44-1.58.07-3.17.19-4.76.21-1.16,0-3.36.25-4.27-.39a2.69,2.69,0,0,0,.84-.49A8.3,8.3,0,0,0,23,42.36c.89-.37,2.07-.9,2.87-.14a30.74,30.74,0,0,0,4.32,3.63c3.35,2.22,9.89,1.95,11.64-2.29.15-.38.93-1.62,1.48-1.75a4.51,4.51,0,0,1,1.8.49A2.89,2.89,0,0,0,44.12,41.26Z" transform="translate(0.19 -0.28)"/><path class="cls-19" d="M26.58,41.76a10.39,10.39,0,0,0,8.21,3.84c3.49,0,5.78-1,6.41-2.3a4.29,4.29,0,0,1,2.17-2A43.87,43.87,0,0,1,26.58,41.76Z" transform="translate(0.19 -0.28)"/><path class="cls-20" d="M28.61,42.07s.18,1.18,2.13,1.6a22.43,22.43,0,0,0,7.94.13,4,4,0,0,0,2.75-2.14A47,47,0,0,1,28.61,42.07Z" transform="translate(0.19 -0.28)"/><path class="cls-20" d="M36.15,44c-2.49.12-4.57,0-5.82-.6-.9-.44-1,.06-.78.36,0,0,.83,1.6,5,1.9,4,.28,6-1.69,5.56-2S38.46,43.89,36.15,44Z" transform="translate(0.19 -0.28)"/><path class="cls-21" d="M28.61,42.07a1.8,1.8,0,0,0,.51.83s9.32-.81,11.56-.19a3.83,3.83,0,0,0,.75-1.05A54,54,0,0,1,28.61,42.07Z" transform="translate(0.19 -0.28)"/><path class="cls-21" d="M31.07,43.63c3.37,1.55,7.36.11,7.36.11A16.41,16.41,0,0,1,31.07,43.63Z" transform="translate(0.19 -0.28)"/><path class="cls-22" d="M21.37,30c3.83.07,5.13.28,7.79.15C27.79,27.71,23.08,28,21.37,30Z" transform="translate(0.19 -0.28)"/><path class="cls-22" d="M40.94,30.31c2.29.12,3.41-.11,6.71-.19C46.19,28.06,42.13,27.84,40.94,30.31Z" transform="translate(0.19 -0.28)"/><path class="cls-23" d="M45,17l0,0h0S45,17.06,45,17Z" transform="translate(0.19 -0.28)"/><path class="cls-23" d="M45,17l0,0s0,0,0,0h0c2.49-2.52,2.69-7.53.41-10.15-2.31,3-6.87,2.73-10.25,2.68a21.73,21.73,0,0,0-5.21.55,34.22,34.22,0,0,0-6.59,2.29,8.07,8.07,0,0,0-4,3.06,10.77,10.77,0,0,0-1.11,2.67c-.14.54.07,2.55-.15,2.83a11.65,11.65,0,0,1,9-4.56,4.36,4.36,0,0,0-.11,2c-.07-.35,6.11-2.92,6.3-2.93-.49.74-3.26,3-3,3.87,0-.06,7.73-4.83,8.1-4.93-.33,1.08-4.57,6.2-3.84,7.08.39-.46,8.07-7.61,8.47-7.81-.08.68-6.49,8.23-6.09,8.67.33-.57,5.33-4.21,5.83-4.57a32.54,32.54,0,0,1-1.91,4.14c2.65-1.65,7.21-3.29,6.76-5.39A7.79,7.79,0,0,0,45,17Z" transform="translate(0.19 -0.28)"/></g></svg>