<svg id="Layer_1" data-name="Layer 1" xmlns="http://www.w3.org/2000/svg" xmlns:xlink="http://www.w3.org/1999/xlink" viewBox="0 0 66 66"><defs><style>.cls-1{fill:none;}.cls-2{clip-path:url(#clip-path);}.cls-3{fill:#f1c4b5;}.cls-4{fill:#8f4e20;}.cls-5{fill:#ffb685;}.cls-6{fill:#404048;}.cls-7{fill:#141418;}.cls-26,.cls-28,.cls-8{fill:#fff;}.cls-9{fill:#7d421d;}.cls-10{fill:#e0e0e0;}.cls-11{opacity:0.1;}.cls-12{fill:#e88e61;}.cls-13{fill:#ad652b;}.cls-14{fill:#4f3023;}.cls-15{fill:#ffb97f;}.cls-16{fill:#bf3c1b;}.cls-16,.cls-26{opacity:0.3;}.cls-17{fill:#a82807;opacity:0.4;}.cls-18{fill:#693a27;}.cls-19{fill:#121b21;}.cls-20{fill:#ffcb9e;}.cls-21{fill:#7d8ba8;}.cls-22{fill:#8f2724;}.cls-23{fill:#fff9f0;}.cls-24{fill:#e8dac5;}.cls-25{fill:#3a3a4a;}.cls-27{fill:#c1c5c9;}.cls-28{opacity:0.7;}</style><clipPath id="clip-path" transform="translate(0.19 -0.07)"><circle class="cls-1" cx="32.83" cy="33.07" r="33"/></clipPath></defs><g class="cls-2"><rect class="cls-3" width="66" height="66"/><path class="cls-4" d="M16.94,66.07h7.74L21.46,55.12C19.48,56.28,17.75,57.85,16.94,66.07Z" transform="translate(0.19 -0.07)"/><path class="cls-5" d="M45.37,41.78c-1.83,3.4.75,3.76,3.35,4.84,1.29.53,2.91,1.58,3.46-.53a28.34,28.34,0,0,0,.34-3.31,12.22,12.22,0,0,1,.8-3.32C54.6,37,51.05,31.27,45.37,41.78Z" transform="translate(0.19 -0.07)"/><path class="cls-6" d="M42.1,27.75a1,1,0,0,0-1.33.3l-4.42,6.59A1,1,0,0,0,36.58,36l11.73,7.87a1,1,0,0,0,1.33-.31L54.06,37a1,1,0,0,0-.23-1.34Z" transform="translate(0.19 -0.07)"/><path class="cls-7" d="M41.69,27.5a1,1,0,0,0-1.29.32l-4.33,6.45a.94.94,0,0,0,.2,1.31l11.19,7.5a.92.92,0,0,0,1.28-.31l4.33-6.46a.93.93,0,0,0-.2-1.3Z" transform="translate(0.19 -0.07)"/><path class="cls-7" d="M41.69,27.5a1,1,0,0,0-1.29.32l-4.33,6.45a.94.94,0,0,0,.2,1.31l11.19,7.5a.92.92,0,0,0,1.28-.31l4.33-6.46a.93.93,0,0,0-.2-1.3Z" transform="translate(0.19 -0.07)"/><path class="cls-8" d="M42.16,29.42a.7.7,0,0,0-1,.18L38,34.31a.71.71,0,0,0,.2,1l8.64,5.79a.71.71,0,0,0,1-.18L51,36.2a.71.71,0,0,0-.2-1Z" transform="translate(0.19 -0.07)"/><path class="cls-5" d="M45.19,40.71c-.52-.37-1.92-.76-2,.09-.08.53.9,1.29,1.18,1.7.45.66.17,2.11,1.1,2.5.75.32,1.2-.34,1.35-1A3.35,3.35,0,0,0,45.19,40.71Z" transform="translate(0.19 -0.07)"/><path class="cls-4" d="M52.74,42.83,47.45,47.2s4.86,3.21,4.15,6.19C51.21,55,48.39,57,44.92,55.16c-.91-.47-.64,6.73-.43,6.82a9.56,9.56,0,0,0,12.13-4.74C60.23,49.63,52.74,42.83,52.74,42.83Z" transform="translate(0.19 -0.07)"/><path class="cls-9" d="M52.66,56.13A15.62,15.62,0,0,0,51.51,62a9,9,0,0,0,5.11-4.76,10,10,0,0,0,1-3.83A4.82,4.82,0,0,0,52.66,56.13Z" transform="translate(0.19 -0.07)"/><path class="cls-10" d="M41.1,53.59c-4.29-5-12.17-3.38-15.09-.92s-3.19,4.47.43,9.44c1.1,1.51,2.18,2.84,3.15,4h6.78C39.28,61.94,43,55.78,41.1,53.59Z" transform="translate(0.19 -0.07)"/><path class="cls-11" d="M36.84,54.19a6.41,6.41,0,0,1,0,2.47,28.81,28.81,0,0,1-2.14,4.74c.29-.29,2-3.2,2.68-4s1.39,0,2.28.13A26.48,26.48,0,0,0,36.84,54.19Z" transform="translate(0.19 -0.07)"/><path class="cls-11" d="M29.69,54.29a26.48,26.48,0,0,0-2.84,3.34c.89-.15,1.54-.94,2.28-.13s2.6,3.87,2.89,4.16a28.77,28.77,0,0,1-2.35-4.9A6.41,6.41,0,0,1,29.69,54.29Z" transform="translate(0.19 -0.07)"/><path class="cls-4" d="M25,54.23a9.72,9.72,0,0,1,.54-1.49c-2.33,1-5,2.76-5.47,3.94-.16.44,2,4.13,3.14,9.39h7.45C27.77,63.07,23.54,57.86,25,54.23Z" transform="translate(0.19 -0.07)"/><path class="cls-4" d="M46.45,56.19c-.73-.79-4.59-2.68-5.89-3.3a4.07,4.07,0,0,1,.38,1.38c-.34,4.84-3.39,9.23-5.59,11.8h8.14C44.65,60.15,46.77,56.54,46.45,56.19Z" transform="translate(0.19 -0.07)"/><path class="cls-12" d="M31.18,46.47a4.63,4.63,0,0,0-3.43,4.25,2.94,2.94,0,0,0,2,3.22c.66.33.08,1.65.2,2.44.67.12.72.1,1.11.59s1.37,3.61,2.08,4.78c.2-.6,2.38-5.43,2.51-5.83.25,0,.53-.05.77,0a7,7,0,0,0,.11-2.09,2.88,2.88,0,0,0,2-2.66c.21-1.19.28-2.77-.77-3.61C36.17,46.26,33.07,46.06,31.18,46.47Z" transform="translate(0.19 -0.07)"/><path class="cls-13" d="M42.31,60.67c-.11-.18-1.49-1.5-1.49-1.5a17.45,17.45,0,0,0,2.3-1.1c.11-.19-.06-3.68,0-4.06s-.9-.69-1.82-1.25-1.31-.59-1.36.11c-.33,5-3.56,10.52-5.37,13.2h2.12C39.24,63.71,42.37,60.77,42.31,60.67Z" transform="translate(0.19 -0.07)"/><path class="cls-13" d="M25,52.76c-.92.56-1.86.87-1.82,1.25s-.13,3.87,0,4.06a17.54,17.54,0,0,0,2.31,1.1s-1.38,1.32-1.49,1.5,3.06,3,5.64,5.4h2.11c-1.8-2.68-5-8.18-5.37-13.2C26.26,52.17,25.87,52.2,25,52.76Z" transform="translate(0.19 -0.07)"/><path class="cls-8" d="M33.66,63.5a.66.66,0,1,0,.66.66A.67.67,0,0,0,33.66,63.5Z" transform="translate(0.19 -0.07)"/><path class="cls-14" d="M44.54,21C44.67,12.44,37.26,7,25.45,9.21,4.82,13,11.34,41.55,17.14,39.68c4.29-1.39,8.46-3.09,12.69-4.63,3.94-1.43,8.51-1.13,12.68-1.29,3.26-.12,3.07-1.49,3-4.13C45.24,24.7,44.51,23,44.54,21Z" transform="translate(0.19 -0.07)"/><path class="cls-15" d="M26.81,15.27c-7.48,2.3-11.71,13.86-9.22,24,1.87,7.61,8.71,15.45,17.62,13.87,9.08-1.62,12.44-13.45,10.26-22.82C43.09,20.15,37.3,12.06,26.81,15.27Z" transform="translate(0.19 -0.07)"/><path class="cls-15" d="M14.47,35.28C10.83,36.7,12.91,42,16.09,42.8a7.39,7.39,0,0,0,3.07,0l.05-.1c.37-.76-.82-4.32-1.12-5.05C17.31,35.83,16.22,34.59,14.47,35.28Z" transform="translate(0.19 -0.07)"/><path class="cls-16" d="M40.48,16.72a38.1,38.1,0,0,0-13.07-1.34c-3.06.27-7.63.57-9.84,3.07-1.77,2-1.56,5.36-1.41,7.84.05.94.82,8.12,1.2,6.51.7-2.92,2.88-4.23,2.49-7.18,4.62,1.5,11.23.62,16.93-.58,3.58-.75,6.39-1.95,7.43,1C43.7,23.73,41.93,17.09,40.48,16.72Z" transform="translate(0.19 -0.07)"/><path class="cls-17" d="M16,37.15c-.88-.3-2.91.63-1.75,2.17.36-1.58,1.4-.68,1.37.42,0,.74-.8.83.07,1.69.48.46,1.31.18,1.71-.14C18.68,40.29,17.08,37.52,16,37.15Z" transform="translate(0.19 -0.07)"/><path class="cls-14" d="M47,8.91c-4.46,4.46-13.34-3.31-24.1,1.25-14.71,6.22-7.27,21.68-7,23.62A9.57,9.57,0,0,0,18,38,3.57,3.57,0,0,0,20,37.82c-1.5-1.12-2.43-4.53-1.67-7.89.42-1.87,1.18-3.24.71-5.65,1.46,1.06,11.22,1.83,22.89-2a11.53,11.53,0,0,0,6.83-5.82c-1,.15-1.7.37-2.89.66C47.43,15.12,47.26,11.53,47,8.91Z" transform="translate(0.19 -0.07)"/><path class="cls-18" d="M34.39,9.9c-5.62-.93-14-.17-17.75,4.76s.32,8.39,14.85,6.6c13.27-1.63,15-11.31,15-11.31C42.72,12.27,40,10.83,34.39,9.9Z" transform="translate(0.19 -0.07)"/><path class="cls-17" d="M22.64,34.77c.11.61,1.48.16,1.92.21-.33.42-1.43.55-1.85.86s-.38.51.19.43a10.23,10.23,0,0,0,2.42-.94C26.26,34.34,23.1,34.58,22.64,34.77Z" transform="translate(0.19 -0.07)"/><path class="cls-17" d="M44.34,32.89c-.38-.23-1.3-.14-1.61-.5.35-.13,1.53.06,1.57-.56-.41-.09-3,.25-2.17,1a6.92,6.92,0,0,0,2.1.48C44.7,33.32,44.74,33.13,44.34,32.89Z" transform="translate(0.19 -0.07)"/><path class="cls-19" d="M26.12,31.7c-2.06-.64-2.93,3-1.47,4a2.79,2.79,0,0,1,2,0C27.87,34.82,27.65,32.18,26.12,31.7Z" transform="translate(0.19 -0.07)"/><path class="cls-17" d="M34.75,36.58c-1,.14-1.44-.19-2.07.25s.5,1.78,2.24,1.5,2.37-1.75,1.93-2.08S35.85,36.43,34.75,36.58Z" transform="translate(0.19 -0.07)"/><path class="cls-20" d="M33.52,31.07c-.85.15-.76,2.49-.93,3.62s-.26,2.19.23,2.46c1.22.67,3.47-.08,4.06-.76.24-.27-.52-1.33-1.14-2.41S34.49,30.91,33.52,31.07Z" transform="translate(0.19 -0.07)"/><path class="cls-19" d="M42,29.87c-2.14-.86-3.25,3.59-1,3.88a2.6,2.6,0,0,1,1.66-.68C43.3,32.09,43.09,30.33,42,29.87Z" transform="translate(0.19 -0.07)"/><path class="cls-21" d="M25.6,32.26c-.77.35,0,1.84.73,1.19C26.85,33,26.29,31.94,25.6,32.26Z" transform="translate(0.19 -0.07)"/><path class="cls-21" d="M41.5,30.48c-.74.27-.14,1.71.58,1.16C42.6,31.25,42.16,30.23,41.5,30.48Z" transform="translate(0.19 -0.07)"/><path class="cls-14" d="M40.3,26.48c-1.47,0-2.58-.14-2.58-.09,0,.84.36,2.55,1.47,2.43.67-.07,1.35-.26,2-.27a7.26,7.26,0,0,1,2.48.39c.51.16.62-.58.43-.78A4.74,4.74,0,0,0,40.3,26.48Z" transform="translate(0.19 -0.07)"/><path class="cls-14" d="M25.39,28.15A5,5,0,0,0,22.07,31c-.13.25.27.92.73.59a8.38,8.38,0,0,1,2.42-1.19c.69-.2,1.47-.25,2.18-.41,1.2-.26.93-2,.62-2.78C28,27.16,26.91,27.65,25.39,28.15Z" transform="translate(0.19 -0.07)"/><path class="cls-20" d="M44.73,35a3.44,3.44,0,0,0-3-.36c-1.17.27-2.63,1.07-1.18,2.49.78.75,5.6.28,4.56-1.64A1.76,1.76,0,0,0,44.73,35Z" transform="translate(0.19 -0.07)"/><path class="cls-20" d="M27.05,37a3.64,3.64,0,0,0-3.15-.27c-1.22.33-2.72,1.21-1.15,2.65.84.76,5.88.1,4.72-1.88A1.89,1.89,0,0,0,27.05,37Z" transform="translate(0.19 -0.07)"/><path class="cls-17" d="M30.29,41c-2.28.84-5.54,2.88-3.07,4.88,3.11,2.52,10.6,1.42,13.26-1,1.72-1.56,1.76-3.21-.56-4.34l1.85-.76C37.9,39.63,33.87,39.68,30.29,41Z" transform="translate(0.19 -0.07)"/><path class="cls-22" d="M38.64,41c.3-.14.71-.41,1.12-.62-7-.16-13.47,1.93-12.09,4.63,1.23,2.38,9.53,1.39,11.66-.2C41.14,43.45,41.41,41.87,38.64,41Z" transform="translate(0.19 -0.07)"/><path class="cls-23" d="M38.74,40.33c-3.42,0-7.8.51-10.12,2.19-.47.34-.35.65.36.85,1.6.45,4.11-.49,5.66-.71,3.81-.54,4.22,0,4.44-.48S39.59,40.34,38.74,40.33Z" transform="translate(0.19 -0.07)"/><path class="cls-24" d="M38.86,40.34c-1.46-.14-8.35.25-10.46,2.4,0,0-.44.43.58.63a13.37,13.37,0,0,1,10.35-2.1S39.48,40.38,38.86,40.34Z" transform="translate(0.19 -0.07)"/><path class="cls-11" d="M44.1,34.44a29.32,29.32,0,0,1-4.77.38c-2.12-.14-2.89-3.56-.92-4.43s4.23.25,6.16-.75c.68-.35.78-.67.56-.95-.46-.6-2.39-1-2.88-1a45.17,45.17,0,0,0-5.54.73c-5.81.72-11.79.8-17.59,2.69-2.2.72.06,2.42,1.35,2.41s2.77-.71,4.17-.91c1.56-.21,5.35-1.32,5.46,1.16a2.68,2.68,0,0,1-2.17,2.91,21.86,21.86,0,0,1-4.25.74c-.58,0-4.77-.26-4.1,1.15.35.72,2.43.62,3.1.65a20.16,20.16,0,0,0,4.21-.66c1.81-.32,3.23-.68,4.15-2.36.74-1.36,1-2.9,1.68-4.28,1.09-2.26,2.67.54,3.27,1.77a6.18,6.18,0,0,0,2.27,2.61,5.17,5.17,0,0,0,3,.42c1.32,0,3.33.19,4.26-.95C46.74,34.26,45.39,34.31,44.1,34.44Z" transform="translate(0.19 -0.07)"/><path class="cls-25" d="M49.34,27.24c-.94-.93-32.34,2.78-33.17,4l-.08.11c0,.19.31,1.47.31,1.47s.27.27,1,.18c.36,1.14,1.21,3.69,2.73,4.71,2,1.33,8.1.08,9.84-.94,2.1-1.22,1.14-5.78,3.64-6.1,1.82-.24,2.28,3.82,4.13,4.63s8.74.44,10-1.2c.9-1.17.54-3.44.57-5a2,2,0,0,0,1.15-.59,6.49,6.49,0,0,0-.08-1.19ZM29.81,35.7c-1.49,1.29-7.91,2-9.19,1.35S18.38,33.18,19,32.72s10.29-2.29,11.44-1.87S30.76,34.87,29.81,35.7Zm16.91-1.9c-1,.88-7.19,1.53-8.84.66-1.06-.56-2.53-3.7-1.63-4.27s10.33-.92,11-.64S47.78,32.92,46.72,33.8Z" transform="translate(0.19 -0.07)"/><path class="cls-26" d="M37.2,30.08c-1.35.56,1.08,1.28,1.6,1.36a18.37,18.37,0,0,0,5.81-.15c1-.18,3.22-1.07,2.59-1.63C46.33,28.88,38.69,29.47,37.2,30.08Z" transform="translate(0.19 -0.07)"/><path class="cls-27" d="M46.32,27.8C34.15,28,20,30.85,20,30.85Z" transform="translate(0.19 -0.07)"/><path class="cls-8" d="M43.19,29.81c-.73.11-1.21.31-1,.64.39.64,4.67.32,5-.17S44.74,29.58,43.19,29.81Z" transform="translate(0.19 -0.07)"/><path class="cls-28" d="M38.49,33.61c-.46,0-.76.15-.66.42.22.55,2.89.63,3.1.27S39.47,33.55,38.49,33.61Z" transform="translate(0.19 -0.07)"/><path class="cls-28" d="M21.33,36.12c-.46,0-.76.15-.66.43.22.54,2.89.62,3.1.26S22.31,36.06,21.33,36.12Z" transform="translate(0.19 -0.07)"/><path class="cls-26" d="M29.81,31.16c-1.7-.25-9.64.78-10.3,1.67-.46.64,2,1,3.12.94a20.94,20.94,0,0,0,6-1.05C29.1,32.54,31.35,31.39,29.81,31.16Z" transform="translate(0.19 -0.07)"/><path class="cls-8" d="M26.31,31.4c-.71.18-1.17.43-.94.73.45.6,4.68-.13,4.92-.64S27.84,31,26.31,31.4Z" transform="translate(0.19 -0.07)"/></g></svg>