<svg id="Layer_1" data-name="Layer 1" xmlns="http://www.w3.org/2000/svg" xmlns:xlink="http://www.w3.org/1999/xlink" viewBox="0 0 66 66"><defs><style>.cls-1{fill:none;}.cls-2{clip-path:url(#clip-path);}.cls-3{fill:#507d52;}.cls-4{fill:#8d573e;}.cls-5{fill:#93b7f5;}.cls-6{fill:#2f58a1;}.cls-7{fill:#a1664c;}.cls-8{opacity:0.1;}.cls-9{fill:#ed9d6c;}.cls-10{fill:#c9beb7;}.cls-11{fill:#ffb97f;}.cls-12,.cls-16{fill:#bf3c1b;}.cls-12{opacity:0.2;}.cls-13,.cls-19{fill:#b54319;}.cls-13{opacity:0.35;}.cls-14{fill:#f0eae6;}.cls-14,.cls-28{opacity:0.7;}.cls-15{fill:#9e8f88;}.cls-16,.cls-18,.cls-21,.cls-26{opacity:0.3;}.cls-17{fill:#ffcb9e;}.cls-18{fill:#6e2210;}.cls-19{opacity:0.5;}.cls-20{fill:#121b21;}.cls-21{fill:#a67663;}.cls-22{fill:#ffd2ab;}.cls-23{fill:#7d8ba8;}.cls-24{fill:#4f2c1e;}.cls-25{fill:#3a3a4a;}.cls-26,.cls-27,.cls-28{fill:#fff;}.cls-29{fill:#c1c5c9;}</style><clipPath id="clip-path" transform="translate(-0.18 -0.28)"><circle class="cls-1" cx="33.19" cy="33.28" r="33"/></clipPath></defs><g class="cls-2"><rect class="cls-3" width="66" height="66"/><path class="cls-4" d="M15.78,66.28h7.35l-4.05-9.79C17.77,57.56,15.84,59.66,15.78,66.28Z" transform="translate(-0.18 -0.28)"/><path class="cls-4" d="M46.49,56.2l-4,10.08h7.77C50.21,59.66,47.79,57.27,46.49,56.2Z" transform="translate(-0.18 -0.28)"/><path class="cls-5" d="M41.87,54.49c-2.12-5.13-13.36-3.63-16.33-1.14s-3.79,5.49.67,9.86A26,26,0,0,0,30,66.28H35.6C38.33,63.34,43.13,57.57,41.87,54.49Z" transform="translate(-0.18 -0.28)"/><path class="cls-6" d="M35.9,58.34A2.55,2.55,0,0,0,33,57a2.67,2.67,0,0,0-2.24,2l1.61,1.63-1.65,5.57h6.44l-2.2-5.9Z" transform="translate(-0.18 -0.28)"/><path class="cls-4" d="M25.46,53.86a4.44,4.44,0,0,1,.54-1c-2.36,1-6.71,3.08-7.09,3.85s1.81,5,2.81,9.58h9.33C28.17,62.49,24.36,56.7,25.46,53.86Z" transform="translate(-0.18 -0.28)"/><path class="cls-4" d="M46.59,56.3a33.56,33.56,0,0,0-5.65-3.74c.14.32.61,1,.58,1.36-.37,4-3.08,9-5.15,12.36h8.37C45.49,62.48,47,56.79,46.59,56.3Z" transform="translate(-0.18 -0.28)"/><path class="cls-7" d="M43.21,62.2a25.4,25.4,0,0,0-1.85-3.14l3.24-1.94a14.35,14.35,0,0,0-4.53-5c.55,5.31-2.23,10.81-4.25,14.17h3.12A55.41,55.41,0,0,0,43.21,62.2Z" transform="translate(-0.18 -0.28)"/><path class="cls-7" d="M22.06,57.75l3.87,1.54a35.42,35.42,0,0,0-1.72,3.92,32.5,32.5,0,0,0,3.71,3.07h3.66c-2.11-3-5-8-5-13.55A10.15,10.15,0,0,0,22.06,57.75Z" transform="translate(-0.18 -0.28)"/><path class="cls-8" d="M26.53,56a9.77,9.77,0,0,0,3.81,5l3.13-3,3.34,2.83c3.18-2.82,3.81-4.6,4.07-5.6C41.71,52.07,25.14,51.55,26.53,56Z" transform="translate(-0.18 -0.28)"/><path class="cls-5" d="M26,52.89c-1.56,4,4.09,7.2,4.09,7.2L33.47,58l3.14,2s6.22-3.23,3.87-7.86C38.36,48,27.81,48.29,26,52.89Z" transform="translate(-0.18 -0.28)"/><path class="cls-9" d="M31,47.34a4.7,4.7,0,0,0-3.48,4.31,3.63,3.63,0,0,0,1,3.25,6.64,6.64,0,0,0,2.65,1.53c.74.23,2,1.1,2.27,1.1s.52-.37,1.22-.73c1-.52,2.46-1.22,3-2.32.82-1.61,1.55-4.8,0-6.06S32.93,46.92,31,47.34Z" transform="translate(-0.18 -0.28)"/><path class="cls-10" d="M30,9C8.85,10.57,12.23,40,18.27,38.73c4.47-.91,8.86-2.15,13.29-3.23,4.12-1,8.68-.19,12.89.12,3.3.24,3.25-1.16,3.43-3.83.33-5-.21-6.81,0-8.82C49,14.41,42.15,8.13,30,9Z" transform="translate(-0.18 -0.28)"/><path class="cls-11" d="M30.73,15.27c-7.79,1.47-13.33,12.62-12,23.12,1,7.87,7,16.52,16.17,15.92,9.32-.61,14-12.14,12.87-21.81C46.56,22,41.63,13.2,30.73,15.27Z" transform="translate(-0.18 -0.28)"/><path class="cls-11" d="M16.08,34c-3.83,1-2.32,6.61.79,7.75a7.54,7.54,0,0,0,3.08.35L20,42c.47-.73-.33-4.44-.56-5.21C18.87,34.88,17.91,33.51,16.08,34Z" transform="translate(-0.18 -0.28)"/><path class="cls-12" d="M44.31,18.25a35.83,35.83,0,0,0-13-2.81c-3.1-.07-7.74-.28-10.23,2-2,1.81-2.17,5.22-2.3,7.73-.05.95-.08,8.26.49,6.68,1-2.86,3.36-3.94,3.3-6.95,4.47,2,11.22,1.88,17.09,1.32C43.34,25.85,46.3,25,47,28,47.52,25.34,47.25,19.43,44.31,18.25Z" transform="translate(-0.18 -0.28)"/><path class="cls-13" d="M17.41,36.07c-.86-.4-3,.3-2,2,.54-1.55,1.49-.53,1.34.58-.11.74-.9.74-.12,1.7.43.52,1.3.33,1.74.06C19.75,39.52,18.45,36.56,17.41,36.07Z" transform="translate(-0.18 -0.28)"/><path class="cls-10" d="M51.74,11.12c-5,4-13.05-4.82-24.38-1.44-15.49,4.63-9.73,21-9.66,23a9.72,9.72,0,0,0,1.58,4.5,3.63,3.63,0,0,0,2.09,0c-1.39-1.3-1.94-4.83-.81-8.12.64-1.84,1.55-3.13,1.35-5.61C23.26,24.69,33,26.55,45.15,24a11.6,11.6,0,0,0,7.52-5.09c-1,0-1.75.18-3,.34C51.47,17.41,51.7,13.78,51.74,11.12Z" transform="translate(-0.18 -0.28)"/><path class="cls-14" d="M38.94,10.71c-5.54-1.57-14-1.73-18.38,2.8S20,22,34.77,21.81c13.52-.16,16.33-9.7,16.33-9.7C47.06,14,44.49,12.27,38.94,10.71Z" transform="translate(-0.18 -0.28)"/><path class="cls-15" d="M16.93,33.91c1.34.09,1.52,2.7,2.48,3.37a3.43,3.43,0,0,0,2-.09c-1-1.48-1.25-5.25-1.26-6.3C19.38,32.45,15.7,33.83,16.93,33.91Z" transform="translate(-0.18 -0.28)"/><path class="cls-14" d="M16.17,19.31a14.71,14.71,0,0,0-1.08,3.85c-.2,1.59-.35,3.84.84,5.12a2.46,2.46,0,0,0,4.13-1.06C21.7,22.28,16.17,19.31,16.17,19.31Z" transform="translate(-0.18 -0.28)"/><path class="cls-8" d="M26.05,53.22c1.57,5.88,14.41,7.45,17.17.87C45.27,49.21,24.85,48.7,26.05,53.22Z" transform="translate(-0.18 -0.28)"/><path class="cls-10" d="M47.65,31.34c.75,16-4.23,10-4.23,10l-1.54.61c.56,3.9-3.48,5.53-4.15,2.92l-3.79.2c-1,3.85-5.07-.41-5-2.71s-1.84-.56-1.84-.56c-2.51,2.45-5.95-3.67-6.26-5L19,36.63S19,58.2,37.58,56.47C53.45,55,48,30.58,48,30.58Z" transform="translate(-0.18 -0.28)"/><path class="cls-16" d="M31.23,44c1.21,3,7.52,2.82,8.44.39C37.54,45.14,32.88,45.49,31.23,44Z" transform="translate(-0.18 -0.28)"/><path class="cls-17" d="M37,42.44a19,19,0,0,1-4.76-.25,1.2,1.2,0,0,0-1.18,2c1.28,1.45,3.74,1.4,5.35,1.31,1.28-.07,4-.35,4.17-2.42C40.72,41.31,37.7,42.38,37,42.44Z" transform="translate(-0.18 -0.28)"/><path class="cls-18" d="M26.73,42c5.18,2.54,14.41,2.3,17.69-.55C40.31,42.26,30.75,42.82,26.73,42Z" transform="translate(-0.18 -0.28)"/><path class="cls-19" d="M24.35,34.41c0,.63,1.48.33,1.91.43-.38.39-1.5.38-2,.65s-.43.47.15.46A10.12,10.12,0,0,0,27,35.27C28,34.38,24.84,34.28,24.35,34.41Z" transform="translate(-0.18 -0.28)"/><path class="cls-19" d="M46.39,34.94c-.36-.27-1.29-.29-1.57-.68.37-.09,1.54.23,1.64-.39-.4-.14-3.09-.09-2.3.81a7.18,7.18,0,0,0,2.06.71C46.7,35.42,46.77,35.23,46.39,34.94Z" transform="translate(-0.18 -0.28)"/><path class="cls-20" d="M28.2,31.71c-2-.87-3.28,2.68-1.92,3.84a2.88,2.88,0,0,1,2,.19C29.61,35.05,29.68,32.36,28.2,31.71Z" transform="translate(-0.18 -0.28)"/><path class="cls-10" d="M36.37,38.24l-1.51-.05a9.91,9.91,0,0,0-5.22,1.11c-.78.38-2.92,1.77-3.31,2.58a33.07,33.07,0,0,0,15.86.45,6.86,6.86,0,0,0,2.66-1.06c-1.84-1.48-4.49-3.15-7-3.22A5.68,5.68,0,0,0,36.37,38.24Z" transform="translate(-0.18 -0.28)"/><path class="cls-21" d="M36.34,37.55c-1,0-1.44-.32-2.12,0s.32,1.61,2.09,1.54,2.57-1.29,2.17-1.63S37.45,37.52,36.34,37.55Z" transform="translate(-0.18 -0.28)"/><path class="cls-22" d="M35.71,31.91c-.88.05-1,2.41-1.34,3.53s-.51,2.17,0,2.5c1.14.81,3.49.3,4.17-.32.26-.24-.38-1.39-.89-2.54S36.7,31.85,35.71,31.91Z" transform="translate(-0.18 -0.28)"/><path class="cls-20" d="M44.32,31.64c-2-1.1-3.66,3.25-1.4,3.8a2.58,2.58,0,0,1,1.75-.5C45.43,34,45.42,32.23,44.32,31.64Z" transform="translate(-0.18 -0.28)"/><path class="cls-23" d="M27.62,32.21c-.82.28-.21,1.86.59,1.29C28.78,33.09,28.34,32,27.62,32.21Z" transform="translate(-0.18 -0.28)"/><path class="cls-23" d="M43.8,32.2c-.78.19-.33,1.71.45,1.24C44.82,33.1,44.49,32,43.8,32.2Z" transform="translate(-0.18 -0.28)"/><path class="cls-24" d="M42.55,27.37c-1.81.06-3.15,0-3.16,0,0,.86.39,2.58,1.75,2.41.82-.1,1.66-.33,2.47-.37a10.7,10.7,0,0,1,3,.27.51.51,0,0,0,.53-.81A6,6,0,0,0,42.55,27.37Z" transform="translate(-0.18 -0.28)"/><path class="cls-24" d="M28.16,27.6a6.62,6.62,0,0,0-5,1.73c-.24.21,0,1,.69.8a12,12,0,0,1,3.33-.4c.92,0,1.88.2,2.8.27,1.54.12,1.79-1.64,1.69-2.49C31.67,27.45,30.18,27.59,28.16,27.6Z" transform="translate(-0.18 -0.28)"/><path class="cls-22" d="M46.55,37a3.2,3.2,0,0,0-3-.75c-1.21.16-2.77.89-1.47,2.65.68.94,5.59,1,4.77-1.3A2.18,2.18,0,0,0,46.55,37Z" transform="translate(-0.18 -0.28)"/><path class="cls-22" d="M28.66,37.11c-.78-.94-2.17-.89-3.14-.72-1.26.23-2.87,1.08-1.46,3,.76,1,5.91.86,5-1.6A2.45,2.45,0,0,0,28.66,37.11Z" transform="translate(-0.18 -0.28)"/><path class="cls-14" d="M38.15,39.19a5,5,0,0,1-2.48.67c-.6,0-2.17-.79-3.09-.69A10.91,10.91,0,0,0,29,41c4.51,1,10.31,1.31,13.56-.39C41.46,39.75,39.33,38.65,38.15,39.19Z" transform="translate(-0.18 -0.28)"/><path class="cls-14" d="M43.42,46.93c-1.36-1.64-2.79-.23-2.73,1.49-2-2.79-5.64-.9-5.8.94-1.13-3.11-4.27-2.9-4.06-.75-.49-1.86-3.12-4.27-5.12-3.92-3.48.61-.51,5.16.67,6.72C30.6,57,47.75,56.48,46.54,45.56,46.23,42.76,43,43.44,43.42,46.93Z" transform="translate(-0.18 -0.28)"/><path class="cls-21" d="M42.61,31.62c.83-.06,1.66-.07,2.49-.08a6,6,0,0,0,2.11-.17c.87-.37.69-1.57.16-2.19s-1.38-.42-2.14-.35a19,19,0,0,0-2.89.52,16.92,16.92,0,0,0-3.66,1,4.42,4.42,0,0,1-2.7.81c-2.27-.08-4.18-1.48-6.44-1.7a19.14,19.14,0,0,0-7.08.16c-.61.17-2.43.87-1.19,1.51s3,.41,4.32.46c.61,0,1.22,0,1.83.08,2.15.19,5.46-.13,5.3,2.56-.1,1.84-1.28,3.74-2.78,4.1a19.46,19.46,0,0,1-4.43.48,7.66,7.66,0,0,1-3.2-.67c-.29-.13-1.16-.68-1.44-.29-.47.67,1.29,1.76,1.75,2a10.59,10.59,0,0,0,3.3.71c2.81.29,5.7.12,7.27-2.47.91-1.5,1.36-3.26,2.2-4.8,1.38-2.52,2,.91,2.35,2.41a7.88,7.88,0,0,0,1,2.38,5.36,5.36,0,0,0,3.95,2.07,17,17,0,0,0,4.5-.48c.5-.21.76-1,.17-1.29a27.74,27.74,0,0,0-3.25.33,13.15,13.15,0,0,1-1.66-.17,4.86,4.86,0,0,1-2-.93,3.67,3.67,0,0,1-1.16-4.35C39.88,31.8,41.37,31.71,42.61,31.62Z" transform="translate(-0.18 -0.28)"/><path class="cls-25" d="M20,29.38c-1.84.18-3.45-.23-3.86.17s.56,2.11.56,2.11a3.25,3.25,0,0,0,1.48.39c.21,1.28.35,4.6,2.84,6.54,2.08,1.62,8.54,1.7,10.48.57a7.79,7.79,0,0,0,3.59-6.09C35.81,27.41,22.62,29.13,20,29.38Zm11.53,8.26c-2.34,1.74-8.63,1.41-10.39-.5-1.35-1.47-1.78-4.69-1.05-5.2,2.25-1.56,11.08-1.59,13.22-.17C34.37,32.46,33.33,36.33,31.55,37.64Z" transform="translate(-0.18 -0.28)"/><path class="cls-25" d="M50.17,28.75c-2.25-.13-13.67-1.23-12.89,4.39.31,2.28,1.17,4.62,3.27,5.91,1.7,1,7.27.65,9-1.06,2.1-2.05,2.12-5.38,2.26-6.66a2.5,2.5,0,0,0,1.27-.46s.9-1.63.42-2.13S51.77,28.85,50.17,28.75Zm-.75,7.81c-1.46,2-6.87,2.61-8.94,1-1.57-1.23-2.59-5-1.71-5.78,1.8-1.52,9.41-1.9,11.4-.45C50.82,31.79,50.54,35,49.42,36.56Z" transform="translate(-0.18 -0.28)"/><path class="cls-26" d="M40.28,31.34c-1.28.49.94,1.31,1.43,1.42a16.57,16.57,0,0,0,5.41.1c1-.13,3-.92,2.48-1.5C48.82,30.55,41.69,30.8,40.28,31.34Z" transform="translate(-0.18 -0.28)"/><path class="cls-27" d="M45.86,31.33c-.68.08-1.14.26-1,.59.33.65,4.33.51,4.62,0S47.31,31.18,45.86,31.33Z" transform="translate(-0.18 -0.28)"/><path class="cls-28" d="M41.45,36.12c-.43,0-.73.06-.66.34.14.56,2.6.95,2.83.62S42.36,36.18,41.45,36.12Z" transform="translate(-0.18 -0.28)"/><path class="cls-28" d="M22.57,36.59c-.47-.05-.8,0-.74.31.13.56,2.83,1.06,3.1.74S23.57,36.68,22.57,36.59Z" transform="translate(-0.18 -0.28)"/><path class="cls-26" d="M32.33,31.51c-1.69-.48-9.92-.56-10.72.22-.57.56,1.92,1.25,3,1.35a22,22,0,0,0,6.21-.21C31.4,32.77,33.86,31.94,32.33,31.51Z" transform="translate(-0.18 -0.28)"/><path class="cls-27" d="M28.74,31.26c-.75.08-1.26.26-1.07.59.36.65,4.77.52,5.1,0S30.34,31.11,28.74,31.26Z" transform="translate(-0.18 -0.28)"/><path class="cls-25" d="M39,29.84a10,10,0,0,1-5.88.09c-1.85-.5,1,1.11,1.19,2s0,4,.58,2.26,1.79-1.78,2.53-.2.89-2.53,1.21-2.91S40.75,29.32,39,29.84Z" transform="translate(-0.18 -0.28)"/><path class="cls-29" d="M20.93,29.88c5-.08,9-.2,12.09.77C31,29.16,27.54,29,20.93,29.88Z" transform="translate(-0.18 -0.28)"/><path class="cls-29" d="M39.54,30.39c2.59-1.11,5.84-.83,10.2-1.23C43.91,29,41.2,28.93,39.54,30.39Z" transform="translate(-0.18 -0.28)"/></g></svg>