<svg id="Layer_1" data-name="Layer 1" xmlns="http://www.w3.org/2000/svg" xmlns:xlink="http://www.w3.org/1999/xlink" viewBox="0 0 66 66"><defs><style>.cls-1{fill:none;}.cls-2{clip-path:url(#clip-path);}.cls-21,.cls-22,.cls-3{fill:#fff;}.cls-4{fill:#c9beb7;}.cls-5{fill:#949494;}.cls-18,.cls-5{opacity:0.5;}.cls-6{fill:#2b221c;}.cls-7{fill:#ffcb9e;}.cls-8{fill:#bf3c1b;}.cls-14,.cls-21,.cls-8,.cls-9{opacity:0.3;}.cls-9{fill:#c94614;}.cls-10,.cls-18{fill:#45362e;}.cls-11{fill:#bf795c;}.cls-12{fill:#ffa073;}.cls-13{fill:#261b18;}.cls-14{fill:#b54d26;}.cls-15{fill:#ffdfc2;}.cls-16{fill:#e6d2c3;}.cls-16,.cls-22{opacity:0.7;}.cls-17{fill:#f5b37a;}.cls-19{opacity:0.15;}.cls-20{fill:#3a3a4a;}.cls-23{fill:#c1c5c9;}</style><clipPath id="clip-path" transform="translate(0.18 -0.07)"><circle class="cls-1" cx="32.82" cy="33.07" r="33"/></clipPath></defs><g class="cls-2"><rect class="cls-3" width="66" height="66"/><path class="cls-4" d="M16.85,66.07c0-.31.23-3.85.42-6.14a10.65,10.65,0,0,1,8.49-9.67l1,5.22C24,57,23.61,66.07,23.61,66.07Z" transform="translate(0.18 -0.07)"/><path class="cls-4" d="M48.77,66.07c0-.31-.23-3.85-.42-6.14a10.65,10.65,0,0,0-8.49-9.67l-1,5.22C41.63,57,42,66.07,42,66.07Z" transform="translate(0.18 -0.07)"/><path class="cls-4" d="M25.21,50.52c-4.56,3-3.52,7.88-2.3,15.55h19.8c1.34-7.25,2.5-13.54-2-15.94C35.76,47.46,28.51,48.38,25.21,50.52Z" transform="translate(0.18 -0.07)"/><path class="cls-5" d="M32.82,56.88c9.33,0,12-13.32-.79-13.32C22.82,43.56,22.84,56.88,32.82,56.88Z" transform="translate(0.18 -0.07)"/><path class="cls-4" d="M32.81,55.72c10,0,12.84-12.61-.84-12.61C22.13,43.11,22.16,55.72,32.81,55.72Z" transform="translate(0.18 -0.07)"/><path class="cls-6" d="M48.05,16.5a12.37,12.37,0,0,0-2.74-4.83C40.15,6,31.58,5.4,21.89,9.59a18,18,0,0,0,5-.21c-5.08,2.35-11.1,5.43-12.42,11.42-3.25,14.83,9,8,13.13,9.18,4.71,1.34,16.42-.18,19.7-5.06C48.81,22.73,48.89,19.42,48.05,16.5Z" transform="translate(0.18 -0.07)"/><path class="cls-7" d="M17.83,38.63c1.09,8,7.29,16.86,16.63,16.19,9.53-.67,14.27-12.49,13-22.38-1.34-10.75-6.43-19.71-17.57-17.53C22,16.46,16.37,27.9,17.83,38.63Z" transform="translate(0.18 -0.07)"/><path class="cls-8" d="M23.89,24c-1.12.58-4.09,2-5.61-.38-.72-1.12-.19-2.82.26-4.11.54-1.57,2.34-2.45,3.8-3.09,2.66-1.17,5.75-1,8.61-1a36.15,36.15,0,0,1,9.47,1.45c2,.59,5.85,1.11,6.55,3.41.89,2.9-2.21,3.28-4.37,3.28C37.43,23.56,26.33,22.7,23.89,24Z" transform="translate(0.18 -0.07)"/><path class="cls-7" d="M15.9,42.08a7.75,7.75,0,0,0,3.16.35l.06-.1c.47-.74-.18-4.9-.42-5.68-.61-2-1.77-3-3.65-2.49C11.14,35.24,12.71,40.94,15.9,42.08Z" transform="translate(0.18 -0.07)"/><path class="cls-9" d="M17.42,40.68c1.42-.9.07-3.93-1-4.42-.88-.41-3.07.32-2,2,.55-1.59,1.52-.55,1.37.58-.1.76-.92.77-.11,1.75C16.08,41.15,17,41,17.42,40.68Z" transform="translate(0.18 -0.07)"/><path class="cls-6" d="M42.43,11.84c-6-3.15-15.25-2.33-20.3,1.42-3.43,2.55-5.24,5.61-5,9.89.11,2.35,3.27,2.71,4.6,1,1.14-1.44,2.74-1.81,4.56-1.87,3-.12,14.84-.67,17.62.28,1.52.52,3.55,1.31,3.85-1.11a9.07,9.07,0,0,0-2.19-7.33A11.69,11.69,0,0,0,42.43,11.84Z" transform="translate(0.18 -0.07)"/><path class="cls-10" d="M46.58,20.22a10.68,10.68,0,0,0-.34-3.65,8.5,8.5,0,0,0-2.43-3.72,15.06,15.06,0,0,0-8.53-4.11c-1.6-.15-4.82-.09-6.34.59a20.74,20.74,0,0,1,2.27.93,33.43,33.43,0,0,0-6.44,2.1c-.64.29-5.89,3.86-5.89,3.86,1.46.79,3.18.5,4.76.15a16.12,16.12,0,0,1,7.21-.2c2.25.51,4.27,1.63,6.5,2.15.07-1-.89-1.89-1.32-2.57,1.28,0,6.17,3.07,7.17,3.89-.24-.86-1.43-2.67-1.56-3.58C42.89,16.24,45.72,18.76,46.58,20.22Z" transform="translate(0.18 -0.07)"/><path class="cls-11" d="M21,24.79c-.89,5-1.6,7.44-.95,12,0,0-2.3-2.51-4.17-2.73a30.65,30.65,0,0,1-.28-6.16C15.69,25.44,19.24,24.77,21,24.79Z" transform="translate(0.18 -0.07)"/><path class="cls-12" d="M46,37.12a1.83,1.83,0,0,1,.27.6c.56,2.19-4.4,1.44-5,.48-1.1-1.79.57-2.22,1.82-2.19A3.55,3.55,0,0,1,46,37.12Z" transform="translate(0.18 -0.07)"/><path class="cls-12" d="M27.4,36.88a1.7,1.7,0,0,1,.42.53C29,39.49,23.73,40,22.88,39.2c-1.58-1.53,0-2.4,1.27-2.7C25.13,36.27,26.54,36.12,27.4,36.88Z" transform="translate(0.18 -0.07)"/><path class="cls-13" d="M25.59,35.73a2.85,2.85,0,0,0-2-.17c-1.4-1.19-.11-4.83,1.94-4C27,32.27,27,35,25.59,35.73Z" transform="translate(0.18 -0.07)"/><path class="cls-14" d="M37.8,38.07c-.51-.62-1.23.07-2.56.09s-1.67-.54-2.51,0,.36,2.1,2.48,2S38.24,38.62,37.8,38.07Z" transform="translate(0.18 -0.07)"/><path class="cls-15" d="M34.93,33.65c-2.25-.19-2.42,4.57-1.91,5,1.26,1,3.9.3,4.67-.51C38,37.8,37.08,33.84,34.93,33.65Z" transform="translate(0.18 -0.07)"/><path class="cls-13" d="M45.24,31.47c1.12.68,1.11,3,.27,3.91a2.69,2.69,0,0,0-2.17,0C41.62,34.25,43.15,30.22,45.24,31.47Z" transform="translate(0.18 -0.07)"/><path class="cls-16" d="M24.51,32.5c.74-.25,1.2.89.61,1.32C24.31,34.4,23.68,32.79,24.51,32.5Z" transform="translate(0.18 -0.07)"/><path class="cls-16" d="M44.17,32.17c.73-.15,1,1,.41,1.32C43.74,34,43.35,32.33,44.17,32.17Z" transform="translate(0.18 -0.07)"/><path class="cls-6" d="M27.41,27.12a1.61,1.61,0,0,1,1.29,2.22c-.36,1.06-2,.57-4.27.68-2.45.13-3.21.45-3.36-.25S21,28,23.2,27.37A10.22,10.22,0,0,1,27.41,27.12Z" transform="translate(0.18 -0.07)"/><path class="cls-6" d="M41.84,27.24a1.62,1.62,0,0,0-1.16,2.29c.43,1,2,.45,4.31.44,2.45,0,3.23.26,3.33-.45s0-1.79-2.26-2.27A10.34,10.34,0,0,0,41.84,27.24Z" transform="translate(0.18 -0.07)"/><path class="cls-6" d="M41.33,40.08c.81.57,2.87,2.76,4.56,1.14.81-.77,2.11-3.94,1.68-8.11,2.09,1.43,2,5.51,1.56,7.73-.19.91-.83,1.93-.76,2.81.11,1.38,1.2,2.82,1.43,4.24.27,1.69.25,4-1.76,4.55.22,2.13-.39,3.34-2.75,3.11.74,2.69-2,4.43-4.2,2.68.2,2.89-6,1.65-7.08.3-.3,1.37-2.39,1.51-3.5,1.27a4.4,4.4,0,0,1-2.84-2.54c-.8.9-2.81.9-3.79.27-1.26-.81-1.18-2.38-1-3.73-2.45.68-2.7-2.07-2.24-3.76-1.67-.37-1.83-3.39-1.83-4.78,0-1.7-1.42-10.46.33-11,1.55-.48,1.33,1.71,1.49,2.69,1,6.17,5.46,7.18,7.28,4.79,2.35-3.09,4-2.13,7.49-2.18C37.94,39.24,39.17,38.57,41.33,40.08Z" transform="translate(0.18 -0.07)"/><path class="cls-17" d="M41.49,45c-.2-.87-2.22-1.25-2.86-1.9-.45,1.12-2.44.41-3.19-.06-.74.81-2.84,1.05-3.63.26-.14.63-2.19,1.18-2.29,2C31.3,48.27,40.5,47.17,41.49,45Z" transform="translate(0.18 -0.07)"/><path class="cls-11" d="M32,44.57c.85-.42,5.47-.81,6.54-.25C36.14,45.13,32,44.57,32,44.57Z" transform="translate(0.18 -0.07)"/><path class="cls-18" d="M44.43,50.86c.21.63.77,1.88.39,2.49-.75,1.2-3.2.4-4.1-.07.33.65,1.29,1.81.62,2.53-1.09,1.15-2.67-1.19-3.57-.8-.57.25-.06,1.7-1,2.1-1.25.55-2.4-1.32-3.37-1.76a2.76,2.76,0,0,1-2.68,1.19c-1.57-.23-1.42-1.15-1.78-2.39-1.26,1.36-3.38,2-3.58-.49-1.64,2.13-1.81-2.41-1.06-3.58a10.58,10.58,0,0,1,2.06-2.32c1.21-1,1.83-.62,3.3-.27a21.4,21.4,0,0,0,8,.72c2.92-.5,5.24-2.63,7.52,0,.39.47,1.37,1.51,1.13,2.22C46.17,51,44.63,51.48,44.43,50.86Z" transform="translate(0.18 -0.07)"/><path class="cls-19" d="M39.72,38.11a4.07,4.07,0,0,1-1-1.2,4,4,0,0,1-.16-3.22c.53-1.43,2.05-1.52,3.31-1.61.84-.06,1.69-.07,2.53-.09a5.92,5.92,0,0,0,2.14-.17c.88-.37.7-1.59.16-2.21s-1.4-.44-2.17-.36a20.66,20.66,0,0,0-2.93.52,17.73,17.73,0,0,0-3.73,1,4.42,4.42,0,0,1-2.74.82c-2.3-.08-4.24-1.5-6.54-1.72a19.1,19.1,0,0,0-7.19.16c-.61.17-2.46.88-1.2,1.53s3.05.42,4.39.47c.61,0,1.24,0,1.85.08,2.19.19,5.55-.13,5.39,2.6-.11,1.87-1.31,3.8-2.83,4.16a19.43,19.43,0,0,1-4.49.49,7.78,7.78,0,0,1-3.26-.68c-.29-.14-1.17-.69-1.45-.29-.48.67,1.3,1.78,1.77,2a10.42,10.42,0,0,0,3.35.73c2.85.29,5.79.12,7.38-2.51.92-1.52,1.38-3.31,2.23-4.88,1.4-2.55,2,.93,2.4,2.45a7.63,7.63,0,0,0,1,2.41,5.4,5.4,0,0,0,4,2.11,17.05,17.05,0,0,0,4.56-.49c.51-.21.78-1.05.18-1.3a28.77,28.77,0,0,0-3.3.32,10.51,10.51,0,0,1-1.68-.17A4.9,4.9,0,0,1,39.72,38.11Z" transform="translate(0.18 -0.07)"/><path class="cls-20" d="M15.56,32.12a3.28,3.28,0,0,0,1.51.4c.2,1.29.35,4.66,2.88,6.63,2.11,1.65,8.67,1.73,10.63.58a7.87,7.87,0,0,0,3.65-6.18c.72-5.74-12.67-4-15.32-3.74C17,30,15.41,29.57,15,30S15.56,32.12,15.56,32.12Zm3.44.29c2.29-1.59,11.26-1.62,13.42-.18,1.06.7,0,4.63-1.8,6-2.38,1.76-8.77,1.42-10.55-.51C18.7,36.2,18.26,32.93,19,32.41Z" transform="translate(0.18 -0.07)"/><path class="cls-20" d="M52.92,29.16c-.38-.39-1.77.1-3.39,0-2.29-.13-13.89-1.25-13.1,4.45.32,2.32,1.19,4.69,3.33,6,1.72,1.06,7.38.67,9.15-1.07,2.12-2.09,2.15-5.46,2.29-6.76a2.64,2.64,0,0,0,1.29-.47S53.4,29.66,52.92,29.16Zm-4.16,7.93c-1.48,2-7,2.65-9.08,1C38.09,36.84,37.06,33,38,32.22c1.82-1.54,9.56-1.93,11.57-.45C50.18,32.25,49.9,35.54,48.76,37.09Z" transform="translate(0.18 -0.07)"/><path class="cls-21" d="M39.48,31.8c1.43-.55,8.67-.81,9.46,0,.56.59-1.55,1.38-2.52,1.51a16.26,16.26,0,0,1-5.49-.1C40.44,33.13,38.18,32.3,39.48,31.8Z" transform="translate(0.18 -0.07)"/><path class="cls-3" d="M45.15,31.79c1.47-.16,4,.18,3.7.64s-4.35.61-4.69,0C44,32.05,44.45,31.86,45.15,31.79Z" transform="translate(0.18 -0.07)"/><path class="cls-22" d="M40.67,36.65c.92.05,2.44.64,2.21,1S40.14,37.56,40,37C39.93,36.71,40.24,36.62,40.67,36.65Z" transform="translate(0.18 -0.07)"/><path class="cls-22" d="M21.5,37.12c1,.1,2.66.74,2.39,1.07s-3-.18-3.14-.74C20.68,37.15,21,37.08,21.5,37.12Z" transform="translate(0.18 -0.07)"/><path class="cls-21" d="M20.53,32.19c.81-.79,9.17-.71,10.88-.23,1.55.45-.95,1.28-1.5,1.39a23.08,23.08,0,0,1-6.31.22C22.47,33.46,20,32.76,20.53,32.19Z" transform="translate(0.18 -0.07)"/><path class="cls-3" d="M27.76,31.72c1.63-.16,4.42.18,4.09.65s-4.8.6-5.17-.06C26.49,32,27,31.79,27.76,31.72Z" transform="translate(0.18 -0.07)"/><path class="cls-20" d="M32.22,30.37a10.26,10.26,0,0,0,6-.1c1.77-.53,0,.92-.37,1.3s-.48,4.57-1.23,3-2-1.53-2.57.2-.37-1.34-.59-2.29S30.35,29.86,32.22,30.37Z" transform="translate(0.18 -0.07)"/><path class="cls-23" d="M32.11,31.1c-2.11-1.51-5.56-1.65-12.28-.79C24.91,30.23,29,30.12,32.11,31.1Z" transform="translate(0.18 -0.07)"/><path class="cls-23" d="M38.74,30.83c1.67-1.48,4.43-1.37,10.35-1.24C44.66,30,41.36,29.7,38.74,30.83Z" transform="translate(0.18 -0.07)"/></g></svg>