<svg id="Layer_1" data-name="Layer 1" xmlns="http://www.w3.org/2000/svg" xmlns:xlink="http://www.w3.org/1999/xlink" viewBox="0 0 66 66"><defs><style>.cls-1{fill:none;}.cls-2{clip-path:url(#clip-path);}.cls-3{fill:#fff;}.cls-4{fill:#3a3a4a;}.cls-5{fill:#ffb224;}.cls-6{fill:#0d73b5;}.cls-7{fill:#f5ab76;}.cls-8{opacity:0.15;}.cls-9{fill:#e62628;}.cls-10{fill:#ff3b3b;}.cls-11{fill:#b8122e;}.cls-12{fill:#3d2216;}.cls-13{fill:#ffbc82;}.cls-14{fill:#bf3c1b;opacity:0.3;}.cls-15{fill:#b54d26;opacity:0.4;}.cls-16{fill:#fa9769;}.cls-17{fill:#4f4f4f;}.cls-18{fill:#ffd4ad;}.cls-19{fill:#edf0ef;opacity:0.7;}.cls-20{fill:#b5300f;opacity:0.35;}.cls-21{fill:#8f2a25;}.cls-22{fill:#fff7ea;}.cls-23{fill:#ecdcc4;}.cls-24{fill:#593424;}</style><clipPath id="clip-path" transform="translate(0.18 -0.07)"><circle class="cls-1" cx="32.82" cy="33.07" r="33"/></clipPath></defs><g class="cls-2"><rect class="cls-3" width="66" height="66"/><path class="cls-4" d="M22.86,52.63c-2.89,1.61-5,6.18-5.56,13.44h6.91c.2-3.76.57-7.9,1.43-8.85Z" transform="translate(0.18 -0.07)"/><path class="cls-4" d="M45.47,52.63l-2.78,4.59c.86,1,1.22,5.09,1.43,8.85H51C50.49,58.81,48.36,54.24,45.47,52.63Z" transform="translate(0.18 -0.07)"/><path class="cls-5" d="M41.89,51.34c-4.89-2.49-12-1.63-15.28.38-4.45,2.75-3.49,7.29-2.3,14.35H43.88C45.18,59.37,46.26,53.57,41.89,51.34Z" transform="translate(0.18 -0.07)"/><path class="cls-6" d="M33.72,46.77c-7.72,0-8,10.91.37,10.91C41.9,57.68,44.45,46.77,33.72,46.77Z" transform="translate(0.18 -0.07)"/><path class="cls-7" d="M36.58,45.77c-1.71-.44-4.48-.23-5.91,1.11-5,4.65-.13,9.22,3.76,9.22s5.38-3.33,5.22-5.89C39.53,48.19,38.35,46.22,36.58,45.77Z" transform="translate(0.18 -0.07)"/><path class="cls-4" d="M46.43,53.46c-.41-1-4.74-2.53-4.74-2.53A32.84,32.84,0,0,0,37.5,66.07h6.78C45.1,58.5,46.8,54.38,46.43,53.46Z" transform="translate(0.18 -0.07)"/><path class="cls-4" d="M21.86,53.46c-.37.92,1.33,5,2.15,12.61h6.77a32.72,32.72,0,0,0-4.19-15.14S22.27,52.44,21.86,53.46Z" transform="translate(0.18 -0.07)"/><path class="cls-8" d="M41.61,54.53a3.9,3.9,0,0,0-3.38-2.12,8.4,8.4,0,0,0-4.45,1c1.86.92,2.34,6.4,2.49,9.85,0,.89,0,1.87,0,2.85h4.82C42.08,61.88,42.62,56.42,41.61,54.53Z" transform="translate(0.18 -0.07)"/><path class="cls-9" d="M38.41,52.23a9.26,9.26,0,0,0-4.66,1.1c2,.86,3,5.17,3.3,10.09,0,.64,0,1.61.05,2.65h6.83c0-4.27-.84-10-1.91-11.83A4.11,4.11,0,0,0,38.41,52.23Z" transform="translate(0.18 -0.07)"/><path class="cls-10" d="M42.17,59c-.88,0-.59,2.7-.64,3.28a4.54,4.54,0,0,0-1-1.53,5.71,5.71,0,0,0-.91,2.6c-.3,1.31-1.15-.29-1.47-.6,0,0-.09,2.55-.08,2.67a5.48,5.48,0,0,1,0,.67h5.2c0-.09,0-.19,0-.27C43.26,64.93,43.39,59.05,42.17,59Z" transform="translate(0.18 -0.07)"/><path class="cls-8" d="M25.71,57.39c2.36,3.74,8.56,4.51,11.55,3.59a9.07,9.07,0,0,0,6.42-6.38C46.13,44.33,19.05,46.84,25.71,57.39Z" transform="translate(0.18 -0.07)"/><path class="cls-9" d="M25.26,56.57c2.49,3.7,9.06,4.46,12.23,3.54,2.43-.71,5.85-2.55,6.82-6.36C46.93,43.54,18.22,46.1,25.26,56.57Z" transform="translate(0.18 -0.07)"/><path class="cls-11" d="M27.59,51.49c1.74,1.76,6.29,2.76,9.32,2,1.71-.42,4.54-.93,5.3-2.68C44.24,46.15,22.68,46.5,27.59,51.49Z" transform="translate(0.18 -0.07)"/><path class="cls-10" d="M37.33,54.37c-.32-.36-1.64.14-3.08.12-2.63,0-2.67-.69-4.09-.73-.31,1.39,2.74,2.17,3.43,2.39-.73,0-2.25-.2-2.85.4-.87.87,0,2,.72,2.31a7,7,0,0,0,3.9.35c.4-.08,1.39-.22,1.53-.8s-.3-.43-.26-.88.54-.55.51-1-.4-.49-.86-.51C36.63,55.82,37.79,54.91,37.33,54.37Z" transform="translate(0.18 -0.07)"/><path class="cls-12" d="M50.08,17.43A10.34,10.34,0,0,0,45,14.84a23.94,23.94,0,0,0-1.72-5.25C42.52,10.68,42,12.07,41,13A8.83,8.83,0,0,0,36.7,8.65a4.31,4.31,0,0,1-1.84,3.28,32,32,0,0,0-5.43-3.27c1.56,3.82-3.69,1.2-5.55,1.9.29.7,1.48,1.69,1.44,2.33-4.28-.81-8.95,2.67-10.72,6.67a5.83,5.83,0,0,1,3.23-.69c-2.31-.1-3.79,4.77-4.3,6.46-1.26,4.14-.82,8.38-.07,12.57.63,3.5.75,5.17-1.25,8.1a10.17,10.17,0,0,0,3.87-.43,11,11,0,0,1-1.24,6.13c2.18,0,3.09-.57,5-1.34.19.8.1,2.7.49,3.43a25.25,25.25,0,0,0,3.37-2.9,10.48,10.48,0,0,0,.95,1.5c1.72-3.19,2.89-6.93,6.34-8.91a7.58,7.58,0,0,1,7.75,0c3.72,2,3.68,6.41,7.71,8.26a13.13,13.13,0,0,0,.33-3.56,9.85,9.85,0,0,0,4,2.76c-.09-2.34,0-4.14-.93-6.33h0s0,0,0,0h0a24,24,0,0,0,2.8.88c-.83-2.25-2.36-4.09-2.22-6.69,0-.74,1.24-3.31,2.05-5.8s1.29-5.09-.46-5.32a4.09,4.09,0,0,1,2.16.88C53.91,24.2,53.62,20.38,50.08,17.43Z" transform="translate(0.18 -0.07)"/><path class="cls-12" d="M49.82,44.61h0S49.79,44.57,49.82,44.61Z" transform="translate(0.18 -0.07)"/><path class="cls-13" d="M31.53,16.11C24.15,17.55,19,28.16,20.3,38.12c1,7.45,6.77,15.63,15.43,15C44.57,52.51,49,41.55,47.82,32.38,46.58,22.41,41.86,14.1,31.53,16.11Z" transform="translate(0.18 -0.07)"/><path class="cls-14" d="M41,17.68a33.44,33.44,0,0,0-8.94-1.41c-2.7,0-5.63-.19-8.14.94-1.38.63-3.07,1.48-3.59,3-.64,1.9-.33,4.29,0,6.24a17,17,0,0,0,2,6.16A7.67,7.67,0,0,1,24,28.52c.74-.91,1.79-2.58,3-2.78a13.32,13.32,0,0,1-2.94,5.47c1.18.13,2.63-.83,3.71-1.23a23.06,23.06,0,0,0,2.53-1.28c0,.71-.58,1.32-.72,2a21.39,21.39,0,0,0,8.07-3.44c1.55-1,4.26-2.29,6-1.11.8.54,1,1.63,1.91,2,.33-.56.51-1.21.87-1.73.74.78,1.51-1,1.68-1.55C49.7,20.07,44.4,18.69,41,17.68Z" transform="translate(0.18 -0.07)"/><path class="cls-13" d="M17.73,34c-3.63,1-2.17,6.29.79,7.35a7.08,7.08,0,0,0,2.92.32l.06-.09c.43-.69-.17-4.54-.39-5.27C20.55,34.45,19.46,33.49,17.73,34Z" transform="translate(0.18 -0.07)"/><path class="cls-15" d="M19,35.92c-.82-.38-2.85.3-1.89,1.89.5-1.48,1.4-.51,1.26.54-.09.7-.85.71-.1,1.62.41.49,1.23.31,1.65,0C21.24,39.18,20,36.37,19,35.92Z" transform="translate(0.18 -0.07)"/><path class="cls-12" d="M47,18.55c-1.57-1.08-2.44-2.78-4.26-3.68a21.57,21.57,0,0,0-5.2-1.77A25.09,25.09,0,0,0,30,12.87c-4.18.5-9.22,2.48-10.54,6.91-.81,2.72-.39,5.87-.18,8.65.08,1.07-.16,5.1.72,5.94.53.49.71,1.33,1.11,1.94a6.24,6.24,0,0,0,1.65,1.82c-.1-.79-.44-1.59-.5-2.38.34.27.73.77,1.22.7a12.77,12.77,0,0,1-.7-7.39,8.11,8.11,0,0,1,3.12-4.32c.47-.37,1.59-1.29,2.23-.8s.06,1.84-.16,2.39a9.25,9.25,0,0,1-3.47,4.42c1.38,0,3.06-.91,4.24-1.58a9.92,9.92,0,0,0,3.12-2.65A6.79,6.79,0,0,1,30,29.91a8.12,8.12,0,0,0,2.54-.77,12.79,12.79,0,0,0,3-1.7c.59-.41,1.2-.81,1.8-1.2a18.38,18.38,0,0,1,3.24-1.33c1-.41,2.42-.93,3.42-.23.24.18,1.73,2.53,1.3,2.68a9.69,9.69,0,0,0,1.76-.89c1.15-.68,2.26-1.46,2.49-2.84A4.34,4.34,0,0,0,49,20.72,7,7,0,0,0,47,18.55Z" transform="translate(0.18 -0.07)"/><path class="cls-16" d="M46.5,36a3.3,3.3,0,0,0-2.87-.29c-1.13.28-2.51,1.08-1.09,2.41.76.71,5.38.17,4.34-1.66A1.56,1.56,0,0,0,46.5,36Z" transform="translate(0.18 -0.07)"/><path class="cls-16" d="M29.81,36.77a3.49,3.49,0,0,0-2.85-1c-1.22,0-2.83.45-1.72,2.17.58.92,5.43,1.55,4.84-.57A1.67,1.67,0,0,0,29.81,36.77Z" transform="translate(0.18 -0.07)"/><path class="cls-17" d="M28.91,32c-2.14-.64-3.49,2-2,2.87A4.22,4.22,0,0,1,29,35,1.56,1.56,0,0,0,28.91,32Z" transform="translate(0.18 -0.07)"/><path class="cls-12" d="M46.68,28.74c-1.07-.65-2.46-1.33-3.7-.9a7.79,7.79,0,0,0-1.4.77,1.77,1.77,0,0,1-2,.11c0,3.21,2.84,1.64,4.85,1.53,1-.06,2.53.47,3.47-.08C47.87,29.48,47.22,29.07,46.68,28.74Z" transform="translate(0.18 -0.07)"/><path class="cls-12" d="M30.14,28.82a8.19,8.19,0,0,0-1.41-.75c-1.25-.42-2.63.27-3.7.94-.53.33-1.17.75-1.23,1.44.94.54,2.43,0,3.47,0,2,.09,4.82,1.62,4.83-1.58A1.75,1.75,0,0,1,30.14,28.82Z" transform="translate(0.18 -0.07)"/><path class="cls-15" d="M36.69,37.92c-1.11,0-1.55-.5-2.33,0s.34,1.94,2.3,1.87,2.82-1.42,2.41-1.92S37.93,37.9,36.69,37.92Z" transform="translate(0.18 -0.07)"/><path class="cls-18" d="M36.4,33.74c-2.09-.18-2.24,4.23-1.77,4.61,1.17.92,3.62.27,4.33-.47C39.24,37.58,38.39,33.91,36.4,33.74Z" transform="translate(0.18 -0.07)"/><path class="cls-17" d="M45,31.83c-2.24-.93-3.89,2.07-2,2.92a4.14,4.14,0,0,1,2.34,0A1.74,1.74,0,0,0,45,31.83Z" transform="translate(0.18 -0.07)"/><path class="cls-19" d="M28.15,32.45c-.87.21-.21,1.39.64,1C29.4,33.1,28.92,32.27,28.15,32.45Z" transform="translate(0.18 -0.07)"/><path class="cls-19" d="M44.1,32.16c-.89.12-.46,1.33.44,1C45.19,32.9,44.88,32.05,44.1,32.16Z" transform="translate(0.18 -0.07)"/><path class="cls-20" d="M43.31,39.53c-.33.09.3.18,1.13.34a.47.47,0,0,1,.33.19C40.91,41.48,32.35,42.47,27,41l.14-.12c.76-.49,1.88-.56,1.56-.7a6.49,6.49,0,0,0-2.6.47c-.65.43-.59,1.75-.05,1.79s.41-.67.75-1.2c.44,1.42,2.58,7,9,6.86,4.82-.08,6.27-1.7,6.37-4.07.06-1.31,1.65-3,2.65-3.79.11.4-.16,1,.21,1,.54.05,1-.81.65-1.49S43.31,39.53,43.31,39.53Z" transform="translate(0.18 -0.07)"/><path class="cls-21" d="M28.07,41.91s2.29,5.79,8,5.41C41.2,47,41.73,45,41.9,43.56a3.67,3.67,0,0,1,1.6-2.66A31.16,31.16,0,0,1,28.07,41.91Z" transform="translate(0.18 -0.07)"/><path class="cls-22" d="M30,42.45A3.1,3.1,0,0,0,31.89,45a11.39,11.39,0,0,0,7.37.07c1.72-.53,2.61-3.44,2.61-3.44A49.68,49.68,0,0,1,30,42.45Z" transform="translate(0.18 -0.07)"/><path class="cls-22" d="M37.24,45.16a16,16,0,0,1-5.71-.57c-1-.35-1,.19-.76.66,0,0,.39,2,4.85,2.14,3.91.18,5.5-2.36,5.05-2.85S39.69,45.05,37.24,45.16Z" transform="translate(0.18 -0.07)"/><path class="cls-23" d="M30,42.43a3,3,0,0,0,.23.82s9.2-1.22,11.28-.54a4.45,4.45,0,0,0,.41-1.07A58,58,0,0,1,30,42.43Z" transform="translate(0.18 -0.07)"/><path class="cls-23" d="M32,44.59c3.91,1.75,8.09-.14,8.09-.14A16.65,16.65,0,0,1,32,44.59Z" transform="translate(0.18 -0.07)"/><path class="cls-24" d="M48.55,17.72c-.54-.41-5.11-2.71-5.28-1.54a9.47,9.47,0,0,0-.45-3c-.78.17-1.37,1.62-2,2.14-.35-1.09-1.6-3.52-2.75-3.81a7.8,7.8,0,0,1-2.13,3.37c-.81-.47-1.4-1.69-2.17-2.31a7.46,7.46,0,0,0-2.51-1.35,5.83,5.83,0,0,1,.06,1.91,8,8,0,0,0-4.7-1.29,4.58,4.58,0,0,1,.47,1.94s-3.07.51-3.34.55a12.76,12.76,0,0,0-3.05.92,9.5,9.5,0,0,0-3.28,2,8,8,0,0,1,3.41.25,33.68,33.68,0,0,0-2.32,3,19.94,19.94,0,0,0-1.31,3.22A36.82,36.82,0,0,1,21.37,21c-.21,1.09-.8,2.37-.55,3.52a19.89,19.89,0,0,0,3.94-2.11A1.89,1.89,0,0,0,25.6,21c0-.34-.27-1.93-.7-2,3.05.26,6.41,4.19,5.09,7.39a13.75,13.75,0,0,0,2-2.92c.48-1.29-.12-2.62-.57-3.85A10,10,0,0,1,34,23.58a16.45,16.45,0,0,0,1.34-1.88c.28-.46.36-1,.87-1.31a6.33,6.33,0,0,1-.19,3.8,17.24,17.24,0,0,1-1.21,1.88,36.51,36.51,0,0,0,4.48-1.87,5.72,5.72,0,0,0,3.58-5.69c.29.75,1.21,1.44,1.65,2.2A15.82,15.82,0,0,1,46,24.86a9.83,9.83,0,0,0,1-3,39.44,39.44,0,0,0,4.75,2.68A9.76,9.76,0,0,0,50,21.52c.69-.05,1.27.28,1.95.27A17.66,17.66,0,0,0,48.55,17.72Z" transform="translate(0.18 -0.07)"/></g></svg>