<svg xmlns="http://www.w3.org/2000/svg" xmlns:xlink="http://www.w3.org/1999/xlink" viewBox="0 0 66 66"><defs><style>.cls-1{fill:none;}.cls-2{isolation:isolate;}.cls-3{clip-path:url(#clip-path);}.cls-4{fill:#c3b1bf;}.cls-5{fill:#e62628;}.cls-6{fill:#c21f23;}.cls-7{fill:#1f1a17;}.cls-8{fill:#ffc490;}.cls-15,.cls-9{fill:#d14f2e;}.cls-13,.cls-9{opacity:0.4;}.cls-10{fill:#b55019;opacity:0.35;mix-blend-mode:multiply;}.cls-11{fill:#ffd1a7;}.cls-12{fill:#a88888;}.cls-13,.cls-16{fill:#bc551e;}.cls-14{fill:#fab27b;}.cls-15{opacity:0.2;}.cls-16{opacity:0.3;}.cls-17{fill:#8f322d;}.cls-18{fill:#fff3e2;}.cls-19{fill:#e8dac5;}.cls-20{fill:#332823;}</style><clipPath id="clip-path" transform="translate(0.19 -0.28)"><circle class="cls-1" cx="32.83" cy="33.28" r="33"/></clipPath></defs><g class="cls-2"><g id="Layer_1" data-name="Layer 1"><g class="cls-3"><rect class="cls-4" width="66" height="66"/><path class="cls-5" d="M44.15,57.32c-2.21-4.85-16-5.92-20.07-.7-1.71,2.19-1.73,6-1.22,9.66H45C45.34,63.12,45.29,59.82,44.15,57.32Z" transform="translate(0.19 -0.28)"/><path class="cls-6" d="M33.66,60.72c7.88,0,10.16-13.11-.66-13.11C25.21,47.61,25.23,60.72,33.66,60.72Z" transform="translate(0.19 -0.28)"/><path class="cls-5" d="M33.65,59.59c8.41,0,10.84-12.42-.71-12.42C24.64,47.17,24.66,59.59,33.65,59.59Z" transform="translate(0.19 -0.28)"/><path class="cls-5" d="M26.94,54.47l-.86,3.31c-.83.91-1.18,4.89-1.38,8.5H18.07C18.58,59.31,23,55.34,26.94,54.47Z" transform="translate(0.19 -0.28)"/><path class="cls-5" d="M40.37,54.47l.86,3.31c.83.91,1.18,4.89,1.38,8.5h6.63C48.73,59.31,44.35,55.34,40.37,54.47Z" transform="translate(0.19 -0.28)"/><path class="cls-7" d="M48.6,22.9a4.71,4.71,0,0,0,3.2-4,2.94,2.94,0,0,1-2.07.59A3.59,3.59,0,0,0,51.47,16c-3.3-2.64-11.15-8-19.94-8.4-5.41-.27-11,1.12-14,6A10.83,10.83,0,0,0,16.05,17a4.89,4.89,0,0,1-.87-2.69,3.56,3.56,0,0,0,0,4.41,4.06,4.06,0,0,0-2.79,1.19,5.59,5.59,0,0,1,2.25.33,6.43,6.43,0,0,0-.88,3.71,31.33,31.33,0,0,0,.77,7.14c.59,2.25,1.41,7.77,4.82,7.07,4.69-1,9.8-3.53,14.63-1.71,3.37,1.27,6.42,3.36,9.83,4.62,3,1.12,6,4.05,6.86-.11a27.36,27.36,0,0,0,.27-9.84C50.47,28.45,50,25.2,48.6,22.9Z" transform="translate(0.19 -0.28)"/><path class="cls-8" d="M16.69,36.73c.73,10.81,8.09,18.08,18.44,18C46.59,54.6,51,45.17,50.26,34.36S41.38,15,32.49,15.56,16,25.92,16.69,36.73Z" transform="translate(0.19 -0.28)"/><path class="cls-9" d="M46.11,33.79c-.67-1,2-.69,2.43-.49-.19.61-1.32.12-1.7.16.22.43,1.15.58,1.48.91s.25.52-.24.42A7.17,7.17,0,0,1,46.11,33.79Z" transform="translate(0.19 -0.28)"/><path class="cls-9" d="M27.63,35.53c.58-1.07-2.1-.52-2.46-.3.24.59,1.32,0,1.71,0-.19.44-1.11.67-1.41,1s-.21.54.27.41A7.24,7.24,0,0,0,27.63,35.53Z" transform="translate(0.19 -0.28)"/><path class="cls-7" d="M29.23,36a2.85,2.85,0,0,0-2-.18c-1.35-1.16-.08-4.69,1.91-3.82C30.64,32.69,30.57,35.35,29.23,36Z" transform="translate(0.19 -0.28)"/><path class="cls-10" d="M40,36.79c.43.45-.48,2.08-2.44,2.22s-3-1.56-2.26-2,1.22,0,2.33,0S39.48,36.28,40,36.79Z" transform="translate(0.19 -0.28)"/><path class="cls-11" d="M39.88,37c1.38-1.41-.85-6.21-3.26-6-1,.08-1.67,1.51-1.8,3.35s-.07,2.7.42,3.06A3.94,3.94,0,0,0,39.88,37Z" transform="translate(0.19 -0.28)"/><path class="cls-7" d="M45.82,30.85c1.14.5,1.29,2.27.61,3.23a2.55,2.55,0,0,0-1.69.64C42.46,34.35,43.7,29.92,45.82,30.85Z" transform="translate(0.19 -0.28)"/><path class="cls-12" d="M28.14,32.77c.72-.24,1.16.86.59,1.27C27.94,34.61,27.34,33,28.14,32.77Z" transform="translate(0.19 -0.28)"/><path class="cls-12" d="M44.86,31.66c.66-.22,1.07.81.54,1.19C44.66,33.38,44.1,31.91,44.86,31.66Z" transform="translate(0.19 -0.28)"/><path class="cls-8" d="M15.91,41.9a9.76,9.76,0,0,0,3.53.29.86.86,0,0,0,.07-.1c.54-.72-.29-4.4-.54-5.16-.63-1.91-1.7-3.26-3.81-2.73C10.75,35.3,12.36,40.83,15.91,41.9Z" transform="translate(0.19 -0.28)"/><path class="cls-13" d="M19.34,30.91a30.72,30.72,0,0,1,.75-4.54c.8-3.84,5.18-5.32,8.61-5.66,4.87-.49,16.55.79,17.72,2.28,1.76,2.25-1.78,2.6-3.24,2.77-3.78.43-9.12.89-19.48-.63-.43,1.26-2.51,4.12-3,12.77,0,.58-1.26-5-1.32-5.55A8.57,8.57,0,0,1,19.34,30.91Z" transform="translate(0.19 -0.28)"/><path class="cls-9" d="M18.18,40.76c2-.65.66-3.84-.7-4.49-1.13-.54-4.17-.18-3,1.67,1-1.47,2.11-.29,1.74.79-.24.73-1.33.61-.39,1.7A2.55,2.55,0,0,0,18.18,40.76Z" transform="translate(0.19 -0.28)"/><path class="cls-7" d="M24.3,14.66a11,11,0,0,0-4.14,3.52c-2.3,3.33-5.22,8.81-4,12.85.27.91.12,2.2.45,3.11.79,2.24,2,11,3.93,11,.72,0,2.78.49,2.43-.16-3.09-5.76-2.3-15.89.26-20.67,15.9,1.94,25-.26,24.36-3.83-.42-2.46-3.33-4.57-5.45-5.56C37.19,12.65,29.6,12,24.3,14.66Z" transform="translate(0.19 -0.28)"/><path class="cls-14" d="M30.07,37.53a2.43,2.43,0,0,1,.54.6C32.13,40.55,26,41.69,25,40.78c-2-1.71-.22-2.92,1.25-3.4C27.35,37,29,36.69,30.07,37.53Z" transform="translate(0.19 -0.28)"/><path class="cls-14" d="M44.06,36.66c-.62.77-.6,1.79.73,2.43s4.06.74,4.73-.94c.91-2.3-2.33-2.86-3.8-2.5A3.11,3.11,0,0,0,44.06,36.66Z" transform="translate(0.19 -0.28)"/><path class="cls-15" d="M40.91,51.45a4.49,4.49,0,0,0-3.51-1c-1.95.3-2.63,1.39-2.65,1.58a2.53,2.53,0,0,1,1.83-2.49C38.16,49,41.05,49.64,40.91,51.45Z" transform="translate(0.19 -0.28)"/><path class="cls-7" d="M44.9,28.72a4.16,4.16,0,0,1-2.5.55,2.36,2.36,0,0,1-2.16-2.17c1.24.31,2.65-.68,3.88-.82a3.07,3.07,0,0,1,3.28,1.45,1.64,1.64,0,0,1,.21.61,5,5,0,0,0-1.72,0A8.17,8.17,0,0,0,44.9,28.72Z" transform="translate(0.19 -0.28)"/><path class="cls-7" d="M30.6,30.31c-1.43-.25-3.15-1.21-4.34.05a9.73,9.73,0,0,1-.69.74c-1.22-1.65.72-4.19,2.62-4,.76.08,1.56.48,2.33.62a5.51,5.51,0,0,0,2.82-.1C33.42,29.44,32.51,30.64,30.6,30.31Z" transform="translate(0.19 -0.28)"/><path class="cls-16" d="M44.37,39.46c.2-.08.79.53.8.73,0,.39-.43.64-.71.8a10.62,10.62,0,0,1-3.3.79,30.79,30.79,0,0,1-8.19.38,17.71,17.71,0,0,1-4.54-1l.14-.11c.76-.47,1.89-.53,1.57-.68-1.72-.74-3.64.14-5,1.12,1.57-.34,3.21-.21,4.1,1.3,2.23,3.84,4.53,6.4,8.26,6.33C42.37,49,43.4,45.77,44,43.6a4.23,4.23,0,0,1,1.17-2A6.24,6.24,0,0,1,47.23,40,4.27,4.27,0,0,1,49,39.61C47.89,38.59,45.59,39,44.37,39.46Z" transform="translate(0.19 -0.28)"/><path class="cls-17" d="M29.51,42a22.78,22.78,0,0,0,15.6-1,3.46,3.46,0,0,0-1.46,2.25c-.43,1.66-2,3.58-5.9,3.89C32,47.65,29.51,42,29.51,42Z" transform="translate(0.19 -0.28)"/><path class="cls-18" d="M31.44,42.54a3.08,3.08,0,0,0,2,2.45,12.27,12.27,0,0,0,7.47.07c1.73-.51,2.56-3.3,2.56-3.3A26.38,26.38,0,0,1,31.44,42.54Z" transform="translate(0.19 -0.28)"/><path class="cls-18" d="M32.33,45.22c-.21-.45-.23-1,.75-.63a17.47,17.47,0,0,0,5.81.55c2.47-.12,3-1.08,3.45-.6s-1.08,2.89-5,2.73C32.77,47.08,32.33,45.22,32.33,45.22Z" transform="translate(0.19 -0.28)"/><path class="cls-19" d="M32.18,44.14s8.29-1.14,10.41-.48a5.81,5.81,0,0,0,.9-1.9,29.23,29.23,0,0,1-12.06.75A2.56,2.56,0,0,0,32.18,44.14Z" transform="translate(0.19 -0.28)"/><path class="cls-19" d="M33.6,44.59a18,18,0,0,0,8.19-.13A11.61,11.61,0,0,1,33.6,44.59Z" transform="translate(0.19 -0.28)"/><path class="cls-16" d="M27,39.85a1.5,1.5,0,0,0-.11.34c-.26,1.4.93,2.2,2,2.79a5.18,5.18,0,0,0,3.06.43,24,24,0,0,1,3.17,0,24,24,0,0,0,3.17.06c1-.08,2.06-.3,3.09-.44,1.85-.26,3.44-.15,4.93-1.49a2.94,2.94,0,0,0,1.28-2.7c-.06-.9-.4-1.89-1.46-1.87a2.25,2.25,0,0,0-1,.34c-.55.43.19.29.51.47.72.42.12,1.35-.51,1.39-1.1.06-2.19.14-3.29.23-3.33.29-6.67.76-10,.72-.75,0-2.17.24-2.8-.24-1-.72,1.29-1.39.12-1.58C28.34,38.2,27.29,39.2,27,39.85Z" transform="translate(0.19 -0.28)"/><path class="cls-7" d="M37.64,43.23a18.71,18.71,0,0,0,3.49-.43,12.49,12.49,0,0,0,4.11-1.67c1-.64,2.45-1.49,2.32-3a1.49,1.49,0,0,0-2.75-.65c.71-.43,1.38,0,1.35.51,0,.76-1,.69-1.54.64-1.69-.17-3.48-.78-5.21-.24-2.25.71-3.78-.09-6.12.26a31.48,31.48,0,0,0-3.44.88c-.57.16-1.31.26-1.45-.37a.68.68,0,0,1,1.09-.59c-.26-.53-1.3-.66-1.79-.48a1.35,1.35,0,0,0-.88,1.7c.22,1.12,1.84,1.87,2.82,2.25a19.66,19.66,0,0,0,4.68,1A21.65,21.65,0,0,0,37.64,43.23Z" transform="translate(0.19 -0.28)"/><path class="cls-20" d="M15.53,31.63c.17,1.32,1,2.82,2,.57-.33,3.28,3,8.43,2.77,6.27a27.72,27.72,0,0,1,.16-7.11A28.26,28.26,0,0,1,21,27.94c.07-.27.74-3.25.72-3.25-.65,0-1.31-.08-2-.13-1.56-.14-2.91-1-4.46-1.06-.06,1.32,2.7,2.47,3.69,2.65a6,6,0,0,1-2,.12c-.72-.1-1.49-.6-2.2-.55.19,1.59,2.65,1.93,3.83,2.44a4.77,4.77,0,0,1-1.35.14c-.34,0-1-.23-1.28-.1C15.09,28.59,15.43,30.84,15.53,31.63Z" transform="translate(0.19 -0.28)"/><path class="cls-20" d="M20.45,22.72s10.07,2.7,19.34,1.43,8-4.14,8-4.14.06,1.24-9.86,2.66A60.33,60.33,0,0,1,20.45,22.72Z" transform="translate(0.19 -0.28)"/><path class="cls-20" d="M35.51,39.32c-1.72-.71-5.58.57-5,1.2s2.33.32,2.33.32a1.22,1.22,0,0,0,.8,1.06c.74.21,2.12-.79,2.12-.79a1,1,0,0,0,.95,1.06c1,0,1.86-1.12,1.86-1.12s.64,1.08,1.64.9a1,1,0,0,0,.9-1.06,3.53,3.53,0,0,0,2,.38c.75-.23.32-1.28.32-1.28a2.33,2.33,0,0,0,2-.1c1.11-.53-1.16-.53-2.54-.8a6.13,6.13,0,0,0-3.66.16A4.2,4.2,0,0,1,35.51,39.32Z" transform="translate(0.19 -0.28)"/><path class="cls-20" d="M30.5,22.28a32.6,32.6,0,0,0,14.8-2.7,13.8,13.8,0,0,0,5.09-3.77c-1.87-.69-10-5.76-16-6.8-10.91-1.92-18.55,5-14.66,8.47,2.85,2.53,6.87,2.1,10.3,1.6-2.24,1.58-9.53,1.31-12.78.38C19.82,20.8,23,22,30.5,22.28Z" transform="translate(0.19 -0.28)"/></g></g></g></svg>