<svg id="Layer_1" data-name="Layer 1" xmlns="http://www.w3.org/2000/svg" xmlns:xlink="http://www.w3.org/1999/xlink" viewBox="0 0 66 66"><defs><style>.cls-1{fill:none;}.cls-2{clip-path:url(#clip-path);}.cls-3{fill:#b3977f;}.cls-4{fill:#ffcb9e;}.cls-5{fill:#918fa0;}.cls-6{fill:#d9d9d9;}.cls-7{fill:#f7b586;}.cls-8{fill:#322825;}.cls-9{fill:#bf3c1b;opacity:0.2;}.cls-10{fill:#b54d26;}.cls-10,.cls-15{opacity:0.3;}.cls-11{fill:#523e3b;}.cls-12{fill:#162a33;}.cls-13{fill:#ffe1c7;}.cls-14{fill:#95a0b8;}.cls-15{fill:#b55623;}.cls-16{fill:#8f2722;}.cls-17{fill:#fff7eb;}.cls-18{fill:#e8dac5;}</style><clipPath id="clip-path" transform="translate(0.18 -0.07)"><circle class="cls-1" cx="32.82" cy="33.07" r="33"/></clipPath></defs><g class="cls-2"><rect class="cls-3" width="66" height="66"/><path class="cls-4" d="M42,54.13a1.82,1.82,0,0,0-2,3c3.62,2.44,5.58,5.05,5.54,7.34a3.73,3.73,0,0,1-.41,1.58h3.83a6.87,6.87,0,0,0,.21-1.51C49.18,62,48,58.18,42,54.13Z" transform="translate(0.18 -0.07)"/><path class="cls-5" d="M39.91,52.62c-1-.29.36,6.36,1.39,7a7.56,7.56,0,0,1,3,4.58,16,16,0,0,0,5.65-2.73C48.07,56.42,43.42,53.62,39.91,52.62Z" transform="translate(0.18 -0.07)"/><path class="cls-6" d="M44.45,65.73l-.94-2.85A26.27,26.27,0,0,0,49.43,60l1.7,2.48A29.2,29.2,0,0,1,44.45,65.73Z" transform="translate(0.18 -0.07)"/><path class="cls-4" d="M25.35,54.13a1.82,1.82,0,0,1,2,3c-3.62,2.44-5.59,5.05-5.54,7.34a3.59,3.59,0,0,0,.41,1.58H18.42a6.87,6.87,0,0,1-.21-1.51C18.16,62,19.35,58.18,25.35,54.13Z" transform="translate(0.18 -0.07)"/><path class="cls-5" d="M27.43,52.62c1-.29-.36,6.36-1.39,7a7.61,7.61,0,0,0-3,4.58,16,16,0,0,1-5.64-2.73C19.27,56.42,23.92,53.62,27.43,52.62Z" transform="translate(0.18 -0.07)"/><path class="cls-6" d="M22.89,65.73a29.48,29.48,0,0,1-6.69-3.26L17.9,60a26.56,26.56,0,0,0,5.93,2.89Z" transform="translate(0.18 -0.07)"/><path class="cls-5" d="M33.7,51.78c-8.24,0-9.31,2.27-9.16,2.59a12.72,12.72,0,0,1,1,5.31c0,2.52.2,4.61.32,6.39H41.44c.1-1.77.28-3.85.3-6.35a18.84,18.84,0,0,1,1.08-5.23C42.92,54.18,41.7,51.82,33.7,51.78Z" transform="translate(0.18 -0.07)"/><path class="cls-6" d="M33.67,58.54s7.27-3.14,5.45-5.94c-1.64-2.52-10.38-2.53-11.19.47C27.24,55.61,33.67,58.54,33.67,58.54Z" transform="translate(0.18 -0.07)"/><path class="cls-7" d="M29,51.14a4.68,4.68,0,0,1,9.31,0,3.77,3.77,0,0,1-.8,3,5.72,5.72,0,0,1-3.86,2.32,5.72,5.72,0,0,1-3.85-2.32A3.77,3.77,0,0,1,29,51.14Z" transform="translate(0.18 -0.07)"/><path class="cls-8" d="M47.52,31.63c.29-4.82-.24-6.6,0-8.54,1-8.29-5.66-14.34-17.39-13.41C9.62,11.29,13.05,39.74,18.89,38.51c4.32-.91,8.56-2.14,12.85-3.2,4-1,8.4-.23,12.48,0C47.41,35.57,47.36,34.22,47.52,31.63Z" transform="translate(0.18 -0.07)"/><path class="cls-4" d="M19.37,38.18c1,7.61,6.9,16,15.74,15.32,9-.64,13.51-11.82,12.34-21.18-1.27-10.17-6.08-18.65-16.63-16.59C23.29,17.19,18,28,19.37,38.18Z" transform="translate(0.18 -0.07)"/><path class="cls-4" d="M17.55,41.45a7.41,7.41,0,0,0,3,.32.24.24,0,0,1,.06-.09c.44-.7-.35-4.29-.58-5-.57-1.86-1.5-3.18-3.28-2.69C13.05,35,14.53,40.36,17.55,41.45Z" transform="translate(0.18 -0.07)"/><path class="cls-9" d="M31.19,25.37a7.76,7.76,0,0,0-2.54-.81,8.49,8.49,0,0,1-.42,2.29c-1.4-.33-2.87-2.6-4.34-2-1.08.42-1.1,2-1.59,2.9-.79,1.41-1.94,2.57-2.48,4.12s-.55-5.54-.51-6.47c.11-2.43.25-5.73,2.18-7.49,2.41-2.21,6.9-2,9.9-2A34.69,34.69,0,0,1,44,18.54c2.85,1.13,3.14,6.85,2.68,9.44.08-.45-.75-1.27-1-1.63-.31-.53-.82-1.34-1.53-1.37-.54,0-1.58,1.59-1.35,1.7-.89-.4-1.8-.95-2.72-1.26-.76-.25-1.59-.3-2.39-.56.18.06-1,3-1.06,3.34-.43-.17-.84-.44-1.26-.64-.82-.39-1.63-.76-2.41-1.21C32.43,26,31.82,25.67,31.19,25.37Z" transform="translate(0.18 -0.07)"/><path class="cls-10" d="M19,40.11c1.35-.85.07-3.71-.94-4.18-.83-.38-2.91.31-1.93,1.94.51-1.51,1.43-.52,1.29.55-.09.71-.86.72-.1,1.65A1.38,1.38,0,0,0,19,40.11Z" transform="translate(0.18 -0.07)"/><path class="cls-8" d="M44,26.17c-2.53-.54-3.77-1.32-6.18-2.21a14.8,14.8,0,0,1,.26,2.82c-1.46-.5-7.07-2.19-10-3.08.27.67.29,1.47.5,2.19-1.54-.68-3.28-2.53-5.08-2.4-1.07.08-1.16.76-1.35,1.71a33.54,33.54,0,0,1-1.15,3.94c-1.08,3.2-.53,6.61.82,7.86a3.41,3.41,0,0,1-2,0,9.37,9.37,0,0,1-1.55-4.34c-.11-2.74-1.22-5.32-1.18-8.11.06-3.84.73-6.89,3.71-9.49,2.57-2.25,4.46-3.64,7.73-4.55,12.21-3.42,20.63,4.17,22.48,15a14.49,14.49,0,0,1-6-2A20.28,20.28,0,0,1,44,26.17Z" transform="translate(0.18 -0.07)"/><path class="cls-8" d="M39.38,7.74a8.8,8.8,0,0,1-1.11,1.95c1.5.08,3.22.23,4.41.28-.56.63-1.7,2.06-2.8,2.17a48.82,48.82,0,0,1-10.67-.21c-1.26-.17-2.58-.13-3.83-.37.42-1.17,2.37-1.58,3.42-1.74C30.86,9.51,35.28,9.21,39.38,7.74Z" transform="translate(0.18 -0.07)"/><path class="cls-11" d="M45.44,16.3A15.44,15.44,0,0,1,46.61,18,25.63,25.63,0,0,1,49,23,12.14,12.14,0,0,0,43,21.25c-.09,1-.47,1.94-.53,3a12.47,12.47,0,0,0-5.9-2.16,9.3,9.3,0,0,0-.27,2.31,88.86,88.86,0,0,0-9.56-2.83c.14.78,0,1.64.19,2.44a49.43,49.43,0,0,1-6.2-4.53c-1.61-1.57-.45-3.78.83-5.12A11.23,11.23,0,0,1,26,11.56a22.9,22.9,0,0,1,9.67-.75A14.65,14.65,0,0,1,45.44,16.3Z" transform="translate(0.18 -0.07)"/><path class="cls-12" d="M28,35.43a2.77,2.77,0,0,0-1.92-.16C24.79,34.14,26,30.7,28,31.53,29.4,32.16,29.34,34.76,28,35.43Z" transform="translate(0.18 -0.07)"/><path class="cls-10" d="M38.91,37.91c.39.26-.43,1.24-2.18,1.33s-2.69-.92-2-1.19,1.09,0,2.08,0S38.47,37.6,38.91,37.91Z" transform="translate(0.18 -0.07)"/><path class="cls-13" d="M38.93,38c.26-.17-.35-1-.82-1.76S37.27,34,36.3,34.06s-1.07,1.7-1.39,2.48-.55,1.52-.09,1.74A5.73,5.73,0,0,0,38.93,38Z" transform="translate(0.18 -0.07)"/><path class="cls-12" d="M44.71,31.41c1.06.63,1,2.82.26,3.69a2.55,2.55,0,0,0-2.06,0C41.29,34,42.74,30.22,44.71,31.41Z" transform="translate(0.18 -0.07)"/><path class="cls-14" d="M27.81,33c.7-.24,1.14.84.58,1.24C27.63,34.84,27,33.3,27.81,33Z" transform="translate(0.18 -0.07)"/><path class="cls-14" d="M44.46,32.73c.69-.14,1,.94.39,1.25C44.06,34.42,43.69,32.89,44.46,32.73Z" transform="translate(0.18 -0.07)"/><path class="cls-8" d="M24.39,30.55a.48.48,0,0,1-.75-.54,4.31,4.31,0,0,1,3.2-2.55c1.12-.22,3.23,0,3.92,1.06a.68.68,0,0,1-.77,1,6.45,6.45,0,0,0-2.93-.15A8.68,8.68,0,0,0,24.39,30.55Z" transform="translate(0.18 -0.07)"/><path class="cls-8" d="M46.4,29.61c.55.17.7-.33.56-.58a3.78,3.78,0,0,0-3.09-1.81c-1,0-3,.74-3.44,1.77a.6.6,0,0,0,.86.75,6.38,6.38,0,0,1,2.61-.82A8.25,8.25,0,0,1,46.4,29.61Z" transform="translate(0.18 -0.07)"/><path class="cls-13" d="M46.37,36.84a2.1,2.1,0,0,1,.33.52c.82,2-3.93,2-4.61,1.13-1.27-1.53.23-2.16,1.4-2.3A3.36,3.36,0,0,1,46.37,36.84Z" transform="translate(0.18 -0.07)"/><path class="cls-13" d="M28.66,37.17a1.68,1.68,0,0,1,.33.55c.79,2.1-4.19,1.91-4.87,1-1.28-1.64.31-2.25,1.55-2.36A3.53,3.53,0,0,1,28.66,37.17Z" transform="translate(0.18 -0.07)"/><path class="cls-15" d="M44.05,39.7c-1.16-.81-2.57.79-9.17,1.17-5.69.32-7.83-.62-9.26-.64.82,5.54,4.51,9.49,8.65,9.49,2.18,0,5.18-.19,6.79-2.68a10.31,10.31,0,0,0,1-3.1,6.42,6.42,0,0,1,2.33-3.86A1.52,1.52,0,0,0,44.05,39.7Z" transform="translate(0.18 -0.07)"/><path class="cls-16" d="M26.5,40.88s7.33,2.55,17.46-1a5.83,5.83,0,0,0-2.18,3.68c-.41,2-1.3,4.78-7.12,5.11C28.21,49.05,26.5,40.88,26.5,40.88Z" transform="translate(0.18 -0.07)"/><path class="cls-17" d="M28.21,41.4a2.51,2.51,0,0,0,1.94,2.36,17.77,17.77,0,0,0,8.29.12c2-.42,3-3,3-3A44.46,44.46,0,0,1,28.21,41.4Z" transform="translate(0.18 -0.07)"/><path class="cls-17" d="M29.81,46.77c-.13-.41-.09-.86.76-.51a16,16,0,0,0,5.15.76c2.24,0,2.82-.79,3.19-.35S37.57,49.14,34,48.8C30,48.41,29.81,46.77,29.81,46.77Z" transform="translate(0.18 -0.07)"/><path class="cls-18" d="M28.49,42.46s10-1,12.3-.39a8.29,8.29,0,0,0,.68-1.22,44.2,44.2,0,0,1-13.26.55A2,2,0,0,0,28.49,42.46Z" transform="translate(0.18 -0.07)"/><path class="cls-18" d="M30.9,46.62a16.55,16.55,0,0,0,7.39.3S34.3,48.27,30.9,46.62Z" transform="translate(0.18 -0.07)"/></g></svg>