<svg id="Layer_1" data-name="Layer 1" xmlns="http://www.w3.org/2000/svg" xmlns:xlink="http://www.w3.org/1999/xlink" viewBox="0 0 66 66"><defs><style>.cls-1{fill:none;}.cls-2{clip-path:url(#clip-path);}.cls-3{fill:#fff;}.cls-4{fill:#3a3a4a;}.cls-5{fill:#66667d;}.cls-6{fill:#f1aa83;}.cls-7{fill:#5e5a3a;}.cls-8{fill:#9e996f;}.cls-9{fill:#918fa0;}.cls-10{fill:#eba971;}.cls-11{fill:#d99a64;}.cls-12{fill:#ffbc82;}.cls-13{fill:#b54319;opacity:0.3;}.cls-14{fill:#45362e;}.cls-15{fill:#ffd4ad;}.cls-16{fill:#c26346;}.cls-17{fill:#261b18;}.cls-18{fill:#e6d2c3;opacity:0.7;}.cls-19{fill:#e62628;}.cls-20{fill:#ff3b3b;}</style><clipPath id="clip-path" transform="translate(0.18 -0.07)"><circle class="cls-1" cx="32.82" cy="33.07" r="33"/></clipPath></defs><g class="cls-2"><rect class="cls-3" width="66" height="66"/><path class="cls-4" d="M41.06,51.81C37.34,50.51,30.23,50,25.82,52c-2.43,1.09-2.12,7.86-1.93,14.08H43.1C43.25,59.82,43.41,52.63,41.06,51.81Z" transform="translate(0.18 -0.07)"/><polygon class="cls-5" points="32.14 58.37 35.42 58.5 35.06 65.25 32.27 65.3 32.14 58.37"/><path class="cls-5" d="M33.52,58.86l3,2.36s5.91-3.84,3.67-9.35c-2-4.95-12-4.56-13.76.93-1.48,4.72,3.9,8.57,3.9,8.57Z" transform="translate(0.18 -0.07)"/><path class="cls-6" d="M26.92,51.07c.2-4.07,3.86-5.69,6.47-5.73S39.7,46.77,40,50.83c.15,1.89-.11,3-1.06,4.06a16.08,16.08,0,0,1-5.38,3.37,15.12,15.12,0,0,1-5.48-3.17C27.12,54.06,26.83,53,26.92,51.07Z" transform="translate(0.18 -0.07)"/><path class="cls-7" d="M46.61,54.48c-.45-1-5.1-2.52-5.1-2.52a30.75,30.75,0,0,0-4.44,14.11H44.4C45.32,59.13,47,55.35,46.61,54.48Z" transform="translate(0.18 -0.07)"/><path class="cls-7" d="M45.45,53.16l-2.67,4.41c.83.91,1.17,4.89,1.38,8.5h6.62C50.27,59.09,48.23,54.7,45.45,53.16Z" transform="translate(0.18 -0.07)"/><path class="cls-8" d="M40.47,48.82c9.12.51,4.66,12.54.2,8.48a10.27,10.27,0,0,0-2.9,4C39,55.7,40.47,48.82,40.47,48.82Z" transform="translate(0.18 -0.07)"/><path class="cls-7" d="M20.58,54.48c.44-1,5.1-2.52,5.1-2.52a30.75,30.75,0,0,1,4.44,14.11H22.79C21.87,59.13,20.2,55.35,20.58,54.48Z" transform="translate(0.18 -0.07)"/><path class="cls-7" d="M21.74,53.16l2.67,4.41c-.83.91-1.18,4.89-1.38,8.5H16.41C16.92,59.09,19,54.7,21.74,53.16Z" transform="translate(0.18 -0.07)"/><path class="cls-8" d="M26.72,48.82c-9.12.51-4.66,12.54-.2,8.48a10.27,10.27,0,0,1,2.9,4C28.2,55.7,26.72,48.82,26.72,48.82Z" transform="translate(0.18 -0.07)"/><path class="cls-9" d="M34.11,60.34a.58.58,0,1,1-.58-.58A.58.58,0,0,1,34.11,60.34Z" transform="translate(0.18 -0.07)"/><path class="cls-9" d="M34.12,63.56a.58.58,0,0,1-1.15,0,.58.58,0,1,1,1.15,0Z" transform="translate(0.18 -0.07)"/><path class="cls-10" d="M47.4,41.67a5.54,5.54,0,0,1-2.61.24l0-.1c-.37-.73.27-4.73.49-5.48.54-1.9,1.53-2.86,3.06-2.31C51.49,35.17,50.06,40.65,47.4,41.67Z" transform="translate(0.18 -0.07)"/><path class="cls-11" d="M23.87,37.19C26.4,36.56,29,36,31.5,35.43c4.19-.93,8.78,0,13,.4,3.33.31,3.57,1.87,3.58-.84,0-3.35.6-8.84,0-12.57C45.36,5.14,20.25,8.15,16.59,20.92c-1.33,4.65-1.26,11.32,1.08,16C18.89,39.32,21.81,37.7,23.87,37.19Z" transform="translate(0.18 -0.07)"/><path class="cls-12" d="M18.51,38.07c.87,8,6.76,16.86,16,16.45C43.94,54.1,49,42.55,48,32.75,47,22.1,44.66,13.11,31.1,15,19.23,16.57,17.36,27.43,18.51,38.07Z" transform="translate(0.18 -0.07)"/><path class="cls-12" d="M16.7,42.45a2.17,2.17,0,0,0,3.09-1c.68-.92.33-3.41-.31-5.58-.52-1.75-1.65-2.68-3.56-2.24C12,34.5,13.75,41,16.7,42.45Z" transform="translate(0.18 -0.07)"/><path class="cls-13" d="M18.05,40.08c1.43-.84.18-3.87-.86-4.39-.86-.42-3,.24-2.07,2,.58-1.56,1.51-.5,1.33.61-.12.75-.92.73-.15,1.72C16.72,40.52,17.6,40.35,18.05,40.08Z" transform="translate(0.18 -0.07)"/><path class="cls-14" d="M32.26,12.88c-9.63-.08-16.47,6.83-15.83,20.61a2.43,2.43,0,0,1,1.82.58,4.63,4.63,0,0,1,1,2.07c.1.22.22.59,1,.55C18.78,32.06,19.7,25,21.28,22.91c3.9-5.23,10.17.7,15,.59,3.82-.09,8-5,10.09,0C47.75,26.84,47.71,13,32.26,12.88Z" transform="translate(0.18 -0.07)"/><path class="cls-13" d="M38.24,38.53c-.54-.64-1.27.1-2.64.14s-1.73-.51-2.59,0,.43,2.15,2.61,2S38.7,39.08,38.24,38.53Z" transform="translate(0.18 -0.07)"/><path class="cls-15" d="M35,33.11c-1,.16-2.22,5.53-1.67,5.91a4.6,4.6,0,0,0,4.87-.49C38.53,38.18,36.17,32.93,35,33.11Z" transform="translate(0.18 -0.07)"/><path class="cls-14" d="M21.82,28.46c-.77.1-.92-.67-.06-1.08a8.07,8.07,0,0,1,3.65-.91c.91.1,5.55,1.15,4.45,2.68-.56.76-1.89,0-2.45-.33a6.21,6.21,0,0,0-3.77-.67C23.34,28.18,22.56,28.37,21.82,28.46Z" transform="translate(0.18 -0.07)"/><path class="cls-14" d="M47.13,28.8c.62.1.9-.63.18-1a6.67,6.67,0,0,0-3.33-1c-.83.08-5.11,1-4.18,2.55.46.78,1.71,0,2.24-.27a5.35,5.35,0,0,1,3.46-.57C45.77,28.48,46.46,28.69,47.13,28.8Z" transform="translate(0.18 -0.07)"/><path class="cls-15" d="M46.64,37.72a2.06,2.06,0,0,1,.27.58c.58,2.16-4.34,1.48-4.93.54-1.1-1.75.54-2.2,1.77-2.19A3.52,3.52,0,0,1,46.64,37.72Z" transform="translate(0.18 -0.07)"/><path class="cls-15" d="M27.26,37.07a2,2,0,0,1,.41.53c1.08,2.08-4.11,2.49-4.93,1.66-1.53-1.55.05-2.38,1.32-2.64A3.67,3.67,0,0,1,27.26,37.07Z" transform="translate(0.18 -0.07)"/><path class="cls-16" d="M27.29,40.87c.64,2.22-1.85,3-2.47.8A1.74,1.74,0,0,0,27.29,40.87Z" transform="translate(0.18 -0.07)"/><path class="cls-16" d="M42.05,41.47c-.87,2.14,1.53,3.17,2.38,1.07A1.76,1.76,0,0,1,42.05,41.47Z" transform="translate(0.18 -0.07)"/><path class="cls-16" d="M29.87,45.93a3.94,3.94,0,0,1-4.09-3,.64.64,0,0,1,.39-.81.64.64,0,0,1,.81.39c.88,2.52,2.37,2.39,5.39,1.88a19,19,0,0,1,4-.38,13.72,13.72,0,0,1,2.47.37c1.71.37,2.43.52,3.22-1.17a.64.64,0,0,1,1.15.54C42,46.33,40.36,46,38.6,45.6a13,13,0,0,0-2.26-.34,17.26,17.26,0,0,0-3.76.36A17.32,17.32,0,0,1,29.87,45.93Z" transform="translate(0.18 -0.07)"/><path class="cls-17" d="M26.15,35.63a3.17,3.17,0,0,0-2.21,0c-1.6-1.17-.49-5.2,1.79-4.41C27.43,31.78,27.58,34.75,26.15,35.63Z" transform="translate(0.18 -0.07)"/><path class="cls-17" d="M45.28,31.53c1.19.76,1.11,3.25.18,4.23a3,3,0,0,0-2.35-.06C41.29,34.42,43.06,30.11,45.28,31.53Z" transform="translate(0.18 -0.07)"/><path class="cls-18" d="M25,31.93c.78-.33,1.37.86.77,1.37C24.93,34,24.12,32.3,25,31.93Z" transform="translate(0.18 -0.07)"/><path class="cls-18" d="M44.39,32c.79-.14,1.07,1.1.4,1.44C43.87,33.89,43.49,32.13,44.39,32Z" transform="translate(0.18 -0.07)"/><path class="cls-19" d="M48,34s.7.63,1-.49,3.22-18.7-10.1-23.82C27.68,5.33,16.77,12.1,14.09,18.8c-2.27,5.69.5,7.18.5,7.18s-.95,1.32-.18,3.88a7.12,7.12,0,0,1,.14,4c-.23,1.12,1.79-.87,3.95.52.55-9,5.31-15.91,18.1-15.31C49.91,19.65,47.85,30.31,48,34Z" transform="translate(0.18 -0.07)"/><path class="cls-20" d="M17.88,24.16a7.71,7.71,0,0,1,1.71-3.87,13.84,13.84,0,0,1,7.62-5A15,15,0,0,1,30,14.79a7.42,7.42,0,0,0-5.57.35c-1.42.74-2.74,1.89-4.36,2.17-2.21.38-2.41-1.34-1.05-2.8A16.08,16.08,0,0,1,30,9.5a19.88,19.88,0,0,1,8.58,1.21,7.31,7.31,0,0,1,2.8,1.79c1.35,1.61-.68,1.59-2,1.52s-2.1-.31-3.21.26c.36-.19,2.4.45,2.93.51a18.4,18.4,0,0,1,3.15.46A6.46,6.46,0,0,1,46,18c.77,1.14,1.8,2.62,1.51,4.07-2.17.11-1.16-3.51-2.36-4.27-.4.51-.11,2.1-1.27,1.76-.78-.22-.8-3.18-1.71-2.24-.42.43.09,1.1-.22,1.48-.45.55-1.16,0-1.43-.46s-.65-2.24-1.4-2.21-.2,1.46-.6,1.85c-1,1-2.08-1.39-2.43-1.87-.9-1.23-1,.81-1.26,1.55-.84-.05-1.45-1.95-2.24-1.76s.1,2.1-.78,2.08c-.58,0-1-1.41-1.67-1.39s-.5.57-.63,1.1c-.51,2-1.19-.08-2.31-.38-.1.38.33,1.71-.11,1.92s-1.28-.9-1.74-1.09c-.18.53.12,1.65-.56,1.91s-1.36-1.32-2-1,.33,1.8-.23,2.07-1.11-.84-1.5-1.07c-.2,1.15.8,3.32-1,2.1-.17.93.37,2.34-.9,2,0,.44.05,2.12-.53,2.35C17.54,27,17.83,24.64,17.88,24.16Z" transform="translate(0.18 -0.07)"/></g></svg>