<svg id="Layer_1" data-name="Layer 1" xmlns="http://www.w3.org/2000/svg" xmlns:xlink="http://www.w3.org/1999/xlink" viewBox="0 0 66 66"><defs><style>.cls-1{fill:none;}.cls-2{clip-path:url(#clip-path);}.cls-3{fill:#fff;}.cls-4{fill:#3a3a4a;}.cls-5{fill:#1e1e29;}.cls-13,.cls-6{opacity:0.3;}.cls-7{fill:#535363;}.cls-8{fill:#f29f63;}.cls-9{fill:#1c1c26;}.cls-10{fill:#3d2518;}.cls-11{fill:#977053;}.cls-12{fill:#ffbc82;}.cls-13{fill:#a63f24;}.cls-14{fill:#b54319;opacity:0.5;}.cls-15{fill:#82572e;}.cls-16{fill:#202930;}.cls-17{fill:#ffd4ad;}.cls-18{fill:#c3cee6;opacity:0.7;}.cls-19{fill:#2b221c;}.cls-20{fill:#8f2a25;}.cls-21{fill:#fff7ea;}.cls-22{fill:#ecdcc4;}</style><clipPath id="clip-path" transform="translate(0.18 -0.07)"><circle class="cls-1" cx="32.82" cy="33.07" r="33"/></clipPath></defs><g class="cls-2"><rect class="cls-3" width="66" height="66"/><path class="cls-4" d="M39.42,51.57c-4.89-2.63-12-1.73-15.28.39-4.25,2.76-3.57,7.24-2.46,14.11H41.6C42.8,59.45,43.58,53.8,39.42,51.57Z" transform="translate(0.18 -0.07)"/><path class="cls-5" d="M43.71,53.8c-.42-1.08-5.27-2.7-5.27-2.7-1.35,4.4-1.62,10.2-1.52,15h6.33C43.61,59.48,44,54.48,43.71,53.8Z" transform="translate(0.18 -0.07)"/><path class="cls-5" d="M42,52.53l-.93,13.54h6.09c.22-1.58.56-4.34.71-7.09C48.09,54.76,45,53.8,42,52.53Z" transform="translate(0.18 -0.07)"/><path class="cls-5" d="M24.67,51.1s-4.85,1.62-5.26,2.7c-.26.68.09,5.68.45,12.27H26.2C26.29,61.3,26,55.5,24.67,51.1Z" transform="translate(0.18 -0.07)"/><path class="cls-5" d="M15.26,59c.16,2.75.5,5.51.71,7.09h6.09l-.92-13.54C18.09,53.8,15,54.76,15.26,59Z" transform="translate(0.18 -0.07)"/><path class="cls-6" d="M25,54.34a10,10,0,0,0,4.21,5.24l2.32-2.68,3.05,2.67c2.08-1.13,4.09-3.84,4.12-6.09C38.74,51.86,24.06,51,25,54.34Z" transform="translate(0.18 -0.07)"/><path class="cls-7" d="M25,50.35C22.45,54,29,58.7,29,58.7l2.55-2.12,2.89,2.22s5.94-3.45,3.83-8.08C36.39,46.56,27.66,46.63,25,50.35Z" transform="translate(0.18 -0.07)"/><path class="cls-8" d="M36.24,47c-1.64-1.3-4.85-1.51-6.82-1.08a4.72,4.72,0,0,0-3.55,4.31c-.18,2.49,3.49,5.81,6,5.88C33.82,56.18,42,51.54,36.24,47Z" transform="translate(0.18 -0.07)"/><path class="cls-7" d="M31.45,60.11a.65.65,0,1,0,.65.65A.65.65,0,0,0,31.45,60.11Z" transform="translate(0.18 -0.07)"/><path class="cls-7" d="M31.43,63.36a.65.65,0,1,0,.65.65A.65.65,0,0,0,31.43,63.36Z" transform="translate(0.18 -0.07)"/><path class="cls-9" d="M31.59,58.31l4,2.66c.73-.82,1.07-3.76.23-4.67Z" transform="translate(0.18 -0.07)"/><path class="cls-9" d="M27.61,61l4-2.66-4.21-2C26.54,57.21,26.87,60.15,27.61,61Z" transform="translate(0.18 -0.07)"/><path class="cls-9" d="M31.89,56.9h-.35c-.49,0-1.13,0-1.43.24-.45.45,0,1.54.16,2,.3.76,1.08.47,1.78.49,1,0,1.26-.77,1.29-1.73S32.71,56.87,31.89,56.9Z" transform="translate(0.18 -0.07)"/><path class="cls-10" d="M30.05,9.75c-4.95.18-10.17,2.46-12.54,7a14.29,14.29,0,0,0-1.33,6c-.14,4.67-.74,9,1.39,13.36,1.12,2.3,3.88.82,5.82.37,2.38-.55,4.78-1.05,7.18-1.54,4-.81,8.24.12,12.22.56,3.12.34,2.05-2.6,1.84-5.13-.3-3.78.84-4.84,1-6.75C46.2,14.35,41.57,9.33,30.05,9.75Z" transform="translate(0.18 -0.07)"/><path class="cls-11" d="M41.13,20.84c-.88,6.93-.16,11.49.14,11.93a2.26,2.26,0,0,1,1.71.56,4.24,4.24,0,0,1,.89,2,5.26,5.26,0,0,0,2.26.42C47.18,21.33,44.64,21.16,41.13,20.84Z" transform="translate(0.18 -0.07)"/><path class="cls-12" d="M30.49,15.7c-7.43,1.13-13.08,11.51-12.15,21.52.7,7.49,6.1,15.9,14.79,15.65,8.85-.25,13.71-11,13-20.23C45.27,22.63,40.9,14.13,30.49,15.7Z" transform="translate(0.18 -0.07)"/><path class="cls-13" d="M43.27,19A34.06,34.06,0,0,0,31,15.89c-2.69-.16-5.6-.44-8.16.59-3.83,1.54-5.54,4-6.18,7.94-.25,1.46-.26,3.91,1.67,4.13,2.27.26,2.88-2.06,3.59-3.62a3.42,3.42,0,0,1,3-2.2c2-.16,4.08.76,6.11,1.26a12.31,12.31,0,0,0,1.32.26,18.21,18.21,0,0,0,5-.18c1.23-.18,2.37-.69,3.57-.91a10.7,10.7,0,0,0,2.74-.72C45.47,21.49,44.4,19.51,43.27,19Z" transform="translate(0.18 -0.07)"/><path class="cls-12" d="M16,33c-3.67.85-2.44,6.19.48,7.38a7.1,7.1,0,0,0,2.91.44l.06-.09c.46-.67,0-4.54-.17-5.28C18.75,33.56,17.7,32.56,16,33Z" transform="translate(0.18 -0.07)"/><path class="cls-14" d="M17.14,35c-.8-.41-2.86.18-2,1.81.56-1.45,1.42-.44,1.24.6-.12.7-.88.68-.17,1.61a1.34,1.34,0,0,0,1.64.11C19.24,38.32,18.11,35.46,17.14,35Z" transform="translate(0.18 -0.07)"/><path class="cls-10" d="M45.16,12.12c-.87-.53-3.11-.17-4.12-.4.51-1.51,1.71-2.39,1.78-4.06a10.15,10.15,0,0,1-3.11,1,10.89,10.89,0,0,0,.6-2.29,9.22,9.22,0,0,1-3.74,1.5A19.16,19.16,0,0,1,37,5.51a26.07,26.07,0,0,0-2.66,1.56c-.18.1-2,1-2,.77,0-.45,0-.9,0-1.35A5.44,5.44,0,0,1,29.2,8.07a2.74,2.74,0,0,1-.06-.79,64.7,64.7,0,0,1-7.84,5.25c-1.51.9-2.21,2.54-3,4.13-.58,1.14-1.7,3.91-1,5.07.55.88,3.63,2.84,4.72,1.53a4.28,4.28,0,0,1,3.69-1.54,21.64,21.64,0,0,1,6.38,1.44,12,12,0,0,0,6.79-.23c.89-.24,2.07-.38,3.19-.63,1.38-.29,3.06-.71,3.24-2.32s.2-3.88,1.25-4.08a7.19,7.19,0,0,0-3.14-1.69A13.85,13.85,0,0,1,45.16,12.12Z" transform="translate(0.18 -0.07)"/><path class="cls-11" d="M16.31,21c-.89,6.92-.16,11.49.14,11.92a2.33,2.33,0,0,1,1.71.57,4.34,4.34,0,0,1,.9,2,2.37,2.37,0,0,0,1.62.5c-.49-4.69.37-11.26,1.33-12.66C18.68,22.79,16.56,21.36,16.31,21Z" transform="translate(0.18 -0.07)"/><path class="cls-15" d="M45.64,15.74a8.43,8.43,0,0,0-3.25-.9,6.25,6.25,0,0,1,1.41-2.77c-1.4-.2-2.78.86-4.17.74.6-1.28,1.86-2.94,2.09-4.27a11,11,0,0,1-3.16.91,9.08,9.08,0,0,0,.37-2.12C37.93,8,36.8,9.1,35.5,9.14c-.11-.75.16-1.57,0-2.28a13.65,13.65,0,0,1-3.87,2.49c-.14-.47-.28-1-.41-1.49-.63.45-3.34,2.93-3,1C26,11.11,21.64,12.33,20,15.1c-1,1.61,1.29-1.5,9.3-3.22.5-.1-5,3.64-4.94,4.1.46-.17,7.59-3.94,7.68-3.28.22,1.76-6,5.1-7,6.39,0,0,11.18-6.61,12.4-6.68,0,1.75-6.11,7.15-7.39,7.88,2.72-.48,8.16-5.45,10.78-6-.28.63-6.21,6.13-7.33,7,1.35-.46,7.9-4.36,9.46-4.9-.14,2-4.26,4.92-5.69,5.83,1-.44,4.86-2.45,5.81-3a7.94,7.94,0,0,1-1,2.26,7.93,7.93,0,0,0,2.35-2,19.36,19.36,0,0,0,.82-2.23,5,5,0,0,1-.87,0C44.55,16.62,45.21,16.21,45.64,15.74Z" transform="translate(0.18 -0.07)"/><path class="cls-16" d="M27,31.07c-1.87-.9-3.21,2.42-2,3.57a2.73,2.73,0,0,1,1.88.25C28.25,34.28,28.41,31.74,27,31.07Z" transform="translate(0.18 -0.07)"/><path class="cls-14" d="M34.73,37.71c-1.11,0-1.53-.56-2.32-.13s.25,2,2.22,2,2.86-1.29,2.48-1.81S36,37.75,34.73,37.71Z" transform="translate(0.18 -0.07)"/><path class="cls-17" d="M34.52,31c-.91.05-1.25,2.82-1.64,4.12s-.68,2.54-.23,2.94c1.14,1,3.61.43,4.35-.29.29-.28-.29-1.64-.74-3S35.54,30.94,34.52,31Z" transform="translate(0.18 -0.07)"/><path class="cls-16" d="M43.44,31.63c-1.88-1.24-3.46,2.43-1.91,3.55a2.51,2.51,0,0,1,2,.08C44.35,34.44,44.45,32.3,43.44,31.63Z" transform="translate(0.18 -0.07)"/><path class="cls-18" d="M26.32,31.63c-.78.23-.25,1.75.52,1.24C27.4,32.5,27,31.42,26.32,31.63Z" transform="translate(0.18 -0.07)"/><path class="cls-18" d="M42.67,32c-.77.12-.47,1.63.33,1.24C43.58,33,43.35,31.9,42.67,32Z" transform="translate(0.18 -0.07)"/><path class="cls-19" d="M28.61,28a21.69,21.69,0,0,1-2.78-.55,3.38,3.38,0,0,0-3.24,2,4.83,4.83,0,0,0,.85-.12,6.63,6.63,0,0,1,1.22-.21,15,15,0,0,1,2.4.4c.59.07,3.42.81,3.48-.1a2.44,2.44,0,0,0-.35-1.35C29.87,27.79,29,28,28.61,28Z" transform="translate(0.18 -0.07)"/><path class="cls-19" d="M40.59,28.34c-.36,0-1.15-.3-1.47-.05a2.54,2.54,0,0,0-.44,1.32c0,.91,2.65.38,3.21.34.3,0,1.46-.14,1.78-.19a14.33,14.33,0,0,1,.21-1.64A25.73,25.73,0,0,1,40.59,28.34Z" transform="translate(0.18 -0.07)"/><path class="cls-19" d="M44.47,28.4a8.32,8.32,0,0,0-.09,1.29c.22.06,1.41,0,1.67.06C45.89,29.14,45,28.83,44.47,28.4Z" transform="translate(0.18 -0.07)"/><path class="cls-17" d="M44.84,37a3.34,3.34,0,0,0-2.79-.77c-1.15.1-2.65.65-1.47,2.2.63.83,5.28,1.06,4.56-.91A1.87,1.87,0,0,0,44.84,37Z" transform="translate(0.18 -0.07)"/><path class="cls-17" d="M27.49,36.61a3.52,3.52,0,0,0-2.91-.89c-1.21.06-2.79.59-1.61,2.26.64.88,5.5,1.28,4.81-.81A2,2,0,0,0,27.49,36.61Z" transform="translate(0.18 -0.07)"/><path class="cls-14" d="M24.38,39.82s1.9,8.37,8.37,9.11c4.13.47,5.51-1.65,7.15-4.21a34.13,34.13,0,0,1,2.78-4.4C39.83,42.53,32.2,44.53,24.38,39.82Z" transform="translate(0.18 -0.07)"/><path class="cls-14" d="M41.18,40.46c-.24.16.27.07,1,0s.4,1,.83.94.57-.91.09-1.36S41.18,40.46,41.18,40.46Z" transform="translate(0.18 -0.07)"/><path class="cls-14" d="M24.23,39.46c-.61.14-1,1.17-.59,1.36s.63-.73,1.29-.87,1.56.13,1.37-.08A5.1,5.1,0,0,0,24.23,39.46Z" transform="translate(0.18 -0.07)"/><path class="cls-20" d="M25.64,41.05s1.77,6.11,7.64,6.6a6.56,6.56,0,0,0,5.93-3.3,13.08,13.08,0,0,1,2.36-2.81A14.81,14.81,0,0,1,25.64,41.05Z" transform="translate(0.18 -0.07)"/><path class="cls-21" d="M25.64,41.05a9.9,9.9,0,0,0,3.44,3.5,11.93,11.93,0,0,0,7.78.83c2-.37,4.71-3.84,4.71-3.84S34.5,45.7,25.64,41.05Z" transform="translate(0.18 -0.07)"/><path class="cls-21" d="M34.12,45.33A12.66,12.66,0,0,1,28.8,44c-1-.49-1,.57-.79,1.1,0,0,.92,1.92,4.78,2.53,3.64.56,5.53-2.12,5.08-2.7S36.82,45.48,34.12,45.33Z" transform="translate(0.18 -0.07)"/><path class="cls-22" d="M25.64,41.05a7.54,7.54,0,0,0,1.47,2,29.49,29.49,0,0,0,13,.19s1.34-1.17,1.47-1.65A17.44,17.44,0,0,1,25.64,41.05Z" transform="translate(0.18 -0.07)"/><path class="cls-22" d="M28.05,43.93c5.56,3.65,9.37,1.17,9.37,1.17A16.11,16.11,0,0,1,28.05,43.93Z" transform="translate(0.18 -0.07)"/></g></svg>