<svg id="Layer_1" data-name="Layer 1" xmlns="http://www.w3.org/2000/svg" xmlns:xlink="http://www.w3.org/1999/xlink" viewBox="0 0 66 66"><defs><style>.cls-1{fill:none;}.cls-2{clip-path:url(#clip-path);}.cls-3{fill:#fff;}.cls-4{fill:#e62628;}.cls-5{fill:#3a3a4a;}.cls-6{fill:#ebebeb;}.cls-7{fill:#3d2518;}.cls-8{fill:#977053;}.cls-9{fill:#ffbc82;}.cls-10{fill:#bf541b;opacity:0.3;}.cls-11,.cls-18{fill:#b54319;}.cls-11,.cls-17{opacity:0.5;}.cls-12{fill:#82572e;}.cls-13{fill:#202930;}.cls-14{fill:#ffd4ad;}.cls-15{fill:#c3cee6;opacity:0.7;}.cls-16{fill:#2b221c;}</style><clipPath id="clip-path" transform="translate(0.18 -0.07)"><circle class="cls-1" cx="32.82" cy="33.07" r="33"/></clipPath></defs><g class="cls-2"><rect class="cls-3" width="66" height="66"/><path class="cls-4" d="M40.57,54.88l-2.68,3.85c.83.79,3.28,4.23,3.48,7.34H46.5C46,60.05,44.43,56.25,40.57,54.88Z" transform="translate(0.18 -0.07)"/><polygon class="cls-5" points="41.98 61.43 45.97 61.12 46.54 63.75 41.9 64.05 41.98 61.43"/><polygon class="cls-6" points="41.9 64.05 46.54 63.75 46.68 66 41.72 66 41.9 64.05"/><path class="cls-4" d="M26.14,54.88l2.67,3.85c-.83.79-3.28,4.23-3.48,7.34H20.21C20.72,60.05,22.27,56.25,26.14,54.88Z" transform="translate(0.18 -0.07)"/><polygon class="cls-5" points="25.09 61.43 21.09 61.12 20.53 63.75 25.16 64.05 25.09 61.43"/><polygon class="cls-6" points="25.16 64.05 20.53 63.75 20.39 66 25.34 66 25.16 64.05"/><path class="cls-4" d="M41.65,63.63c0-.6-16.85-.5-16.82.12s.07,1.47.11,2.32h16.6C41.59,65.18,41.63,64.34,41.65,63.63Z" transform="translate(0.18 -0.07)"/><path class="cls-4" d="M42.75,56.72a11,11,0,0,0-1.06,5q0,.87,0,1.68c0,1.18-16.8,1.22-16.84.05,0-.54.07-1.13.06-1.72a16,16,0,0,0-1-4.86c-.11-.31.91-3,9.27-3C41.74,53.79,42.91,56.41,42.75,56.72Z" transform="translate(0.18 -0.07)"/><path class="cls-5" d="M24.86,61.22c.61-1.07,3.81-6.25,5.3-7.27.25-.17.39,0,.63-.16s0-3.53,0-3.53h5.1a18.7,18.7,0,0,0-.05,3.53c.24.18.39,0,.64.16,1.49,1,4.69,6.2,5.3,7.27a8.27,8.27,0,0,1,0,2.9c-1.58.71-15.26.71-16.85,0A8.53,8.53,0,0,1,24.86,61.22Z" transform="translate(0.18 -0.07)"/><path class="cls-6" d="M33.56,54.29c-.74,0-2.07,3.39-1.93,3.59.3.44,2.8.52,3.1.19S34.08,54.32,33.56,54.29Z" transform="translate(0.18 -0.07)"/><polygon class="cls-6" points="34.2 50.2 33.3 50.18 33.01 66 33.91 66 34.2 50.2"/><path class="cls-7" d="M24.86,37c2.38-.55,4.78-1.05,7.18-1.54,3.94-.8,8.24.12,12.22.56,3.12.35,2.05-2.59,1.84-5.13-.3-3.78.84-4.83,1-6.75.61-9.24-4-14.26-15.54-13.84-4.95.18-10.17,2.46-12.54,7a14.13,14.13,0,0,0-1.33,6c-.15,4.67-.74,9,1.39,13.37C20.15,39,22.91,37.47,24.86,37Z" transform="translate(0.18 -0.07)"/><path class="cls-8" d="M44.45,33.9a2.33,2.33,0,0,0-1.71-.57c-.3-.43-1-5-.14-11.92,3.51.32,6,.49,5,14.87a4.94,4.94,0,0,1-2.26-.42A4.43,4.43,0,0,0,44.45,33.9Z" transform="translate(0.18 -0.07)"/><path class="cls-9" d="M19.81,37.78c.7,7.49,6.1,15.91,14.78,15.66,8.86-.26,13.72-11,13-20.23-.81-10-5.18-18.52-15.59-16.94C24.52,17.4,18.88,27.78,19.81,37.78Z" transform="translate(0.18 -0.07)"/><path class="cls-10" d="M32.57,24.56c-2-.51-4.07-1.43-6.11-1.26a3.39,3.39,0,0,0-3,2.19c-.71,1.57-1.32,3.88-3.59,3.63-1.93-.22-1.92-2.68-1.67-4.13.64-3.9,2.35-6.4,6.18-7.94,2.55-1,5.47-.76,8.16-.59a34.06,34.06,0,0,1,12.23,3.11c1.13.51,2.2,2.48.5,3.43a10.53,10.53,0,0,1-2.73.73c-1.2.22-2.35.72-3.58.9a17.46,17.46,0,0,1-5,.18A10.4,10.4,0,0,1,32.57,24.56Z" transform="translate(0.18 -0.07)"/><path class="cls-9" d="M17.9,40.9a7.08,7.08,0,0,0,2.91.45l.06-.09c.46-.67,0-4.55-.17-5.28-.48-1.85-1.53-2.86-3.28-2.45C13.75,34.37,15,39.72,17.9,40.9Z" transform="translate(0.18 -0.07)"/><path class="cls-11" d="M19.35,39.66c1.35-.77.23-3.63-.75-4.13-.79-.41-2.85.18-2,1.81.57-1.45,1.43-.45,1.25.59-.12.7-.88.68-.17,1.62C18.1,40.05,18.92,39.9,19.35,39.66Z" transform="translate(0.18 -0.07)"/><path class="cls-7" d="M43.53,22.87c-1.13.24-2.3.38-3.19.62a11.82,11.82,0,0,1-6.79.23c-2-.63-4.21-1.46-6.38-1.43a4.28,4.28,0,0,0-3.69,1.54c-1.09,1.3-4.17-.66-4.72-1.53-.72-1.16.4-3.94,1-5.08.82-1.58,1.52-3.23,3-4.12a63.51,63.51,0,0,0,7.84-5.26,2.42,2.42,0,0,0,.06.79,5.44,5.44,0,0,0,3.14-1.58c0,.46,0,.9,0,1.36,0,.24,1.82-.67,2-.78a25.11,25.11,0,0,1,2.65-1.55A20.44,20.44,0,0,0,38,8.42a9.28,9.28,0,0,0,3.74-1.5,11,11,0,0,1-.6,2.28,10.41,10.41,0,0,0,3.11-1c-.07,1.67-1.28,2.55-1.78,4,1,.24,3.25-.13,4.12.41a13.31,13.31,0,0,0-1.75,2.08A7.4,7.4,0,0,1,48,16.46c-1.05.2-1.09,2.57-1.25,4.08S44.91,22.57,43.53,22.87Z" transform="translate(0.18 -0.07)"/><path class="cls-8" d="M19.63,34a2.24,2.24,0,0,0-1.71-.57c-.3-.44-1-5-.14-11.92.24.4,2.37,1.82,5.7,2.3-1,1.39-1.82,8-1.33,12.65a2.32,2.32,0,0,1-1.63-.5A4.43,4.43,0,0,0,19.63,34Z" transform="translate(0.18 -0.07)"/><path class="cls-12" d="M29.69,9.41c-.3,1.94,2.41-.53,3-1,.13.47.26,1,.4,1.49A13.59,13.59,0,0,0,37,7.42c.12.71-.15,1.53,0,2.29,1.31,0,2.44-1.17,3.44-1.82A8.7,8.7,0,0,1,40,10a10.68,10.68,0,0,0,3.17-.92c-.23,1.34-1.49,3-2.09,4.28,1.38.12,2.77-.94,4.17-.74a6.2,6.2,0,0,0-1.41,2.77,8.26,8.26,0,0,1,3.25.9c-.43.46-1.09.87-1.29,1.48a4.84,4.84,0,0,0,.86-.06A20.54,20.54,0,0,1,45.87,20,8,8,0,0,1,43.52,22a8.41,8.41,0,0,0,1-2.27c-.95.55-4.83,2.55-5.81,3,1.43-.9,5.55-3.85,5.69-5.83-1.56.54-8.12,4.44-9.46,4.91C36.09,21,42,15.49,42.3,14.86c-2.62.55-8.07,5.52-10.78,6,1.27-.74,7.41-6.13,7.39-7.88-1.22.07-12.42,6.68-12.4,6.67.94-1.28,7.19-4.63,7-6.39-.08-.66-7.21,3.11-7.68,3.28,0-.46,5.45-4.2,4.95-4.09-8,1.72-10.27,4.82-9.3,3.21C23.11,12.89,27.46,11.68,29.69,9.41Z" transform="translate(0.18 -0.07)"/><path class="cls-13" d="M28.42,35.45a2.73,2.73,0,0,0-1.88-.24c-1.25-1.16.09-4.48,2-3.58C29.88,32.3,29.72,34.84,28.42,35.45Z" transform="translate(0.18 -0.07)"/><path class="cls-11" d="M38.58,38.3c-.45-.61-1.15,0-2.38,0s-1.53-.56-2.33-.13.25,2,2.22,2S39,38.81,38.58,38.3Z" transform="translate(0.18 -0.07)"/><path class="cls-14" d="M37.73,35.32c-.39-1.2-.72-3.81-1.75-3.76s-1.24,2.81-1.63,4.11-.69,2.55-.23,2.95c1.14,1,3.61.42,4.35-.29C38.76,38.05,38.18,36.68,37.73,35.32Z" transform="translate(0.18 -0.07)"/><path class="cls-13" d="M44.91,32.2c1,.66.91,2.8.1,3.63a2.47,2.47,0,0,0-2-.08C41.45,34.62,43,31,44.91,32.2Z" transform="translate(0.18 -0.07)"/><path class="cls-15" d="M27.79,32.19c.7-.2,1.08.87.52,1.24C27.53,33.94,27,32.42,27.79,32.19Z" transform="translate(0.18 -0.07)"/><path class="cls-15" d="M44.14,32.57c.68-.1.9,1,.33,1.24C43.67,34.2,43.37,32.69,44.14,32.57Z" transform="translate(0.18 -0.07)"/><path class="cls-16" d="M24.91,29.88a3.49,3.49,0,0,1-.85.12,3.35,3.35,0,0,1,3.24-2,20.07,20.07,0,0,0,2.78.54c.39,0,1.26-.21,1.58.07A2.41,2.41,0,0,1,32,30c-.06.91-2.89.17-3.48.09a16.44,16.44,0,0,0-2.4-.39A5.75,5.75,0,0,0,24.91,29.88Z" transform="translate(0.18 -0.07)"/><path class="cls-16" d="M45.35,28.69a27.81,27.81,0,0,1-3.29.21c-.37,0-1.15-.3-1.47,0a2.54,2.54,0,0,0-.44,1.32c0,.91,2.65.38,3.2.35.31,0,1.47-.15,1.78-.2A16.3,16.3,0,0,1,45.35,28.69Z" transform="translate(0.18 -0.07)"/><path class="cls-16" d="M45.94,29a8.11,8.11,0,0,0-.09,1.28c.22.06,1.4,0,1.67.07C47.36,29.71,46.5,29.4,45.94,29Z" transform="translate(0.18 -0.07)"/><path class="cls-14" d="M46.31,37.59a2,2,0,0,1,.3.52c.72,2-3.93,1.74-4.56.92-1.18-1.55.32-2.11,1.47-2.2A3.34,3.34,0,0,1,46.31,37.59Z" transform="translate(0.18 -0.07)"/><path class="cls-14" d="M29,37.18a1.58,1.58,0,0,1,.3.56c.69,2.08-4.18,1.69-4.81.8-1.18-1.67.4-2.2,1.61-2.26A3.51,3.51,0,0,1,29,37.18Z" transform="translate(0.18 -0.07)"/><g class="cls-17"><path class="cls-18" d="M35.51,47.08a8.69,8.69,0,0,0,7.77-4.63.48.48,0,0,0-.3-.67.63.63,0,0,0-.76.3,7.53,7.53,0,0,1-6.94,4c-3.36,0-6.24-1.86-7.17-4.63a.59.59,0,0,0-1.11.35c1.08,3.2,4.34,5.3,8.21,5.32Z" transform="translate(0.18 -0.07)"/></g></g></svg>