<svg id="Layer_1" data-name="Layer 1" xmlns="http://www.w3.org/2000/svg" xmlns:xlink="http://www.w3.org/1999/xlink" viewBox="0 0 66 66"><defs><style>.cls-1{fill:none;}.cls-2{clip-path:url(#clip-path);}.cls-3{fill:#ed9335;}.cls-4{fill:#bcceeb;}.cls-5{fill:#379bdb;}.cls-6{opacity:0.1;}.cls-7{fill:#cbdaf2;}.cls-8{fill:#f7b07c;}.cls-9{fill:#2b221c;}.cls-10{fill:#ffcb9e;}.cls-11{fill:#bf3c1b;}.cls-11,.cls-12,.cls-20{opacity:0.3;}.cls-12{fill:#c94614;}.cls-13{fill:#45362e;}.cls-14{fill:#f7a286;}.cls-15{fill:#8f3935;}.cls-16{fill:#fff9f0;}.cls-17{fill:#e8dac5;}.cls-18{fill:#ffa073;}.cls-19{fill:#261b18;}.cls-20{fill:#b54d26;}.cls-21{fill:#ffdfc2;}.cls-22{fill:#e6d2c3;opacity:0.7;}</style><clipPath id="clip-path" transform="translate(0.18 -0.07)"><circle class="cls-1" cx="32.83" cy="33.07" r="33"/></clipPath></defs><g class="cls-2"><rect class="cls-3" width="66" height="66"/><path class="cls-4" d="M43.66,55.58c-2.21-5.06-16-5.59-20.07-.15C21.9,57.67,22.21,62,23,66.07H43.7C44.45,62.3,44.81,58.2,43.66,55.58Z" transform="translate(0.18 -0.07)"/><path class="cls-5" d="M36,58.84a2.51,2.51,0,0,0-2.89-1.29,2.64,2.64,0,0,0-2.21,2l1.59,1.61-.62,4.9h3.59l-1-4.86Z" transform="translate(0.18 -0.07)"/><path class="cls-6" d="M26.39,55.69a9.64,9.64,0,0,0,4.21,5.76l3-3.13,3.18,3c3-3,3.71-3.55,3.95-6.11S25.55,52.13,26.39,55.69Z" transform="translate(0.18 -0.07)"/><path class="cls-7" d="M26.47,53c-1.49,4.16,3.91,7.54,3.91,7.54l3.22-2.2,3,2.07s5.94-3.38,3.69-8.23C38.27,47.8,28.19,48.16,26.47,53Z" transform="translate(0.18 -0.07)"/><path class="cls-8" d="M31.2,48a4.62,4.62,0,0,0-3.43,4.24,3.62,3.62,0,0,0,1,3.2A6.88,6.88,0,0,0,31.36,57c.73.22,2,1.07,2.23,1.08s.51-.37,1.2-.72c1-.52,2.43-1.21,3-2.29.81-1.59,1.53-4.73,0-6S33.09,47.6,31.2,48Z" transform="translate(0.18 -0.07)"/><path class="cls-9" d="M46.29,11.73c-5.23-5.58-13.92-6.17-23.75-2a18.92,18.92,0,0,0,5.1-.21c-5.16,2.31-11.26,5.35-12.59,11.25-1.53,6.74-.22,14.64,3.66,15.11,3.31.41,7.38-6.71,9.64-6.08,4.78,1.33,16.66-.17,20-5,1.5-2.17,1.58-5.43.73-8.3A12.29,12.29,0,0,0,46.29,11.73Z" transform="translate(0.18 -0.07)"/><path class="cls-10" d="M30.69,14.92c-8.07,1.53-13.76,12.79-12.28,23.36,1.12,7.92,7.4,16.61,16.88,15.95,9.66-.66,14.47-12.31,13.22-22C47.15,21.6,42,12.78,30.69,14.92Z" transform="translate(0.18 -0.07)"/><path class="cls-11" d="M41.33,16.84a37.54,37.54,0,0,0-9.61-1.42c-2.89-.05-6-.2-8.73,1-1.48.63-3.3,1.5-3.85,3-.46,1.27-1,2.95-.27,4.06,1.54,2.35,4.55.94,5.69.37,2.48-1.25,13.73-.4,19-.41,2.19,0,5.34-.37,4.43-3.23C47.26,17.94,43.38,17.42,41.33,16.84Z" transform="translate(0.18 -0.07)"/><path class="cls-10" d="M15.6,33.88c-4,1.06-2.37,6.68.86,7.81a8,8,0,0,0,3.21.33l.06-.09c.47-.73-.19-4.83-.43-5.6C18.69,34.39,17.5,33.37,15.6,33.88Z" transform="translate(0.18 -0.07)"/><path class="cls-12" d="M17,36c-.89-.4-3.11.32-2.07,2,.55-1.57,1.54-.54,1.38.57-.09.75-.92.76-.1,1.72.44.52,1.34.33,1.8,0C19.44,39.42,18.08,36.44,17,36Z" transform="translate(0.18 -0.07)"/><path class="cls-9" d="M43.37,11.9c-6.1-3.11-15.47-2.3-20.59,1.4s-6.56,10.5-6.56,16.52a5.69,5.69,0,0,0,2.17,4.89c1.89,1.57,1.71-3.19,1.89-5,.39-4.06,2.1-7.34,6.68-7.5,3.06-.11,15-.66,17.87.27,1.54.52,3.59,1.3,3.9-1.09a8.7,8.7,0,0,0-2.22-7.21A11.8,11.8,0,0,0,43.37,11.9Z" transform="translate(0.18 -0.07)"/><path class="cls-13" d="M44.77,12.89a15.46,15.46,0,0,0-8.65-4c-1.62-.15-4.89-.09-6.44.58a20.55,20.55,0,0,1,2.31.91,35.66,35.66,0,0,0-6.53,2.07c-.65.29-6,3.8-6,3.8,1.48.78,3.23.49,4.83.15a16.86,16.86,0,0,1,7.31-.2c2.28.51,4.34,1.61,6.6,2.12.07-1-.91-1.86-1.35-2.53,1.3,0,6.26,3,7.28,3.83-.25-.84-1.45-2.63-1.58-3.53,1.26.18,4.13,2.67,5,4.1a10.69,10.69,0,0,0-.34-3.6A8.6,8.6,0,0,0,44.77,12.89Z" transform="translate(0.18 -0.07)"/><path class="cls-14" d="M42.17,41.45c-1.75.17-3.69.23-6.16.36a69.88,69.88,0,0,1-7.79.32c-1.83-.12-2.59.09-1.37,1.48,3.48,4,5.75,4.35,8.72,4.44,4.29.12,5.94-1.8,6.55-3.7a6,6,0,0,1,1.23-1.64C44.61,41.37,44.6,41.22,42.17,41.45Z" transform="translate(0.18 -0.07)"/><path class="cls-15" d="M27.18,42.5a10,10,0,0,0,8.06,4c3.42,0,5.65-1,6.26-2.45A4.24,4.24,0,0,1,43.6,42,39.71,39.71,0,0,1,27.18,42.5Z" transform="translate(0.18 -0.07)"/><path class="cls-16" d="M29.17,42.82s.19,1.25,2.09,1.68a20.48,20.48,0,0,0,7.78.12,4,4,0,0,0,2.67-2.27A42.53,42.53,0,0,1,29.17,42.82Z" transform="translate(0.18 -0.07)"/><path class="cls-16" d="M36.56,44.84c-2.44.13-4.47,0-5.7-.62-.88-.46-.95.06-.76.38,0,0,.82,1.69,4.88,2,3.9.28,5.88-1.8,5.43-2.15S38.82,44.71,36.56,44.84Z" transform="translate(0.18 -0.07)"/><path class="cls-17" d="M29.17,42.82a1.93,1.93,0,0,0,.5.87s9.12-.88,11.31-.23a3.91,3.91,0,0,0,.73-1.11A49,49,0,0,1,29.17,42.82Z" transform="translate(0.18 -0.07)"/><path class="cls-17" d="M31.59,44.46c3.3,1.63,7.2.1,7.2.1A14.88,14.88,0,0,1,31.59,44.46Z" transform="translate(0.18 -0.07)"/><path class="cls-18" d="M47,36.8a3.71,3.71,0,0,0-2.95-1.1c-1.26,0-3,.4-1.84,2.16.6.94,5.63,1.68,5.06-.48A1.82,1.82,0,0,0,47,36.8Z" transform="translate(0.18 -0.07)"/><path class="cls-18" d="M28.13,36.56c-.88-.75-2.31-.6-3.3-.38-1.29.3-2.89,1.16-1.29,2.67.86.8,6.17.28,5-1.76A1.73,1.73,0,0,0,28.13,36.56Z" transform="translate(0.18 -0.07)"/><path class="cls-19" d="M26.19,31.37c-2.08-.87-3.38,2.72-2,3.89a3.07,3.07,0,0,1,2.07.17C27.68,34.73,27.74,32,26.19,31.37Z" transform="translate(0.18 -0.07)"/><path class="cls-20" d="M36.08,37.82c-1.22,0-1.7-.53-2.55,0s.37,2.07,2.52,2,3.07-1.5,2.62-2S37.43,37.8,36.08,37.82Z" transform="translate(0.18 -0.07)"/><path class="cls-21" d="M35.76,33.38c-2.28-.19-2.46,4.5-1.93,4.9,1.28,1,4,.29,4.73-.5C38.87,37.46,37.94,33.57,35.76,33.38Z" transform="translate(0.18 -0.07)"/><path class="cls-19" d="M46.22,31.24C44.1,30,42.55,34,44.29,35.09a2.8,2.8,0,0,1,2.2,0C47.34,34.17,47.35,31.9,46.22,31.24Z" transform="translate(0.18 -0.07)"/><path class="cls-22" d="M25.19,32.25c-.84.28-.2,1.87.63,1.29C26.41,33.12,25.94,32,25.19,32.25Z" transform="translate(0.18 -0.07)"/><path class="cls-22" d="M45.13,31.92c-.83.16-.43,1.75.42,1.3C46.16,32.9,45.87,31.78,45.13,31.92Z" transform="translate(0.18 -0.07)"/><path class="cls-9" d="M28.07,27.7a12.69,12.69,0,0,0-4.93.56c-2.1.76-1.43,1.92-1.2,2.23s.28-.55,2.69-1.14c2.21-.54,4.56.1,4.8-.49C29.74,28.11,28.81,27.76,28.07,27.7Z" transform="translate(0.18 -0.07)"/><path class="cls-9" d="M46.81,27.59a11.56,11.56,0,0,0-5,0c-.74.16-1.63.65-1.26,1.44.28.63,2.58-.36,4.84,0,2.45.38,2.58,1.32,2.78,1S49,28.2,46.81,27.59Z" transform="translate(0.18 -0.07)"/><path class="cls-4" d="M26.19,58l-.35-4.47c-6.61,1.53-8.65,6.93-9,12.59h6.61S23.82,59.08,26.19,58Z" transform="translate(0.18 -0.07)"/><path class="cls-4" d="M41.35,53.48,41,58c2.37,1.13,2.69,8.12,2.69,8.12h6.62C50,60.41,48,55,41.35,53.48Z" transform="translate(0.18 -0.07)"/></g></svg>