<svg id="Layer_1" data-name="Layer 1" xmlns="http://www.w3.org/2000/svg" xmlns:xlink="http://www.w3.org/1999/xlink" viewBox="0 0 66 66"><defs><style>.cls-1{fill:none;}.cls-2{clip-path:url(#clip-path);}.cls-3{fill:#ef5649;}.cls-4{fill:#9ab5de;}.cls-5{fill:#3a3a4a;}.cls-6{fill:#f2f2f2;}.cls-7{opacity:0.1;}.cls-8{fill:#b0c6e8;}.cls-9{fill:#f1aa83;}.cls-10{fill:#c9beb7;}.cls-11{fill:#ffb97f;}.cls-12,.cls-16{fill:#bf3c1b;}.cls-12{opacity:0.2;}.cls-13,.cls-19{fill:#b54319;}.cls-13{opacity:0.35;}.cls-14{fill:#f0eae6;}.cls-14,.cls-27{opacity:0.7;}.cls-15{fill:#9e8f88;}.cls-16,.cls-18,.cls-21,.cls-25{opacity:0.3;}.cls-17{fill:#ffcb9e;}.cls-18{fill:#6e2210;}.cls-19{opacity:0.5;}.cls-20{fill:#121b21;}.cls-21{fill:#a67663;}.cls-22{fill:#ffd2ab;}.cls-23{fill:#7d8ba8;}.cls-24{fill:#4f2c1e;}.cls-25,.cls-26,.cls-27{fill:#fff;}.cls-28{fill:#c1c5c9;}</style><clipPath id="clip-path" transform="translate(0.18 -0.07)"><circle class="cls-1" cx="32.82" cy="33.07" r="33"/></clipPath></defs><g class="cls-2"><rect class="cls-3" width="66" height="66"/><path class="cls-4" d="M26.46,56.85l-.88-4.56a9.25,9.25,0,0,0-7.21,8.43c-.16,2-.36,5.08-.36,5.35h5.75S24.08,58.12,26.46,56.85Z" transform="translate(0.18 -0.07)"/><path class="cls-4" d="M40.18,52.29l-.87,4.56C41.68,58.12,42,66.07,42,66.07h5.75c0-.27-.2-3.36-.36-5.35A9.23,9.23,0,0,0,40.18,52.29Z" transform="translate(0.18 -0.07)"/><path class="cls-4" d="M40.31,52c-3.67-1.27-10.67-1.76-15,.18-2.4,1.07-2.1,7.76-1.9,13.9H42.32C42.46,59.91,42.62,52.8,40.31,52Z" transform="translate(0.18 -0.07)"/><path class="cls-5" d="M40.84,52.13a.83.83,0,1,0-1.59.46c.71,2.48.27,7-.2,11.87l-.15,1.61h1.67c0-.48.09-1,.14-1.45C41.19,59.63,41.64,54.91,40.84,52.13Z" transform="translate(0.18 -0.07)"/><rect class="cls-6" x="39.57" y="62.23" width="0.83" height="1.95" transform="translate(-23.86 101.79) rotate(-88.8)"/><path class="cls-5" d="M26.52,52.59a.83.83,0,1,0-1.6-.46c-.8,2.78-.34,7.5.14,12.49,0,.48.09,1,.13,1.45h1.67l-.15-1.6C26.24,59.63,25.8,55.07,26.52,52.59Z" transform="translate(0.18 -0.07)"/><rect class="cls-6" x="24.8" y="62.79" width="1.95" height="0.83" transform="translate(-1.08 0.46) rotate(-1.15)"/><path class="cls-7" d="M36.5,54.4C34.24,53,25.06,52.62,26.09,56.55a11.26,11.26,0,0,0,3.73,5.89l3.06-3.5,3.26,3.31a17,17,0,0,0,4-6.56A6.5,6.5,0,0,1,36.5,54.4Z" transform="translate(0.18 -0.07)"/><path class="cls-8" d="M25.88,53c-1.45,4.66,3.84,8.44,3.84,8.44l3.16-2.46,2.94,2.32s5.83-3.79,3.62-9.21C37.46,47.17,27.57,47.57,25.88,53Z" transform="translate(0.18 -0.07)"/><path class="cls-9" d="M32.75,45.62c-2.57.05-6.17,1.64-6.37,5.65-.09,1.86.2,2.94,1.16,4a15.18,15.18,0,0,0,5.4,3.12A16.17,16.17,0,0,0,38.24,55c.93-1.05,1.19-2.14,1-4C39,47,35.32,45.57,32.75,45.62Z" transform="translate(0.18 -0.07)"/><path class="cls-6" d="M32.89,63.31a.63.63,0,1,0,.63.62A.62.62,0,0,0,32.89,63.31Z" transform="translate(0.18 -0.07)"/><path class="cls-10" d="M29,8.54c-21.18,1.56-17.8,31-11.76,29.72,4.46-.92,8.86-2.16,13.28-3.24,4.13-1,8.68-.18,12.9.12,3.29.25,3.25-1.15,3.43-3.83.33-5-.22-6.81,0-8.82C47.94,13.94,41.09,7.65,29,8.54Z" transform="translate(0.18 -0.07)"/><path class="cls-11" d="M29.66,14.79c-7.78,1.48-13.32,12.63-11.95,23.13,1,7.86,7,16.52,16.17,15.92,9.32-.61,14-12.14,12.86-21.81C45.49,21.52,40.57,12.73,29.66,14.79Z" transform="translate(0.18 -0.07)"/><path class="cls-11" d="M15,33.53c-3.83,1-2.33,6.62.79,7.76a7.71,7.71,0,0,0,3.08.35l.06-.1c.46-.72-.33-4.43-.56-5.2C17.81,34.41,16.85,33,15,33.53Z" transform="translate(0.18 -0.07)"/><path class="cls-12" d="M43.25,17.78a35.83,35.83,0,0,0-13-2.81c-3.1-.07-7.74-.28-10.24,2-2,1.82-2.17,5.22-2.3,7.74,0,.95-.07,8.26.49,6.68,1-2.86,3.36-3.94,3.3-6.95,4.48,2,11.23,1.88,17.09,1.31,3.69-.35,6.65-1.26,7.37,1.81C46.46,24.87,46.18,19,43.25,17.78Z" transform="translate(0.18 -0.07)"/><path class="cls-13" d="M16.35,35.59c-.86-.4-3,.3-2,2,.54-1.56,1.48-.53,1.33.58-.1.74-.9.74-.11,1.7.43.52,1.29.33,1.73.06C18.69,39.05,17.39,36.08,16.35,35.59Z" transform="translate(0.18 -0.07)"/><path class="cls-10" d="M50.67,10.65c-5,4-13.05-4.82-24.37-1.44-15.49,4.62-9.73,21-9.66,23a9.72,9.72,0,0,0,1.58,4.5,3.6,3.6,0,0,0,2.08,0c-1.38-1.31-1.93-4.83-.8-8.13.63-1.83,1.55-3.13,1.35-5.61,1.35,1.24,11.08,3.1,23.24.56a11.6,11.6,0,0,0,7.52-5.09,27.93,27.93,0,0,0-3,.34C50.41,16.94,50.64,13.31,50.67,10.65Z" transform="translate(0.18 -0.07)"/><path class="cls-14" d="M37.88,10.23C32.33,8.67,23.85,8.51,19.5,13s-.61,8.47,14.2,8.3C47.22,21.18,50,11.64,50,11.64,46,13.55,43.42,11.8,37.88,10.23Z" transform="translate(0.18 -0.07)"/><path class="cls-15" d="M15.87,33.44c1.34.09,1.52,2.7,2.48,3.37a3.49,3.49,0,0,0,1.95-.09c-1-1.48-1.25-5.25-1.26-6.31C18.31,32,14.64,33.36,15.87,33.44Z" transform="translate(0.18 -0.07)"/><path class="cls-14" d="M15.11,18.84A14.27,14.27,0,0,0,14,22.68c-.2,1.6-.35,3.84.83,5.12A2.46,2.46,0,0,0,19,26.74C20.64,21.81,15.11,18.84,15.11,18.84Z" transform="translate(0.18 -0.07)"/><path class="cls-7" d="M25,52.74c1.57,5.89,14.41,7.46,17.17.88C44.21,48.73,23.79,48.22,25,52.74Z" transform="translate(0.18 -0.07)"/><path class="cls-10" d="M46.59,30.87c.75,16-4.23,10-4.23,10l-1.54.62c.56,3.89-3.48,5.53-4.15,2.92l-3.79.2c-1,3.84-5.07-.41-5-2.71s-1.84-.57-1.84-.57c-2.51,2.46-5.95-3.66-6.26-5l-1.93-.14S18,57.73,36.52,56c15.87-1.48,10.36-25.89,10.36-25.89Z" transform="translate(0.18 -0.07)"/><path class="cls-16" d="M30.17,43.52c1.2,3,7.51,2.82,8.44.39C36.47,44.67,31.82,45,30.17,43.52Z" transform="translate(0.18 -0.07)"/><path class="cls-17" d="M35.9,42a19,19,0,0,1-4.76-.25,1.19,1.19,0,0,0-1.19,2c1.28,1.46,3.75,1.4,5.36,1.31,1.28-.07,3.95-.34,4.16-2.41C39.65,40.84,36.64,41.9,35.9,42Z" transform="translate(0.18 -0.07)"/><path class="cls-18" d="M25.67,41.52c5.18,2.54,14.41,2.31,17.69-.54C39.25,41.78,29.69,42.34,25.67,41.52Z" transform="translate(0.18 -0.07)"/><path class="cls-19" d="M23.29,33.94c0,.63,1.47.32,1.9.42-.37.39-1.49.39-2,.66s-.43.47.15.46a10.69,10.69,0,0,0,2.54-.68C27,33.91,23.78,33.8,23.29,33.94Z" transform="translate(0.18 -0.07)"/><path class="cls-19" d="M45.33,34.47c-.36-.27-1.3-.29-1.57-.68.37-.1,1.54.23,1.64-.39-.4-.14-3.09-.1-2.3.8a7.2,7.2,0,0,0,2.06.72C45.64,34.94,45.71,34.76,45.33,34.47Z" transform="translate(0.18 -0.07)"/><path class="cls-20" d="M27.13,31.24c-2-.88-3.28,2.67-1.92,3.84a2.9,2.9,0,0,1,2,.18C28.55,34.57,28.62,31.89,27.13,31.24Z" transform="translate(0.18 -0.07)"/><path class="cls-10" d="M35.31,37.76l-1.52,0a9.87,9.87,0,0,0-5.21,1.11c-.78.38-2.93,1.77-3.31,2.58a33.16,33.16,0,0,0,15.85.44,6.55,6.55,0,0,0,2.67-1.06c-1.84-1.48-4.49-3.14-6.95-3.21A6.1,6.1,0,0,0,35.31,37.76Z" transform="translate(0.18 -0.07)"/><path class="cls-21" d="M35.27,37.07c-1,0-1.43-.32-2.11,0s.31,1.61,2.09,1.54,2.57-1.29,2.17-1.63S36.39,37.05,35.27,37.07Z" transform="translate(0.18 -0.07)"/><path class="cls-22" d="M34.65,31.43c-.88.05-1,2.42-1.34,3.53s-.51,2.18,0,2.51c1.14.81,3.49.3,4.16-.32.27-.24-.37-1.39-.88-2.54S35.63,31.38,34.65,31.43Z" transform="translate(0.18 -0.07)"/><path class="cls-20" d="M43.25,31.17c-2-1.11-3.66,3.24-1.39,3.79a2.65,2.65,0,0,1,1.74-.5C44.37,33.55,44.35,31.76,43.25,31.17Z" transform="translate(0.18 -0.07)"/><path class="cls-23" d="M26.55,31.74c-.81.27-.2,1.86.59,1.29C27.72,32.61,27.28,31.5,26.55,31.74Z" transform="translate(0.18 -0.07)"/><path class="cls-23" d="M42.74,31.72c-.78.19-.33,1.71.45,1.24C43.76,32.62,43.43,31.55,42.74,31.72Z" transform="translate(0.18 -0.07)"/><path class="cls-24" d="M41.48,26.9c-1.8.06-3.14,0-3.15,0,0,.85.39,2.58,1.75,2.41.82-.11,1.66-.33,2.47-.38a10.51,10.51,0,0,1,3,.28.52.52,0,0,0,.54-.81A6,6,0,0,0,41.48,26.9Z" transform="translate(0.18 -0.07)"/><path class="cls-24" d="M27.1,27.13a6.67,6.67,0,0,0-5,1.72c-.24.21,0,1,.69.8a12.53,12.53,0,0,1,3.34-.4c.91,0,1.88.21,2.8.28,1.54.12,1.79-1.64,1.68-2.5C30.61,27,29.12,27.12,27.1,27.13Z" transform="translate(0.18 -0.07)"/><path class="cls-22" d="M45.49,36.5a3.23,3.23,0,0,0-3-.76c-1.21.17-2.77.9-1.48,2.66.69.94,5.6,1,4.77-1.3A1.73,1.73,0,0,0,45.49,36.5Z" transform="translate(0.18 -0.07)"/><path class="cls-22" d="M27.59,36.63a3.24,3.24,0,0,0-3.13-.71c-1.27.23-2.87,1.08-1.46,3,.75,1,5.9.86,5-1.6A2,2,0,0,0,27.59,36.63Z" transform="translate(0.18 -0.07)"/><path class="cls-14" d="M37.09,38.72a5.18,5.18,0,0,1-2.48.67c-.6,0-2.17-.8-3.09-.69a10.55,10.55,0,0,0-3.61,1.87c4.5,1,10.31,1.31,13.56-.39C40.39,39.28,38.27,38.18,37.09,38.72Z" transform="translate(0.18 -0.07)"/><path class="cls-14" d="M42.35,46.45c-1.35-1.63-2.79-.22-2.73,1.5-2-2.8-5.63-.9-5.79.94-1.14-3.11-4.28-2.9-4.06-.75-.49-1.86-3.12-4.28-5.12-3.93-3.48.61-.51,5.16.66,6.73,4.22,5.63,21.38,5.07,20.17-5.85C45.17,42.29,42,43,42.35,46.45Z" transform="translate(0.18 -0.07)"/><path class="cls-21" d="M41.55,31.15c.83-.06,1.66-.07,2.49-.09a5.93,5.93,0,0,0,2.1-.17c.87-.36.69-1.57.16-2.18s-1.37-.43-2.13-.35a20.34,20.34,0,0,0-2.89.51,17.79,17.79,0,0,0-3.67,1,4.45,4.45,0,0,1-2.7.81c-2.26-.09-4.18-1.48-6.44-1.7a18.94,18.94,0,0,0-7.08.16c-.6.17-2.42.87-1.18,1.51s3,.41,4.32.45c.61,0,1.22,0,1.82.09,2.16.18,5.46-.13,5.31,2.55-.11,1.85-1.29,3.75-2.78,4.1a19,19,0,0,1-4.43.48,7.43,7.43,0,0,1-3.21-.67c-.29-.13-1.15-.67-1.43-.28-.47.66,1.29,1.75,1.75,2a10.32,10.32,0,0,0,3.3.72c2.81.28,5.69.12,7.26-2.47.91-1.5,1.36-3.26,2.2-4.8,1.38-2.52,2,.91,2.36,2.41a8,8,0,0,0,1,2.37,5.37,5.37,0,0,0,4,2.08,17.41,17.41,0,0,0,4.49-.48c.5-.21.77-1,.18-1.29a30.47,30.47,0,0,0-3.26.32A10.15,10.15,0,0,1,41.42,38a4.87,4.87,0,0,1-2-.92,4,4,0,0,1-1-1.19,3.87,3.87,0,0,1-.16-3.16C38.81,31.32,40.31,31.24,41.55,31.15Z" transform="translate(0.18 -0.07)"/><path class="cls-5" d="M19,28.91c-1.84.18-3.45-.23-3.87.17s.57,2.1.57,2.1a3.18,3.18,0,0,0,1.48.4c.2,1.27.35,4.59,2.84,6.53,2.08,1.62,8.54,1.71,10.47.57A7.73,7.73,0,0,0,34,32.59C34.75,26.94,21.56,28.66,19,28.91Zm11.53,8.26c-2.34,1.74-8.64,1.4-10.39-.5-1.35-1.47-1.78-4.69-1.05-5.2,2.25-1.56,11.08-1.59,13.22-.17C33.3,32,32.26,35.85,30.49,37.17Z" transform="translate(0.18 -0.07)"/><path class="cls-5" d="M49.11,28.28c-2.25-.13-13.68-1.23-12.9,4.38.32,2.29,1.17,4.62,3.28,5.92,1.7,1,7.27.65,9-1.06,2.09-2.05,2.12-5.38,2.26-6.66A2.61,2.61,0,0,0,52,30.4s.89-1.64.42-2.13S50.7,28.37,49.11,28.28Zm-.75,7.8c-1.46,2-6.88,2.61-9,1-1.57-1.24-2.58-5-1.71-5.79,1.8-1.51,9.42-1.89,11.41-.44C49.76,31.32,49.48,34.55,48.36,36.08Z" transform="translate(0.18 -0.07)"/><path class="cls-25" d="M39.21,30.87c-1.27.49.95,1.31,1.43,1.41a16,16,0,0,0,5.41.1c1-.13,3-.91,2.48-1.49C47.76,30.08,40.62,30.33,39.21,30.87Z" transform="translate(0.18 -0.07)"/><path class="cls-26" d="M44.8,30.86c-.69.07-1.14.26-1,.59.33.64,4.32.51,4.62.05S46.25,30.7,44.8,30.86Z" transform="translate(0.18 -0.07)"/><path class="cls-27" d="M40.39,35.65c-.43,0-.73.05-.66.34.14.55,2.6.95,2.83.62S41.29,35.7,40.39,35.65Z" transform="translate(0.18 -0.07)"/><path class="cls-27" d="M21.51,36.11c-.47,0-.81,0-.74.32.12.56,2.82,1,3.09.73S22.5,36.21,21.51,36.11Z" transform="translate(0.18 -0.07)"/><path class="cls-25" d="M31.27,31c-1.69-.48-9.92-.55-10.72.23-.57.55,1.91,1.25,3,1.35a22.37,22.37,0,0,0,6.21-.21C30.33,32.29,32.8,31.47,31.27,31Z" transform="translate(0.18 -0.07)"/><path class="cls-26" d="M27.67,30.79c-.75.08-1.25.26-1.06.59.36.65,4.77.51,5.09.05S29.28,30.63,27.67,30.79Z" transform="translate(0.18 -0.07)"/><path class="cls-5" d="M38,29.36a10,10,0,0,1-5.88.1c-1.85-.5,1,1.1,1.19,2s0,4,.58,2.26,1.78-1.78,2.53-.2.89-2.54,1.21-2.91S39.68,28.84,38,29.36Z" transform="translate(0.18 -0.07)"/><path class="cls-28" d="M19.86,29.4c5-.07,9-.19,12.09.78C29.88,28.69,26.48,28.56,19.86,29.4Z" transform="translate(0.18 -0.07)"/><path class="cls-28" d="M38.48,29.91c2.59-1.1,5.84-.83,10.2-1.22C42.85,28.57,40.13,28.46,38.48,29.91Z" transform="translate(0.18 -0.07)"/></g></svg>