<svg id="Layer_1" data-name="Layer 1" xmlns="http://www.w3.org/2000/svg" xmlns:xlink="http://www.w3.org/1999/xlink" viewBox="0 0 66 66"><defs><style>.cls-1{fill:none;}.cls-2{clip-path:url(#clip-path);}.cls-3{fill:#88af91;}.cls-4{fill:#108d8e;}.cls-5{fill:#c9beb7;}.cls-6{fill:#27b3b0;}.cls-7{fill:#949494;opacity:0.5;}.cls-8{fill:#2b221c;}.cls-9{fill:#ffcb9e;}.cls-10{fill:#bf3c1b;}.cls-10,.cls-11,.cls-19{opacity:0.3;}.cls-11{fill:#c94614;}.cls-12,.cls-22{fill:#45362e;}.cls-13{fill:#f7a286;}.cls-14{fill:#8f3935;}.cls-15{fill:#fff9f0;}.cls-16{fill:#e8dac5;}.cls-17{fill:#ffa073;}.cls-18{fill:#261b18;}.cls-19{fill:#b54d26;}.cls-20{fill:#ffdfc2;}.cls-21{fill:#e6d2c3;}.cls-21,.cls-22{opacity:0.7;}</style><clipPath id="clip-path" transform="translate(0.19 -0.28)"><circle class="cls-1" cx="32.83" cy="33.28" r="33"/></clipPath></defs><g class="cls-2"><rect class="cls-3" width="66" height="66"/><path class="cls-4" d="M15.92,66.28c0-.25-.26-4.37-.09-6.22.25-2.5,1.85-5.2,6.25-6.65L24,57.71c-2.28,1.19-2.59,8.57-2.59,8.57Z" transform="translate(0.19 -0.28)"/><path class="cls-4" d="M46.91,66.28A62,62,0,0,0,47,60.06c-.24-2.5-1.84-5.2-6.25-6.65l-1.93,4.3c2.28,1.19,2.59,8.57,2.59,8.57Z" transform="translate(0.19 -0.28)"/><path class="cls-5" d="M23.77,53.08c-4.08,2.65-3.68,6.86-2.68,13.2H41.7c1.09-6.23,1.57-11.46-2.42-13.6C34.31,50,27.07,50.93,23.77,53.08Z" transform="translate(0.19 -0.28)"/><path class="cls-4" d="M39.08,52.23s4.39,1.63,4.81,2.72c.31.81-.76,6.15-1.65,11.33H35.61C36.7,61.09,38,55.69,39.08,52.23Z" transform="translate(0.19 -0.28)"/><path class="cls-6" d="M39,51.44c4.14.29,5.69,2.93,5.63,3.6S37.87,57.71,38,57,39,51.44,39,51.44Z" transform="translate(0.19 -0.28)"/><path class="cls-6" d="M38.4,55.14c.52-.89,5,2.94,4.7,3.73-.12.35-1.8,3.59-3.73,7.41h-4C36.51,60.81,37.83,56.13,38.4,55.14Z" transform="translate(0.19 -0.28)"/><path class="cls-4" d="M23.65,52.23s-4.39,1.63-4.8,2.72c-.32.81.76,6.15,1.65,11.33h6.63C26,61.09,24.72,55.69,23.65,52.23Z" transform="translate(0.19 -0.28)"/><path class="cls-6" d="M23.77,51.44c-4.14.29-5.68,2.93-5.62,3.6s6.71,2.67,6.54,2S23.77,51.44,23.77,51.44Z" transform="translate(0.19 -0.28)"/><path class="cls-6" d="M24.33,55.14c-.52-.89-5,2.94-4.7,3.73.13.35,1.81,3.59,3.74,7.41h4C26.23,60.81,24.9,56.13,24.33,55.14Z" transform="translate(0.19 -0.28)"/><path class="cls-7" d="M31.38,59.43c9.33,0,12-13.32-.79-13.32C21.37,46.11,21.4,59.43,31.38,59.43Z" transform="translate(0.19 -0.28)"/><path class="cls-5" d="M31.37,58.28c10,0,12.83-12.61-.84-12.61C20.69,45.67,20.72,58.28,31.37,58.28Z" transform="translate(0.19 -0.28)"/><path class="cls-8" d="M47.93,16.89A12.4,12.4,0,0,0,45.28,12C40.23,6.25,31.67,5.49,21.9,9.5a18.63,18.63,0,0,0,5-.12c-5.13,2.25-11.21,5.23-12.63,11.19-1.63,6.82-.48,14.86,3.33,15.41,3.26.47,7.4-6.68,9.62-6,4.68,1.44,16.43.13,19.8-4.68C48.58,23.13,48.72,19.82,47.93,16.89Z" transform="translate(0.19 -0.28)"/><path class="cls-9" d="M17.3,38.46c.95,8,7,17,16.33,16.5,9.54-.51,14.5-12.24,13.45-22.14C45.94,22.05,41,13,29.84,15,21.86,16.36,16,27.7,17.3,38.46Z" transform="translate(0.19 -0.28)"/><path class="cls-10" d="M23.64,23.9c-1.14.56-4.14,1.94-5.61-.48-.7-1.14-.14-2.83.34-4.11.57-1.56,2.38-2.4,3.85-3,2.68-1.12,5.78-.91,8.63-.8a36,36,0,0,1,9.44,1.62c2,.62,5.83,1.22,6.49,3.53.84,2.92-2.27,3.23-4.43,3.2C37.18,23.75,26.1,22.68,23.64,23.9Z" transform="translate(0.19 -0.28)"/><path class="cls-9" d="M15.31,41.87a7.55,7.55,0,0,0,3.15.4l.07-.09c.48-.73-.1-4.9-.32-5.69-.57-2-1.72-3-3.6-2.56C10.68,34.94,12.14,40.67,15.31,41.87Z" transform="translate(0.19 -0.28)"/><path class="cls-11" d="M16.85,40.49c1.44-.87.15-3.92-.91-4.43-.87-.42-3.08.27-2.08,2,.58-1.58,1.53-.52,1.36.61-.12.76-.93.75-.14,1.74C15.51,41,16.4,40.77,16.85,40.49Z" transform="translate(0.19 -0.28)"/><path class="cls-8" d="M42.4,12.12c-5.95-3.26-15.2-2.61-20.32,1.05S15.41,23.71,15.3,29.83a5.86,5.86,0,0,0,2,5c1.83,1.63,1.75-3.21,2-5,.46-4.12,2.21-7.42,6.73-7.5,3-.06,14.85-.39,17.61.61,1.51.55,3.52,1.37,3.87-1a9,9,0,0,0-2.06-7.37A11.69,11.69,0,0,0,42.4,12.12Z" transform="translate(0.19 -0.28)"/><path class="cls-12" d="M46.39,20.58a10.78,10.78,0,0,0-.27-3.66,8.75,8.75,0,0,0-2.36-3.76A15.08,15.08,0,0,0,35.31,8.9c-1.6-.18-4.82-.18-6.36.46a22.93,22.93,0,0,1,2.26,1,34.4,34.4,0,0,0-6.48,2c-.64.28-6,3.75-6,3.75,1.44.82,3.17.55,4.75.23a16.15,16.15,0,0,1,7.22-.06C33,16.79,35,18,37.2,18.51c.09-1-.86-1.9-1.28-2.59,1.28,0,6.11,3.18,7.1,4-.22-.86-1.38-2.7-1.49-3.61C42.77,16.53,45.56,19.11,46.39,20.58Z" transform="translate(0.19 -0.28)"/><path class="cls-13" d="M34.58,42.36a68.91,68.91,0,0,1-7.68.18c-1.16-.1-1.91.84-1.39,1.48,3.36,4.13,5.59,4.52,8.52,4.66,4.23.21,5.88-1.71,6.52-3.63A6.33,6.33,0,0,1,41.8,43.4c.71-.74,0-1.38-1.14-1.29C38.93,42.25,37,42.27,34.58,42.36Z" transform="translate(0.19 -0.28)"/><path class="cls-14" d="M25.86,42.9a38.07,38.07,0,0,0,16.2-.27,4.3,4.3,0,0,0-2.12,2.13c-.62,1.42-2.84,2.42-6.21,2.38A9.88,9.88,0,0,1,25.86,42.9Z" transform="translate(0.19 -0.28)"/><path class="cls-15" d="M27.82,43.26s.16,1.27,2,1.74a19.4,19.4,0,0,0,7.66.26A4,4,0,0,0,40.19,43,40.91,40.91,0,0,1,27.82,43.26Z" transform="translate(0.19 -0.28)"/><path class="cls-15" d="M28.7,45.08c-.18-.33-.1-.86.75-.37,1.21.69,3.21.82,5.62.73,2.23-.08,3.36-.68,3.79-.32s-1.54,2.44-5.38,2.08C29.48,46.82,28.7,45.08,28.7,45.08Z" transform="translate(0.19 -0.28)"/><path class="cls-16" d="M28.3,44.15s9-.73,11.15,0A3.94,3.94,0,0,0,40.19,43a47.05,47.05,0,0,1-12.37.25A1.89,1.89,0,0,0,28.3,44.15Z" transform="translate(0.19 -0.28)"/><path class="cls-16" d="M30.17,45a14.21,14.21,0,0,0,7.1.24S33.4,46.68,30.17,45Z" transform="translate(0.19 -0.28)"/><path class="cls-17" d="M45.52,37.47a1.81,1.81,0,0,1,.25.6c.53,2.2-4.42,1.36-5,.39-1.07-1.81.61-2.21,1.85-2.16A3.56,3.56,0,0,1,45.52,37.47Z" transform="translate(0.19 -0.28)"/><path class="cls-17" d="M26.91,36.88a2,2,0,0,1,.41.54c1.1,2.1-4.15,2.54-5,1.7-1.56-1.56,0-2.4,1.32-2.68C24.65,36.23,26.06,36.1,26.91,36.88Z" transform="translate(0.19 -0.28)"/><path class="cls-18" d="M25.11,35.7a2.88,2.88,0,0,0-2-.21c-1.38-1.22,0-4.83,2-3.91C26.61,32.27,26.5,35,25.11,35.7Z" transform="translate(0.19 -0.28)"/><path class="cls-19" d="M37.28,38.27c-.5-.64-1.23,0-2.56,0s-1.66-.56-2.51-.07.32,2.1,2.44,2.06S37.71,38.82,37.28,38.27Z" transform="translate(0.19 -0.28)"/><path class="cls-20" d="M34.49,33.8c-2.25-.24-2.5,4.51-2,4.93,1.25,1,3.9.37,4.68-.42C37.48,38,36.64,34,34.49,33.8Z" transform="translate(0.19 -0.28)"/><path class="cls-18" d="M44.84,31.81c1.11.69,1,3,.2,3.91a2.69,2.69,0,0,0-2.17,0C41.17,34.51,42.78,30.52,44.84,31.81Z" transform="translate(0.19 -0.28)"/><path class="cls-21" d="M24.1,32.45c.74-.23,1.18.91.59,1.33C23.86,34.35,23.26,32.72,24.1,32.45Z" transform="translate(0.19 -0.28)"/><path class="cls-21" d="M43.76,32.48c.73-.13,1,1,.39,1.33C43.3,34.25,42.93,32.63,43.76,32.48Z" transform="translate(0.19 -0.28)"/><path class="cls-8" d="M22.41,27.16a9.14,9.14,0,0,1,4.86.8c.7.31,1.49,1.07,1,2-.37.72-2.46-.89-4.71-.85-2.45,0-2.72,1.18-2.86.69A1.92,1.92,0,0,1,22.41,27.16Z" transform="translate(0.19 -0.28)"/><path class="cls-8" d="M45.38,27.58a9.22,9.22,0,0,0-4.88.62c-.71.29-1.53,1-1.09,1.95.35.74,2.5-.79,4.75-.67,2.44.13,2.67,1.28,2.83.8A1.94,1.94,0,0,0,45.38,27.58Z" transform="translate(0.19 -0.28)"/><path class="cls-8" d="M40.78,40.34c2,1.5,2.94,2.23,5.28.81-.29,2.8-3.17,4-5.67,3.2a3.56,3.56,0,0,1-1.53-.9C38,45,35.75,43.36,35,42.56c-.47,1.06-2.58,1.53-3.38.62-2,2.61-9.86,3.09-10.31-2a4.3,4.3,0,0,0,6.1.27c2.66-2.82,3.93-1.72,7.37-1.71C37.4,39.44,38.64,38.79,40.78,40.34Z" transform="translate(0.19 -0.28)"/><path class="cls-22" d="M41.4,41.83c-.18.43-1.12.62-1.5.69a5.61,5.61,0,0,1-2.44-.23c-.14,1-2.42-.21-2.72-.62a1.79,1.79,0,0,1-1.35,1c-.83.15-1.11-.29-1.55-.86a3.86,3.86,0,0,1-2.16,1c-.39,0-1.37,0-1.65-.35-.51-.67,1.5-2,2-2.29a3.21,3.21,0,0,1,2.3-.27,11.38,11.38,0,0,0,3.19.15,6.79,6.79,0,0,1,3.74.15c.52.24,1.85.75,2.1,1.29A.48.48,0,0,1,41.4,41.83Z" transform="translate(0.19 -0.28)"/></g></svg>