<svg id="Layer_1" data-name="Layer 1" xmlns="http://www.w3.org/2000/svg" xmlns:xlink="http://www.w3.org/1999/xlink" viewBox="0 0 66 66"><defs><style>.cls-1{fill:none;}.cls-2{clip-path:url(#clip-path);}.cls-3{fill:#507d52;}.cls-4{fill:#85b428;}.cls-5{fill:#bbe351;}.cls-6{fill:#8f4721;}.cls-7{fill:#261b18;}.cls-8{fill:#9c552c;}.cls-9{fill:#661004;opacity:0.4;}.cls-10{fill:#bf6c3c;}.cls-11{fill:#f0ded1;opacity:0.7;}.cls-12{opacity:0.8;}.cls-13{fill:#541d15;}.cls-14{fill:#45362e;}</style><clipPath id="clip-path" transform="translate(0.19 -0.07)"><circle class="cls-1" cx="32.83" cy="33.07" r="33"/></clipPath></defs><g class="cls-2"><rect class="cls-3" width="66" height="66"/><path class="cls-4" d="M25.88,56c-4.11,1.62-8.1,5.19-9.09,10.1h7.3C26,61.21,27.13,55.47,25.88,56Z" transform="translate(0.19 -0.07)"/><path class="cls-4" d="M39.75,56c-1.25-.5-.11,5.24,1.8,10.1h7.3C47.85,61.16,43.87,57.59,39.75,56Z" transform="translate(0.19 -0.07)"/><path class="cls-4" d="M32.78,54.89c-8.09,0-9.08,2.65-9,3,.27.74-.15,4.32.06,8.23H41.72c.29-4,0-7.51.41-8.28C42.28,57.49,41.12,54.85,32.78,54.89Z" transform="translate(0.19 -0.07)"/><path class="cls-5" d="M27.3,55.69c-1.84,2.71,5.52,5.74,5.52,5.74s6.51-2.83,5.81-5.28C37.8,53.24,29,53.25,27.3,55.69Z" transform="translate(0.19 -0.07)"/><path class="cls-6" d="M32.84,50.19a4.47,4.47,0,0,0-4.71,4.09,3.51,3.51,0,0,0,.81,2.94,5.89,5.89,0,0,0,3.9,2.24,5.89,5.89,0,0,0,3.9-2.24,3.51,3.51,0,0,0,.81-2.94A4.47,4.47,0,0,0,32.84,50.19Z" transform="translate(0.19 -0.07)"/><path class="cls-7" d="M50.5,15.87c.78-1-.41-2.56-1.63-2.45.26-.93-.57-1.65-1.66-1.17-.09-1.74-1.62-2.09-3-1.54A1.37,1.37,0,0,0,41.85,10c-.31-1.49-2-1.36-3.12-.7a2.52,2.52,0,0,0-3.62-.52c-1-1-2.91-.67-3.85.38-1.17-1-2.47-.47-3.18.76-1.12-1.18-2.61-.06-3.42,1-1.09-1-2.76-.09-3.12,1.19a2.27,2.27,0,0,0-3.09,1.62c-1.67-.14-3.43,1.35-2.4,3-1.25.19-2.58,1.7-1.24,2.72-1.34.14-1.43,1.59-.71,2.46-1.5.69-1.6,3.88-.25,3.11-1,.6-1.14,2,.22,2.14-1,.65-2,2-.1,2.25-.63.6-1.1,2,0,2.29-.68,1.21-.69,1.69.52,2.56-.32-.23-.25,1.44-.18,1.59.28.66,1,1.06,1.52,1.47a20.22,20.22,0,0,1,2.43,2.62c2.15,2.4,3.7,5.28,5.79,7.68s4.33-1.66,6-2.63a12,12,0,0,1,7.56-1.6c2.29.34,3.9,2.73,6.23,2.78s3.45-3.41,3.92-5.18c.3-1.16.38-2.77,1-3.69s1.73-1.28.87-2.6c.74.06,1.13-1.61.23-1.89.91-.15,1-1.56.3-2,1.12-.41,1.52-1.19.23-1.79,1.91-.43,1-2.51-.42-2.88,1.46-.65,1.61-2.14.5-2.58,1.28-.41,1.49-2.13.43-2.48,1.09-.41.85-1.78-.08-2.68C52.22,18.19,52.29,15.42,50.5,15.87Z" transform="translate(0.19 -0.07)"/><path class="cls-8" d="M30.72,13.92c-8.37,1.63-14.27,13.67-12.73,25,1.15,8.46,7.67,17.74,17.5,17,10-.71,15-13.15,13.72-23.55C47.8,21.06,42.45,11.64,30.72,13.92Z" transform="translate(0.19 -0.07)"/><path class="cls-7" d="M27.76,29c-2.65-.35-5.63.39-6.45,2,3.9-.52,7.24,1.33,8.62.33S30,29.26,27.76,29Z" transform="translate(0.19 -0.07)"/><path class="cls-7" d="M44,28.53c-2.05.38-3.45,1.4-2.12,2.43s4.43-1.06,8-.69C49.17,28.7,46.42,28.06,44,28.53Z" transform="translate(0.19 -0.07)"/><path class="cls-9" d="M41.51,15.7a37.59,37.59,0,0,0-10.15-1.59c-3.06-.06-6.38-.23-9.23,1.06-1.56.71-3.48,1.68-4.07,3.41-.73,2.16-.38,4.87,0,7.08a19.08,19.08,0,0,0,2.25,7,29.24,29.24,0,0,1,1.1-4.38c1.07-4.69,4.08-6.39,7.71-7,3-.51,6.45-.25,9.54-.34,1.65,0,11.23,1.58,9.18-2.26C46.89,17,43.2,16.21,41.51,15.7Z" transform="translate(0.19 -0.07)"/><path class="cls-8" d="M15.07,34.18c-4.11,1.13-2.46,7.13.9,8.34a8.31,8.31,0,0,0,3.32.36l.06-.1c.49-.79-.19-5.16-.44-6C18.27,34.72,17,33.64,15.07,34.18Z" transform="translate(0.19 -0.07)"/><path class="cls-9" d="M16.51,36.39c-.92-.43-3.23.34-2.14,2.14.57-1.67,1.59-.57,1.43.62-.1.8-1,.81-.11,1.83.46.56,1.4.35,1.87.05C19.05,40.09,17.64,36.91,16.51,36.39Z" transform="translate(0.19 -0.07)"/><path class="cls-7" d="M37.55,10.51a28.27,28.27,0,0,0-8.61-.26c-4.74.56-10.46,2.81-12,7.83-.92,3.09-.44,6.67-.21,9.82.15,1.91-.62,5.59,1,7,1.9,1.67,2.65-.85,2.83-2.66.21-2,.05-4.27.64-6.26,1.43-4.82,4-5.75,10.93-6.28,3.6-.27,12.5-1,14.21,2.24.63,1.2,5.86-2.31,1.15-7.55C45.48,12.14,40.46,11.07,37.55,10.51Z" transform="translate(0.19 -0.07)"/><path class="cls-10" d="M48.23,36.16a3.55,3.55,0,0,0-3.16-.43c-1.25.29-2.82,1.15-1.31,2.72.8.84,5.92.38,4.87-1.74A2.11,2.11,0,0,0,48.23,36.16Z" transform="translate(0.19 -0.07)"/><path class="cls-10" d="M27.94,37.1a3.75,3.75,0,0,0-3-1.1c-1.28,0-3.63.86-2,2.41,1.17,1.12,5.94,1.52,5.31-.71A1.85,1.85,0,0,0,27.94,37.1Z" transform="translate(0.19 -0.07)"/><path class="cls-7" d="M26.93,31.75c-3-.81-4.88,2.53-2.84,3.62a6.6,6.6,0,0,1,3,.16A1.92,1.92,0,0,0,26.93,31.75Z" transform="translate(0.19 -0.07)"/><path class="cls-9" d="M36.58,38.65c-1.26,0-2.37-.56-3.55,0s.18,2.2,3.52,2.12,4.26-1.6,3.64-2.17S38,38.64,36.58,38.65Z" transform="translate(0.19 -0.07)"/><path class="cls-10" d="M36.51,32.55c-2.37-.2-4.23,4.4-3.23,5.9.71,1.06,5.93,1,6.75-.22C40.33,37.78,38.77,32.75,36.51,32.55Z" transform="translate(0.19 -0.07)"/><path class="cls-11" d="M25.86,32.33c-1.21.26-.29,1.75.9,1.21C27.61,33.15,26.94,32.1,25.86,32.33Z" transform="translate(0.19 -0.07)"/><path class="cls-7" d="M46.31,31.24c-3.07-.41-4.49,3.15-2.32,4A6.63,6.63,0,0,1,47,35,1.92,1.92,0,0,0,46.31,31.24Z" transform="translate(0.19 -0.07)"/><path class="cls-11" d="M45.34,32c-1.18.41-.06,1.76,1,1.07C47.18,32.53,46.38,31.59,45.34,32Z" transform="translate(0.19 -0.07)"/><g class="cls-12"><path class="cls-13" d="M44.42,40.26c-1.17,2.49,1.95,3.49,3.08,1.05A2.3,2.3,0,0,1,44.42,40.26Z" transform="translate(0.19 -0.07)"/><path class="cls-13" d="M24,41.79a1.72,1.72,0,1,0,3.24-1.09A2.57,2.57,0,0,1,24,41.79Z" transform="translate(0.19 -0.07)"/><path class="cls-13" d="M45.5,41.71a.8.8,0,0,0-.93.43,9.5,9.5,0,0,1-8.43,5.39c-4.23.24-8-1.81-9.36-5.14a.71.71,0,0,0-.92-.33.66.66,0,0,0-.44.85c1.59,3.84,5.84,6.18,10.71,5.9l.38,0a10.94,10.94,0,0,0,9.41-6.28A.59.59,0,0,0,45.5,41.71Z" transform="translate(0.19 -0.07)"/></g><path class="cls-14" d="M17.28,22.55h0S17.32,22.55,17.28,22.55Z" transform="translate(0.19 -0.07)"/><path class="cls-14" d="M48.19,15.8c.31-.88-.43-2.13-1.43-1.53.66-.92-.54-2.65-1.51-1.23-.24-.53,0-1-.79-1s-.91.63-1.21,1.17c-.34-1-.38-2.41-1.68-2.82-1.49-.48-1.76.87-2.46,1.77-.37-.63-.45-1.44-1.11-1.89-.9-.63-1.37.27-1.8.94-.51-.33-.66-1-1.38-.74s-1,1.49-1.44,2.15c-.68-.79-1.26-2.06-2.37-2.32-1.42-.34-2,.75-2.51,1.79-.56-.31-.91-.88-1.64-.59s-.93,1.1-1.15,1.74a.91.91,0,0,0-1.47.88,2.58,2.58,0,0,0-2.79-1.05,1.31,1.31,0,0,0-1,1.16,2.25,2.25,0,0,0,.36,1.24c-1.25-.64-1.7.4-1.06,1.49-.5-.47-1.78-1.3-2.47-.86s-.57,2.45-.11,3c0,0,0,0,0,0-1.31.18-.32.88.42,1.11-1.92-.59-1.57,2.36-.29,2.36h0s0,0,0,0h0a.93.93,0,0,0-.34,1.83c-1.45-.3-.75,1.15.2,1.39,1.27.31,1.58-1,.55-1.57,1.37.78,1.68-.61.7-1.45,1.73.72.8-1.87.5-2.55.49.22,1,.86,1.55.71s.66-1,.63-1.61c.25.68,1.49,1.29,2.09.76s.27-1.75.43-2.32c.42.56,1.45,2,2.35,1.59.68-.32.45-1.63.64-2.25A2.61,2.61,0,0,0,29,18.8c1.34-.12,1.4-1,1.78-2.17.19.74,1.13,1.84,2,1.77,1.15-.09,1.36-1.23,1.78-2.26,1.18,2.22,3.7,2.65,4.6,0,.71,3.46,3.43,2.16,5.33.59-.31,2,1.12,2.55,2.22,1.05-.94,1.27.49,2.23,1.72,1.89a1.74,1.74,0,0,0,1.27-1.53,2,2,0,0,0-.35-1.38C49.3,16.65,48.23,15.67,48.19,15.8Z" transform="translate(0.19 -0.07)"/></g></svg>