<svg id="Layer_1" data-name="Layer 1" xmlns="http://www.w3.org/2000/svg" xmlns:xlink="http://www.w3.org/1999/xlink" viewBox="0 0 66 66"><defs><style>.cls-1{fill:none;}.cls-2{clip-path:url(#clip-path);}.cls-3{fill:#f1c4b5;}.cls-4{fill:#8d573e;}.cls-5{fill:#3a3a4a;}.cls-6{fill:#e0e0e0;}.cls-7{fill:#f29058;}.cls-8{fill:#2b221c;}.cls-9{fill:#faab6e;}.cls-10{fill:#a63f24;opacity:0.3;}.cls-11{fill:#b54319;opacity:0.5;}.cls-12{fill:#634f40;}.cls-13{fill:#1f1a17;}.cls-14{fill:#ffcb9e;}.cls-15{fill:#a87f7f;}.cls-16{fill:#8f2724;}.cls-17{fill:#fff9f0;}.cls-18{fill:#f58c53;}.cls-19{fill:#e8dac5;}</style><clipPath id="clip-path" transform="translate(0.18 -0.07)"><circle class="cls-1" cx="32.82" cy="33.07" r="33"/></clipPath></defs><g class="cls-2"><rect class="cls-3" width="66" height="66"/><path class="cls-4" d="M24.26,57.81l-2.64-4.19A12.92,12.92,0,0,0,16,65.33c0,.25,0,.49.07.74h5a8.33,8.33,0,0,1-.11-1A8,8,0,0,1,24.26,57.81Z" transform="translate(0.18 -0.07)"/><path class="cls-4" d="M44.54,53.62,41.9,57.81a8,8,0,0,1,3.37,7.27c0,.33-.07.66-.12,1h5c0-.25.05-.49.06-.74A12.9,12.9,0,0,0,44.54,53.62Z" transform="translate(0.18 -0.07)"/><path class="cls-5" d="M40.6,52.22c-4.9-2.62-12-1.72-15.28.4-4.11,2.67-3.61,7-2.57,13.45H42.89C44,59.73,44.62,54.39,40.6,52.22Z" transform="translate(0.18 -0.07)"/><path class="cls-6" d="M32.84,59.56c-2.6-.07-7.25-6.1-7.25-6.1l-2.05.39.3,8,16.54.25.08-8S35.43,59.64,32.84,59.56Z" transform="translate(0.18 -0.07)"/><path class="cls-4" d="M25.84,51.7S21,53.38,20.6,54.45c-.32.83.81,6.38,1.7,11.62h5.21A50.56,50.56,0,0,0,25.84,51.7Z" transform="translate(0.18 -0.07)"/><path class="cls-4" d="M45.57,54.45c-.42-1.07-5.25-2.75-5.25-2.75a50.92,50.92,0,0,0-1.67,14.37h5.21C44.75,60.83,45.88,55.28,45.57,54.45Z" transform="translate(0.18 -0.07)"/><path class="cls-7" d="M37.42,47.69c-1.64-1.3-4.85-1.51-6.82-1.08a4.71,4.71,0,0,0-3.55,4.31c-.18,2.49,4.87,7.08,6,7.15C34,58.11,43.15,52.2,37.42,47.69Z" transform="translate(0.18 -0.07)"/><path class="cls-8" d="M48.6,17.88c-5.09-4.7-9.35-8.41-18.49-7.46.19-.67.34-1.32.55-2-1.64.17-4.13,2.23-4.13,2.23s-3.51-.5-4.71.63a20.17,20.17,0,0,1,2.63.92c-2.06.24-11,5.06-12.14,15.77.19-.29,1.67-2,1.91-2.21a21.94,21.94,0,0,0,.5,6.49c.46,1.65,1.36,3.69,3.5,3.38,3.53-.51,7.05-1.2,10.56-1.87s7.37-.77,10.51.52c2.42,1,4.48,2.66,7.19.41,2.09-1.74,2-4,2.67-6.42.37.17,2,1.29,2.34,1.54.07-2-1.16-6-1.86-7.78.89-.26,2,0,2.86-.54C51.26,20.24,49.89,19.07,48.6,17.88Z" transform="translate(0.18 -0.07)"/><path class="cls-9" d="M32.34,15.27c-8.4.1-17.06,8.63-15,18.58,1.07,5.14.94,6.37,2.7,11.55S26.85,54.16,34,54.29c12.15.21,13.91-10.64,13.79-20.8S40.74,15.17,32.34,15.27Z" transform="translate(0.18 -0.07)"/><path class="cls-9" d="M15.05,31.83c-4.21.8-3,6.06.32,7.25a9.25,9.25,0,0,0,3.31.46l.07-.09c.55-.65-.05-4.14-.25-4.87C18,32.76,17.07,31.45,15.05,31.83Z" transform="translate(0.18 -0.07)"/><path class="cls-10" d="M43.33,20.77a37.36,37.36,0,0,0-12-.68c-2.81.32-7-.89-9.57.17-1.69.7-2.4,3.18-3.28,5.11-.53,1.15-1.42,9.27.47,8.07.66-.42,2.76-8.13,3.24-9.79,9.13,3.26,19.32,2.26,19.32,2.26l-.8-1.55c.46.88,5.32.53,6-.15C49.27,21.79,44.8,21.09,43.33,20.77Z" transform="translate(0.18 -0.07)"/><path class="cls-8" d="M46.46,19A18.72,18.72,0,0,0,39.1,15.5c-4.48-.89-7.9-1.93-12.53.3a18.68,18.68,0,0,0-8.36,8.65A14.75,14.75,0,0,0,16.47,31c0,1.42,2.35,4.65,2.7,2.53.51-3.05.09-6.14,2.9-11.6,5.15,2.29,14.46,2.69,17.69,2.95a9.45,9.45,0,0,1-1.31-1.6c.14.28,3.36.53,3.86.6,1.21.2,2.95.55,4.19,0C48.85,22.71,48,20.14,46.46,19Z" transform="translate(0.18 -0.07)"/><path class="cls-11" d="M17.13,33.89c-1-.57-3.92-.39-2.94,1.41,1-1.33,2-.17,1.61.83-.27.67-1.29.5-.46,1.57a2.42,2.42,0,0,0,2.22.43C19.51,37.63,18.39,34.57,17.13,33.89Z" transform="translate(0.18 -0.07)"/><path class="cls-12" d="M36.59,11.49c-2.59-.76-5.27-.44-8,0,0-.42.1-.85.13-1.27a4.74,4.74,0,0,0-1.5,1.14l-3.19-.09a3.42,3.42,0,0,1,2,1.26,22,22,0,0,0-8.23,5.27,12.34,12.34,0,0,0,2.06-.3,21.28,21.28,0,0,0-3.64,4.24,27.4,27.4,0,0,0,6.81-3.54A55.44,55.44,0,0,0,35.86,22c-.27-.74-3.56-2.65-4.94-4.34,4.4,1.3,14.65,3.72,14.65,3.72l-8-5.95c1.41.43,8.74,3.55,10.3,3.21C45.93,16.31,38.89,12.18,36.59,11.49Z" transform="translate(0.18 -0.07)"/><path class="cls-11" d="M23.61,34.18c0,.64,1.5.34,1.94.45-.39.39-1.53.39-2,.65s-.44.48.15.47a11.16,11.16,0,0,0,2.6-.67C27.38,34.17,24.11,34.05,23.61,34.18Z" transform="translate(0.18 -0.07)"/><path class="cls-11" d="M46.09,34.83c-.36-.28-1.32-.3-1.6-.7.38-.09,1.57.24,1.68-.39-.41-.14-3.15-.11-2.35.81a7.38,7.38,0,0,0,2.1.74C46.41,35.32,46.48,35.13,46.09,34.83Z" transform="translate(0.18 -0.07)"/><path class="cls-13" d="M27.54,31.45c-2-.91-3.36,2.71-2,3.91a2.93,2.93,0,0,1,2,.19C29,34.86,29.06,32.12,27.54,31.45Z" transform="translate(0.18 -0.07)"/><path class="cls-11" d="M35.82,37.48c-1,0-1.46-.37-2.16,0s.31,1.88,2.12,1.8,2.64-1.51,2.23-1.9S37,37.45,35.82,37.48Z" transform="translate(0.18 -0.07)"/><path class="cls-14" d="M35.21,31.68c-.89.05-1.07,2.46-1.38,3.6s-.53,2.22-.06,2.56c1.17.83,3.56.32,4.26-.31.27-.25-.38-1.42-.9-2.6S36.22,31.63,35.21,31.68Z" transform="translate(0.18 -0.07)"/><path class="cls-13" d="M44,31.45c-2.08-1.13-3.75,3.3-1.44,3.87a2.67,2.67,0,0,1,1.79-.5C45.11,33.89,45.11,32.06,44,31.45Z" transform="translate(0.18 -0.07)"/><path class="cls-15" d="M27,32c-.84.27-.22,1.89.6,1.31C28.13,32.85,27.69,31.71,27,32Z" transform="translate(0.18 -0.07)"/><path class="cls-15" d="M43.46,32c-.79.19-.34,1.74.46,1.26C44.5,32.94,44.17,31.85,43.46,32Z" transform="translate(0.18 -0.07)"/><path class="cls-11" d="M45,41.08c-.36-.74-2.48-.38-2.48-.38-.36.07.3.21,1.16.43a.53.53,0,0,1,.33.23c-4.15,1.22-13.21,1.68-18.71-.25l.17-.11c.83-.47,2-.46,1.69-.64a6.91,6.91,0,0,0-2.78.33c-.71.4-.74,1.78-.18,1.87s.49-.68.88-1.21c.36,1.51,2.22,7.47,9,7.79,5.08.24,6.71-1.36,7-3.83.16-1.37,2-3,3.06-3.79.08.42-.25,1,.15,1.08S45.31,41.82,45,41.08Z" transform="translate(0.18 -0.07)"/><path class="cls-16" d="M26.29,42.16s2,6.22,8,6.21c5.42,0,6.12-2.08,6.4-3.54a3.87,3.87,0,0,1,1.86-2.68A32.9,32.9,0,0,1,26.29,42.16Z" transform="translate(0.18 -0.07)"/><path class="cls-17" d="M28.25,42.86a3.25,3.25,0,0,0,1.84,2.81,12,12,0,0,0,7.74.57c1.84-.44,3-3.42,3-3.42A52.89,52.89,0,0,1,28.25,42.86Z" transform="translate(0.18 -0.07)"/><path class="cls-17" d="M35.7,46.19a17.13,17.13,0,0,1-6-1c-1-.44-1,.13-.85.64,0,0,.27,2.06,5,2.57,4.09.44,5.95-2.1,5.51-2.65S38.28,46.23,35.7,46.19Z" transform="translate(0.18 -0.07)"/><path class="cls-18" d="M46.24,37a3.58,3.58,0,0,0-3-.73c-1.24.14-2.82.79-1.5,2.42.7.86,5.71.95,4.86-1.14A1.6,1.6,0,0,0,46.24,37Z" transform="translate(0.18 -0.07)"/><path class="cls-18" d="M27.87,37a3.75,3.75,0,0,0-3.2-.65c-1.29.19-2.93.92-1.49,2.58.77.88,6,.8,5.07-1.36A2.1,2.1,0,0,0,27.87,37Z" transform="translate(0.18 -0.07)"/><path class="cls-19" d="M28.24,42.83a3.31,3.31,0,0,0,.17.88s9.76-.66,11.89.2a4.74,4.74,0,0,0,.52-1.09A61.3,61.3,0,0,1,28.24,42.83Z" transform="translate(0.18 -0.07)"/><path class="cls-19" d="M30.27,45.24c4,2.09,8.52.4,8.52.4A17.71,17.71,0,0,1,30.27,45.24Z" transform="translate(0.18 -0.07)"/><path class="cls-8" d="M27.05,26.6a42,42,0,0,0-4.54,2.7c.25.69.81.69,1.41.5a25.51,25.51,0,0,1,4-.94c.71.21,2.76.39,3.22-.48S27.53,26.46,27.05,26.6Z" transform="translate(0.18 -0.07)"/><path class="cls-8" d="M39.38,28.87c.4.85,2.23.63,2.87.41a20.16,20.16,0,0,1,3.55.87c.52.17,1,.16,1.27-.53a34,34,0,0,0-4-2.6C42.66,26.89,39,27.94,39.38,28.87Z" transform="translate(0.18 -0.07)"/></g></svg>