<svg id="Layer_1" data-name="Layer 1" xmlns="http://www.w3.org/2000/svg" xmlns:xlink="http://www.w3.org/1999/xlink" viewBox="0 0 66 66"><defs><style>.cls-1{fill:none;}.cls-2{clip-path:url(#clip-path);}.cls-3{fill:#d6bb40;}.cls-4{fill:#3a3a4a;}.cls-5{fill:#535363;}.cls-6{fill:#23232d;}.cls-7{fill:#e88e61;}.cls-8{fill:#eba971;}.cls-9{fill:#d99a64;}.cls-10{fill:#ffbc82;}.cls-11{fill:#b54319;opacity:0.5;}.cls-12{fill:#e85216;}.cls-13{fill:#ffd4ad;}.cls-14{fill:#c93712;}.cls-15{fill:#c26346;}.cls-16{fill:#261b18;}.cls-17{fill:#e6d2c3;}.cls-17,.cls-22{opacity:0.7;}.cls-18{fill:#8e9194;}.cls-19,.cls-21,.cls-22{fill:#fff;}.cls-19,.cls-20{opacity:0.3;}.cls-20{fill:#b54d26;}.cls-23{fill:#c1c5c9;}</style><clipPath id="clip-path" transform="translate(0.18 -0.65)"><circle class="cls-1" cx="32.83" cy="33.65" r="33"/></clipPath></defs><g class="cls-2"><rect class="cls-3" width="66" height="66"/><path class="cls-4" d="M41.69,64.87c.05-4.51,4.38-7.24,1.92-9.05-6.09-4.51-16.19-3.24-21.28,0-2.32,1.47,1.72,4.68,1.81,9.05,0,.62,0,1.21.07,1.78H41.66C41.67,66.08,41.68,65.49,41.69,64.87Z" transform="translate(0.18 -0.65)"/><path class="cls-5" d="M22.73,52c-1.95,2.71,2.21,5.49,10.16,5.49,8.6,0,12.14-2.61,10.25-5.49C37,42.65,28.72,43.7,22.73,52Z" transform="translate(0.18 -0.65)"/><path class="cls-6" d="M26.05,52.38c-2.28,2.69,2.35,4.09,6.82,4.16s8.05-1.27,7.19-3.71C39,50,28.1,50,26.05,52.38Z" transform="translate(0.18 -0.65)"/><path class="cls-7" d="M32.82,48.9c-2,0-4.78,1-5,3.51a2.66,2.66,0,0,0,.85,2.52,6.67,6.67,0,0,0,4.13,1.92,6.62,6.62,0,0,0,4.12-1.92,2.61,2.61,0,0,0,.85-2.52C37.6,49.87,34.8,48.9,32.82,48.9Z" transform="translate(0.18 -0.65)"/><path class="cls-5" d="M27.9,56.7a13.24,13.24,0,0,0-3.08,6,.43.43,0,0,0,.31.52h.11a.42.42,0,0,0,.41-.32,12.48,12.48,0,0,1,2.87-5.58.43.43,0,1,0-.62-.6Z" transform="translate(0.18 -0.65)"/><path class="cls-5" d="M37.89,56.7a.43.43,0,1,0-.61.6,12.47,12.47,0,0,1,2.86,5.58.43.43,0,0,0,.42.32h.11a.43.43,0,0,0,.3-.52A13.24,13.24,0,0,0,37.89,56.7Z" transform="translate(0.18 -0.65)"/><path class="cls-4" d="M27.92,51.61c-1.75.67-3.24,5.56,5.26,5.43C34.8,57,27.93,56.65,27.92,51.61Z" transform="translate(0.18 -0.65)"/><path class="cls-4" d="M37.7,51.61c.66,4.77-6.89,5.41-5.27,5.43C40.94,57.17,39.45,52.28,37.7,51.61Z" transform="translate(0.18 -0.65)"/><path class="cls-8" d="M47.91,34.23c-1.52-.62-2.49.42-3,2.47-.21.81-.79,5.15-.42,5.94,0,0,0,.07,0,.11a4.86,4.86,0,0,0,2.58-.24C49.72,41.44,51.07,35.51,47.91,34.23Z" transform="translate(0.18 -0.65)"/><path class="cls-9" d="M16.68,21.31C15.37,25.88,15.44,32.45,17.75,37c1.2,2.39,4.08.8,6.1.3,2.5-.62,5-1.19,7.52-1.74,4.12-.91,8.65,0,12.83.4,3.28.31,3.52,1.84,3.52-.83,0-3.3.6-8.7,0-12.38C45,5.76,20.29,8.72,16.68,21.31Z" transform="translate(0.18 -0.65)"/><path class="cls-10" d="M31,15.43C19.29,17,17.44,27.72,18.57,38.2c.86,7.85,6.66,16.59,15.76,16.19C43.62,54,48.55,42.61,47.61,33,46.59,22.46,44.33,13.62,31,15.43Z" transform="translate(0.18 -0.65)"/><path class="cls-10" d="M16,33.78c-3.91,1-2,8.38.9,10a2,2,0,0,0,3-1.14c.66-1,.27-3.85-.39-6.31C19,34.38,17.9,33.32,16,33.78Z" transform="translate(0.18 -0.65)"/><path class="cls-11" d="M17.27,35.85c-.84-.41-3,.24-2,1.94.57-1.54,1.49-.5,1.31.6-.11.74-.9.72-.14,1.69.41.53,1.28.36,1.72.1C19.53,39.34,18.3,36.36,17.27,35.85Z" transform="translate(0.18 -0.65)"/><path class="cls-12" d="M32.12,13.38c-9.48-.08-16.23,6.73-15.6,20.3a2.4,2.4,0,0,1,1.8.57,4.6,4.6,0,0,1,1,2c.1.21.22.57,1,.54-1.41-4.56-.5-11.5,1.05-13.57,3.84-5.16,10,.69,14.73.57,3.76-.08,7.88-4.91,9.94,0C47.37,27.13,47.33,13.51,32.12,13.38Z" transform="translate(0.18 -0.65)"/><path class="cls-6" d="M17.74,41.21a1,1,0,1,0,1,1A1,1,0,0,0,17.74,41.21Z" transform="translate(0.18 -0.65)"/><path class="cls-11" d="M35.41,38.79c-1.22,0-1.71-.5-2.55,0s.41,2.12,2.56,2,3-1.62,2.58-2.15S36.76,38.74,35.41,38.79Z" transform="translate(0.18 -0.65)"/><path class="cls-13" d="M34.85,33.31c-1,.15-2.19,5.45-1.64,5.82A4.52,4.52,0,0,0,38,38.65C38.29,38.31,36,33.13,34.85,33.31Z" transform="translate(0.18 -0.65)"/><path class="cls-14" d="M25.37,26.77a7.76,7.76,0,0,0-3.59.9c-.86.4-.7,1.16.06,1.06s1.49-.28,1.79-.31a6.12,6.12,0,0,1,3.7.66c.56.32,1.87,1.08,2.42.33C30.84,27.9,26.26,26.87,25.37,26.77Z" transform="translate(0.18 -0.65)"/><path class="cls-14" d="M46.94,28a6.55,6.55,0,0,0-3.28-1c-.82.08-5,1-4.12,2.52.45.77,1.69,0,2.21-.26a5.18,5.18,0,0,1,3.4-.57c.27,0,1,.25,1.61.35S47.65,28.44,46.94,28Z" transform="translate(0.18 -0.65)"/><path class="cls-13" d="M46.27,37.85a3.48,3.48,0,0,0-2.84-1.06c-1.21,0-2.83.44-1.74,2.17.58.92,5.42,1.59,4.85-.54A1.67,1.67,0,0,0,46.27,37.85Z" transform="translate(0.18 -0.65)"/><path class="cls-13" d="M27.19,37.21A3.63,3.63,0,0,0,24,36.76c-1.25.27-2.8,1.08-1.3,2.61.8.81,5.91.41,4.85-1.64A1.94,1.94,0,0,0,27.19,37.21Z" transform="translate(0.18 -0.65)"/><path class="cls-15" d="M24.79,41.74c.6,2.14,3.06,1.4,2.43-.79A1.72,1.72,0,0,1,24.79,41.74Z" transform="translate(0.18 -0.65)"/><path class="cls-15" d="M41.76,41.54c-.86,2.11,1.5,3.12,2.34,1.06A1.73,1.73,0,0,1,41.76,41.54Z" transform="translate(0.18 -0.65)"/><path class="cls-15" d="M42.63,42.94a.64.64,0,0,0-.84.3c-.78,1.66-1.48,1.51-3.17,1.15A13.12,13.12,0,0,0,36.19,44a19.07,19.07,0,0,0-4,.37c-3,.51-4.43.64-5.3-1.84a.63.63,0,0,0-.8-.39.62.62,0,0,0-.38.8,3.86,3.86,0,0,0,4,3,16.66,16.66,0,0,0,2.67-.3,16.71,16.71,0,0,1,3.7-.36,13.61,13.61,0,0,1,2.23.34c1.73.37,3.36.72,4.57-1.84A.63.63,0,0,0,42.63,42.94Z" transform="translate(0.18 -0.65)"/><path class="cls-16" d="M25.68,31.42c-2.24-.78-3.33,3.19-1.76,4.34a3.14,3.14,0,0,1,2.18,0C27.51,34.92,27.36,32,25.68,31.42Z" transform="translate(0.18 -0.65)"/><path class="cls-16" d="M44.94,31.75C42.75,30.36,41,34.6,42.8,35.86a2.88,2.88,0,0,1,2.32.06C46,35,46.11,32.5,44.94,31.75Z" transform="translate(0.18 -0.65)"/><path class="cls-17" d="M25,32.15c-.87.36-.07,2,.75,1.35C26.3,33,25.73,31.83,25,32.15Z" transform="translate(0.18 -0.65)"/><path class="cls-17" d="M44.06,32.19c-.88.16-.51,1.89.4,1.42C45.12,33.28,44.84,32.06,44.06,32.19Z" transform="translate(0.18 -0.65)"/><path class="cls-18" d="M38.62,10.19c-11-4.24-21.76,2.43-24.4,9-2.23,5.6.5,7.07.5,7.07s-.94,1.29-.19,3.82a6.91,6.91,0,0,1,.14,3.9c-.22,1.1,1.77-.86,3.89.51.55-8.89,5.23-15.67,17.83-15.08,13.11.62,11.08,11.11,11.22,14.69,0,0,.69.62,1-.48S51.75,15.24,38.62,10.19Z" transform="translate(0.18 -0.65)"/><path class="cls-19" d="M41.92,15.72a18,18,0,0,0-3.1-.46c-.53,0-2.54-.68-2.9-.5,1.1-.55,2-.31,3.17-.25s3.32.09,2-1.5a7.21,7.21,0,0,0-2.76-1.76,19.61,19.61,0,0,0-8.45-1.2A15.89,15.89,0,0,0,19.09,15c-1.34,1.43-1.13,3.13,1,2.76,1.6-.28,2.89-1.41,4.29-2.14a7.41,7.41,0,0,1,5.49-.35,15.47,15.47,0,0,0-2.77.49,13.64,13.64,0,0,0-7.5,4.93A7.6,7.6,0,0,0,18,24.5c-.05.47-.33,2.79.73,2.35.57-.23.52-1.88.53-2.32,1.25.34.71-1.05.88-2,1.79,1.2.81-.94,1-2.06.38.22.95,1.31,1.48,1.05s-.29-1.79.22-2,1.24,1.24,2,1,.37-1.35.55-1.87c.45.18,1.18,1.33,1.72,1.07s0-1.52.1-1.89c1.1.3,1.77,2.33,2.27.37.14-.52,0-1.07.63-1.08s1.08,1.35,1.64,1.37c.87,0,0-1.88.77-2.06s1.38,1.7,2.21,1.75c.25-.74.35-2.75,1.24-1.53.34.47,1.37,2.83,2.39,1.84.39-.38-.19-1.79.59-1.82S40,18.37,40.27,18.8s1,1,1.41.45c.3-.37-.2-1,.21-1.45.91-.93.92,2,1.69,2.21,1.14.33.86-1.23,1.25-1.74,1.18.74.19,4.31,2.33,4.21.28-1.43-.73-2.89-1.49-4A6.37,6.37,0,0,0,41.92,15.72Z" transform="translate(0.18 -0.65)"/><path class="cls-4" d="M44.38,56.3a2.26,2.26,0,1,0-3,3.36c1.5,1.35,3.15,3.42,2.55,5.67a4.56,4.56,0,0,1-.63,1.32h4.95a.88.88,0,0,0,.05-.15C48.81,64.48,49,60.48,44.38,56.3Z" transform="translate(0.18 -0.65)"/><path class="cls-4" d="M24.67,59.66a2.26,2.26,0,1,0-3-3.36c-4.64,4.18-4.43,8.18-3.89,10.2a.88.88,0,0,1,.05.15h4.95a4.83,4.83,0,0,1-.63-1.32C21.52,63.08,23.17,61,24.67,59.66Z" transform="translate(0.18 -0.65)"/><path class="cls-20" d="M45.88,29.35a20.21,20.21,0,0,0-4.24.57,17.36,17.36,0,0,0-3.67.95,4.33,4.33,0,0,1-2.71.76c-2.21-.15-4-1.58-6.25-1.86a18.62,18.62,0,0,0-6.94-.06c-.59.15-2.4.78-1.21,1.45s2.93.49,4.22.58c.6,0,1.19.06,1.79.13,2.1.25,5.35,0,5.12,2.67-.17,1.8-1.37,3.62-2.85,3.93a19.35,19.35,0,0,1-4.35.34,7.51,7.51,0,0,1-3.12-.76c-.28-.14-1.11-.7-1.4-.32-.48.64,1.21,1.75,1.65,2a10.44,10.44,0,0,0,3.21.8c2.75.36,5.58.29,7.19-2.2.94-1.45,1.43-3.16,2.3-4.64,1.43-2.43,2,.93,2.39,2.4a7.89,7.89,0,0,0,1,2.34A5.37,5.37,0,0,0,42,40.46a5.86,5.86,0,0,0,2.6-.29c.51-.2.72-.78.13-1a4.77,4.77,0,0,0-1.31-.09,11.39,11.39,0,0,1-1.65-.17,4.93,4.93,0,0,1-2-.93,3.83,3.83,0,0,1-1-1.16,3.71,3.71,0,0,1-.14-3.11c.52-1.38,2-1.45,3.26-1.53,1.5-.09,3,0,4.51-.13a14.66,14.66,0,0,1,2,.1c.85.05,2.7-.18,1.72-1.48S47.26,29.31,45.88,29.35Z" transform="translate(0.18 -0.65)"/><path class="cls-4" d="M19.7,29.42c-1.82.12-3.38-.33-3.8,0s.49,2.08.49,2.08a3.17,3.17,0,0,0,1.44.42c.16,1.26.21,4.52,2.59,6.49,2,1.65,8.31,1.93,10.24.88a7.61,7.61,0,0,0,3.69-5.86C35.22,28,22.25,29.25,19.7,29.42Zm11,8.44c-2.35,1.63-8.5,1.11-10.16-.81-1.28-1.48-1.61-4.64-.87-5.12,2.25-1.46,10.9-1.23,12.94.23C33.65,32.86,32.51,36.62,30.74,37.86Z" transform="translate(0.18 -0.65)"/><path class="cls-4" d="M49.46,29.39c-2.25-.14-13.66-1.3-12.9,4.21.31,2.24,1.15,4.53,3.25,5.81,1.69,1,7.26.7,9-1,2.1-2,2.14-5.26,2.28-6.51a2.59,2.59,0,0,0,1.27-.44s.91-1.6.43-2.09S51.06,29.49,49.46,29.39ZM48.68,37c-1.46,1.93-6.88,2.51-8.94.9-1.57-1.21-2.56-5-1.69-5.67,1.81-1.48,9.42-1.8,11.4-.36C50.1,32.37,49.81,35.54,48.68,37Z" transform="translate(0.18 -0.65)"/><path class="cls-19" d="M39.56,31.86c-1.27.47.95,1.29,1.43,1.4a16.5,16.5,0,0,0,5.4.13c1-.12,3-.88,2.49-1.45C48.11,31.14,41,31.34,39.56,31.86Z" transform="translate(0.18 -0.65)"/><path class="cls-21" d="M45.14,31.89c-.68.07-1.13.24-1,.57.32.63,4.31.53,4.61.08S46.6,31.75,45.14,31.89Z" transform="translate(0.18 -0.65)"/><path class="cls-22" d="M40.72,36.55c-.43,0-.73.05-.66.33.13.54,2.59.95,2.83.62S41.62,36.61,40.72,36.55Z" transform="translate(0.18 -0.65)"/><path class="cls-22" d="M22,36.55c-.46-.06-.79,0-.73.29.1.55,2.73,1.12,3,.81S23,36.67,22,36.55Z" transform="translate(0.18 -0.65)"/><path class="cls-19" d="M31.69,31.87c-1.64-.52-9.71-.85-10.51-.11-.58.54,1.84,1.29,2.93,1.42a21.76,21.76,0,0,0,6.09,0C30.73,33.08,33.17,32.34,31.69,31.87Z" transform="translate(0.18 -0.65)"/><path class="cls-21" d="M28.17,31.52c-.74.06-1.23.22-1.06.55.34.64,4.66.65,5,.2S29.75,31.42,28.17,31.52Z" transform="translate(0.18 -0.65)"/><path class="cls-4" d="M38.3,30.38a9.6,9.6,0,0,1-5.79,0c-1.79-.54.93,1.11,1.11,2s-.15,3.89.5,2.23,1.85-1.7,2.59-.14.9-2.48,1.22-2.85S40,29.88,38.3,30.38Z" transform="translate(0.18 -0.65)"/><path class="cls-23" d="M20.56,29.93c4.91.08,8.82.08,11.82,1.13C30.4,29.54,27.07,29.3,20.56,29.93Z" transform="translate(0.18 -0.65)"/><path class="cls-23" d="M38.84,30.92c2.59-1.07,5.84-.77,10.19-1.13C43.21,29.63,40.49,29.5,38.84,30.92Z" transform="translate(0.18 -0.65)"/></g></svg>