<svg id="Layer_1" data-name="Layer 1" xmlns="http://www.w3.org/2000/svg" xmlns:xlink="http://www.w3.org/1999/xlink" viewBox="0 0 47.83 60.39"><defs><style>.cls-1{fill:none;}.cls-2{clip-path:url(#clip-path);}.cls-3{fill:#ffc38f;}.cls-4{fill:url(#linear-gradient);}.cls-5{fill:#ad9162;}.cls-6{opacity:0.1;}.cls-7{fill:#d4c1a1;}.cls-8{fill:#fff;opacity:0.07;}.cls-9{fill:#261b18;}.cls-10{fill:#bc551e;}.cls-10,.cls-11{opacity:0.4;}.cls-11{fill:#d14f2e;}.cls-12{fill:#45362e;}.cls-13{fill:#ff7752;}.cls-14{fill:#1c5c57;}.cls-15{fill:#6cd9d2;opacity:0.7;}.cls-16{fill:#121b21;}.cls-17{fill:#ff3b3b;}</style><clipPath id="clip-path" transform="translate(-7.21 -5.67)"><circle class="cls-1" cx="32.83" cy="33.07" r="33"/></clipPath><linearGradient id="linear-gradient" x1="33.51" y1="50.66" x2="33.51" y2="55.81" gradientUnits="userSpaceOnUse"><stop offset="0" stop-color="#ee996d"/><stop offset="0.02" stop-color="#ee9a6e"/><stop offset="0.37" stop-color="#f8b181"/><stop offset="0.71" stop-color="#fdbf8d"/><stop offset="1" stop-color="#ffc491"/></linearGradient></defs><g class="cls-2"><path class="cls-3" d="M29.16,57.63c1.22-1,1-4.45-.74-3.82-3.59,1.25-3.84,5.47-5.32,12.26h3.32C27.07,63.08,27.61,58.93,29.16,57.63Z" transform="translate(-7.21 -5.67)"/><path class="cls-3" d="M38.6,53.81c-1.78-.63-2,2.79-.73,3.82,1.54,1.3,2.09,5.45,2.73,8.44h3.32C42.44,59.28,42.19,55.06,38.6,53.81Z" transform="translate(-7.21 -5.67)"/><path class="cls-4" d="M36.79,53c-2.08-.91-.68-3.39-3.41-3.39S31.91,52.4,30,53.13c-4.53,1.72-4.49,4.35-1.81,7s7.4,3.07,11.08-.26S38.87,53.9,36.79,53Z" transform="translate(-7.21 -5.67)"/><path class="cls-5" d="M39.08,62.26C41,58,39,55.72,38,53.42a5.39,5.39,0,0,0-1.23-.56c.38,1.68,1,5.76-3.25,5.76S29.68,55.25,30,53a1.51,1.51,0,0,0-.92.42c-1.18,3.61-3.16,4.63-1.34,9a9.35,9.35,0,0,1,1.08,3.69h9A9.55,9.55,0,0,1,39.08,62.26Z" transform="translate(-7.21 -5.67)"/><path class="cls-6" d="M29.56,63c.43.72,1.72.7,2.73.89-.17,0-.35.1-.53.13a8.5,8.5,0,0,0,4.12-.28c.39-.11,1.42-.76,1.63-.78a31.1,31.1,0,0,1-4.21.25C32,63.15,30.8,63,29.56,63Z" transform="translate(-7.21 -5.67)"/><path class="cls-7" d="M36.43,52.42a.44.44,0,0,0-.34.54c.19.86.7,3.13-.26,4.34a2.8,2.8,0,0,1-2.32.87A3.21,3.21,0,0,1,31,57.35c-.81-.94-.58-2.62-.39-4l0-.29a.46.46,0,0,0-.4-.51.45.45,0,0,0-.51.39l0,.29c-.21,1.53-.47,3.45.61,4.7a4,4,0,0,0,3.18,1.13,3.67,3.67,0,0,0,3-1.21c1.24-1.55.66-4.14.44-5.11A.46.46,0,0,0,36.43,52.42Z" transform="translate(-7.21 -5.67)"/><path class="cls-7" d="M28.88,53.24a.46.46,0,0,0-.58.29c-.29.89-.59,1.59-.85,2.2A8.57,8.57,0,0,0,26.53,59a.46.46,0,0,0,.43.48h0a.45.45,0,0,0,.45-.44,8,8,0,0,1,.85-3c.27-.63.58-1.35.88-2.27A.46.46,0,0,0,28.88,53.24Z" transform="translate(-7.21 -5.67)"/><path class="cls-7" d="M38.56,53.53a.46.46,0,1,0-.87.29c.31.92.62,1.64.89,2.27a8,8,0,0,1,.85,3,.45.45,0,0,0,.45.44h0a.47.47,0,0,0,.44-.48,8.94,8.94,0,0,0-.92-3.28A23.2,23.2,0,0,1,38.56,53.53Z" transform="translate(-7.21 -5.67)"/><path class="cls-8" d="M36.44,58.81a12.53,12.53,0,0,1-6.68-.08c-1.22-.29-1.91,1-1.54,2.17.49,1.49,3,1.87,5.21,1.83,4.34-.08,6-1.63,5.25-3.47C38.48,58.77,37.55,58.43,36.44,58.81Z" transform="translate(-7.21 -5.67)"/><path class="cls-9" d="M36.9,9.38c-.7-1.82-.81-2.48-.5-3.67a5.25,5.25,0,0,0-2.93,3.22,7.56,7.56,0,0,0-6.12-3.25,8.48,8.48,0,0,1,2.28,3.66c-1.5.22-2.55.24-4.06.44-7.77,1-12.32,5.72-14.34,12.75-1,3.32-.53,7.94-.05,11.33.24,1.72,2,6.09,0,7.42a1.52,1.52,0,0,1-2.45-1.42,3.16,3.16,0,0,0-.53,5.06c1.61,1.41,4.52,1.55,6.45.87a10.16,10.16,0,0,0,2,7.7,5.06,5.06,0,0,1,1.67-2.76c-.51.39,1.65,1.48,1.87,1.52a5.16,5.16,0,0,0,2.56-.48c2.23-.75,3.93-2,6.31-2.51,1.91-.4,18.79,2.73,18.28-.61.13.87.21,1.77.33,2.65,1.79-1.39,3.34-3.62,3.12-6,2.65-.38,4.39-1.16,3.58-4.12-.43,1.17-1.86,1.11-2.84.66-3.23-1.49-1-7.06.46-10.84a17.81,17.81,0,0,0,.85-2.62,36,36,0,0,1,1.83,3.1C55.65,26.55,55.93,10.22,36.9,9.38Z" transform="translate(-7.21 -5.67)"/><path class="cls-3" d="M30.21,13.79C22.54,15.4,17.26,26.54,18.81,36.9,20,44.67,26.09,53.12,35.12,52.35c9.21-.78,13.64-12.27,12.32-21.82C46,20.15,41,11.55,30.21,13.79Z" transform="translate(-7.21 -5.67)"/><path class="cls-10" d="M45.42,17.24a21.79,21.79,0,0,0-5.27-1.94A34.36,34.36,0,0,0,30.8,14c-2.81,0-5.87-.13-8.47,1.09-1.43.67-3.19,1.59-3.71,3.19-.64,2-.28,4.48.07,6.5a17.73,17.73,0,0,0,2.17,6.4,8,8,0,0,1,1.67-4.3c.75-1,1.83-2.71,3.13-2.94,0,0-.87,2.52-1,2.78a5.36,5.36,0,0,1-2.15,1.81c.8.69,3.19.55,4.16.36a5,5,0,0,0,2-.77,2.32,2.32,0,0,0-.11.79c1.27-.17,2.56-.13,3.85-.4a17.78,17.78,0,0,0,2.78-.93,2.13,2.13,0,0,0-.27.62,4,4,0,0,0,.77-.3,2.11,2.11,0,0,0-.19.92c2.47-.07,5.06-.11,7.53-.35,4-.39,5.23-8,4.33-9.43A5.53,5.53,0,0,0,45.42,17.24Z" transform="translate(-7.21 -5.67)"/><path class="cls-3" d="M16.07,32.62c-3.77,1.09-2.18,6.58.93,7.65a7.39,7.39,0,0,0,3.06.29.41.41,0,0,1,.05-.09c.44-.73-.24-4.74-.48-5.49C19,33.08,17.88,32.09,16.07,32.62Z" transform="translate(-7.21 -5.67)"/><path class="cls-11" d="M17.42,34.63c-.85-.38-3,.35-2,2,.51-1.55,1.46-.55,1.33.55-.08.73-.87.75-.07,1.68.43.51,1.28.31,1.71,0C19.81,38,18.47,35.09,17.42,34.63Z" transform="translate(-7.21 -5.67)"/><path class="cls-9" d="M46.38,16.12c-1.64-1.11-2.58-2.86-4.49-3.77a21.81,21.81,0,0,0-5.44-1.78,26,26,0,0,0-7.93-.13c-4.34.57-9.58,2.71-10.89,7.35-.81,2.85-.33,6.13-.07,9,.29,3.33-.2,7.3,3,9.51.2-.8.15-1.69.27-2.51a15.71,15.71,0,0,0,.38-3.28,10.9,10.9,0,0,1,.06-3.12,8.48,8.48,0,0,1,3.19-4.55c1.23-1,2-.51,1.6,1a7.26,7.26,0,0,1-2.55,3.3,36.38,36.38,0,0,0,3.91,0,5.82,5.82,0,0,0,3.29-2.49c-.63,1.11-.42,1.81-1.42,2.8,3,.87,4.7-.12,7.2-2A5.87,5.87,0,0,1,35.67,27c.39-.21,1-.59,1.36-.75-.18.52-.39,1-.6,1.49,2-.34,4,.44,6,0,2.46-.62,6.33-3.66,6.75-6.29a4.59,4.59,0,0,0-.65-3A7.09,7.09,0,0,0,46.38,16.12Z" transform="translate(-7.21 -5.67)"/><path class="cls-12" d="M43.44,13.37c-5.72.55-9.76,6.58-15.82,5.29-2.56-.55-4.91-1.28-7.56-1.23S14.1,18.49,13,21c-.25.53-1.95,6.67-.64,6.84,1.58.2,3-.55,4.42-1s1.83.43,2.84,1.07c-.76-.49,2.45-4.26,2.94-4.65a3.78,3.78,0,0,1,3.55-.93,3.35,3.35,0,0,1,.37.2c1.24.8,0,2.58-.26,3.62a25.61,25.61,0,0,0,5.95-3.55,36.12,36.12,0,0,1-.75,3.67,6.54,6.54,0,0,0,4-2.1c.61-.58,1.1-1.46,1.87-1.86.39-.2.63-.43.78.09a10.16,10.16,0,0,1-.64,1.83c.57-.38,1.92-2.31,2.68-2.09S38.32,26.56,38,26.48a9,9,0,0,0,6.63-1.36,9.83,9.83,0,0,0,2.48-2.2c.83-1.06.14-1.93.47-3.12a9.05,9.05,0,0,1,1,1.69c.65,1.88.17,3.57-.29,5.48,2.62,1,3.15-.95,3.6-3.23.54.71.86,1.57,1.41,2.27C54.41,20.42,49.6,12.79,43.44,13.37Z" transform="translate(-7.21 -5.67)"/><path class="cls-13" d="M46.41,37.27a2.68,2.68,0,0,0-2.24-1c-1-.05-2.34.28-1.59,1.79.41.8,4.3,1.53,4-.3A1.42,1.42,0,0,0,46.41,37.27Z" transform="translate(-7.21 -5.67)"/><path class="cls-13" d="M27.33,37.25a2.75,2.75,0,0,0-2.63-.64c-1.1.17-2.53.86-1.44,2.44.58.84,5,.79,4.34-1.26A2,2,0,0,0,27.33,37.25Z" transform="translate(-7.21 -5.67)"/><path class="cls-9" d="M40.63,29.24a59.38,59.38,0,0,0,7.53.54C47,28,42.34,27.64,40.63,29.24Z" transform="translate(-7.21 -5.67)"/><path class="cls-11" d="M35.88,38c-.74,0-1-.28-1.54,0s.63,1.27,1.53,1.18,1.86-1,1.57-1.28S36.69,38,35.88,38Z" transform="translate(-7.21 -5.67)"/><path class="cls-9" d="M21.48,29.89c4-.31,5.41-.27,8.2-.62C28,27.53,23.1,28.16,21.48,29.89Z" transform="translate(-7.21 -5.67)"/><path class="cls-14" d="M26.19,31.33c-2.15-.75-3.15,3.2-1.63,4.33a2.9,2.9,0,0,1,2.07,0C28,34.8,27.79,31.89,26.19,31.33Z" transform="translate(-7.21 -5.67)"/><path class="cls-15" d="M25.83,32.77c-.88.15-.51,1.95.4,1.47C26.88,33.9,26.61,32.63,25.83,32.77Z" transform="translate(-7.21 -5.67)"/><path class="cls-14" d="M45.24,31.16c-2.14-1.37-4,3.63-1.65,4.35a2.56,2.56,0,0,1,1.88-.3C46.29,34.15,46.38,31.89,45.24,31.16Z" transform="translate(-7.21 -5.67)"/><path class="cls-15" d="M44.38,32.36c-.84,0-.72,1.9.19,1.56C45.23,33.67,45.13,32.35,44.38,32.36Z" transform="translate(-7.21 -5.67)"/><path class="cls-16" d="M45.29,31.05c-1.95-.76-2.6,1.57-2.6,1.57A1.83,1.83,0,0,1,45,32.19a4,4,0,0,0,5-.36C47.56,32.64,46.35,31.46,45.29,31.05Z" transform="translate(-7.21 -5.67)"/><path class="cls-16" d="M24.77,31.48a6.36,6.36,0,0,1-5,1,4.47,4.47,0,0,0,5.23.07,2,2,0,0,1,2.37.13S26.79,30.39,24.77,31.48Z" transform="translate(-7.21 -5.67)"/><path class="cls-17" d="M25,40.57c1.08,2,3.72,1.06,2.61-1A2,2,0,0,1,25,40.57Z" transform="translate(-7.21 -5.67)"/><path class="cls-17" d="M42.41,39.17a1.49,1.49,0,1,0,2.84.8A2.22,2.22,0,0,1,42.41,39.17Z" transform="translate(-7.21 -5.67)"/><path class="cls-17" d="M43.65,40.29a.61.61,0,0,0-.79.32c-1,2.93-4.18,4.86-7.85,4.83a8.18,8.18,0,0,1-7.48-4.28.69.69,0,0,0-.83-.33.51.51,0,0,0-.32.71,9.39,9.39,0,0,0,8.37,5h.33c4.21,0,7.77-2.17,9-5.55A.57.57,0,0,0,43.65,40.29Z" transform="translate(-7.21 -5.67)"/></g></svg>