<svg id="Layer_1" data-name="Layer 1" xmlns="http://www.w3.org/2000/svg" xmlns:xlink="http://www.w3.org/1999/xlink" viewBox="0 0 66 66"><defs><style>.cls-1{fill:none;}.cls-2{clip-path:url(#clip-path);}.cls-3{fill:#ef5649;}.cls-4{fill:#ffb06b;}.cls-5{fill:url(#linear-gradient);}.cls-6{fill:#5e4684;}.cls-7,.cls-8{opacity:0.1;}.cls-8{fill:#fff;}.cls-9{fill:#3d2518;}.cls-10{fill:#bc551e;}.cls-10,.cls-11{opacity:0.3;}.cls-11{fill:#bf3c1b;}.cls-12{fill:#82572e;}.cls-13{fill:#f58a53;}.cls-14{fill:#202930;}.cls-15{fill:#c3cee6;opacity:0.7;}.cls-16{fill:#de6049;}.cls-17{fill:#8f2a25;}.cls-18{fill:#fff7ea;}.cls-19{fill:#ecdcc4;}.cls-20{fill:#2b221c;}.cls-21{fill:#121b21;}</style><clipPath id="clip-path" transform="translate(0.18 -0.28)"><circle class="cls-1" cx="32.83" cy="33.28" r="33"/></clipPath><linearGradient id="linear-gradient" x1="606.18" y1="51.89" x2="606.09" y2="55.73" gradientTransform="translate(-571.18)" gradientUnits="userSpaceOnUse"><stop offset="0" stop-color="#e88958"/><stop offset="0.34" stop-color="#f49d62"/><stop offset="0.69" stop-color="#fcab69"/><stop offset="1" stop-color="#ffb06b"/></linearGradient></defs><g class="cls-2"><rect class="cls-3" width="66" height="66"/><path class="cls-4" d="M27.15,66.28c.29-2.59,0-6.94,2.58-7.83.84-.29,2.16-2.74,1.72-3.56s-.88-1.2-1.71-.86c-4.58,1.87-5.62,5.68-5.92,12.25Z" transform="translate(0.18 -0.28)"/><path class="cls-4" d="M42.59,66.28c-.29-2.59,0-6.94-2.58-7.83-.84-.29-2.16-2.74-1.72-3.56s.88-1.2,1.71-.86c4.58,1.87,5.63,5.68,5.92,12.25Z" transform="translate(0.18 -0.28)"/><path class="cls-5" d="M34.74,49.69c2.8,0,1.36,2.55,3.5,3.49s6.28,3.67,2.51,7.09-8.63,3-11.39.27-2.79-5.46,1.87-7.21C33.23,52.57,32,49.69,34.74,49.69Z" transform="translate(0.18 -0.28)"/><path class="cls-6" d="M39.47,53.62a5.05,5.05,0,0,0-1.26-.57c.39,1.72,1,5.91-3.34,5.91s-3.93-3.47-3.62-5.79a1.52,1.52,0,0,0-.95.43c-1.22,3.71-3.25,4.75-1.38,9.22a12.59,12.59,0,0,1,.71,3.46H39.7a12.41,12.41,0,0,1,.9-3.58C42.56,58.3,40.5,56,39.47,53.62Z" transform="translate(0.18 -0.28)"/><path class="cls-7" d="M33.07,64.47c.19,0,.37-.1.55-.12-1-.2-2.37-.18-2.81-.92,1.27,0,2.54.19,3.84.21A31.27,31.27,0,0,0,39,63.38c-.21,0-1.28.69-1.67.81A8.63,8.63,0,0,1,33.07,64.47Z" transform="translate(0.18 -0.28)"/><path class="cls-8" d="M29.25,61.12c.5,1.53,3.1,1.93,5.36,1.88,4.45-.08,6.13-1.67,5.38-3.56-.2-.51-1.15-.85-2.29-.46a12.93,12.93,0,0,1-6.87-.09C29.58,58.6,28.87,60,29.25,61.12Z" transform="translate(0.18 -0.28)"/><path class="cls-9" d="M43.78,9.6a8.23,8.23,0,0,1,3.48-.89c-1.86-1-6.31-3-10.63-1.29-.26,0-2.73-1.85-4.89-1.9.28.42,1.6,1.37,1.65,1.87-2.94-1-5.54-.49-8.56.3-1.39.36-3.71,1.49-4.48,2.7a1.91,1.91,0,0,1,1.78.35c-2.78.93-6.05,3.35-7,6.2.72-.1,1.44-.45,2.18-.52-.64.06-1.55,1.77-1.81,2.27a10.45,10.45,0,0,0-1,2.82,15.37,15.37,0,0,0-.41,5.84,12.84,12.84,0,0,1,1.46-1.49c-1.3,2.86-.25,5.54.89,8.18a35.49,35.49,0,0,0,2,3.57c.52.9.8,1.93,1.38,2.79,1.83,2.68,3.74,1.58,6.35,1a33.36,33.36,0,0,1,6.11-.89,26.09,26.09,0,0,1,6.95.26c2.16.48,4.55,1.43,6.74.53,4.14-1.69,4-7,4.19-10.6.37.27.74.59,1.07.83.08-2.5.36-4.95.43-7.47a13.93,13.93,0,0,0,1.68,1.11c-.11-1.26-1.25-7-2.64-7.55a6.33,6.33,0,0,0,2.14.47C52.59,17.4,49.75,10.63,43.78,9.6Z" transform="translate(0.18 -0.28)"/><path class="cls-4" d="M19.57,38.36c1.1,6.77,9.3,15.11,16,15.11,7.75,0,13.68-11.66,12.5-20.88-1.28-10-6.16-18.38-16.84-16.36C23.55,17.68,18,28.38,19.57,38.36Z" transform="translate(0.18 -0.28)"/><path class="cls-10" d="M27.44,23.11a5.74,5.74,0,0,0,.43,3.3,18,18,0,0,1-4.81-1.7c-.9,1.74-1,5.14-3.83,4.95-2-.14-2.1-2.61-1.92-4.08.5-3.95,2.15-6.53,6-8.24,2.59-1.14,5.62-1,8.4-.94A36,36,0,0,1,44.52,19c1.37.53,1,5.37,1,5.41a6.39,6.39,0,0,0-.32,2.32c-2.66.07-4.59-1.3-6.33-3.11a8.41,8.41,0,0,0,.42,1.86S28.91,23.68,27.44,23.11Z" transform="translate(0.18 -0.28)"/><path class="cls-4" d="M17.73,41.59a7.58,7.58,0,0,0,3,.32l.06-.09c.45-.69-.18-4.57-.4-5.3-.58-1.84-1.7-2.81-3.5-2.33C13.16,35.2,14.67,40.52,17.73,41.59Z" transform="translate(0.18 -0.28)"/><path class="cls-11" d="M19.18,40.27c1.36-.83.07-3.66-.95-4.12-.85-.37-3,.31-2,1.91.52-1.49,1.45-.51,1.31.54-.1.71-.88.72-.1,1.63C17.9,40.72,18.75,40.54,19.18,40.27Z" transform="translate(0.18 -0.28)"/><path class="cls-9" d="M48.42,21.25a30.35,30.35,0,0,0-2.14-2.57,35,35,0,0,0-4-4.5C38,10.7,32.55,10.73,27.36,11.6a18.83,18.83,0,0,0-5.88,1.79c-1.55.84-2.16,2.82-2.88,4.32-1.67,3.52-3,14-1.17,16.38a2.43,2.43,0,0,1,1.79.5,4.46,4.46,0,0,1,1,1.93,2.38,2.38,0,0,0,1.69.44c-.54-3.63-1.43-11.24,1.64-13.94.1,1.14,2.37,2.63,3.48,2.81-.49-1.21-.23-2.56-.47-3.81,3.24.48,8.4,1.59,11.59,2.32-.22-.51-.43-1.81-.65-2.48,2.33,1.56,3.82,3.08,6.7,3.84a13,13,0,0,0,.33-2.93c0,.4,4.47.95,4.91,1A5.58,5.58,0,0,0,48.42,21.25Z" transform="translate(0.18 -0.28)"/><path class="cls-12" d="M40.93,7.85a3.67,3.67,0,0,0-.86,1.82c2.08.14,5.28,1.16,6.63,2.93a8,8,0,0,0-3.27.45c2.37,1.72,5.57,3.07,7,5.81a11.62,11.62,0,0,1-2.9-.72c.06.43,1,2.52,1.36,2.61-2.62-.59-4.77-2.1-7.29-3a12.27,12.27,0,0,1,2.47,4.44c-2.73-.17-5.31-2.69-7.79-3.71a19.23,19.23,0,0,0-7-1.62h0c2.32.6,4.45,2.56,6,4.08-4.58-1.8-11-4-15.3-.36,0-1.54,1.08-2.9,1.49-4.22-1.29.24-2.58.59-3.86.82,1.55-3,4.57-4.5,7.49-5.67A3.53,3.53,0,0,1,23,11.13c1.81-.33,3.46-1.3,5.36-1.21-.83-.34-1.87-.64-2.33-1.48.29.45,3.23.18,3.75.21a21,21,0,0,1,6.11.86,7.73,7.73,0,0,0-.53-1.44,3.12,3.12,0,0,1,2,.95C38.3,8.4,40.18,8.49,40.93,7.85Z" transform="translate(0.18 -0.28)"/><path class="cls-13" d="M47.32,37.76a1.19,1.19,0,0,0-.17-.49,3.73,3.73,0,0,0-2.62-1.15c-1.18-.14-2.82,0-2,1.51C43,38.42,47.58,39.49,47.32,37.76Z" transform="translate(0.18 -0.28)"/><path class="cls-13" d="M28.85,36.69a1.81,1.81,0,0,1,.43.4c1.21,1.57-3.72,2-4.57,1.44-1.59-1.15-.15-1.84,1-2.09A4.44,4.44,0,0,1,28.85,36.69Z" transform="translate(0.18 -0.28)"/><path class="cls-14" d="M28.35,35.66a2.82,2.82,0,0,0-1.94-.16c-1.34-1.11-.11-4.51,1.86-3.68C29.73,32.43,29.67,35,28.35,35.66Z" transform="translate(0.18 -0.28)"/><path class="cls-14" d="M45.25,31.69c1.07.62,1.06,3,.26,3.88a2.64,2.64,0,0,0-2.08,0C41.78,34.51,43.25,30.52,45.25,31.69Z" transform="translate(0.18 -0.28)"/><path class="cls-15" d="M27.57,32.49c.71-.24,1.15.82.59,1.22C27.38,34.26,26.77,32.75,27.57,32.49Z" transform="translate(0.18 -0.28)"/><path class="cls-15" d="M44.39,32.54c.69-.14,1,.92.39,1.23C44,34.2,43.6,32.69,44.39,32.54Z" transform="translate(0.18 -0.28)"/><path class="cls-16" d="M45.61,39.39a29.83,29.83,0,0,0-2.8,4c-1.66,2.35-3.22,5.17-7.92,4.86-6.54-.42-9-8.66-9-8.66C34.57,42.88,42.91,41.15,45.61,39.39Z" transform="translate(0.18 -0.28)"/><path class="cls-17" d="M27.27,40.69a18.75,18.75,0,0,0,17.2-.16A12.64,12.64,0,0,0,42,43.13a8.32,8.32,0,0,1-6.75,3.06A8.53,8.53,0,0,1,27.27,40.69Z" transform="translate(0.18 -0.28)"/><path class="cls-18" d="M27.27,40.69a10.09,10.09,0,0,0,3.87,3,15.29,15.29,0,0,0,8.42.45c2.13-.4,4.91-3.61,4.91-3.61S37,44.52,27.27,40.69Z" transform="translate(0.18 -0.28)"/><path class="cls-18" d="M30,44.15c-.21-.45-.33-1.37.8-1a16.09,16.09,0,0,0,5.8,1c2.92,0,3.51-1,4-.5s-1.39,2.63-5.34,2.52C31.08,46.08,30,44.15,30,44.15Z" transform="translate(0.18 -0.28)"/><path class="cls-19" d="M28.94,42.38a38,38,0,0,0,14-.32s1.39-1.1,1.52-1.53a22.25,22.25,0,0,1-17.2.16A7.09,7.09,0,0,0,28.94,42.38Z" transform="translate(0.18 -0.28)"/><path class="cls-19" d="M30,43.17a20.59,20.59,0,0,0,10.15.7S36.16,46.23,30,43.17Z" transform="translate(0.18 -0.28)"/><path class="cls-20" d="M23.87,29.68a6,6,0,0,1-.86.05,3.35,3.35,0,0,1,3.22-1.32c1,.16,1.88.45,2.88.52.4,0,1.28-.1,1.62.12a1.55,1.55,0,0,1,.43,1c0,.67-3,0-3.57-.09a22.69,22.69,0,0,0-2.47-.4A8.78,8.78,0,0,0,23.87,29.68Z" transform="translate(0.18 -0.28)"/><path class="cls-20" d="M45.37,28.16a27,27,0,0,1-2.65.66c-.37.05-1.19,0-1.5.2a1.63,1.63,0,0,0-.35,1c0,.67,2.74-.14,3.31-.25a19.63,19.63,0,0,1,2.27-.52,7.63,7.63,0,0,1,1.17,0,5.33,5.33,0,0,0,.8,0A3,3,0,0,0,45.37,28.16Z" transform="translate(0.18 -0.28)"/><path class="cls-11" d="M38.44,37.78c.34.35-.63,1.38-1.87,1.53s-2.48-1-1.88-1.34,1,0,1.86,0S38,37.38,38.44,37.78Z" transform="translate(0.18 -0.28)"/><path class="cls-21" d="M21.74,31.54a4.25,4.25,0,0,0,5.2.85,1.87,1.87,0,0,1,2.33.66s-.64-2.4-2.83-1.87C25.32,31.46,24.21,32.5,21.74,31.54Z" transform="translate(0.18 -0.28)"/><path class="cls-21" d="M50.39,31.67a4.26,4.26,0,0,1-5.21.85,1.86,1.86,0,0,0-2.32.66s.63-2.4,2.83-1.87C46.81,31.58,47.91,32.63,50.39,31.67Z" transform="translate(0.18 -0.28)"/></g></svg>