<svg id="Layer_1" data-name="Layer 1" xmlns="http://www.w3.org/2000/svg" xmlns:xlink="http://www.w3.org/1999/xlink" viewBox="0 0 66 66"><defs><style>.cls-1{fill:none;}.cls-2{clip-path:url(#clip-path);}.cls-3{fill:#c0b9ab;}.cls-4{fill:#fdd281;}.cls-5{fill:#f4bb6e;}.cls-6{fill:#ffcb9e;}.cls-7{fill:#1e1e29;}.cls-8{fill:#379bdb;}.cls-9{fill:url(#linear-gradient);}.cls-10{fill:#8dc7eb;opacity:0.5;}.cls-11{fill:#535361;}.cls-12,.cls-13{fill:#bf3c1b;}.cls-12{opacity:0.15;}.cls-13{opacity:0.2;}.cls-14{fill:#ffe8bd;}.cls-15{fill:#ffb387;}.cls-16{fill:#a16b43;}.cls-17{fill:#305d80;}.cls-18{fill:#86bae3;}.cls-19{fill:#121b21;}.cls-20{opacity:0.8;}.cls-21{fill:#f04d4d;}</style><clipPath id="clip-path" transform="translate(0.18 -0.07)"><circle class="cls-1" cx="32.82" cy="33.07" r="33"/></clipPath><linearGradient id="linear-gradient" x1="3366.16" y1="52.29" x2="3366.16" y2="55.83" gradientTransform="translate(-3332.04)" gradientUnits="userSpaceOnUse"><stop offset="0" stop-color="#eea17a"/><stop offset="0" stop-color="#eea17a"/><stop offset="0.36" stop-color="#f7b88e"/><stop offset="0.7" stop-color="#fdc69a"/><stop offset="1" stop-color="#ffcb9e"/></linearGradient></defs><g class="cls-2"><rect class="cls-3" width="66" height="66"/><path class="cls-4" d="M13,49.8C7.62,59.6,22.86,62,30.4,55.53c3.23-2.79,5.82,4.55,9.72,4.9,5.28.47,8.06-3.32,7-6.7.89,2.83,4,3,6.41,2a6.09,6.09,0,0,0,3.54-6,3.86,3.86,0,0,1-4.34.87,2.91,2.91,0,0,1-1.37-4.54C52.81,44,57,41.34,52.91,39.15a3,3,0,0,0,2.72.05c3.33-1.52,1.92-8.62-1.84-6.33,2.55-.1.09,4-1.34.91-.9-1.93,1.18-2.87,2.11-4.16a7.33,7.33,0,0,0,1.32-5.35c-.45-5.24-5.27-8.54-8-12.58-3-4.39-7.3-7.2-12.8-5.22A8.76,8.76,0,0,0,31.6,9a5.37,5.37,0,0,0-1.72-2.4c-.08.78-.12,1.57-.15,2.37-3-1.83-7.67-1.09-10.27.6-3.54,2.29-3.2,5.81-4.63,9.25C13.53,22,9.39,25.63,9.66,29.28c.16,2.28,1.79,3.46,1.68,5.81-.09,2-2.22,3-1.25,4.95s5,1.27,2.94,4.56c-1.87,3-5.53-.55-3.24-1-2.53-1.23-3.58,2-3.21,4C7.1,50.3,10.92,50.36,13,49.8Z" transform="translate(0.18 -0.07)"/><path class="cls-5" d="M15.48,51.53C14,52.9,13.56,54,15.66,55.37c3.4,2.19,8.17,2.33,13.54.53C31.76,55,40,59.62,42.86,58.14c2.27-1.19,3-2.38,3.87-6.47.73.91,1.71,2.4,3.06,2.4-1-2-.72-4.52-.46-6.6s1.68-3.58,1.72-5.6c0-.72-.38-2.18-.13-2.8s1.61-1.44,2.13-2a3.42,3.42,0,0,1-1.94-2.27c-.49-2,1.1-3.6,1.15-5.52s-4.95-10.59-7-7.51c-.48.71,2.28,4.92,1.67,5.57a6.14,6.14,0,0,1-2.63,1.42A81.48,81.48,0,0,1,32.37,31c-2.46.37-4.86,1-7.31,1.38a13,13,0,0,1-4.86.2c-1.83-.42-1.84-2.2-3.37-3-2.92-1.48-5.27,1.56-4.85,4.33a8.35,8.35,0,0,0,1.94,3.59c1.32,1.54,2.93,2,3.81,4A8.54,8.54,0,0,1,15.48,51.53Z" transform="translate(0.18 -0.07)"/><path class="cls-6" d="M45.59,66.07c-.14-.81-.67-5.72-.87-6.63l-3.39.73c.19.86.53,5,.64,5.9Z" transform="translate(0.18 -0.07)"/><path class="cls-7" d="M39.13,61.44c-.42-2-1-2.66-1.19-2.67l.57-6.27c2,.18,5.44,1.4,6.78,7.62Z" transform="translate(0.18 -0.07)"/><path class="cls-6" d="M22.82,66.07c.14-.81.67-5.72.87-6.63l3.38.73c-.18.86-.52,5-.63,5.9Z" transform="translate(0.18 -0.07)"/><path class="cls-7" d="M29.28,61.44c.42-2,1-2.66,1.19-2.67L29.9,52.5c-2,.18-5.44,1.4-6.78,7.62Z" transform="translate(0.18 -0.07)"/><path class="cls-8" d="M39.65,66.07a29,29,0,0,1,.94-4.7c1.1-4.1,1.22-6.58-1.31-7.41s-7-1.09-9.7.07c-2.16.92-2.85,2.41-1.38,7a25.61,25.61,0,0,1,1.23,5.08Z" transform="translate(0.18 -0.07)"/><path class="cls-9" d="M37.26,53.76c-.53-.94-.06-2.44,0-4,.21-3.63-6.05-3.76-6,.2,0,1.75.13,3.09-.23,3.65C28.51,57.49,39.6,58,37.26,53.76Z" transform="translate(0.18 -0.07)"/><path class="cls-10" d="M30,60c.43,1.34,2.6,1.69,4.49,1.66,3.74-.06,5.14-1.44,4.5-3.1-.17-.44-1-.75-1.92-.41a10.45,10.45,0,0,1-5.76-.09C30.24,57.84,29.66,59,30,60Z" transform="translate(0.18 -0.07)"/><path class="cls-7" d="M31.15,52.69s-4.51,1-5,1.69c-2.14,2.84,1.47,7.27,1,11.69h5.17A83.09,83.09,0,0,0,31.15,52.69Z" transform="translate(0.18 -0.07)"/><path class="cls-11" d="M31.49,55.32c-.35-.61-5.4.59-5.27,1.11.1.37,2.75,5.69,4.46,9.64h1.79C32.66,61.28,32,56.25,31.49,55.32Z" transform="translate(0.18 -0.07)"/><path class="cls-11" d="M31.28,51.27c-2.52,1-5.79,2.2-5.84,2.62s6.38,2.94,6.33,2.51S31.28,51.27,31.28,51.27Z" transform="translate(0.18 -0.07)"/><path class="cls-7" d="M37.25,52.69s4.51,1,5,1.69c2.14,2.84-1.47,7.27-1,11.69H36.11A84.25,84.25,0,0,1,37.25,52.69Z" transform="translate(0.18 -0.07)"/><path class="cls-11" d="M36.92,55.32c.34-.61,5.4.59,5.26,1.11-.1.37-2.74,5.69-4.46,9.64H35.94C35.75,61.28,36.39,56.25,36.92,55.32Z" transform="translate(0.18 -0.07)"/><path class="cls-11" d="M37.13,51.27c2.51,1,5.78,2.2,5.84,2.62s-6.38,2.94-6.33,2.51S37.13,51.27,37.13,51.27Z" transform="translate(0.18 -0.07)"/><path class="cls-6" d="M50.07,30.76c-.42-11.48-8.94-16.38-17.3-15.31s-15,7.8-13.9,19.39,8.92,18.59,17.35,18.52C42.69,53.31,50.5,42.73,50.07,30.76Z" transform="translate(0.18 -0.07)"/><path class="cls-6" d="M16.28,38.21a7.64,7.64,0,0,0,3.26.12l.06-.1c.47-.81-.48-4.68-.74-5.47-.67-2-1.72-3.37-3.64-2.69C11.22,31.48,13,37.27,16.28,38.21Z" transform="translate(0.18 -0.07)"/><path class="cls-12" d="M21.86,28.62c0,.32-.05.63-.06.95,0,1.4,1.24,3.61,1,5-.43,2.56-2.3,4.29.07,6.58-2.34,1.29-4.81-.08-5-1.63-.39-3.86,1.65-4.47-.29-6.29-4-3.71-.69-4.15-.42-6.41.28-2.42,2.42-4.56,3.68-6.52,1.77-2.74,5-4,8.05-4.71a42.49,42.49,0,0,1,13.68-.69c2.13.23,5.22.35,6.38,2.47,1,1.73,1.78,5.34,1.11,7.23-.45,1.27-2.68.53-3.75.66a5.78,5.78,0,0,0-3.91,2.47c-1.73,2.37-2.78,4.09-6.93,4.09-2.55,0-5.62-3.74-3.53-5.9a3.16,3.16,0,0,0-1.8.34c-1.74.69-7.93,3-7.45-1.25A20.71,20.71,0,0,0,21.86,28.62Z" transform="translate(0.18 -0.07)"/><path class="cls-13" d="M18.58,37c1.84-.8.43-4.12-.86-4.74-1.06-.51-3.84,0-2.71,2,.81-1.63,1.93-.43,1.65.74-.19.79-1.2.72-.28,1.83A2,2,0,0,0,18.58,37Z" transform="translate(0.18 -0.07)"/><path class="cls-4" d="M43,25.23a7.39,7.39,0,0,1,3.35-.6c2.6-.05,3.5-1.94,3.38-4.43C49.45,13.46,43,10,37.05,9.47A43.2,43.2,0,0,0,32,8.86a18.78,18.78,0,0,0-8.33,2.44c-3.84,2-6.31,6.67-7.43,10.79a16.41,16.41,0,0,0-.48,7.56c.47,2.19,3.31,3,3.48,5.29.08,1-.82,1.77-.8,2.75a3.21,3.21,0,0,0,1,2.18,5.28,5.28,0,0,0,2.41.72c-1.59-1.74-.06-2.75.09-4.45a13.17,13.17,0,0,0-.59-4.53,7,7,0,0,1,2.09-8.16c.25,3.13,3.44,3,5.72,2.55,1-.2,4-1.41,4.54.14.32,1-1.23,1.81-1.58.7,0,1.65,0,3,2,3.43a6.11,6.11,0,0,0,7-3A5.21,5.21,0,0,1,43,25.23Z" transform="translate(0.18 -0.07)"/><path class="cls-14" d="M46.22,21.63a12,12,0,0,1-4.94,3.56,16.31,16.31,0,0,0-2.37,1.5c-1.09.7-3.11,1.49-4.42.87,1.51-1,.56-3.11-.89-3.44-1.82-.42-3.73.78-5.57.14-6-2.08,2.68-3.61,4.2-4.63a4.63,4.63,0,0,0,1.87-4.51,14.33,14.33,0,0,0-2.36-4.19,6.88,6.88,0,0,1,3.26-2c3.43-.92,8.41.74,10.49,3.67C48.06,16.19,48,19.25,46.22,21.63Z" transform="translate(0.18 -0.07)"/><path class="cls-14" d="M19.39,27a6.17,6.17,0,0,0,.52,4C18.2,30.76,15.8,28.55,15,27c-.93-1.86.12-3.24,1.22-4.84C19.49,17.5,18,11,25.55,10.44c3.91-.26,5.37,3,3.34,6.26C26.42,20.62,20.76,22.1,19.39,27Z" transform="translate(0.18 -0.07)"/><path class="cls-15" d="M47.54,37.7a1.53,1.53,0,0,1,.16.51c.27,1.87-3.68,1-4.07.2-.73-1.55.65-1.85,1.65-1.77A2.69,2.69,0,0,1,47.54,37.7Z" transform="translate(0.18 -0.07)"/><path class="cls-15" d="M28.24,37.56a1.81,1.81,0,0,1,.26.56c.61,2.1-3.87,2.05-4.44,1.18-1.07-1.63.4-2.29,1.52-2.45A2.83,2.83,0,0,1,28.24,37.56Z" transform="translate(0.18 -0.07)"/><path class="cls-16" d="M49.17,29.4c-1.21-1.52-5.68-1.55-7.33.17C44,29.77,45.87,29.12,49.17,29.4Z" transform="translate(0.18 -0.07)"/><path class="cls-13" d="M38.56,38.36c.28.31-.58,1.17-1.62,1.25s-2.07-.94-1.54-1.22.82,0,1.56,0S38.24,38,38.56,38.36Z" transform="translate(0.18 -0.07)"/><path class="cls-16" d="M22.26,29.1c1.82-1.59,6.86-1.73,8.37.2C27.77,29.37,26.38,29.19,22.26,29.1Z" transform="translate(0.18 -0.07)"/><path class="cls-17" d="M27.45,35.61a2.9,2.9,0,0,0-2.11,0c-1.51-1.19-.4-5.18,1.77-4.37C28.72,31.8,28.82,34.76,27.45,35.61Z" transform="translate(0.18 -0.07)"/><path class="cls-18" d="M27.45,32.51c.79-.12,1,1.18.37,1.51C26.88,34.49,26.55,32.65,27.45,32.51Z" transform="translate(0.18 -0.07)"/><path class="cls-17" d="M46.18,31.24c1.17.74,1.08,3,.25,4.12a2.58,2.58,0,0,0-1.91.31C42.1,34.94,44,29.85,46.18,31.24Z" transform="translate(0.18 -0.07)"/><path class="cls-18" d="M46.06,32.32c.76,0,.86,1.32.19,1.58C45.32,34.25,45.2,32.34,46.06,32.32Z" transform="translate(0.18 -0.07)"/><path class="cls-19" d="M51,31.92a4.12,4.12,0,0,1-5.07.37,1.84,1.84,0,0,0-2.32.43s.65-2.36,2.65-1.59C47.31,31.54,48.55,32.74,51,31.92Z" transform="translate(0.18 -0.07)"/><path class="cls-19" d="M20.55,32.21a4.52,4.52,0,0,0,5.31.19,2.07,2.07,0,0,1,2.42.19s-.54-2.35-2.62-1.29A6.45,6.45,0,0,1,20.55,32.21Z" transform="translate(0.18 -0.07)"/><g class="cls-20"><path class="cls-21" d="M27.7,40.66c1.13,2.13-1.56,3.13-2.65,1.05A2,2,0,0,0,27.7,40.66Z" transform="translate(0.18 -0.07)"/><path class="cls-21" d="M42.78,40.34a1.51,1.51,0,1,0,2.88.82A2.24,2.24,0,0,1,42.78,40.34Z" transform="translate(0.18 -0.07)"/><path class="cls-21" d="M35,47.8a9.6,9.6,0,0,1-8.5-5.11.52.52,0,0,1,.34-.72.71.71,0,0,1,.84.35,8.29,8.29,0,0,0,7.59,4.36c3.71,0,6.91-1.91,8-4.88a.63.63,0,0,1,.8-.33.6.6,0,0,1,.42.73c-1.24,3.43-4.87,5.65-9.14,5.61Z" transform="translate(0.18 -0.07)"/></g></g></svg>