<svg id="Layer_1" data-name="Layer 1" xmlns="http://www.w3.org/2000/svg" xmlns:xlink="http://www.w3.org/1999/xlink" viewBox="0 0 66 66.06"><defs><style>.cls-1{fill:none;}.cls-2{clip-path:url(#clip-path);}.cls-3{fill:#b6a8a9;}.cls-4{fill:#e34f7e;}.cls-5{fill:#3a3a4a;}.cls-6{fill:#1e1e29;}.cls-7{opacity:0.1;}.cls-8{fill:#f06799;}.cls-9{fill:#ffb67d;}.cls-10{fill:#2b2521;}.cls-11{fill:#ffcb9e;}.cls-12{fill:#bf3c1b;}.cls-12,.cls-20,.cls-21{opacity:0.3;}.cls-13{fill:#211011;}.cls-14{fill:#ffd8b5;}.cls-15{fill:#a89191;}.cls-16{fill:#f7a286;}.cls-17{fill:#8f2722;}.cls-18{fill:#fff7eb;}.cls-19{fill:#e8dac5;}.cls-20{fill:#a67663;}.cls-21,.cls-22,.cls-23{fill:#fff;}.cls-23{opacity:0.7;}.cls-24{fill:#c1c5c9;}</style><clipPath id="clip-path" transform="translate(0.19 -0.25)"><circle class="cls-1" cx="32.83" cy="33.25" r="33"/></clipPath></defs><g class="cls-2"><rect class="cls-3" width="66" height="66"/><path class="cls-4" d="M25,52.42c-4.16,2.71-3.49,7.1-2.41,13.83H42.12c1.18-6.49,2-12-2.13-14.21C35.19,49.46,28.21,50.35,25,52.42Z" transform="translate(0.19 -0.25)"/><path class="cls-5" d="M32.84,57a2.34,2.34,0,0,0-2.52,1.54l1.61,1.95-2,5.81h5.76l-2.18-5.77L35,58.66A2.46,2.46,0,0,0,32.84,57Z" transform="translate(0.19 -0.25)"/><path class="cls-6" d="M15.91,66.25c0-.25.3-4.93.57-6.77C16.9,56.54,18,54.44,22,53l2,4.72c-2.28,1.19-2.59,8.57-2.59,8.57Z" transform="translate(0.19 -0.25)"/><path class="cls-6" d="M25,51.6s-4.24,1.57-4.64,2.62c-.31.81-.09,6.93.78,12H27A56.64,56.64,0,0,0,25,51.6Z" transform="translate(0.19 -0.25)"/><path class="cls-5" d="M25.15,50.84a7.13,7.13,0,0,0-3.38,5c.05.65,4.43,1,4.27.38S25.15,50.84,25.15,50.84Z" transform="translate(0.19 -0.25)"/><path class="cls-5" d="M25.88,55.59c-.5-.86-2.33,3.63-2.06,4.39.17.45,1.32,3.51,2.18,6.27l1.07.06C27,61.82,26.61,56.85,25.88,55.59Z" transform="translate(0.19 -0.25)"/><path class="cls-6" d="M49.77,66.25c0-.25-.31-4.93-.57-6.77-.42-2.94-1.52-5-5.52-6.52l-2,4.72c2.28,1.19,2.59,8.57,2.59,8.57Z" transform="translate(0.19 -0.25)"/><path class="cls-6" d="M40.64,51.6s4.23,1.57,4.63,2.62c.31.81.09,6.93-.78,12H38.67A56.65,56.65,0,0,1,40.64,51.6Z" transform="translate(0.19 -0.25)"/><path class="cls-5" d="M40.52,50.84a7.19,7.19,0,0,1,3.39,5c-.06.65-4.44,1-4.28.38S40.52,50.84,40.52,50.84Z" transform="translate(0.19 -0.25)"/><path class="cls-5" d="M39.79,55.59c.5-.86,2.33,3.63,2.06,4.39-.16.45-1.31,3.51-2.18,6.27l-1.07.06C38.64,61.82,39.06,56.85,39.79,55.59Z" transform="translate(0.19 -0.25)"/><path class="cls-7" d="M40.12,53.91c0,2.21-2.1,4.44-4.06,5.82L32.79,57l-3.07,2.92S26.15,58,25.11,54.75,40.15,52.32,40.12,53.91Z" transform="translate(0.19 -0.25)"/><path class="cls-8" d="M32.79,57l3.08,1.93s7-3.52,4.65-8.06c-2.07-4.07-12.5-3.64-15.37,0S29.49,59,29.49,59Z" transform="translate(0.19 -0.25)"/><path class="cls-9" d="M32.63,56.52c1.88,0,9.86-4.51,4.25-8.93-1.61-1.27-4.76-1.47-6.68-1.06a4.62,4.62,0,0,0-3.48,4.23C26.54,53.19,30.14,56.45,32.63,56.52Z" transform="translate(0.19 -0.25)"/><path class="cls-10" d="M47.08,31.8c.65-.88,1.59-9.82,2.56-8.71,3.67,4.21-.56,10.19,1.22,15.09.24.64-2.26.26-2.46.18C45.91,37.32,45.59,33.82,47.08,31.8Z" transform="translate(0.19 -0.25)"/><path class="cls-10" d="M46.65,30.6c1.92-.5,4.12-.8,2.94-8.89-1.3-8.82-11.82-14.27-20.71-12.6C7.36,13.17,11.12,37.87,17.41,36.83S44.72,31.1,46.65,30.6Z" transform="translate(0.19 -0.25)"/><path class="cls-11" d="M15.83,34.78c.32,11.28,8.1,20.21,17.36,19.94S49.71,45.1,49.4,33.83,41.3,13.62,32,13.88,15.51,23.5,15.83,34.78Z" transform="translate(0.19 -0.25)"/><path class="cls-11" d="M13.72,40.62a10.06,10.06,0,0,0,3.66.44l.07-.09c.6-.74-.13-4.6-.35-5.4-.57-2-1.63-3.45-3.86-3C8.62,33.54,10.07,39.36,13.72,40.62Z" transform="translate(0.19 -0.25)"/><path class="cls-12" d="M19.29,29.49A16.66,16.66,0,0,1,21,24.2c1.83-3.24,5.44-4.41,8.94-4.88a41.51,41.51,0,0,1,13.34.54c1,.2,5.58.88,4.6,2.67a7.29,7.29,0,0,1-4.41,3,35.57,35.57,0,0,1-7.92-.08c-6.77-.73-9.85,1.36-10.75,2.69a6.57,6.57,0,0,1,.84-3c-.14.13-4.71,2-5.86,9.33C19.24,34.28,18.88,31.76,19.29,29.49Z" transform="translate(0.19 -0.25)"/><path class="cls-10" d="M24.44,14.61c-6.29,2.56-10.18,12.57-9.69,18.62.28,3.44,5,3.67,5,1.73,0-5.92,1-10.11,9.71-12.17,7-1.64,15.2-.74,17.27.7s0-4.2-6-7.9S29.26,12.65,24.44,14.61Z" transform="translate(0.19 -0.25)"/><path class="cls-12" d="M16.12,39.53c2.15-.59.85-4-.54-4.71-1.15-.6-4.33-.35-3.23,1.62,1.06-1.49,2.21-.22,1.79.9-.28.75-1.42.57-.47,1.74A2.63,2.63,0,0,0,16.12,39.53Z" transform="translate(0.19 -0.25)"/><path class="cls-10" d="M51.06,22.72c-6.28,4.66-17.69-1.21-24.39,2.78A5.73,5.73,0,0,1,27.41,23c-.25.45-3.41,1.47-4,1.37-1.62-.26-2.41-2.12-2.82-3.43-1.25-4-.61-7.8,2.94-9.85,4.93-2.85,10.87-2.79,16.35-1.31C49.45,12.36,54,20.52,51.06,22.72Z" transform="translate(0.19 -0.25)"/><path class="cls-10" d="M19.67,39.52l.45,0c.15-2-.27-3.9-.24-6,0-1.47-.12-1.65-1.11-2.27s-2.75-.12-3.95-.82c.57.34.1,2.72.07,3.26A5.17,5.17,0,0,0,19.67,39.52Z" transform="translate(0.19 -0.25)"/><path class="cls-10" d="M15.12,11.83c1.63,5.25,8.29,4.05,11.23,2.38,1.39-.8,3.13-5.22.79-4.75-3.17.64-6.61,1.3-9.19-.27A2.84,2.84,0,0,0,19.17,12C18.38,12.63,16.7,12.69,15.12,11.83Z" transform="translate(0.19 -0.25)"/><path class="cls-13" d="M27.24,36A3.23,3.23,0,0,0,25,35.73c-1.47-1.37.12-5.29,2.32-4.23C29,32.3,28.78,35.3,27.24,36Z" transform="translate(0.19 -0.25)"/><path class="cls-12" d="M38.45,36.94c.43.45-.53,2-2.52,2s-3-1.66-2.26-2S34.91,37,36,37,38,36.41,38.45,36.94Z" transform="translate(0.19 -0.25)"/><path class="cls-14" d="M38.27,37.07c.58-.5,0-2.49-2.33-2.44-2,0-3,1.71-2,2.48A4.13,4.13,0,0,0,38.27,37.07Z" transform="translate(0.19 -0.25)"/><path class="cls-13" d="M45.12,30.9c1.26.61,1.35,2.61.54,3.67a3,3,0,0,0-1.93.64C41.17,34.7,42.77,29.76,45.12,30.9Z" transform="translate(0.19 -0.25)"/><path class="cls-15" d="M26.67,32c.82-.23,1.27,1,.61,1.47C26.36,34.11,25.74,32.31,26.67,32Z" transform="translate(0.19 -0.25)"/><path class="cls-15" d="M44.56,31.54c.77-.22,1.19,1,.57,1.37C44.27,33.48,43.7,31.79,44.56,31.54Z" transform="translate(0.19 -0.25)"/><path class="cls-10" d="M46.09,27.84c1.26-.05,1.65-.68.41-1.24a6.59,6.59,0,0,0-2.38-.36c-.47,0-2.27-.31-2.63.07C40.16,27.76,45.61,27.86,46.09,27.84Z" transform="translate(0.19 -0.25)"/><path class="cls-10" d="M24.41,28.49c-1.26.08-1.72-.51-.53-1.19a6.46,6.46,0,0,1,2.33-.59c.47-.06,2.23-.53,2.62-.18C30.3,27.84,24.89,28.47,24.41,28.49Z" transform="translate(0.19 -0.25)"/><path class="cls-16" d="M44.72,39.77c-1.14-.79-2.51.78-9,1.15-5.57.32-7.67-.61-9.06-.63.79,5.43,3.78,9.11,7.82,9.45C37,50,40.22,49.4,41.79,47a10,10,0,0,0,1-3,6.3,6.3,0,0,1,2.29-3.79A1.89,1.89,0,0,0,44.72,39.77Z" transform="translate(0.19 -0.25)"/><path class="cls-17" d="M27.53,40.93s7.19,2.5,17.1-1a5.68,5.68,0,0,0-2.13,3.61c-.4,1.92-1.28,4.67-7,5C29.21,48.93,27.53,40.93,27.53,40.93Z" transform="translate(0.19 -0.25)"/><path class="cls-18" d="M29.2,41.44a2.48,2.48,0,0,0,1.91,2.31,17.32,17.32,0,0,0,8.12.12c1.93-.41,3-3,3-3A43.73,43.73,0,0,1,29.2,41.44Z" transform="translate(0.19 -0.25)"/><path class="cls-18" d="M30.78,46.69c-.13-.39-.09-.83.74-.49a15.46,15.46,0,0,0,5.05.74c2.19,0,2.76-.77,3.12-.34S38.37,49,34.9,48.68C30.93,48.3,30.78,46.69,30.78,46.69Z" transform="translate(0.19 -0.25)"/><path class="cls-19" d="M29.48,42.48s9.81-.94,12.05-.38a9.74,9.74,0,0,0,.67-1.2,43.51,43.51,0,0,1-13,.54A2.07,2.07,0,0,0,29.48,42.48Z" transform="translate(0.19 -0.25)"/><path class="cls-19" d="M31.85,46.55a16.17,16.17,0,0,0,7.24.29S35.17,48.17,31.85,46.55Z" transform="translate(0.19 -0.25)"/><path class="cls-20" d="M40.16,37a3.75,3.75,0,0,1-1-1.17A3.84,3.84,0,0,1,39,32.69c.51-1.4,2-1.48,3.22-1.57.81-.06,1.64-.07,2.46-.08a6,6,0,0,0,2.08-.17c.86-.36.68-1.55.16-2.16s-1.36-.42-2.11-.35a19.93,19.93,0,0,0-2.86.51,17.13,17.13,0,0,0-3.62,1,4.31,4.31,0,0,1-2.67.8c-2.24-.08-4.13-1.46-6.37-1.68a18.72,18.72,0,0,0-7,.16c-.59.17-2.39.86-1.17,1.5s3,.4,4.27.45c.6,0,1.21,0,1.81.08,2.13.18,5.39-.13,5.24,2.53-.1,1.82-1.27,3.7-2.75,4.05a19.05,19.05,0,0,1-4.37.47,7.44,7.44,0,0,1-3.18-.66c-.28-.13-1.14-.67-1.41-.28-.47.66,1.27,1.73,1.73,1.93a10.28,10.28,0,0,0,3.26.71c2.77.28,5.63.12,7.18-2.44.9-1.49,1.34-3.23,2.18-4.75,1.36-2.49,1.94.9,2.33,2.38a7.67,7.67,0,0,0,1,2.35,5.28,5.28,0,0,0,3.9,2A17.05,17.05,0,0,0,46.78,39c.49-.21.75-1,.17-1.28-.36-.14-2.84.35-3.22.32a11.25,11.25,0,0,1-1.63-.16A4.76,4.76,0,0,1,40.16,37Z" transform="translate(0.19 -0.25)"/><path class="cls-5" d="M16.08,29.07c.4-.39,2,0,3.82-.16,2.57-.25,15.61-1.95,14.91,3.64a7.67,7.67,0,0,1-3.55,6c-1.91,1.12-8.29,1-10.35-.56-2.46-1.92-2.61-5.21-2.81-6.47a3.09,3.09,0,0,1-1.47-.39S15.55,29.59,16.08,29.07Zm5,7.51c1.73,1.88,8,2.21,10.26.49,1.76-1.3,2.78-5.12,1.76-5.8-2.11-1.41-10.84-1.38-13.06.17C19.26,31.94,19.69,35.13,21,36.58Z" transform="translate(0.19 -0.25)"/><path class="cls-5" d="M52.58,30.38a2.47,2.47,0,0,1-1.25.45c-.14,1.27-.16,4.56-2.23,6.59-1.73,1.69-7.23,2.07-8.91,1-2.08-1.27-2.92-3.58-3.24-5.84-.77-5.55,10.52-4.47,12.75-4.33,1.58.09,2.94-.39,3.3,0S52.58,30.38,52.58,30.38Zm-2.88.44c-2-1.44-9.5-1.07-11.27.43-.87.73.14,4.5,1.69,5.72,2,1.61,7.4,1,8.84-1C50.07,34.49,50.34,31.29,49.7,30.82Z" transform="translate(0.19 -0.25)"/><path class="cls-21" d="M39.92,30.84c1.39-.53,8.45-.78,9.21,0,.55.58-1.51,1.35-2.45,1.48a16,16,0,0,1-5.35-.1C40.86,32.14,38.66,31.33,39.92,30.84Z" transform="translate(0.19 -0.25)"/><path class="cls-22" d="M45.44,30.84c1.43-.16,3.89.17,3.61.62s-4.24.6-4.57-.05C44.32,31.09,44.76,30.91,45.44,30.84Z" transform="translate(0.19 -0.25)"/><path class="cls-23" d="M41.08,35.57c.9,0,2.37.62,2.15.94s-2.67-.06-2.8-.61C40.36,35.62,40.66,35.54,41.08,35.57Z" transform="translate(0.19 -0.25)"/><path class="cls-23" d="M22.42,36c1,.09,2.58.72,2.32,1s-2.93-.17-3-.73C21.62,36.06,22,36,22.42,36Z" transform="translate(0.19 -0.25)"/><path class="cls-21" d="M21.47,31.22c.79-.76,8.93-.69,10.6-.21,1.5.43-.93,1.24-1.47,1.35a22.25,22.25,0,0,1-6.14.21C23.36,32.46,20.9,31.78,21.47,31.22Z" transform="translate(0.19 -0.25)"/><path class="cls-22" d="M28.51,30.77c1.59-.16,4.31.17,4,.63s-4.68.59-5.05,0C27.27,31,27.77,30.84,28.51,30.77Z" transform="translate(0.19 -0.25)"/><path class="cls-5" d="M32.85,29.45a9.93,9.93,0,0,0,5.82-.09c1.71-.52-.05.89-.37,1.27s-.46,4.44-1.2,2.88-1.89-1.5-2.49.19-.36-1.31-.58-2.23S31,29,32.85,29.45Z" transform="translate(0.19 -0.25)"/><path class="cls-24" d="M32.74,30.16c-2-1.47-5.41-1.6-12-.77C25.74,29.32,29.69,29.21,32.74,30.16Z" transform="translate(0.19 -0.25)"/><path class="cls-24" d="M39.2,29.9c1.63-1.44,4.31-1.33,10.08-1.21C45,29.08,41.76,28.81,39.2,29.9Z" transform="translate(0.19 -0.25)"/></g></svg>