<svg id="Layer_1" data-name="Layer 1" xmlns="http://www.w3.org/2000/svg" xmlns:xlink="http://www.w3.org/1999/xlink" viewBox="0 0 42.8 61.24"><defs><style>.cls-1{fill:none;}.cls-2{fill:#c9beb7;}.cls-3{fill:#1e1e29;}.cls-4{fill:#3a3a4a;}.cls-5{opacity:0.1;}.cls-6{fill:#e3d9d3;}.cls-7{fill:url(#linear-gradient);}.cls-8{fill:url(#linear-gradient-2);}.cls-9{clip-path:url(#clip-path);}.cls-10{fill:#2b2521;}.cls-11{fill:#ffcb9e;}.cls-12{fill:#bf3c1b;}.cls-12,.cls-20,.cls-21{opacity:0.3;}.cls-13{fill:#211011;}.cls-14{fill:#ffd8b5;}.cls-15{fill:#a89191;}.cls-16{fill:#f7a286;}.cls-17{fill:#8f2722;}.cls-18{fill:#fff7eb;}.cls-19{fill:#e8dac5;}.cls-20{fill:#a67663;}.cls-21,.cls-22,.cls-23{fill:#fff;}.cls-23{opacity:0.7;}.cls-24{fill:#c1c5c9;}</style><linearGradient id="linear-gradient" x1="-1647.42" y1="50.12" x2="-1647.42" y2="55.13" gradientTransform="matrix(-1, 0, 0, 1, -1614.19, 0)" gradientUnits="userSpaceOnUse"><stop offset="0" stop-color="#ee996d"/><stop offset="0.02" stop-color="#ee9a6e"/><stop offset="0.37" stop-color="#f8b181"/><stop offset="0.71" stop-color="#fdbf8d"/><stop offset="1" stop-color="#ffc491"/></linearGradient><linearGradient id="linear-gradient-2" x1="-1647.42" y1="51.12" x2="-1647.42" y2="56.13" xlink:href="#linear-gradient"/><clipPath id="clip-path" transform="translate(-10.34 -4.76)"><circle class="cls-1" cx="32.83" cy="29.25" r="33"/></clipPath></defs><path class="cls-2" d="M23.22,65c-.44-4.23.65-7.93,2.71-9.13L23.37,53c-3.12,1.59-4.24,6.11-4.24,12Z" transform="translate(-10.34 -4.76)"/><path class="cls-2" d="M42.42,65c.44-4.23-.65-7.93-2.71-9.13L42.27,53c3.12,1.59,4.24,6.11,4.24,12Z" transform="translate(-10.34 -4.76)"/><path class="cls-2" d="M39.28,51.39c-4-2.24-9.88-1.46-12.55.34C23,54.25,23.9,58.43,24.9,65h16C41.94,58.82,43,53.44,39.28,51.39Z" transform="translate(-10.34 -4.76)"/><path class="cls-3" d="M33.71,58.86l1.62-1.61a2.4,2.4,0,0,0-2.27-1.48,2.44,2.44,0,0,0-2.62,1.36l1.66,1.7-2.07,5L30.89,65h4l1-1.19Z" transform="translate(-10.34 -4.76)"/><path class="cls-4" d="M27.16,51s-4,1.27-4.31,2.09c-.24.57.63,6.17,1.26,11.93h4.32C28.65,61.33,28.64,55.41,27.16,51Z" transform="translate(-10.34 -4.76)"/><path class="cls-4" d="M38.48,51s4,1.27,4.31,2.09c.24.57-.63,6.17-1.26,11.93H37.21C37,61.33,37,55.41,38.48,51Z" transform="translate(-10.34 -4.76)"/><path class="cls-5" d="M38.7,53.14a7.32,7.32,0,0,1-3.39,5.39l-2.5-2.36L30.9,58.54a8.72,8.72,0,0,1-3.46-4.64C26.66,50.93,38.72,51.7,38.7,53.14Z" transform="translate(-10.34 -4.76)"/><path class="cls-6" d="M32.82,55.88l2.38,2s4.88-3.06,3.15-7.15c-1.56-3.68-8.73-3.62-10.88-.33s3.26,7.39,3.26,7.39Z" transform="translate(-10.34 -4.76)"/><path class="cls-7" d="M33.13,55.5c1.24,0,6.49-4.08,2.8-8.07a4.7,4.7,0,0,0-4.4-1c-1.32.39-2.2,2.07-2.29,3.81C29.13,52.49,31.49,55.44,33.13,55.5Z" transform="translate(-10.34 -4.76)"/><path class="cls-2" d="M23.22,66c-.44-4.23.65-7.93,2.71-9.13L23.37,54c-3.12,1.59-4.24,6.11-4.24,12Z" transform="translate(-10.34 -4.76)"/><path class="cls-2" d="M42.42,66c.44-4.23-.65-7.93-2.71-9.13L42.27,54c3.12,1.59,4.24,6.11,4.24,12Z" transform="translate(-10.34 -4.76)"/><path class="cls-2" d="M39.28,52.39c-4-2.24-9.88-1.46-12.55.34C23,55.25,23.9,59.43,24.9,66h16C41.94,59.82,43,54.44,39.28,52.39Z" transform="translate(-10.34 -4.76)"/><path class="cls-3" d="M33.71,59.86l1.62-1.61a2.4,2.4,0,0,0-2.27-1.48,2.44,2.44,0,0,0-2.62,1.36l1.66,1.7-2.07,5L30.89,66h4l1-1.19Z" transform="translate(-10.34 -4.76)"/><path class="cls-4" d="M27.16,52s-4,1.27-4.31,2.09c-.24.57.63,6.17,1.26,11.93h4.32C28.65,62.33,28.64,56.41,27.16,52Z" transform="translate(-10.34 -4.76)"/><path class="cls-4" d="M38.48,52s4,1.27,4.31,2.09c.24.57-.63,6.17-1.26,11.93H37.21C37,62.33,37,56.41,38.48,52Z" transform="translate(-10.34 -4.76)"/><path class="cls-5" d="M38.7,54.14a7.32,7.32,0,0,1-3.39,5.39l-2.5-2.36L30.9,59.54a8.72,8.72,0,0,1-3.46-4.64C26.66,51.93,38.72,52.7,38.7,54.14Z" transform="translate(-10.34 -4.76)"/><path class="cls-6" d="M32.82,56.88l2.38,2s4.88-3.06,3.15-7.15c-1.56-3.68-8.73-3.62-10.88-.33s3.26,7.39,3.26,7.39Z" transform="translate(-10.34 -4.76)"/><path class="cls-8" d="M33.13,56.5c1.24,0,6.49-4.08,2.8-8.07a4.7,4.7,0,0,0-4.4-1c-1.32.39-2.2,2.07-2.29,3.81C29.13,53.49,31.49,56.44,33.13,56.5Z" transform="translate(-10.34 -4.76)"/><g class="cls-9"><path class="cls-10" d="M47.08,27.8c.65-.88,1.59-9.82,2.56-8.71,3.67,4.21-.56,10.19,1.22,15.09.24.64-2.26.26-2.46.18C45.91,33.32,45.59,29.82,47.08,27.8Z" transform="translate(-10.34 -4.76)"/><path class="cls-10" d="M46.65,26.6c1.92-.5,4.12-.8,2.94-8.89C48.29,8.89,37.77,3.44,28.88,5.11,7.36,9.17,11.12,33.87,17.41,32.83S44.72,27.1,46.65,26.6Z" transform="translate(-10.34 -4.76)"/><path class="cls-11" d="M15.83,29.78c.32,11.28,8.1,20.21,17.36,19.94S49.71,40.1,49.4,28.83,41.3,8.62,32,8.88,15.51,18.5,15.83,29.78Z" transform="translate(-10.34 -4.76)"/><path class="cls-11" d="M13.72,36.62a10.06,10.06,0,0,0,3.66.44l.07-.09c.6-.74-.13-4.6-.35-5.4-.57-2-1.63-3.45-3.86-3C8.62,29.54,10.07,35.36,13.72,36.62Z" transform="translate(-10.34 -4.76)"/><path class="cls-12" d="M19.29,25.49A16.66,16.66,0,0,1,21,20.2c1.83-3.24,5.44-4.41,8.94-4.88a41.51,41.51,0,0,1,13.34.54c1,.2,5.58.88,4.6,2.67a7.29,7.29,0,0,1-4.41,3,35.57,35.57,0,0,1-7.92-.08c-6.77-.73-9.85,1.36-10.75,2.69a6.57,6.57,0,0,1,.84-3c-.14.13-4.71,2-5.86,9.33C19.24,30.28,18.88,27.76,19.29,25.49Z" transform="translate(-10.34 -4.76)"/><path class="cls-10" d="M24.44,10.61c-6.29,2.56-10.18,12.57-9.69,18.62.28,3.44,5,3.67,5,1.73,0-5.92,1-10.11,9.71-12.17,7-1.64,15.2-.74,17.27.7s0-4.2-6-7.9S29.26,8.65,24.44,10.61Z" transform="translate(-10.34 -4.76)"/><path class="cls-12" d="M16.12,35.53c2.15-.59.85-4-.54-4.71-1.15-.6-4.33-.35-3.23,1.62,1.06-1.49,2.21-.22,1.79.9-.28.75-1.42.57-.47,1.74A2.63,2.63,0,0,0,16.12,35.53Z" transform="translate(-10.34 -4.76)"/><path class="cls-10" d="M51.06,18.72c-6.28,4.66-17.69-1.21-24.39,2.78A5.73,5.73,0,0,1,27.41,19c-.25.45-3.41,1.47-4,1.37-1.62-.26-2.41-2.12-2.82-3.43-1.25-4-.61-7.8,2.94-9.85,4.93-2.85,10.87-2.79,16.35-1.31C49.45,8.36,54,16.52,51.06,18.72Z" transform="translate(-10.34 -4.76)"/><path class="cls-10" d="M19.67,35.52l.45,0c.15-2-.27-3.9-.24-6,0-1.47-.12-1.65-1.11-2.27s-2.75-.12-3.95-.82c.57.34.1,2.72.07,3.26A5.17,5.17,0,0,0,19.67,35.52Z" transform="translate(-10.34 -4.76)"/><path class="cls-10" d="M15.12,7.83c1.63,5.25,8.29,4.05,11.23,2.38,1.39-.8,3.13-5.22.79-4.75C24,6.1,20.53,6.76,18,5.19A2.84,2.84,0,0,0,19.17,8C18.38,8.63,16.7,8.69,15.12,7.83Z" transform="translate(-10.34 -4.76)"/><path class="cls-13" d="M27.24,32A3.23,3.23,0,0,0,25,31.73c-1.47-1.37.12-5.29,2.32-4.23C29,28.3,28.78,31.3,27.24,32Z" transform="translate(-10.34 -4.76)"/><path class="cls-12" d="M38.45,32.94c.43.45-.53,2-2.52,2s-3-1.66-2.26-2S34.91,33,36,33,38,32.41,38.45,32.94Z" transform="translate(-10.34 -4.76)"/><path class="cls-14" d="M38.27,33.07c.58-.5,0-2.49-2.33-2.44-2,0-3,1.71-2,2.48A4.13,4.13,0,0,0,38.27,33.07Z" transform="translate(-10.34 -4.76)"/><path class="cls-13" d="M45.12,26.9c1.26.61,1.35,2.61.54,3.67a3,3,0,0,0-1.93.64C41.17,30.7,42.77,25.76,45.12,26.9Z" transform="translate(-10.34 -4.76)"/><path class="cls-15" d="M26.67,28c.82-.23,1.27,1,.61,1.47C26.36,30.11,25.74,28.31,26.67,28Z" transform="translate(-10.34 -4.76)"/><path class="cls-15" d="M44.56,27.54c.77-.22,1.19,1,.57,1.37C44.27,29.48,43.7,27.79,44.56,27.54Z" transform="translate(-10.34 -4.76)"/><path class="cls-10" d="M46.09,23.84c1.26-.05,1.65-.68.41-1.24a6.59,6.59,0,0,0-2.38-.36c-.47,0-2.27-.31-2.63.07C40.16,23.76,45.61,23.86,46.09,23.84Z" transform="translate(-10.34 -4.76)"/><path class="cls-10" d="M24.41,24.49c-1.26.08-1.72-.51-.53-1.19a6.46,6.46,0,0,1,2.33-.59c.47-.06,2.23-.53,2.62-.18C30.3,23.84,24.89,24.47,24.41,24.49Z" transform="translate(-10.34 -4.76)"/><path class="cls-16" d="M44.72,35.77c-1.14-.79-2.51.78-9,1.15-5.57.32-7.67-.61-9.06-.63.79,5.43,3.78,9.11,7.82,9.45C37,46,40.22,45.4,41.79,43a10,10,0,0,0,1-3,6.3,6.3,0,0,1,2.29-3.79A1.89,1.89,0,0,0,44.72,35.77Z" transform="translate(-10.34 -4.76)"/><path class="cls-17" d="M27.53,36.93s7.19,2.5,17.1-1a5.68,5.68,0,0,0-2.13,3.61c-.4,1.92-1.28,4.67-7,5C29.21,44.93,27.53,36.93,27.53,36.93Z" transform="translate(-10.34 -4.76)"/><path class="cls-18" d="M29.2,37.44a2.48,2.48,0,0,0,1.91,2.31,17.32,17.32,0,0,0,8.12.12c1.93-.41,3-3,3-3A43.73,43.73,0,0,1,29.2,37.44Z" transform="translate(-10.34 -4.76)"/><path class="cls-18" d="M30.78,42.69c-.13-.39-.09-.83.74-.49a15.46,15.46,0,0,0,5.05.74c2.19,0,2.76-.77,3.12-.34S38.37,45,34.9,44.68C30.93,44.3,30.78,42.69,30.78,42.69Z" transform="translate(-10.34 -4.76)"/><path class="cls-19" d="M29.48,38.48s9.81-.94,12.05-.38a9.74,9.74,0,0,0,.67-1.2,43.51,43.51,0,0,1-13,.54A2.07,2.07,0,0,0,29.48,38.48Z" transform="translate(-10.34 -4.76)"/><path class="cls-19" d="M31.85,42.55a16.17,16.17,0,0,0,7.24.29S35.17,44.17,31.85,42.55Z" transform="translate(-10.34 -4.76)"/><path class="cls-20" d="M40.16,33a3.75,3.75,0,0,1-1-1.17A3.84,3.84,0,0,1,39,28.69c.51-1.4,2-1.48,3.22-1.57.81-.06,1.64-.07,2.46-.08a6,6,0,0,0,2.08-.17c.86-.36.68-1.55.16-2.16s-1.36-.42-2.11-.35a19.93,19.93,0,0,0-2.86.51,17.13,17.13,0,0,0-3.62,1,4.31,4.31,0,0,1-2.67.8c-2.24-.08-4.13-1.46-6.37-1.68a18.72,18.72,0,0,0-7,.16c-.59.17-2.39.86-1.17,1.5s3,.4,4.27.45c.6,0,1.21,0,1.81.08,2.13.18,5.39-.13,5.24,2.53-.1,1.82-1.27,3.7-2.75,4.05a19.05,19.05,0,0,1-4.37.47,7.44,7.44,0,0,1-3.18-.66c-.28-.13-1.14-.67-1.41-.28-.47.66,1.27,1.73,1.73,1.93a10.28,10.28,0,0,0,3.26.71c2.77.28,5.63.12,7.18-2.44.9-1.49,1.34-3.23,2.18-4.75,1.36-2.49,1.94.9,2.33,2.38a7.67,7.67,0,0,0,1,2.35,5.28,5.28,0,0,0,3.9,2A17.05,17.05,0,0,0,46.78,35c.49-.21.75-1,.17-1.28-.36-.14-2.84.35-3.22.32a11.25,11.25,0,0,1-1.63-.16A4.76,4.76,0,0,1,40.16,33Z" transform="translate(-10.34 -4.76)"/><path class="cls-4" d="M16.08,25.07c.4-.39,2,0,3.82-.16,2.57-.25,15.61-1.95,14.91,3.64a7.67,7.67,0,0,1-3.55,6c-1.91,1.12-8.29,1-10.35-.56-2.46-1.92-2.61-5.21-2.81-6.47a3.09,3.09,0,0,1-1.47-.39S15.55,25.59,16.08,25.07Zm5,7.51c1.73,1.88,8,2.21,10.26.49,1.76-1.3,2.78-5.12,1.76-5.8-2.11-1.41-10.84-1.38-13.06.17C19.26,27.94,19.69,31.13,21,32.58Z" transform="translate(-10.34 -4.76)"/><path class="cls-4" d="M52.58,26.38a2.47,2.47,0,0,1-1.25.45c-.14,1.27-.16,4.56-2.23,6.59-1.73,1.69-7.23,2.07-8.91,1-2.08-1.27-2.92-3.58-3.24-5.84-.77-5.55,10.52-4.47,12.75-4.33,1.58.09,2.94-.39,3.3,0S52.58,26.38,52.58,26.38Zm-2.88.44c-2-1.44-9.5-1.07-11.27.43-.87.73.14,4.5,1.69,5.72,2,1.61,7.4,1,8.84-1C50.07,30.49,50.34,27.29,49.7,26.82Z" transform="translate(-10.34 -4.76)"/><path class="cls-21" d="M39.92,26.84c1.39-.53,8.45-.78,9.21,0,.55.58-1.51,1.35-2.45,1.48a16,16,0,0,1-5.35-.1C40.86,28.14,38.66,27.33,39.92,26.84Z" transform="translate(-10.34 -4.76)"/><path class="cls-22" d="M45.44,26.84c1.43-.16,3.89.17,3.61.62s-4.24.6-4.57-.05C44.32,27.09,44.76,26.91,45.44,26.84Z" transform="translate(-10.34 -4.76)"/><path class="cls-23" d="M41.08,31.57c.9.05,2.37.62,2.15.94s-2.67-.06-2.8-.61C40.36,31.62,40.66,31.54,41.08,31.57Z" transform="translate(-10.34 -4.76)"/><path class="cls-23" d="M22.42,32c1,.09,2.58.72,2.32,1s-2.93-.17-3-.73C21.62,32.06,22,32,22.42,32Z" transform="translate(-10.34 -4.76)"/><path class="cls-21" d="M21.47,27.22c.79-.76,8.93-.69,10.6-.21,1.5.43-.93,1.24-1.47,1.35a22.25,22.25,0,0,1-6.14.21C23.36,28.46,20.9,27.78,21.47,27.22Z" transform="translate(-10.34 -4.76)"/><path class="cls-22" d="M28.51,26.77c1.59-.16,4.31.17,4,.63s-4.68.59-5.05,0C27.27,27,27.77,26.84,28.51,26.77Z" transform="translate(-10.34 -4.76)"/><path class="cls-4" d="M32.85,25.45a9.93,9.93,0,0,0,5.82-.09c1.71-.52-.05.89-.37,1.27s-.46,4.44-1.2,2.88-1.89-1.5-2.49.19-.36-1.31-.58-2.23S31,25,32.85,25.45Z" transform="translate(-10.34 -4.76)"/><path class="cls-24" d="M32.74,26.16c-2-1.47-5.41-1.6-12-.77C25.74,25.32,29.69,25.21,32.74,26.16Z" transform="translate(-10.34 -4.76)"/><path class="cls-24" d="M39.2,25.9c1.63-1.44,4.31-1.33,10.08-1.21C45,25.08,41.76,24.81,39.2,25.9Z" transform="translate(-10.34 -4.76)"/></g></svg>