<svg id="Layer_1" data-name="Layer 1" xmlns="http://www.w3.org/2000/svg" xmlns:xlink="http://www.w3.org/1999/xlink" viewBox="0 0 66 66"><defs><style>.cls-1{fill:none;}.cls-2{clip-path:url(#clip-path);}.cls-3{fill:#fff;}.cls-4{fill:#1e1e29;}.cls-5{fill:#ca3564;}.cls-6{fill:#3a3a4a;}.cls-7{fill:#b51b4c;}.cls-8{fill:#eba971;}.cls-9{fill:#d99a64;}.cls-10{fill:#ffbc82;}.cls-11{fill:#b54d26;opacity:0.4;}.cls-12{fill:#261b18;}.cls-13{fill:#ffd4ad;}.cls-14{fill:#e6d2c3;opacity:0.7;}.cls-15{fill:#80523a;}.cls-16{fill:#8f2722;}.cls-17{fill:#fff7eb;}.cls-18{fill:#e8dac5;}.cls-19{fill:#4f3e38;}.cls-20{fill:#ff697c;}.cls-21{fill:#ff8f9d;}</style><clipPath id="clip-path" transform="translate(-0.18 -0.28)"><circle class="cls-1" cx="33.19" cy="33.28" r="33"/></clipPath></defs><g class="cls-2"><rect class="cls-3" width="66" height="66"/><path class="cls-4" d="M15.85,66.28h7.38l-.49-13.1C20.11,54.69,16,56.34,15.85,66.28Z" transform="translate(-0.18 -0.28)"/><path class="cls-4" d="M45,53.18l-.49,13.1h7.38C51.71,56.34,47.59,54.69,45,53.18Z" transform="translate(-0.18 -0.28)"/><path class="cls-5" d="M41.65,51.56c-4.9-2.63-12-1.73-15.28.39-4.81,3.13-4.16,6.47-3.07,14.33h21C45.54,59.13,46.39,54.1,41.65,51.56Z" transform="translate(-0.18 -0.28)"/><path class="cls-4" d="M21.65,53.79a120.12,120.12,0,0,0-.42,12.49h8.36A150.52,150.52,0,0,0,26,51.12S22.06,52.72,21.65,53.79Z" transform="translate(-0.18 -0.28)"/><path class="cls-6" d="M21,53.88c.05.67,6.61,2.63,6.45,2s-.91-5.51-.91-5.51C22.42,50.62,20.9,53.22,21,53.88Z" transform="translate(-0.18 -0.28)"/><path class="cls-6" d="M22.42,57.65c.15.43,2.34,4.5,4.45,8.63h2.94c-.82-5.44-1.9-9.94-2.57-11.09C26.73,54.31,22.14,56.88,22.42,57.65Z" transform="translate(-0.18 -0.28)"/><path class="cls-3" d="M22.11,52.62a.56.56,0,1,0,.56.56A.56.56,0,0,0,22.11,52.62Z" transform="translate(-0.18 -0.28)"/><path class="cls-3" d="M24.33,51.43a.56.56,0,0,0,0,1.11.56.56,0,1,0,0-1.11Z" transform="translate(-0.18 -0.28)"/><path class="cls-3" d="M24.29,53.41a.56.56,0,1,0,.56.56A.56.56,0,0,0,24.29,53.41Z" transform="translate(-0.18 -0.28)"/><path class="cls-3" d="M23.74,57.34a.56.56,0,1,0,.55.56A.56.56,0,0,0,23.74,57.34Z" transform="translate(-0.18 -0.28)"/><path class="cls-3" d="M25.84,56.71a.56.56,0,1,0,0,1.11.56.56,0,0,0,0-1.11Z" transform="translate(-0.18 -0.28)"/><path class="cls-3" d="M25.68,59a.56.56,0,1,0,.56.55A.56.56,0,0,0,25.68,59Z" transform="translate(-0.18 -0.28)"/><path class="cls-3" d="M25.56,61.27a.56.56,0,0,0,0,1.11.56.56,0,1,0,0-1.11Z" transform="translate(-0.18 -0.28)"/><path class="cls-3" d="M27.39,63.26a.55.55,0,0,0-.56.55.56.56,0,1,0,1.11,0A.55.55,0,0,0,27.39,63.26Z" transform="translate(-0.18 -0.28)"/><path class="cls-3" d="M27.59,60.52a.55.55,0,0,0-.56.55.56.56,0,1,0,1.11,0A.55.55,0,0,0,27.59,60.52Z" transform="translate(-0.18 -0.28)"/><path class="cls-4" d="M46.18,53.79c-.41-1.07-4.35-2.67-4.35-2.67a153.43,153.43,0,0,0-3.6,15.16H46.6A120.12,120.12,0,0,0,46.18,53.79Z" transform="translate(-0.18 -0.28)"/><path class="cls-6" d="M41.33,50.34s-.74,4.85-.91,5.51,6.4-1.3,6.45-2S45.41,50.62,41.33,50.34Z" transform="translate(-0.18 -0.28)"/><path class="cls-6" d="M40.59,55.19c-.67,1.15-1.75,5.65-2.57,11.09H41c2.11-4.13,4.3-8.2,4.45-8.63C45.69,56.88,41.1,54.31,40.59,55.19Z" transform="translate(-0.18 -0.28)"/><path class="cls-3" d="M45.69,52.62a.56.56,0,1,0,.56.56A.56.56,0,0,0,45.69,52.62Z" transform="translate(-0.18 -0.28)"/><path class="cls-3" d="M43.47,51.43A.56.56,0,1,0,44,52,.56.56,0,0,0,43.47,51.43Z" transform="translate(-0.18 -0.28)"/><path class="cls-3" d="M43.51,53.41a.56.56,0,0,0,0,1.12.56.56,0,0,0,0-1.12Z" transform="translate(-0.18 -0.28)"/><path class="cls-3" d="M44.06,57.34a.56.56,0,1,0,.56.56A.56.56,0,0,0,44.06,57.34Z" transform="translate(-0.18 -0.28)"/><path class="cls-3" d="M42,56.71a.56.56,0,0,0,0,1.11.56.56,0,1,0,0-1.11Z" transform="translate(-0.18 -0.28)"/><path class="cls-3" d="M42.12,59a.56.56,0,1,0,0,1.11.56.56,0,0,0,0-1.11Z" transform="translate(-0.18 -0.28)"/><path class="cls-3" d="M42.24,61.27a.56.56,0,1,0,0,1.11.56.56,0,0,0,0-1.11Z" transform="translate(-0.18 -0.28)"/><path class="cls-3" d="M40.41,63.26a.55.55,0,0,0-.55.55.56.56,0,1,0,1.11,0A.55.55,0,0,0,40.41,63.26Z" transform="translate(-0.18 -0.28)"/><path class="cls-3" d="M40.22,60.52a.55.55,0,0,0-.56.55.56.56,0,1,0,1.11,0A.55.55,0,0,0,40.22,60.52Z" transform="translate(-0.18 -0.28)"/><path class="cls-7" d="M33.08,45.09c-9.07,0-9,13.12.78,13.12C43.05,58.21,45.71,45.09,33.08,45.09Z" transform="translate(-0.18 -0.28)"/><path class="cls-5" d="M33,44.65c-9.68,0-9.66,12.42.83,12.42C43.66,57.07,46.49,44.65,33,44.65Z" transform="translate(-0.18 -0.28)"/><path class="cls-8" d="M48.58,34.31c-1.74-.67-2.84.43-3.41,2.59-.22.86-.86,5.45-.43,6.3l.06.11C45.29,44.56,46,45,47,44.61,49.93,43.5,52.2,35.7,48.58,34.31Z" transform="translate(-0.18 -0.28)"/><path class="cls-9" d="M17.16,21.33c-1,4.86-1.26,11.3,1.07,15.94,1.23,2.43,4.14.81,6.2.3,2.53-.62,5.07-1.2,7.62-1.76,4.18-.92,8.77,0,13,.4,3.32.32,3.57,1.87,3.57-.83,0-3.35.86-8.88,0-12.56C44.49,4.93,19.63,9.64,17.16,21.33Z" transform="translate(-0.18 -0.28)"/><path class="cls-10" d="M31.65,15.37C19.79,17,17.92,27.83,19.07,38.46c.87,8,6.75,16.83,16,16.42,9.42-.41,14.42-12,13.47-21.74C47.48,22.5,45.2,13.53,31.65,15.37Z" transform="translate(-0.18 -0.28)"/><path class="cls-10" d="M16.45,34c-3.89,1-2.12,9.83.79,11.53,1.16.68,3,0,3.09-2.33.67-1.06.3-4-.36-6.53C19.44,34.59,18.32,33.49,16.45,34Z" transform="translate(-0.18 -0.28)"/><path class="cls-11" d="M17.75,36.08c-.85-.42-3,.24-2.07,2,.58-1.56,1.51-.5,1.34.61-.12.75-.93.74-.15,1.72.41.53,1.29.36,1.74.1C20,39.62,18.8,36.6,17.75,36.08Z" transform="translate(-0.18 -0.28)"/><path class="cls-12" d="M26.52,31.63c-2.64-.67-3.92,2.74-2.06,3.74a4.86,4.86,0,0,1,2.54,0A2,2,0,0,0,26.52,31.63Z" transform="translate(-0.18 -0.28)"/><path class="cls-11" d="M36.38,38.74c-1.23,0-1.73-.5-2.58,0s.42,2.15,2.6,2S39.48,39.15,39,38.6,37.75,38.7,36.38,38.74Z" transform="translate(-0.18 -0.28)"/><path class="cls-13" d="M35.82,33.19c-1,.16-2.22,5.52-1.66,5.91A4.6,4.6,0,0,0,39,38.6C39.3,38.26,37,33,35.82,33.19Z" transform="translate(-0.18 -0.28)"/><path class="cls-12" d="M46.58,32C44,30.76,42,34.42,44.07,35.5a4.51,4.51,0,0,1,2.72,0C47.86,34.72,48,32.6,46.58,32Z" transform="translate(-0.18 -0.28)"/><path class="cls-14" d="M25.67,32.26c-1,.31-.08,1.75.88,1.16C27.24,33,26.57,32,25.67,32.26Z" transform="translate(-0.18 -0.28)"/><path class="cls-14" d="M45.55,32.34c-1,.13-.6,1.62.47,1.23C46.79,33.28,46.46,32.23,45.55,32.34Z" transform="translate(-0.18 -0.28)"/><path class="cls-15" d="M25.26,27.52c-.55.1-4.43,1.65-3.23,2.26a1.86,1.86,0,0,0,.77.19,4.21,4.21,0,0,0,1.67-.48,5.18,5.18,0,0,1,3.27-.28c.59.17,2,.54,2.23-.33C30.44,27.14,26.08,27.38,25.26,27.52Z" transform="translate(-0.18 -0.28)"/><path class="cls-15" d="M45.84,27.37c-.77-.1-4.86-.12-4.44,1.57.22.85,1.54.41,2.09.23a4.66,4.66,0,0,1,3.27.18,7,7,0,0,0,1.41.44c.6.09,1.12,0,.95-.67C48.88,28.22,46.65,27.47,45.84,27.37Z" transform="translate(-0.18 -0.28)"/><path class="cls-13" d="M47.71,37.75a3.54,3.54,0,0,0-2.88-1.07c-1.23,0-2.87.44-1.76,2.19.59.94,5.49,1.62,4.91-.54A1.82,1.82,0,0,0,47.71,37.75Z" transform="translate(-0.18 -0.28)"/><path class="cls-13" d="M28.76,37.24a3.74,3.74,0,0,0-3.2-.45c-1.26.27-2.84,1.09-1.31,2.64.81.83,6,.42,4.92-1.65A2.08,2.08,0,0,0,28.76,37.24Z" transform="translate(-0.18 -0.28)"/><path class="cls-11" d="M35.58,41.82c-5.7.34-7.84-.66-9.26-.68.82,5.83,4.52,10,8.66,10,2.17,0,5.18-.2,6.78-2.82a10.8,10.8,0,0,0,1-3.26A6.84,6.84,0,0,1,45.12,41a1.57,1.57,0,0,0-.38-.39C43.58,39.75,42.17,41.44,35.58,41.82Z" transform="translate(-0.18 -0.28)"/><path class="cls-16" d="M27.2,42s1.71,8.17,8.16,7.8c5.82-.34,6.71-3.15,7.11-5.11A5.86,5.86,0,0,1,44.66,41C34.53,44.59,27.2,42,27.2,42Z" transform="translate(-0.18 -0.28)"/><path class="cls-17" d="M28.91,42.55a2.51,2.51,0,0,0,1.94,2.36,17.51,17.51,0,0,0,8.29.12c2-.41,3-3,3-3A44.68,44.68,0,0,1,28.91,42.55Z" transform="translate(-0.18 -0.28)"/><path class="cls-17" d="M36.42,48.17a15.69,15.69,0,0,1-5.15-.76c-.85-.35-.89.1-.76.51,0,0,.16,1.64,4.21,2,3.55.34,5.25-1.69,4.89-2.13S38.66,48.2,36.42,48.17Z" transform="translate(-0.18 -0.28)"/><path class="cls-18" d="M28.91,42.55a2.06,2.06,0,0,0,.27,1.06s10-1,12.31-.39A8.6,8.6,0,0,0,42.17,42,44.44,44.44,0,0,1,28.91,42.55Z" transform="translate(-0.18 -0.28)"/><path class="cls-18" d="M31.6,47.77c3.4,1.66,7.39.3,7.39.3A16.55,16.55,0,0,1,31.6,47.77Z" transform="translate(-0.18 -0.28)"/><path class="cls-9" d="M32.81,13.29C23.19,13.21,16.35,20.12,17,33.88a2.42,2.42,0,0,1,1.82.58,4.63,4.63,0,0,1,1,2.07c.1.22.22.58,1,.54-1.43-4.62-.61-11.11,1-13.22,3.9-5.23,12.66,1.84,15.56,1.73,2.19-.07,7.46-6.66,9.55-1.72C48.28,27.24,48.24,13.42,32.81,13.29Z" transform="translate(-0.18 -0.28)"/><path class="cls-6" d="M18.2,41.39A1.65,1.65,0,1,0,19.85,43,1.65,1.65,0,0,0,18.2,41.39Z" transform="translate(-0.18 -0.28)"/><path class="cls-19" d="M41.87,20.51C44.11,16.89,40.65,12,37.68,10c-4.5-3-12.22-3.73-16.59-.08a5.67,5.67,0,0,0-2,3.74,4.34,4.34,0,0,0-2.29-.85A29.55,29.55,0,0,1,20,16.13c3.29-1.31,7.47,1.47,9.62,3.65,1.28,1.3,1.65,2.82,3.36,4.3.9.78,2.19.81,3.64,2.6.62-1.38,1.61-1.21,3.15-2.28s2.54-3.14,5-3.72A3.78,3.78,0,0,0,41.87,20.51Z" transform="translate(-0.18 -0.28)"/><path class="cls-20" d="M46.77,9.82c-1.07.15-3.11.73-4.13.79a4.67,4.67,0,0,0-1.26-4,15.91,15.91,0,0,1-2.64,2.61,11,11,0,0,1-1.22-3.54A16.54,16.54,0,0,1,34.88,8c-.41-1-1.43-2.86-2.51-3.43-1.28,4-2.47.69-3.94.38a9.48,9.48,0,0,1-.56,2.46c-.54-.73-1.57-2.25-2.05-1.18-.13.3-.22,1.08-.64,1.19s-1.52-2.37-2.79.7c-.19.47-.65,1.48-1.22,1.6s-1-.76-1.55-.37a2.69,2.69,0,0,0-.55,1.4,2.13,2.13,0,0,0-1.42-.53,8.09,8.09,0,0,0,.71,1.37c.34.7.67,2.26,1.68,2.27s1.48-1.1,1.47-1.87c.42,2.35,2.82,1.74,3.3-.2,1,1,1.63,2.58,3,3.08,1.8.63,2.64-2.05,3.83-1.73.82.21.14,2.54.88,2.85s1.47-1.65,3-2.25c-.39,1.36.09,6.38.09,6.38a27.45,27.45,0,0,0,2.58-2.2c.73-.74,2-1.42,3-.93-1.69,2.22,2.51,3.22,3.18.79-2,.12-2.09-.54-1.18-2.05C44,14.36,45.79,11.21,46.77,9.82Z" transform="translate(-0.18 -0.28)"/><path class="cls-21" d="M40.58,13.12c.05-1.1.82-3.54.44-4.21-1.19,2.33-4,2.73-4.69-.48-.5.8-.94,1.38-1.93.76A4.22,4.22,0,0,1,33,6.82c-.75,2-2.79,1.31-3.9-.09,0,.75-.52,2.09-1.4,2.07s-.94-.92-1.22-1.52C26,9,24.72,8.85,23.58,8c-.46,1.27-1.93,3.29-3.55,2.41.13,1.67,1.45,1.14,2.2.08.61.34.49.71,1.14.54a1.44,1.44,0,0,0,.94-1.13c1.34,1.65,3,2.38,4.35.09.6,2.69,2.1,1,3.05,1.72.54.39,1.56,1.06,2,.15.35.63.3,1.07,1.06,1.17a2.91,2.91,0,0,0,1.82-.63A4,4,0,0,0,40,15.51c2.2.2,4.8-3,4.2-4.24C43.59,11.78,41.36,13.3,40.58,13.12Z" transform="translate(-0.18 -0.28)"/><path class="cls-6" d="M49.27,25.34a2.88,2.88,0,0,0-2.68,2.14l1.74.47a1.08,1.08,0,0,1,1-.81,1.19,1.19,0,0,1,1.19.83,1.28,1.28,0,0,1-.39,1.62A.89.89,0,0,1,49,29.36l-1.32,1.22a2.83,2.83,0,0,0,2.06.94,2.59,2.59,0,0,0,1.4-.41,3.06,3.06,0,0,0,1.12-3.79A3,3,0,0,0,49.27,25.34Z" transform="translate(-0.18 -0.28)"/></g></svg>