<svg id="Layer_1" data-name="Layer 1" xmlns="http://www.w3.org/2000/svg" xmlns:xlink="http://www.w3.org/1999/xlink" viewBox="0 0 66 66"><defs><style>.cls-1{fill:none;}.cls-2{clip-path:url(#clip-path);}.cls-3{fill:#b6d2a5;}.cls-4{fill:#ffc38f;}.cls-5{fill:#ebebeb;}.cls-6{fill:#3a3a4a;}.cls-7{opacity:0.1;}.cls-8{fill:#fbfbfb;}.cls-9{fill:url(#linear-gradient);}.cls-10{fill:#3d1f12;}.cls-11{fill:#d94c18;}.cls-11,.cls-12{opacity:0.3;}.cls-12{fill:#bf3c1b;}.cls-13{fill:#78452f;}.cls-14{fill:#f04d4d;}.cls-15{fill:#b32f29;}.cls-16{fill:#fff9f0;}.cls-17{fill:#e8dac5;}.cls-18{fill:#1f1a17;}.cls-19{fill:#a87f7f;}.cls-20{fill:#121b21;}</style><clipPath id="clip-path" transform="translate(0.18 -0.07)"><circle class="cls-1" cx="32.82" cy="33.07" r="33"/></clipPath><linearGradient id="linear-gradient" x1="35.63" y1="51.63" x2="35.63" y2="56.56" gradientUnits="userSpaceOnUse"><stop offset="0" stop-color="#ee996d"/><stop offset="0.02" stop-color="#ee9a6e"/><stop offset="0.37" stop-color="#f8b181"/><stop offset="0.71" stop-color="#fdbf8d"/><stop offset="1" stop-color="#ffc491"/></linearGradient></defs><g class="cls-2"><rect class="cls-3" width="66" height="66"/><path class="cls-4" d="M30.16,56.49l-1.43-2.8c-2.19,1.11-2.63,3.46-3.11,5.94a14.44,14.44,0,0,1-2.39,6.44h3.71a20.74,20.74,0,0,0,1.78-5.85C29.11,58.17,29.39,56.89,30.16,56.49Z" transform="translate(0.18 -0.07)"/><path class="cls-4" d="M41.71,53.69l-1.42,2.8c.77.4,1.05,1.68,1.44,3.73a20.69,20.69,0,0,0,1.77,5.85h3.71a14.44,14.44,0,0,1-2.39-6.44C44.35,57.15,43.9,54.8,41.71,53.69Z" transform="translate(0.18 -0.07)"/><path class="cls-5" d="M42.47,63c1-5,0-8.08-.89-10.1-4-2.21-10.45-1.38-13.08.4a19.35,19.35,0,0,0-.07,9.38A17.64,17.64,0,0,1,29,66.07H42.05A19.9,19.9,0,0,1,42.47,63Z" transform="translate(0.18 -0.07)"/><path class="cls-6" d="M36.1,60.23l1.6-1.58a2.35,2.35,0,0,0-2.24-1.46,2.4,2.4,0,0,0-2.58,1.34l1.63,1.67-2,3.86,1.53,2h2.55L38.31,64Z" transform="translate(0.18 -0.07)"/><path class="cls-7" d="M29.92,55.34a8.62,8.62,0,0,0,3.41,4.58l1.88-2.34,2.46,2.32A7.15,7.15,0,0,0,41,54.6C41,53.18,29.16,52.42,29.92,55.34Z" transform="translate(0.18 -0.07)"/><path class="cls-8" d="M30,51.87c-2.1,3.22,3.21,7.28,3.21,7.28l2.06-1.85,2.34,1.93s4.81-3,3.11-7C39.13,48.57,32.07,48.63,30,51.87Z" transform="translate(0.18 -0.07)"/><path class="cls-9" d="M34,48c-1.3.38-2.16,2-2.25,3.75-.12,2.17,2.21,5.07,3.83,5.13,1.22,0,6.39-4,2.76-7.94A4.64,4.64,0,0,0,34,48Z" transform="translate(0.18 -0.07)"/><path class="cls-10" d="M54.09,29.58c2.48-.66,5.29-6.07,1.07-5.77,1.14,1.71-1.56,2.5-2.44,1.21a.62.62,0,0,1-.14-.33c-.15-2.12-2.34-3.59-4-4.9a23,23,0,0,0-8.73-4.21c-5.49-1.25-12-.95-16.4,2.68-1.75,1.45-3.29,4.51-5.72,5.09-3,.7-4.64,3.74-2.28,5.65a1.72,1.72,0,0,1-2.61-1.29c-2.58,1.79-3.54,5.25,0,6.82C8.68,36.68,9.72,41.06,14.17,43c-2.09,1.93-1,5.22,1.07,6.53-.16-1.37,1.12-4.43,3.49-2.87,1.46,1,.69,3.53-1.29,2.24-.53,2.32,3.4,3.77,4.55,1.84-.13,1.74,1.06,2.41,2.68,2.31,2.4-.16,3.24-1.77,4.85-2.26A25.41,25.41,0,0,1,36.09,50c4-.06,7.41,3.87,11.37,2.16,1.53-.65,2.27-1.64,2.11-3.13-1.08.77-3.91-.34-1.6-2.15,1.15-.9,2.86-.07,4-.75,1.38-.81.82-3.71.92-3.77,1-.62,2.64-.67,2.74,1.07,2-4,.1-5.16-2.09-5.46C58.44,37.23,59.39,30.53,54.09,29.58Z" transform="translate(0.18 -0.07)"/><path class="cls-4" d="M34.48,15.14c-8.09.74-14.38,7.62-13.88,18.51s8.4,19.57,17,18.62c7.09-.79,13.14-9.63,11.8-21.55C48.16,20,42.57,14.4,34.48,15.14Z" transform="translate(0.18 -0.07)"/><path class="cls-4" d="M18.52,31.93c-3.52,1.61-1.89,7.65,1.06,8.55a5.89,5.89,0,0,0,2.89,0,.54.54,0,0,1,.05-.11c.4-.86-.5-4.91-.75-5.74C21.15,32.57,20.2,31.16,18.52,31.93Z" transform="translate(0.18 -0.07)"/><path class="cls-11" d="M20.52,34c-.94-.51-3.4.16-2.36,2.14.69-1.74,1.69-.51,1.47.73-.16.84-1.06.8-.22,1.93.45.62,1.44.46,1.95.17C23,38.11,21.67,34.66,20.52,34Z" transform="translate(0.18 -0.07)"/><path class="cls-12" d="M31.48,19.38a22.62,22.62,0,0,0-6.17,2.05c-2.88,1.45-3.07,3-4.47,5.71-.7,1.39-2.41,2.78-.77,4.24-1.66.63-2,3.47-1,4.76a1.76,1.76,0,0,0,1.09.69,2.8,2.8,0,0,0-.23,2.43c.41.9,1.13,1.7,2,1.54a5.48,5.48,0,0,0,.82,2.59c1.15,1.47,3.2,2,4.5.9a1.81,1.81,0,0,0-.5-3.26c-.15.46-.69.95-1.18.59s.2-2,.19-2.63c0-1.66-1.06-1-2-1.88.49-.46,1.18-1,1.16-1.82,0-1-.72-1.15-1.33-1.67-1-.87-.71-.71-.16-1.63.68-1.14,1.11-2.62-.26-3.5.66-.07,1.35-.37,1.45-1.09,1.19.63,2.57-.61,3-1.68-.11.33,1.31-.29,1.4-.36a4.11,4.11,0,0,0,1.07-1.69c.1,1.49,1.64,2.49,2.83,1.33.77,1.84,2.34,1.79,4.05,1.37.59,2.11-1.21,1.24-1.81,2.3-1,1.76,2.62,2.52,3.59,2.18A2.81,2.81,0,0,0,40.43,28c.14,1.38,2.12.74,2.83.22.41,1.94,2.21,2.34,3.61,1,.25,3.19,4.42,3.14,3.58-.58C48.54,20.12,39.39,17.9,31.48,19.38Z" transform="translate(0.18 -0.07)"/><path class="cls-10" d="M51.49,15.91c1.78-3.71-5.54-6.55-8.32-4.53-.44-4.57-6.2-4.84-9-1.6a5.57,5.57,0,0,0-3.66-2.12,4.65,4.65,0,0,0-4.34,1.27c1.54,0,4.13,2.94-.49,2.51-1.91-.18-3.05-.91-5,.12-1.56.84-2.61,2.31-1.14,3.74,0,0-3.43-.2-3.95,2.89-.21,1.27.31,1.58-.95,2.53a3,3,0,0,1-2.86.67,5.07,5.07,0,0,0,1.75,3.26,3.48,3.48,0,0,0,3.77.11c-.12.78,2.21,7.41,3.23,6.71-1.69,1.16-2.41,3.5-.74,4.57a3.22,3.22,0,0,0,1,.41c-2.56.95-.53,4.76,2,3.51-2.19,2.61,4.34,5.67,4.47,2.53a1.94,1.94,0,0,0-1.38-2c.43.09.59,2-.55,1.53-1.69-.71,1.26-3-.29-4-.75-.46-3,0-2.15-1.35.59-1,1.86-1.52.34-2.73-.45-.36-1.23-.4-1.28-1.1s.78-1,1.08-1.38c1.06-1.49-.59-3.25-1.94-3.79.87-.05,3.33.37,3-1.27,1.36,1.18,3.36-.49,2.81-2.09.25.73,1.55.49,2,.2.8-.55.73-1.62,1.14-2.42a2.77,2.77,0,0,0,1.19,2.19,1.5,1.5,0,0,0,2.19-.56c.51,1.77,2.26,3.22,3.82,1.43a2.3,2.3,0,0,1,.06,2.32c-.75,1-1.74-.05-2.37.42-.79.6.65,1.85,1.18,2a3.14,3.14,0,0,0,3.13-1.07,4,4,0,0,0,.43-2.35c.86,1.4,2.31,2.34,3.75.88,1,1.31,2.07,1.94,3.56.64.71,1.19.59,2.79,2.31,3,2,.29,1.88-2,1.53-3.36-.46-1.68-1.07-4.95.87-6.42,1.2-.92,3-.33,2.42,1.25a3.15,3.15,0,0,0,1.17-4.36A5.12,5.12,0,0,0,51.49,15.91Z" transform="translate(0.18 -0.07)"/><path class="cls-13" d="M30.28,14.34v0C30.29,14.28,30.28,14.28,30.28,14.34Z" transform="translate(0.18 -0.07)"/><path class="cls-13" d="M50.72,24.89a11.58,11.58,0,0,0-.21-2.46c-.29-1.29-1-1.63-2.23-1.59A3.62,3.62,0,0,1,54,20.15c.64-2.3-2.17-4.35-4.44-3.76.48-1.33.87-3-.45-4a4.8,4.8,0,0,0-5.19-.3c-1.25.75-2.64,2.26-4.42,1.16,1.06.65,3.59-2.94.59-4.22-1.86-.81-3.48.24-4.75,1.48a4.43,4.43,0,0,0-1,1.32c-1.27-2.41-3.22-3.88-6.3-3.15,2.34,0,3.31,3.68,1.21,4.71-1.23.59-2.35-.71-3.34-1.15a5.51,5.51,0,0,0-3.33-.31,4.28,4.28,0,0,0-2.53,2c1.67-.21,2.63,3.07,6.29,2a4.2,4.2,0,0,1-4.6.77,3.58,3.58,0,0,0-3.22-.24c-1.55.85-1.15,3-1.92,4.37S15.26,22.21,14,22.57a4.74,4.74,0,0,0,3.73.8c-1.1.11-1.75,1.66-1.84,2.51-.13,1.11.83,2,.67,3-.14.87-1.32,1.44-2.13,1.41a2,2,0,0,0,2.16.37c.94-.32,1.14-1.55,1.92-1.72,1.06-.23,2.16,1.54,2.14,2.36,1.59-.77-.29-3.22-1.23-3.93,1,0,3.92-.12,3.73-1.59.11.88,2,0,2.26-.48a1.71,1.71,0,0,0-.5-2.12c.59.08,1.69.65,2.15.1s-.08-1.55-.33-2c4.78,1.84,3.41-3.1.48-3,2.22-.18,2.81-.52,3.08-3.91v0c0-.06,0-.06,0,0v0c.16,2-.36,3.95,3,3.64-4.83,1.7-2.92,5.61,1.9,4.48-.73.17-.78,1.55.31,2.34a2.37,2.37,0,0,0,2.4-.14c.86,1.32,1.12,2.48.1,3.64,1.16.06,1.59-1.66,1.77-2.5.87.52,1.67,1.33,2.75.9.83-.33,1.27-1.22,1.8-1.84,0,1.45.56,2.53,1.44,2.72a2.7,2.7,0,0,0,2.66-.93,3.79,3.79,0,0,0,1.13,2.92,2.61,2.61,0,0,0,3.26.53,1.27,1.27,0,0,1-1.19-.72c2-.2,3.63-1.28,3.45-3.37C53.65,26.69,50.81,27,50.72,24.89Z" transform="translate(0.18 -0.07)"/><path class="cls-10" d="M41.89,22.07c.92,3.24,3.71,4.11,5.37,1.46C45.52,25.09,42.68,23.77,41.89,22.07Z" transform="translate(0.18 -0.07)"/><path class="cls-10" d="M20.36,25.71c2,1.65,4.31.07,3.33-2.32C23.47,24.94,21.57,26.17,20.36,25.71Z" transform="translate(0.18 -0.07)"/><path class="cls-10" d="M47.44,24.7c-1.2,2.22,1,4,3.2,2.48C49,27.37,47.27,25.93,47.44,24.7Z" transform="translate(0.18 -0.07)"/><path class="cls-10" d="M44.72,19.55a4.55,4.55,0,0,0,5.55,1.22l-.08-1.49A6.94,6.94,0,0,1,44.72,19.55Z" transform="translate(0.18 -0.07)"/><path class="cls-10" d="M45.77,15.21A3.4,3.4,0,0,0,50,16.32l.25-1.69A4.3,4.3,0,0,1,45.77,15.21Z" transform="translate(0.18 -0.07)"/><path class="cls-10" d="M15.58,23.44,16,24.9c2.37.05,4-.93,4.73-3A6.77,6.77,0,0,1,15.58,23.44Z" transform="translate(0.18 -0.07)"/><path class="cls-13" d="M12.47,29.74l-.05-.95c-1,1.1-1.74,2.34-1,3.7.48.89,1.82,1.85,2.9,1.08.44-.31.58-1.11.68-1.58a.15.15,0,0,1-.06,0C13.6,32.08,12.17,31,12.47,29.74Z" transform="translate(0.18 -0.07)"/><path class="cls-13" d="M13.91,35l-.8.48c-1.94.05-2.92,3.24-2.09,4.62a4,4,0,0,0,2.58,1.61,4.75,4.75,0,0,1-1-3.65C12.87,36.94,13.88,36.14,13.91,35Z" transform="translate(0.18 -0.07)"/><path class="cls-13" d="M55.51,31.2a4.53,4.53,0,0,0-1.73-.71v.32c1.72,2.2,1.39,3.87.43,6.13,0,0,.08.08.08.05C56.69,36,57.84,32.8,55.51,31.2Z" transform="translate(0.18 -0.07)"/><path class="cls-13" d="M54.3,39l-.81-.21c-.35,1.88,2,1.44,2.3,2.82C56.2,40.42,56,38.87,54.3,39Z" transform="translate(0.18 -0.07)"/><path class="cls-13" d="M14.26,44.07a3,3,0,0,0,.18,4c.05-.6.44-1.07.44-1.69s-.41-1-.34-1.65Z" transform="translate(0.18 -0.07)"/><path class="cls-10" d="M42.72,29.84c2.16.21,4-.43,7.21-.16C48.74,28.18,44.34,28.15,42.72,29.84Z" transform="translate(0.18 -0.07)"/><path class="cls-11" d="M37.91,38.55c-.73,0-1-.3-1.54,0s.61,1.28,1.52,1.21,1.87-.94,1.6-1.24S38.73,38.54,37.91,38.55Z" transform="translate(0.18 -0.07)"/><path class="cls-10" d="M23.44,29.38c4,.09,5.42.27,8.23.2C30.19,27.68,25.23,27.81,23.44,29.38Z" transform="translate(0.18 -0.07)"/><path class="cls-14" d="M37.34,41.09c-2.9.06-7.17.88-9.43-.46,3.72,6.39,6.05,7.59,9,7.82,3.72.28,5-2.3,5.62-4.24a11.35,11.35,0,0,1,2.91-3.39C43.13,41.36,40.85,41,37.34,41.09Z" transform="translate(0.18 -0.07)"/><path class="cls-15" d="M29.64,41.76s2.24,4.3,6.87,4.46c3,.1,4.94-.88,5.51-2.31a4,4,0,0,1,1.9-2.13A29.19,29.19,0,0,1,29.64,41.76Z" transform="translate(0.18 -0.07)"/><path class="cls-16" d="M31.36,42.16A2.31,2.31,0,0,0,33.13,44a14.89,14.89,0,0,0,6.74.39c1.59-.23,2.4-2.24,2.4-2.24A31.22,31.22,0,0,1,31.36,42.16Z" transform="translate(0.18 -0.07)"/><path class="cls-16" d="M37.72,44.51c-2.13.05-3.89-.12-4.94-.84-.75-.51-.83,0-.67.37,0,0,.66,1.77,4.18,2.23s5.16-1.65,4.77-2S39.68,44.47,37.72,44.51Z" transform="translate(0.18 -0.07)"/><path class="cls-17" d="M31.36,42.16a2.16,2.16,0,0,0,.41.92s7.94-.58,9.83.17a4.34,4.34,0,0,0,.67-1.12A36.18,36.18,0,0,1,31.36,42.16Z" transform="translate(0.18 -0.07)"/><path class="cls-17" d="M33.41,43.94c2.82,1.8,6.25.37,6.25.37A11,11,0,0,1,33.41,43.94Z" transform="translate(0.18 -0.07)"/><path class="cls-18" d="M28.21,31.44c-2.14-.8-3.23,3.13-1.74,4.3a2.84,2.84,0,0,1,2.07.06C29.9,35,29.79,32,28.21,31.44Z" transform="translate(0.18 -0.07)"/><path class="cls-19" d="M28.54,32.74c-.89.14-.55,1.95.37,1.49C29.57,33.9,29.32,32.63,28.54,32.74Z" transform="translate(0.18 -0.07)"/><path class="cls-18" d="M47,31.49c-2.14-1.37-4,3.64-1.64,4.36a2.56,2.56,0,0,1,1.88-.3C48.05,34.48,48.14,32.22,47,31.49Z" transform="translate(0.18 -0.07)"/><path class="cls-19" d="M46.87,32.55c-.85,0-.72,1.9.19,1.56C47.72,33.86,47.62,32.53,46.87,32.55Z" transform="translate(0.18 -0.07)"/><path class="cls-20" d="M47.05,31.38c-2-.76-2.6,1.57-2.6,1.57a1.83,1.83,0,0,1,2.29-.43,4.06,4.06,0,0,0,5-.36C49.32,33,48.11,31.78,47.05,31.38Z" transform="translate(0.18 -0.07)"/><path class="cls-20" d="M26.78,31.55a6.37,6.37,0,0,1-5,.89,4.46,4.46,0,0,0,5.23.19,2,2,0,0,1,2.38.19S28.83,30.51,26.78,31.55Z" transform="translate(0.18 -0.07)"/></g></svg>