<svg id="Layer_1" data-name="Layer 1" xmlns="http://www.w3.org/2000/svg" xmlns:xlink="http://www.w3.org/1999/xlink" viewBox="0 0 66 66"><defs><style>.cls-1{fill:none;}.cls-2{clip-path:url(#clip-path);}.cls-3,.cls-9{fill:#fff;}.cls-4{fill:#ed904e;}.cls-5{fill:url(#linear-gradient);}.cls-6{fill:#3a3a4a;}.cls-7,.cls-9{opacity:0.1;}.cls-8{fill:#de3e78;}.cls-10{fill:#331f1b;}.cls-11{fill:#85260f;opacity:0.3;}.cls-12{fill:#593c2d;}.cls-13{fill:#fca760;}.cls-14{fill:#e6d2c3;opacity:0.7;}.cls-15{fill:#2b221c;}.cls-16{fill:#960800;opacity:0.4;}.cls-17{fill:#8f2621;}.cls-18{fill:#fff9f0;}.cls-19{fill:#e8dac5;}.cls-20{fill:#f7a25b;}.cls-21{fill:#121b21;}</style><clipPath id="clip-path" transform="translate(0.18 -0.07)"><circle class="cls-1" cx="32.82" cy="33.07" r="33"/></clipPath><linearGradient id="linear-gradient" x1="34.71" y1="51.94" x2="34.62" y2="55.67" gradientUnits="userSpaceOnUse"><stop offset="0" stop-color="#e37c32"/><stop offset="1" stop-color="#ed904e"/></linearGradient></defs><g class="cls-2"><rect class="cls-3" width="66" height="66"/><path class="cls-4" d="M30.37,57.05l-1.43-2.64c-2.19,1-2.63,3.26-3.11,5.6a13.12,13.12,0,0,1-2.39,6.06h3.72a18.89,18.89,0,0,0,1.77-5.51C29.32,58.63,29.6,57.42,30.37,57.05Z" transform="translate(0.18 -0.07)"/><path class="cls-4" d="M38.49,57.05l1.43-2.64c2.19,1,2.63,3.26,3.11,5.6a13.12,13.12,0,0,0,2.39,6.06H41.7a18.89,18.89,0,0,1-1.77-5.51C39.54,58.63,39.26,57.42,38.49,57.05Z" transform="translate(0.18 -0.07)"/><path class="cls-5" d="M34.46,49.8c2.73,0,1.33,2.48,3.4,3.39S44,56.77,40.3,60.1s-8.39,2.94-11.08.26-2.71-5.31,1.82-7C33,52.6,31.78,49.8,34.46,49.8Z" transform="translate(0.18 -0.07)"/><path class="cls-6" d="M39.07,53.62a5.59,5.59,0,0,0-1.23-.56c.38,1.68.95,5.76-3.25,5.76s-3.83-3.37-3.53-5.64a1.49,1.49,0,0,0-.92.42c-1.19,3.61-3.17,4.62-1.35,9a10.29,10.29,0,0,1,1.09,3.49h9a10.29,10.29,0,0,1,1.27-3.61C42.07,58.18,40.07,55.91,39.07,53.62Z" transform="translate(0.18 -0.07)"/><path class="cls-7" d="M32.83,64.18c.19,0,.36-.09.54-.12-1-.18-2.31-.17-2.73-.89,1.23,0,2.46.18,3.73.21a31.1,31.1,0,0,0,4.21-.25c-.2,0-1.24.67-1.62.78A8.41,8.41,0,0,1,32.83,64.18Z" transform="translate(0.18 -0.07)"/><path class="cls-8" d="M34.59,59.28a4,4,0,0,1-3.18-1.13c-1.09-1.25-.82-3.17-.61-4.7l0-.29a.45.45,0,1,1,.9.12l0,.29c-.18,1.36-.41,3,.4,4a3.16,3.16,0,0,0,2.49.83,2.82,2.82,0,0,0,2.31-.87c1-1.21.46-3.48.26-4.34a.46.46,0,0,1,.35-.54.44.44,0,0,1,.54.34c.22,1,.81,3.56-.43,5.11A3.69,3.69,0,0,1,34.59,59.28Z" transform="translate(0.18 -0.07)"/><path class="cls-8" d="M28.06,59.68h0a.46.46,0,0,1-.44-.48,9,9,0,0,1,.92-3.27,23.2,23.2,0,0,0,.86-2.2.46.46,0,0,1,.58-.29.45.45,0,0,1,.29.57,21.92,21.92,0,0,1-.89,2.28,8.08,8.08,0,0,0-.84,3A.45.45,0,0,1,28.06,59.68Z" transform="translate(0.18 -0.07)"/><path class="cls-8" d="M41,59.68a.45.45,0,0,1-.46-.43,8.08,8.08,0,0,0-.84-3A21.92,21.92,0,0,1,38.77,54a.45.45,0,0,1,.29-.57.46.46,0,0,1,.58.29c.29.89.59,1.58.85,2.2a8.57,8.57,0,0,1,.92,3.27.45.45,0,0,1-.43.48Z" transform="translate(0.18 -0.07)"/><path class="cls-9" d="M29.11,60.92c.49,1.49,3,1.88,5.22,1.84,4.34-.08,6-1.63,5.24-3.47-.2-.5-1.12-.83-2.23-.45a12.66,12.66,0,0,1-6.69-.08C29.43,58.47,28.75,59.79,29.11,60.92Z" transform="translate(0.18 -0.07)"/><path class="cls-10" d="M48.91,17.6a3.51,3.51,0,0,0-.22-.48,16.08,16.08,0,0,0,3.94-2.34,46.31,46.31,0,0,1-6.23-2,9.19,9.19,0,0,0,2.5-1.43C44.73,11.16,38.69,9,35.36,8.71c-5.52-.4-11.47,1.22-15.42,5.44-7.13,7.62-6.06,21.79,2.59,29.12,3.06,2.6,6.67,3.42,10.51,4.2,4.78,1,8.77.15,11.85-3.92a27.52,27.52,0,0,0,4.44-21.43C49,20.68,49.46,19,48.91,17.6Z" transform="translate(0.18 -0.07)"/><path class="cls-4" d="M21.42,38c.82,7.22,6.83,14.82,14.57,14.82,7.53,0,13-10.9,12.11-19.78-1-9.64-5.36-17.76-15.38-16C25.57,18.23,20.32,28.36,21.42,38Z" transform="translate(0.18 -0.07)"/><path class="cls-11" d="M47.92,21.49c-2.42-.91-4.2-1.93-6.62-2.77a27.67,27.67,0,0,0-8-1.55c-2.6-.1-5.42-.31-7.87.73-1.93.82-3.22,1.65-3.67,3.65-.75,3.26-.53,8.4,1.21,11.29a21.53,21.53,0,0,1,1.7-7c2.84,1.06,9,1.24,13.06.35a6.79,6.79,0,0,1-1.5-1.08,42.43,42.43,0,0,0,9.62-1C47.75,23.72,50.56,22.49,47.92,21.49Z" transform="translate(0.18 -0.07)"/><path class="cls-4" d="M19.63,41.05a6.81,6.81,0,0,0,2.82.37s0-.05.06-.08c.43-.66-.08-4.39-.27-5.1-.5-1.77-1.53-2.72-3.22-2.3C15.5,34.83,16.79,40,19.63,41.05Z" transform="translate(0.18 -0.07)"/><path class="cls-11" d="M21,39.82c1.29-.77.15-3.51-.8-4-.78-.38-2.76.23-1.87,1.79.52-1.42,1.37-.46,1.21.55-.1.67-.83.67-.13,1.55A1.29,1.29,0,0,0,21,39.82Z" transform="translate(0.18 -0.07)"/><path class="cls-10" d="M55.27,19.51a16.25,16.25,0,0,1-3.72,0,6,6,0,0,0,3.09-2.12A26.13,26.13,0,0,1,48,16.84a15.16,15.16,0,0,1-5.88-2.35c-3.93-2.53-8.37-2.69-12.89-2a17.43,17.43,0,0,0-5.52,1.6c-1.47.78-2.08,2.67-2.78,4.09-1.64,3.34-.33,15.68.22,16.21a4.29,4.29,0,0,1,.9,1.88,2.23,2.23,0,0,0,1.58.45,19.43,19.43,0,0,1-.77-6.22,27.28,27.28,0,0,1,1.35-6.78c2.52,2.39,8.36,2.2,11.21,1.81-.41-.35-1.08-.93-1.44-1.31C38.72,24.32,51.73,23.42,55.27,19.51Z" transform="translate(0.18 -0.07)"/><path class="cls-12" d="M30.81,10.31c9.46-.7,16.86,4.8,17.82,5C48,16.63,46.28,17,45.3,17.93a11.55,11.55,0,0,0,5.13.33c-.34.75-1.73,1.27-2.47,1.6-4.56,2.05-8.83,1.92-13.55.91a17.66,17.66,0,0,0,2.13,1.32c-3.08.51-7.08.16-9.61-1.92.63,1.56,2.06,2.41,2.8,3.87a12.43,12.43,0,0,1-7.25-2.47,31.44,31.44,0,0,0-1.4,10c-2.53,0-4.11-2.87-4.11-2.89a15.56,15.56,0,0,1,4-14.26A17.2,17.2,0,0,1,30.81,10.31Z" transform="translate(0.18 -0.07)"/><path class="cls-13" d="M47.75,37.44c-.29-.9-1.47-1.23-2.34-1.35-1.15-.16-2.82.06-2.36,1.82.25.94,4.61,2.18,4.76.1A1.32,1.32,0,0,0,47.75,37.44Z" transform="translate(0.18 -0.07)"/><path class="cls-13" d="M30.27,37.53A1.74,1.74,0,0,0,30,37c-.69-.77-2-.69-3-.53-1.23.22-2.83,1-1.58,2.51C26.07,39.8,31,39.57,30.27,37.53Z" transform="translate(0.18 -0.07)"/><path class="cls-10" d="M28.91,35.28a3.23,3.23,0,0,0-2-.22c-1.37-1.1,0-4.29,2-3.45A2.1,2.1,0,0,1,28.91,35.28Z" transform="translate(0.18 -0.07)"/><path class="cls-14" d="M28.08,32.22a.68.68,0,0,1,.59,1.19C27.86,33.9,27.25,32.45,28.08,32.22Z" transform="translate(0.18 -0.07)"/><path class="cls-10" d="M46.19,35.28a3.23,3.23,0,0,0-2-.22c-1.37-1.09,0-4.29,2-3.44A2.09,2.09,0,0,1,46.19,35.28Z" transform="translate(0.18 -0.07)"/><path class="cls-14" d="M45.32,32.26a.67.67,0,0,1,.59,1.18C45.1,33.94,44.5,32.48,45.32,32.26Z" transform="translate(0.18 -0.07)"/><path class="cls-15" d="M29.43,30.23c.71,0,1.51-.08,1.6-.59.11-.69-.38-.94-1.16-.95-1.08,0-5.63.45-5.76.91C23.93,30.24,25.92,30.35,29.43,30.23Z" transform="translate(0.18 -0.07)"/><path class="cls-15" d="M48.29,29.79c-.11-.45-3.77-.89-4.64-.87-.62,0-1,.27-.91.95.08.51.73.56,1.29.58C46.85,30.56,48.44,30.43,48.29,29.79Z" transform="translate(0.18 -0.07)"/><path class="cls-16" d="M37.17,40.73c-3.17.14-7.27.79-9.79-.5,3.2,5.08,5.7,7.93,9.43,7.89,4.08,0,5.52-2.8,6.11-4.79a8,8,0,0,1,2.54-3.18C43.07,41,40.9,40.56,37.17,40.73Z" transform="translate(0.18 -0.07)"/><path class="cls-17" d="M28.73,41.25a34.26,34.26,0,0,0,15.61-.42,4.19,4.19,0,0,0-2,2.21c-.59,1.48-2.71,2.53-6,2.51A9.47,9.47,0,0,1,28.73,41.25Z" transform="translate(0.18 -0.07)"/><path class="cls-18" d="M30.62,41.61s.16,1,2,1.45a17.77,17.77,0,0,0,7.39.19,3.85,3.85,0,0,0,2.56-2A36.75,36.75,0,0,1,30.62,41.61Z" transform="translate(0.18 -0.07)"/><path class="cls-18" d="M31.5,43.48c-.19-.34-.12-.89.72-.39a10.15,10.15,0,0,0,5.44.92c2.15-.11,3.2-.95,3.63-.59s-1.46,2.54-5.16,2.2C32.27,45.26,31.5,43.48,31.5,43.48Z" transform="translate(0.18 -0.07)"/><path class="cls-19" d="M31.27,42.47s8.4-.88,10.49-.18a3.29,3.29,0,0,0,.78-1.06,42.23,42.23,0,0,1-11.92.38A1.32,1.32,0,0,0,31.27,42.47Z" transform="translate(0.18 -0.07)"/><path class="cls-19" d="M33,43.47a12.84,12.84,0,0,0,6.84.17S36.14,45.21,33,43.47Z" transform="translate(0.18 -0.07)"/><path class="cls-11" d="M39.4,37.55c-.37-.65-1-.07-2.15-.19s-1-.66-1.71-.28-.28,2,1.51,2.15S39.72,38.11,39.4,37.55Z" transform="translate(0.18 -0.07)"/><path class="cls-20" d="M37.13,34.41c-.83,0-2.18,2.71-1.78,3.15,1,1.08,3.24.7,4,0C39.59,37.31,38.06,34.44,37.13,34.41Z" transform="translate(0.18 -0.07)"/><path class="cls-21" d="M50.05,29.63s-.55,2.92-4.29,2.68a2.19,2.19,0,0,0-2.14,1.57,2.36,2.36,0,0,1,2-2.69C46.77,31,48.35,31.54,50.05,29.63Z" transform="translate(0.18 -0.07)"/><path class="cls-21" d="M23.28,29.79s.72,2.87,4.44,2.41a2.17,2.17,0,0,1,2.22,1.44,2.37,2.37,0,0,0-2.13-2.57C26.63,31,25.08,31.59,23.28,29.79Z" transform="translate(0.18 -0.07)"/></g></svg>